<?xml version="1.0" encoding="UTF-8" standalone="no"?>
<!DOCTYPE svg PUBLIC "-//W3C//DTD SVG 1.1//EN" "http://www.w3.org/Graphics/SVG/1.1/DTD/svg11.dtd">
<svg width="14px" height="19px" version="1.1" xmlns="http://www.w3.org/2000/svg" xmlns:xlink="http://www.w3.org/1999/xlink" xml:space="preserve" xmlns:serif="http://www.serif.com/" style="fill-rule:evenodd;clip-rule:evenodd;stroke-linejoin:round;stroke-miterlimit:2;">
    <g id="powerpuck-right-eye" serif:id="powerpuck/right-eye">
        <g>
            <path id="right-eye" d="M4.383,8.973c-0.362,-0.104 -0.691,-0.297 -0.957,-0.563c-0.807,-0.808 -2.541,-2.541 -2.541,-2.541c-0.487,-0.488 -0.487,-1.28 0,-1.768l1.768,-1.768c0.488,-0.487 1.28,-0.487 1.768,0c-0,0 2.271,2.272 4.57,4.571c0.56,0.559 0.67,1.427 0.269,2.109c-0.401,0.682 -1.213,1.007 -1.974,0.789c-1.208,-0.345 -2.285,-0.653 -2.903,-0.829Z" style="fill:#fff;"/>
            <path id="right-eye1" serif:id="right-eye" d="M8.604,4.752c-0.104,-0.362 -0.297,-0.691 -0.563,-0.956c-0.808,-0.808 -2.541,-2.541 -2.541,-2.541c-0.488,-0.488 -1.28,-0.488 -1.768,-0l-1.768,1.767c-0.488,0.488 -0.488,1.28 0,1.768c0,0 2.272,2.271 4.571,4.57c0.559,0.56 1.427,0.671 2.109,0.269c0.682,-0.401 1.006,-1.213 0.789,-1.974c-0.345,-1.208 -0.653,-2.284 -0.829,-2.903Z" style="fill:#fff;"/>
        </g>
        <g>
            <path id="right-eye2" serif:id="right-eye" d="M8.604,14.986c-0.104,0.362 -0.297,0.691 -0.563,0.957c-0.808,0.807 -2.541,2.541 -2.541,2.541c-0.488,0.488 -1.28,0.488 -1.768,-0l-1.768,-1.768c-0.488,-0.488 -0.488,-1.28 0,-1.768c0,0 2.272,-2.271 4.571,-4.57c0.559,-0.56 1.427,-0.67 2.109,-0.269c0.682,0.402 1.006,1.213 0.789,1.974c-0.345,1.208 -0.653,2.285 -0.829,2.903Z" style="fill:#fff;"/>
            <path id="right-eye3" serif:id="right-eye" d="M4.383,10.766c-0.362,0.103 -0.691,0.297 -0.957,0.562c-0.807,0.808 -2.541,2.541 -2.541,2.541c-0.487,0.488 -0.487,1.28 0,1.768l1.768,1.768c0.488,0.488 1.28,0.488 1.768,-0c-0,-0 2.271,-2.272 4.57,-4.57c0.56,-0.56 0.67,-1.427 0.269,-2.11c-0.401,-0.682 -1.213,-1.006 -1.974,-0.789c-1.208,0.345 -2.285,0.653 -2.903,0.83Z" style="fill:#fff;"/>
        </g>
    </g>
</svg>
