<?xml version="1.0" encoding="UTF-8" standalone="no"?>
<!DOCTYPE svg PUBLIC "-//W3C//DTD SVG 1.1//EN" "http://www.w3.org/Graphics/SVG/1.1/DTD/svg11.dtd">
<svg width="151px" height="151px" version="1.1" xmlns="http://www.w3.org/2000/svg" xmlns:xlink="http://www.w3.org/1999/xlink" xml:space="preserve" xmlns:serif="http://www.serif.com/" style="fill-rule:evenodd;clip-rule:evenodd;stroke-linecap:round;stroke-linejoin:round;stroke-miterlimit:1.5;">
    <path id="HoleDonut" d="M72.038,0.079c41.626,-1.91 76.972,30.333 78.883,71.959c1.91,41.626 -30.333,76.972 -71.959,78.883c-41.626,1.91 -76.972,-30.333 -78.883,-71.959c-1.91,-41.626 30.333,-76.972 71.959,-78.883Zm1.553,33.838c22.95,-1.053 42.438,16.724 43.492,39.674c1.053,22.95 -16.724,42.438 -39.674,43.492c-22.95,1.053 -42.438,-16.724 -43.492,-39.674c-1.053,-22.95 16.724,-42.438 39.674,-43.492Z" style="fill:#5f5f5f;"/>
    <clipPath id="_clip1">
        <path d="M72.038,0.079c41.626,-1.91 76.972,30.333 78.883,71.959c1.91,41.626 -30.333,76.972 -71.959,78.883c-41.626,1.91 -76.972,-30.333 -78.883,-71.959c-1.91,-41.626 30.333,-76.972 71.959,-78.883Zm1.553,33.838c22.95,-1.053 42.438,16.724 43.492,39.674c1.053,22.95 -16.724,42.438 -39.674,43.492c-22.95,1.053 -42.438,-16.724 -43.492,-39.674c-1.053,-22.95 16.724,-42.438 39.674,-43.492Z"/>
    </clipPath>
    <g clip-path="url(#_clip1)">
        <path d="M115.42,-16.928l-9.46,23.338m-12.737,31.422l-31.232,77.049m-12.737,31.422l-13.221,32.616m79.387,-195.847l-9.46,23.338" style="fill:none;stroke:#434343;stroke-width:1.72px;"/>
        <path d="M153.814,-6.678l-25.241,28.5m-22.514,25.423l-54.914,62.005m-22.515,25.423l-20.367,22.997m145.551,-164.348l-25.241,28.5" style="fill:none;stroke:#434343;stroke-width:1.72px;"/>
        <path d="M34.389,-13.208l9.338,20.206m14.214,30.753l34.933,75.584m14.213,30.753l17.459,37.775m-90.157,-195.071l9.338,20.206" style="fill:none;stroke:#434343;stroke-width:1.72px;"/>
        <path d="M-3.658,-2.452l24.999,25.37m23.781,24.135l58.374,59.243m23.781,24.135l27.61,28.02m-27.61,-28.02l27.61,28.02" style="fill:none;stroke:#434343;stroke-width:1.72px;"/>
        <path d="M-22.53,43.462l25.9,9.685m31.828,11.903l77.565,29.006m31.828,11.903l28.395,10.618m-28.395,-10.618l28.395,10.618" style="fill:none;stroke:#434343;stroke-width:1.72px;"/>
        <path d="M-15.036,128.395l26.224,-13.34m30.375,-15.453l73.41,-37.344m30.377,-15.453l23.876,-12.146m-23.876,12.146l23.876,-12.146" style="fill:none;stroke:#434343;stroke-width:1.72px;"/>
        <path d="M-20.306,88.484l21.142,-1.743m33.898,-2.795l82.362,-6.789m33.896,-2.794l34.057,-2.807m-34.057,2.807l34.057,-2.807" style="fill:none;stroke:#434343;stroke-width:1.72px;"/>
        <path d="M43.727,6.998c8.647,-4.019 18.202,-6.455 28.311,-6.919c12.054,-0.553 23.581,1.758 33.922,6.331l-12.737,31.422c-5.937,-2.802 -12.623,-4.236 -19.632,-3.915c-5.589,0.257 -10.872,1.607 -15.65,3.834l-14.214,-30.753Z" style="fill:#383838;"/>
        <path d="M105.96,6.41c8.45,3.736 16.107,8.983 22.613,15.412l-22.514,25.423c-3.621,-3.911 -7.978,-7.12 -12.836,-9.413l12.737,-31.422Z" style="fill:#454545;"/>
        <path d="M128.573,21.822c7.135,7.05 12.885,15.522 16.777,24.983l-30.377,15.453c-1.897,-5.655 -4.969,-10.751 -8.914,-15.013l22.514,-25.423Z" style="fill:#595959;"/>
        <path d="M145.35,46.805c3.215,7.817 5.161,16.309 5.571,25.233c0.035,0.777 0.059,1.552 0.071,2.325l-33.896,2.794c0.045,-1.178 0.042,-2.367 -0.013,-3.566c-0.182,-3.954 -0.911,-7.755 -2.11,-11.333l30.377,-15.453Z" style="fill:#5f5f5f;"/>
        <path d="M150.992,74.363c0.174,11.21 -2.123,21.922 -6.401,31.596l-31.828,-11.903c2.567,-5.138 4.098,-10.866 4.333,-16.899l33.896,-2.794Z" style="fill:#595959;"/>
        <path d="M144.591,105.959c-4.098,9.268 -10.014,17.583 -17.314,24.472l-23.781,-24.135c3.802,-3.461 6.955,-7.611 9.267,-12.24l31.828,11.903Z" style="fill:#434343;"/>
        <path d="M127.277,130.431c-5.901,5.569 -12.707,10.205 -20.19,13.657l-14.213,-30.753c3.911,-1.8 7.487,-4.185 10.622,-7.039l23.781,24.135Z" style="fill:#434343;"/>
        <path d="M107.087,144.088c-8.598,3.967 -18.089,6.372 -28.125,6.833c-10.44,0.479 -20.486,-1.191 -29.708,-4.618l12.737,-31.422c4.818,1.656 10.022,2.449 15.418,2.202c5.517,-0.254 10.735,-1.572 15.465,-3.748l14.213,30.753Z" style="fill:#383838;"/>
        <path d="M49.254,146.303c-7.495,-2.785 -14.447,-6.732 -20.624,-11.63l22.515,-25.423c3.293,2.381 6.943,4.289 10.846,5.631l-12.737,31.422Z" style="fill:#434343;"/>
        <path d="M28.63,134.673c-6.881,-5.456 -12.801,-12.092 -17.442,-19.618l30.375,-15.453c2.65,3.721 5.892,6.981 9.582,9.648l-22.515,25.423Z" style="fill:#434343;"/>
        <path d="M11.188,115.055c-5.213,-8.452 -8.814,-18.027 -10.352,-28.314l33.898,-2.795c1.187,5.755 3.555,11.057 6.829,15.656l-30.375,15.453Z" style="fill:#595959;"/>
        <path d="M0.836,86.741c-0.381,-2.551 -0.636,-5.146 -0.757,-7.779c-0.412,-8.989 0.768,-17.685 3.291,-25.815l31.828,11.903c-1.02,3.935 -1.477,8.087 -1.281,12.359c0.103,2.232 0.38,4.416 0.817,6.537l-33.898,2.795Z" style="fill:#5f5f5f;"/>
        <path d="M3.37,53.147c3.556,-11.455 9.779,-21.787 17.971,-30.229l23.781,24.135c-4.696,5.015 -8.156,11.181 -9.924,17.997l-31.828,-11.903Z" style="fill:#595959;"/>
        <path d="M21.341,22.918c6.378,-6.572 13.95,-12 22.386,-15.92l14.214,30.753c-4.865,2.268 -9.208,5.444 -12.819,9.302l-23.781,-24.135Z" style="fill:#454545;"/>
    </g>
</svg>
