<?xml version="1.0" encoding="UTF-8" standalone="no"?>
<!DOCTYPE svg PUBLIC "-//W3C//DTD SVG 1.1//EN" "http://www.w3.org/Graphics/SVG/1.1/DTD/svg11.dtd">
<svg width="750px" height="7102px" version="1.1" xmlns="http://www.w3.org/2000/svg" xmlns:xlink="http://www.w3.org/1999/xlink" xml:space="preserve" xmlns:serif="http://www.serif.com/" style="fill-rule:evenodd;clip-rule:evenodd;stroke-linecap:round;stroke-linejoin:round;stroke-miterlimit:1.5;">
    <rect id="Level" x="-0" y="0" width="750" height="7101.67" style="fill:#222;"/>
    <path id="_-collision-" serif:id="{collision}" d="M580.577,4400.05l0,1716.83c0,15.913 6.322,31.175 17.574,42.427c11.252,11.252 26.513,17.573 42.426,17.573l15.25,0c18.214,0 33,14.787 33,33l0,66c0,18.214 -14.786,33 -33,33l-15.25,0c-15.913,0 -31.174,6.322 -42.426,17.574c-11.252,11.252 -17.574,26.513 -17.574,42.426l0,191.8c0,21.222 11.211,40.865 29.483,51.659c32.054,18.981 78.767,53.378 78.767,92.625l0,216.5c0,59.744 -48.505,108.25 -108.25,108.25l-406.5,-0c-59.744,-0 -108.25,-48.506 -108.25,-108.25l0,-216.5c0,-39.247 46.713,-73.644 78.767,-92.626c18.271,-10.794 29.482,-30.437 29.482,-51.658c-0,-38.078 0,-104.611 0,-191.3c0,-15.913 -6.321,-31.174 -17.573,-42.426c-11.252,-11.252 -26.514,-17.574 -42.427,-17.574c-8.861,0 -15.082,0 -15.082,0c-18.305,0 -33.167,-14.861 -33.167,-33.166l0,-66.334c0,-18.305 14.862,-33.166 33.167,-33.166l15.083,-0c33.137,-0 60,-26.863 60,-60c0,-645.326 0,-1712.67 0,-1712.67" style="fill:none;stroke:#a10745;stroke-width:26.76px;"/>
    <g id="Hole">
        <circle id="holePos" cx="133.994" cy="6244.42" r="40"/>
    </g>
    <g id="Hole1" serif:id="Hole">
        <circle id="holePos1" serif:id="holePos" cx="133.994" cy="6709.75" r="40"/>
    </g>
    <g id="Hole2" serif:id="Hole">
        <circle id="holePos2" serif:id="holePos" cx="619.327" cy="6244.42" r="40"/>
    </g>
    <g id="Hole3" serif:id="Hole">
        <circle id="holePos3" serif:id="holePos" cx="619.327" cy="6709.75" r="40"/>
    </g>
    <g id="Player">
        <circle id="start" cx="377.327" cy="6906.86" r="22.5" style="fill:#232323;stroke:#00e3ff;stroke-width:4.77px;"/>
        <g>
            <path d="M373.355,6897.95l-0,13.166c-0,0.69 -0.56,1.25 -1.25,1.25l-2.5,0c-0.69,0 -1.25,-0.56 -1.25,-1.25l-0,-13.166c-0,-0.69 0.56,-1.25 1.25,-1.25l2.5,-0c0.69,-0 1.25,0.56 1.25,1.25Z" style="fill:#fff;"/>
            <path d="M386.3,6897.95l0,13.166c0,0.69 -0.56,1.25 -1.25,1.25l-2.5,0c-0.69,0 -1.25,-0.56 -1.25,-1.25l0,-13.166c0,-0.69 0.56,-1.25 1.25,-1.25l2.5,-0c0.69,-0 1.25,0.56 1.25,1.25Z" style="fill:#fff;"/>
        </g>
    </g>
    <g id="Enemy">
        <circle id="enemyPos" cx="209.327" cy="6765.59" r="22.5" style="fill:#232323;stroke:#8148c8;stroke-width:4.77px;"/>
        <g>
            <path d="M204.842,6762.05c0.331,0.398 0.513,0.899 0.513,1.416c-0,1.87 -0,6.366 -0,6.366c-0,0.69 -0.56,1.25 -1.25,1.25l-2.5,0c-0.69,0 -1.25,-0.56 -1.25,-1.25l-0,-8.369c-0,-0.731 0.458,-1.384 1.145,-1.633c0.688,-0.249 1.458,-0.041 1.926,0.521c0.549,0.659 1.059,1.27 1.416,1.699Z" style="fill:#fff;"/>
            <path d="M213.813,6762.05c-0.332,0.398 -0.513,0.899 -0.513,1.416c0,1.87 0,6.366 0,6.366c0,0.69 0.56,1.25 1.25,1.25l2.5,0c0.69,0 1.25,-0.56 1.25,-1.25l0,-8.369c0,-0.731 -0.458,-1.384 -1.146,-1.633c-0.687,-0.249 -1.457,-0.041 -1.925,0.521c-0.549,0.659 -1.059,1.27 -1.416,1.699Z" style="fill:#fff;"/>
        </g>
    </g>
    <g id="Enemy1" serif:id="Enemy">
        <circle id="enemyPos1" serif:id="enemyPos" cx="209.327" cy="6253.59" r="22.5" style="fill:#232323;stroke:#8148c8;stroke-width:4.77px;"/>
        <g>
            <path d="M204.842,6250.05c0.331,0.398 0.513,0.899 0.513,1.416c-0,1.87 -0,6.366 -0,6.366c-0,0.69 -0.56,1.25 -1.25,1.25l-2.5,0c-0.69,0 -1.25,-0.56 -1.25,-1.25l-0,-8.369c-0,-0.731 0.458,-1.384 1.145,-1.633c0.688,-0.249 1.458,-0.041 1.926,0.521c0.549,0.659 1.059,1.27 1.416,1.699Z" style="fill:#fff;"/>
            <path d="M213.813,6250.05c-0.332,0.398 -0.513,0.899 -0.513,1.416c0,1.87 0,6.366 0,6.366c0,0.69 0.56,1.25 1.25,1.25l2.5,0c0.69,0 1.25,-0.56 1.25,-1.25l0,-8.369c0,-0.731 -0.458,-1.384 -1.146,-1.633c-0.687,-0.249 -1.457,-0.041 -1.925,0.521c-0.549,0.659 -1.059,1.27 -1.416,1.699Z" style="fill:#fff;"/>
        </g>
    </g>
    <g id="Enemy2" serif:id="Enemy">
        <circle id="enemyPos2" serif:id="enemyPos" cx="550.661" cy="6253.59" r="22.5" style="fill:#232323;stroke:#8148c8;stroke-width:4.77px;"/>
        <g>
            <path d="M546.175,6250.05c0.332,0.398 0.513,0.899 0.513,1.416c0,1.87 0,6.366 0,6.366c0,0.69 -0.56,1.25 -1.25,1.25l-2.5,0c-0.69,0 -1.25,-0.56 -1.25,-1.25l0,-8.369c0,-0.731 0.458,-1.384 1.146,-1.633c0.687,-0.249 1.457,-0.041 1.925,0.521c0.549,0.659 1.059,1.27 1.416,1.699Z" style="fill:#fff;"/>
            <path d="M555.146,6250.05c-0.331,0.398 -0.513,0.899 -0.513,1.416c0,1.87 0,6.366 0,6.366c0,0.69 0.56,1.25 1.25,1.25l2.5,0c0.69,0 1.25,-0.56 1.25,-1.25l0,-8.369c0,-0.731 -0.458,-1.384 -1.145,-1.633c-0.688,-0.249 -1.458,-0.041 -1.926,0.521c-0.549,0.659 -1.058,1.27 -1.416,1.699Z" style="fill:#fff;"/>
        </g>
    </g>
    <g id="Enemy3" serif:id="Enemy">
        <circle id="enemyPos3" serif:id="enemyPos" cx="551.994" cy="6765.59" r="22.5" style="fill:#232323;stroke:#8148c8;stroke-width:4.77px;"/>
        <g>
            <path d="M547.509,6762.05c0.331,0.398 0.512,0.899 0.512,1.416c0,1.87 0,6.366 0,6.366c0,0.69 -0.56,1.25 -1.25,1.25l-2.5,0c-0.689,0 -1.25,-0.56 -1.25,-1.25l0,-8.369c0,-0.731 0.458,-1.384 1.146,-1.633c0.688,-0.249 1.458,-0.041 1.926,0.521c0.548,0.659 1.058,1.27 1.416,1.699Z" style="fill:#fff;"/>
            <path d="M556.479,6762.05c-0.331,0.398 -0.512,0.899 -0.512,1.416c-0,1.87 -0,6.366 -0,6.366c-0,0.69 0.56,1.25 1.25,1.25l2.5,0c0.69,0 1.25,-0.56 1.25,-1.25l-0,-8.369c-0,-0.731 -0.458,-1.384 -1.146,-1.633c-0.688,-0.249 -1.458,-0.041 -1.926,0.521c-0.548,0.659 -1.058,1.27 -1.416,1.699Z" style="fill:#fff;"/>
        </g>
    </g>
    <g id="Enemy4" serif:id="Enemy">
        <circle id="enemyPos4" serif:id="enemyPos" cx="251.994" cy="6286.92" r="22.5" style="fill:#232323;stroke:#8148c8;stroke-width:4.77px;"/>
        <g>
            <path d="M247.509,6283.39c0.331,0.397 0.512,0.898 0.512,1.416c0,1.87 0,6.366 0,6.366c0,0.69 -0.56,1.25 -1.25,1.25l-2.5,-0c-0.689,-0 -1.25,-0.56 -1.25,-1.25l0,-8.369c0,-0.732 0.458,-1.385 1.146,-1.634c0.688,-0.249 1.458,-0.04 1.926,0.522c0.548,0.658 1.058,1.27 1.416,1.699Z" style="fill:#fff;"/>
            <path d="M256.479,6283.39c-0.331,0.397 -0.512,0.898 -0.512,1.416c-0,1.87 -0,6.366 -0,6.366c-0,0.69 0.56,1.25 1.25,1.25l2.5,-0c0.69,-0 1.25,-0.56 1.25,-1.25l-0,-8.369c-0,-0.732 -0.458,-1.385 -1.146,-1.634c-0.688,-0.249 -1.458,-0.04 -1.926,0.522c-0.548,0.658 -1.058,1.27 -1.416,1.699Z" style="fill:#fff;"/>
        </g>
    </g>
    <g id="Game-Title" serif:id="Game Title">
    </g>
</svg>
