<?xml version="1.0" encoding="UTF-8" standalone="no"?>
<!DOCTYPE svg PUBLIC "-//W3C//DTD SVG 1.1//EN" "http://www.w3.org/Graphics/SVG/1.1/DTD/svg11.dtd">
<svg width="750px" height="3100px" version="1.1" xmlns="http://www.w3.org/2000/svg" xmlns:xlink="http://www.w3.org/1999/xlink" xml:space="preserve" xmlns:serif="http://www.serif.com/" style="fill-rule:evenodd;clip-rule:evenodd;stroke-linecap:round;stroke-linejoin:round;stroke-miterlimit:1.5;">
    <rect id="Level-1" x="-0" y="0" width="750" height="3100" style="fill:#222;"/>
    <clipPath id="_clip1">
        <rect x="-0" y="0" width="750" height="3100"/>
    </clipPath>
    <g clip-path="url(#_clip1)">
        <path id="_-collision-" serif:id="{collision}" d="M580.577,3206.11l0,-2513.83c0,-9.293 6.388,-17.367 15.431,-19.505c28.997,-6.932 50.569,-33.044 50.569,-64.155c0,-31.121 -21.585,-57.239 -50.588,-64.188c-9.015,-2.128 -15.385,-10.176 -15.385,-19.439c-0.027,-102.444 -0.027,-616.682 -0.027,-616.682" style="fill:none;stroke:#a10745;stroke-width:25px;"/>
        <path id="_-background-" serif:id="{background}" d="M580.577,3206.11l0,-2513.83c0,-9.293 6.388,-17.367 15.431,-19.505c28.997,-6.932 50.569,-33.044 50.569,-64.155c0,-31.121 -21.585,-57.239 -50.588,-64.188c-9.015,-2.128 -15.385,-10.176 -15.385,-19.439c-0.027,-102.444 -0.027,-616.682 -0.027,-616.682l399.125,0l0,3297.8l-399.125,-0Z" style="fill:#4b001e;stroke:#a10745;stroke-width:25px;"/>
        <path id="_-collision-1" serif:id="{collision}" d="M174.077,-315.688c0,0 0,3522 0,3522" style="fill:none;stroke:#a10745;stroke-width:25px;"/>
        <path id="_-background-1" serif:id="{background}" d="M174.077,3206.31l-314.375,-0.203l0,-3521.8l314.375,0c0,0 0,3522 0,3522Z" style="fill:#4b001e;stroke:#a10745;stroke-width:25px;"/>
        <g id="Hole">
            <circle id="holePos" cx="379.077" cy="974.752" r="40"/>
        </g>
        <g id="Hole1" serif:id="Hole">
            <circle id="holePos1" serif:id="holePos" cx="580.577" cy="611.418" r="40"/>
        </g>
        <g id="Hole2" serif:id="Hole">
            <circle id="holePos2" serif:id="holePos" cx="378.577" cy="1207.42" r="40"/>
        </g>
        <g id="Hole3" serif:id="Hole">
            <circle id="holePos3" serif:id="holePos" cx="373.244" cy="476.085" r="40"/>
        </g>
        <g id="Hole4" serif:id="Hole">
            <circle id="holePos4" serif:id="holePos" cx="256" cy="2892.7" r="40"/>
        </g>
        <g id="Hole5" serif:id="Hole">
            <circle id="holePos5" serif:id="holePos" cx="498.155" cy="2741.7" r="40"/>
        </g>
        <g id="Hole6" serif:id="Hole">
            <circle id="holePos6" serif:id="holePos" cx="236.822" cy="2386.2" r="40"/>
        </g>
        <g id="Hole7" serif:id="Hole">
            <circle id="holePos7" serif:id="holePos" cx="236.822" cy="2148.36" r="40"/>
        </g>
        <g id="Hole8" serif:id="Hole">
            <circle id="holePos8" serif:id="holePos" cx="522.155" cy="1837.69" r="40"/>
        </g>
        <g id="Hole9" serif:id="Hole">
            <circle id="holePos9" serif:id="holePos" cx="234.155" cy="1733.69" r="40"/>
        </g>
        <g id="Hole10" serif:id="Hole">
            <circle id="holePos10" serif:id="holePos" cx="382.155" cy="1465.69" r="40"/>
        </g>
        <g id="Hole11" serif:id="Hole">
            <circle id="holePos11" serif:id="holePos" cx="522.155" cy="2069.7" r="40"/>
        </g>
        <path id="_-collision-2" serif:id="{collision}" d="M370.757,891.957c11.069,-0.998 16.591,-0.005 16.591,-0.005c16.974,1.811 33.461,9.216 46.46,22.215c14.515,14.515 -7.53,12.319 -17.424,2.424c-20.59,-20.589 -54.023,-20.589 -74.613,0c-9.894,9.895 -31.94,12.091 -17.424,-2.424c12.986,-12.986 29.453,-20.389 46.41,-22.21c2.765,-0.297 9.013,-0.805 16.591,-0.005" style="fill:#a10745;stroke:#a10745;stroke-width:25.03px;"/>
        <g id="Enemy">
            <circle id="enemyPos" cx="375" cy="2870.75" r="22.5" style="fill:#232323;stroke:#8148c8;stroke-width:4.77px;"/>
            <g>
                <path d="M370.515,2867.22c0.331,0.398 0.512,0.899 0.512,1.416c0,1.87 0,6.366 0,6.366c0,0.69 -0.56,1.25 -1.25,1.25l-2.5,-0c-0.69,-0 -1.25,-0.56 -1.25,-1.25c0,-0 0,-4.606 0,-8.369c0,-0.731 0.458,-1.384 1.146,-1.633c0.688,-0.249 1.458,-0.041 1.926,0.521c0.548,0.658 1.058,1.27 1.416,1.699Z" style="fill:#fff;"/>
                <path d="M379.485,2867.22c-0.331,0.398 -0.512,0.899 -0.512,1.416c-0,1.87 -0,6.366 -0,6.366c-0,0.69 0.56,1.25 1.25,1.25l2.5,-0c0.69,-0 1.25,-0.56 1.25,-1.25l-0,-8.369c-0,-0.731 -0.458,-1.384 -1.146,-1.633c-0.688,-0.249 -1.458,-0.041 -1.926,0.521c-0.548,0.658 -1.058,1.27 -1.416,1.699Z" style="fill:#fff;"/>
            </g>
        </g>
        <g id="Enemy1" serif:id="Enemy">
            <circle id="enemyPos1" serif:id="enemyPos" cx="236.333" cy="2780.09" r="22.5" style="fill:#232323;stroke:#8148c8;stroke-width:4.77px;"/>
            <g>
                <path d="M231.848,2776.55c0.331,0.398 0.513,0.899 0.513,1.416l-0,6.366c-0,0.69 -0.56,1.25 -1.25,1.25l-2.5,0c-0.69,0 -1.25,-0.56 -1.25,-1.25l-0,-8.369c-0,-0.731 0.458,-1.384 1.145,-1.633c0.688,-0.249 1.458,-0.041 1.926,0.521c0.549,0.659 1.059,1.27 1.416,1.699Z" style="fill:#fff;"/>
                <path d="M240.819,2776.55c-0.332,0.398 -0.513,0.899 -0.513,1.416l-0,6.366c-0,0.69 0.56,1.25 1.25,1.25l2.5,0c0.69,0 1.25,-0.56 1.25,-1.25l-0,-8.369c-0,-0.731 -0.458,-1.384 -1.146,-1.633c-0.687,-0.249 -1.457,-0.041 -1.925,0.521c-0.549,0.659 -1.059,1.27 -1.416,1.699Z" style="fill:#fff;"/>
            </g>
        </g>
        <g id="Enemy2" serif:id="Enemy">
            <circle id="enemyPos2" serif:id="enemyPos" cx="511" cy="2505.42" r="22.5" style="fill:#232323;stroke:#8148c8;stroke-width:4.77px;"/>
            <g>
                <path d="M506.515,2501.89c0.331,0.397 0.512,0.898 0.512,1.416l0,6.366c0,0.689 -0.56,1.25 -1.25,1.25l-2.5,-0c-0.69,-0 -1.25,-0.561 -1.25,-1.25l0,-8.369c0,-0.732 0.458,-1.385 1.146,-1.634c0.688,-0.249 1.458,-0.04 1.926,0.522c0.548,0.658 1.058,1.27 1.416,1.699Z" style="fill:#fff;"/>
                <path d="M515.485,2501.89c-0.331,0.397 -0.512,0.898 -0.512,1.416c-0,1.869 -0,6.366 -0,6.366c-0,0.689 0.56,1.25 1.25,1.25l2.5,-0c0.69,-0 1.25,-0.561 1.25,-1.25l-0,-8.369c-0,-0.732 -0.458,-1.385 -1.146,-1.634c-0.688,-0.249 -1.458,-0.04 -1.926,0.522c-0.548,0.658 -1.058,1.27 -1.416,1.699Z" style="fill:#fff;"/>
            </g>
        </g>
        <g id="Enemy3" serif:id="Enemy">
            <circle id="enemyPos3" serif:id="enemyPos" cx="241.667" cy="2462.75" r="22.5" style="fill:#232323;stroke:#8148c8;stroke-width:4.77px;"/>
            <g>
                <path d="M237.181,2459.22c0.332,0.398 0.513,0.899 0.513,1.416c0,1.87 0,6.366 0,6.366c0,0.69 -0.56,1.25 -1.25,1.25l-2.5,-0c-0.69,-0 -1.25,-0.56 -1.25,-1.25l0,-8.369c0,-0.731 0.458,-1.384 1.146,-1.633c0.687,-0.249 1.457,-0.041 1.925,0.521c0.549,0.658 1.059,1.27 1.416,1.699Z" style="fill:#fff;"/>
                <path d="M246.152,2459.22c-0.331,0.398 -0.513,0.899 -0.513,1.416l0,6.366c0,0.69 0.56,1.25 1.25,1.25l2.5,-0c0.69,-0 1.25,-0.56 1.25,-1.25l0,-8.369c0,-0.731 -0.458,-1.384 -1.145,-1.633c-0.688,-0.249 -1.458,-0.041 -1.926,0.521c-0.549,0.658 -1.059,1.27 -1.416,1.699Z" style="fill:#fff;"/>
            </g>
        </g>
        <g id="Enemy4" serif:id="Enemy">
            <circle id="enemyPos4" serif:id="enemyPos" cx="465.667" cy="2130.75" r="22.5" style="fill:#232323;stroke:#8148c8;stroke-width:4.77px;"/>
            <g>
                <path d="M461.181,2127.22c0.332,0.398 0.513,0.899 0.513,1.416l0,6.366c0,0.69 -0.56,1.25 -1.25,1.25l-2.5,-0c-0.69,-0 -1.25,-0.56 -1.25,-1.25l0,-8.369c0,-0.731 0.458,-1.384 1.146,-1.633c0.687,-0.249 1.457,-0.041 1.925,0.521c0.549,0.658 1.059,1.27 1.416,1.699Z" style="fill:#fff;"/>
                <path d="M470.152,2127.22c-0.331,0.398 -0.513,0.899 -0.513,1.416l0,6.366c0,0.69 0.56,1.25 1.25,1.25l2.5,-0c0.69,-0 1.25,-0.56 1.25,-1.25l0,-8.369c0,-0.731 -0.458,-1.384 -1.145,-1.633c-0.688,-0.249 -1.458,-0.041 -1.926,0.521c-0.549,0.658 -1.059,1.27 -1.416,1.699Z" style="fill:#fff;"/>
            </g>
        </g>
        <g id="Enemy5" serif:id="Enemy">
            <circle id="enemyPos5" serif:id="enemyPos" cx="532.333" cy="1769.42" r="22.5" style="fill:#232323;stroke:#8148c8;stroke-width:4.77px;"/>
            <g>
                <path d="M527.848,1765.89c0.331,0.397 0.513,0.898 0.513,1.416c-0,1.869 -0,6.366 -0,6.366c-0,0.689 -0.56,1.25 -1.25,1.25l-2.5,-0c-0.69,-0 -1.25,-0.561 -1.25,-1.25l-0,-8.369c-0,-0.732 0.458,-1.385 1.145,-1.634c0.688,-0.249 1.458,-0.04 1.926,0.522c0.549,0.658 1.059,1.27 1.416,1.699Z" style="fill:#fff;"/>
                <path d="M536.819,1765.89c-0.332,0.397 -0.513,0.898 -0.513,1.416l-0,6.366c-0,0.689 0.56,1.25 1.25,1.25l2.5,-0c0.69,-0 1.25,-0.561 1.25,-1.25l-0,-8.369c-0,-0.732 -0.458,-1.385 -1.146,-1.634c-0.687,-0.249 -1.457,-0.04 -1.925,0.522c-0.549,0.658 -1.059,1.27 -1.416,1.699Z" style="fill:#fff;"/>
            </g>
        </g>
        <g id="Enemy6" serif:id="Enemy">
            <circle id="enemyPos6" serif:id="enemyPos" cx="519" cy="1348.09" r="22.5" style="fill:#232323;stroke:#8148c8;stroke-width:4.77px;"/>
            <g>
                <path d="M514.515,1344.55c0.331,0.398 0.512,0.899 0.512,1.416c0,1.87 0,6.366 0,6.366c0,0.69 -0.56,1.25 -1.25,1.25l-2.5,0c-0.69,0 -1.25,-0.56 -1.25,-1.25l0,-8.369c0,-0.731 0.458,-1.384 1.146,-1.633c0.688,-0.249 1.458,-0.041 1.926,0.521c0.548,0.659 1.058,1.27 1.416,1.699Z" style="fill:#fff;"/>
                <path d="M523.485,1344.55c-0.331,0.398 -0.512,0.899 -0.512,1.416c-0,1.87 -0,6.366 -0,6.366c-0,0.69 0.56,1.25 1.25,1.25l2.5,0c0.69,0 1.25,-0.56 1.25,-1.25c-0,0 -0,-4.605 -0,-8.369c-0,-0.731 -0.458,-1.384 -1.146,-1.633c-0.688,-0.249 -1.458,-0.041 -1.926,0.521c-0.548,0.659 -1.058,1.27 -1.416,1.699Z" style="fill:#fff;"/>
            </g>
        </g>
        <g id="Enemy7" serif:id="Enemy">
            <circle id="enemyPos7" serif:id="enemyPos" cx="240.333" cy="1345.42" r="22.5" style="fill:#232323;stroke:#8148c8;stroke-width:4.77px;"/>
            <g>
                <path d="M235.848,1341.89c0.331,0.397 0.513,0.898 0.513,1.416l-0,6.366c-0,0.689 -0.56,1.25 -1.25,1.25l-2.5,-0c-0.69,-0 -1.25,-0.561 -1.25,-1.25c-0,-0 -0,-4.606 -0,-8.369c-0,-0.732 0.458,-1.385 1.145,-1.634c0.688,-0.249 1.458,-0.04 1.926,0.522c0.549,0.658 1.059,1.27 1.416,1.699Z" style="fill:#fff;"/>
                <path d="M244.819,1341.89c-0.332,0.397 -0.513,0.898 -0.513,1.416l-0,6.366c-0,0.689 0.56,1.25 1.25,1.25l2.5,-0c0.69,-0 1.25,-0.561 1.25,-1.25c-0,-0 -0,-4.606 -0,-8.369c-0,-0.732 -0.458,-1.385 -1.146,-1.634c-0.687,-0.249 -1.457,-0.04 -1.925,0.522c-0.549,0.658 -1.059,1.27 -1.416,1.699Z" style="fill:#fff;"/>
            </g>
        </g>
        <g id="Enemy8" serif:id="Enemy">
            <circle id="enemyPos8" serif:id="enemyPos" cx="336.333" cy="1040.09" r="22.5" style="fill:#232323;stroke:#8148c8;stroke-width:4.77px;"/>
            <g>
                <path d="M331.848,1036.55c0.331,0.398 0.513,0.899 0.513,1.416c-0,1.87 -0,6.366 -0,6.366c-0,0.69 -0.56,1.25 -1.25,1.25l-2.5,0c-0.69,0 -1.25,-0.56 -1.25,-1.25l-0,-8.369c-0,-0.731 0.458,-1.384 1.145,-1.633c0.688,-0.249 1.458,-0.041 1.926,0.521c0.549,0.659 1.059,1.27 1.416,1.699Z" style="fill:#fff;"/>
                <path d="M340.819,1036.55c-0.332,0.398 -0.513,0.899 -0.513,1.416c-0,1.87 -0,6.366 -0,6.366c-0,0.69 0.56,1.25 1.25,1.25l2.5,0c0.69,0 1.25,-0.56 1.25,-1.25l-0,-8.369c-0,-0.731 -0.458,-1.384 -1.146,-1.633c-0.687,-0.249 -1.457,-0.041 -1.925,0.521c-0.549,0.659 -1.059,1.27 -1.416,1.699Z" style="fill:#fff;"/>
            </g>
        </g>
        <g id="Enemy9" serif:id="Enemy">
            <circle id="enemyPos9" serif:id="enemyPos" cx="439" cy="1044.09" r="22.5" style="fill:#232323;stroke:#8148c8;stroke-width:4.77px;"/>
            <g>
                <path d="M434.515,1040.55c0.331,0.398 0.512,0.899 0.512,1.416c0,1.87 0,6.366 0,6.366c0,0.69 -0.56,1.25 -1.25,1.25l-2.5,0c-0.69,0 -1.25,-0.56 -1.25,-1.25l0,-8.369c0,-0.731 0.458,-1.384 1.146,-1.633c0.688,-0.249 1.458,-0.041 1.926,0.521c0.548,0.659 1.058,1.27 1.416,1.699Z" style="fill:#fff;"/>
                <path d="M443.485,1040.55c-0.331,0.398 -0.512,0.899 -0.512,1.416c-0,1.87 -0,6.366 -0,6.366c-0,0.69 0.56,1.25 1.25,1.25l2.5,0c0.69,0 1.25,-0.56 1.25,-1.25l-0,-8.369c-0,-0.731 -0.458,-1.384 -1.146,-1.633c-0.688,-0.249 -1.458,-0.041 -1.926,0.521c-0.548,0.659 -1.058,1.27 -1.416,1.699Z" style="fill:#fff;"/>
            </g>
        </g>
        <g id="Enemy10" serif:id="Enemy">
            <circle id="enemyPos10" serif:id="enemyPos" cx="376.333" cy="846.752" r="22.5" style="fill:#232323;stroke:#8148c8;stroke-width:4.77px;"/>
            <g>
                <path d="M371.848,843.22c0.331,0.398 0.513,0.899 0.513,1.416l-0,6.366c-0,0.69 -0.56,1.25 -1.25,1.25l-2.5,-0c-0.69,-0 -1.25,-0.56 -1.25,-1.25c-0,-0 -0,-4.606 -0,-8.369c-0,-0.731 0.458,-1.384 1.145,-1.633c0.688,-0.249 1.458,-0.041 1.926,0.521c0.549,0.658 1.059,1.27 1.416,1.699Z" style="fill:#fff;"/>
                <path d="M380.819,843.22c-0.332,0.398 -0.513,0.899 -0.513,1.416l-0,6.366c-0,0.69 0.56,1.25 1.25,1.25l2.5,-0c0.69,-0 1.25,-0.56 1.25,-1.25l-0,-8.369c-0,-0.731 -0.458,-1.384 -1.146,-1.633c-0.687,-0.249 -1.457,-0.041 -1.925,0.521c-0.549,0.658 -1.059,1.27 -1.416,1.699Z" style="fill:#fff;"/>
            </g>
        </g>
        <g id="Enemy11" serif:id="Enemy">
            <circle id="enemyPos11" serif:id="enemyPos" cx="449.667" cy="625.419" r="22.5" style="fill:#232323;stroke:#8148c8;stroke-width:4.77px;"/>
            <g>
                <path d="M445.181,621.887c0.332,0.397 0.513,0.898 0.513,1.416c0,1.869 0,6.366 0,6.366c0,0.689 -0.56,1.25 -1.25,1.25l-2.5,-0c-0.69,-0 -1.25,-0.561 -1.25,-1.25l0,-8.369c0,-0.732 0.458,-1.385 1.146,-1.634c0.687,-0.249 1.457,-0.04 1.925,0.522c0.549,0.658 1.059,1.27 1.416,1.699Z" style="fill:#fff;"/>
                <path d="M454.152,621.887c-0.331,0.397 -0.513,0.898 -0.513,1.416c0,1.869 0,6.366 0,6.366c0,0.689 0.56,1.25 1.25,1.25l2.5,-0c0.69,-0 1.25,-0.561 1.25,-1.25l0,-8.369c0,-0.732 -0.458,-1.385 -1.145,-1.634c-0.688,-0.249 -1.458,-0.04 -1.926,0.522c-0.549,0.658 -1.059,1.27 -1.416,1.699Z" style="fill:#fff;"/>
            </g>
        </g>
        <g id="Enemy12" serif:id="Enemy">
            <circle id="enemyPos12" serif:id="enemyPos" cx="517.667" cy="437.419" r="22.5" style="fill:#232323;stroke:#8148c8;stroke-width:4.77px;"/>
            <g>
                <path d="M513.181,433.887c0.332,0.397 0.513,0.898 0.513,1.416l0,6.366c0,0.689 -0.56,1.25 -1.25,1.25l-2.5,-0c-0.69,-0 -1.25,-0.561 -1.25,-1.25l0,-8.369c0,-0.732 0.458,-1.385 1.146,-1.634c0.687,-0.249 1.457,-0.04 1.925,0.522c0.549,0.658 1.059,1.27 1.416,1.699Z" style="fill:#fff;"/>
                <path d="M522.152,433.887c-0.331,0.397 -0.513,0.898 -0.513,1.416l0,6.366c0,0.689 0.56,1.25 1.25,1.25l2.5,-0c0.69,-0 1.25,-0.561 1.25,-1.25l0,-8.369c0,-0.732 -0.458,-1.385 -1.145,-1.634c-0.688,-0.249 -1.458,-0.04 -1.926,0.522c-0.549,0.658 -1.059,1.27 -1.416,1.699Z" style="fill:#fff;"/>
            </g>
        </g>
        <g id="Enemy13" serif:id="Enemy">
            <circle id="enemyPos13" serif:id="enemyPos" cx="247.667" cy="259.419" r="22.5" style="fill:#232323;stroke:#8148c8;stroke-width:4.77px;"/>
            <g>
                <path d="M243.181,255.887c0.332,0.397 0.513,0.898 0.513,1.416c0,1.869 0,6.366 0,6.366c0,0.689 -0.56,1.25 -1.25,1.25l-2.5,-0c-0.69,-0 -1.25,-0.561 -1.25,-1.25c0,-0 0,-4.606 0,-8.369c0,-0.732 0.458,-1.385 1.146,-1.634c0.687,-0.249 1.457,-0.04 1.925,0.522c0.549,0.658 1.059,1.27 1.416,1.699Z" style="fill:#fff;"/>
                <path d="M252.152,255.887c-0.331,0.397 -0.513,0.898 -0.513,1.416c0,1.869 0,6.366 0,6.366c0,0.689 0.56,1.25 1.25,1.25l2.5,-0c0.69,-0 1.25,-0.561 1.25,-1.25c0,-0 0,-4.606 0,-8.369c0,-0.732 -0.458,-1.385 -1.145,-1.634c-0.688,-0.249 -1.458,-0.04 -1.926,0.522c-0.549,0.658 -1.059,1.27 -1.416,1.699Z" style="fill:#fff;"/>
            </g>
        </g>
        <g id="Enemy14" serif:id="Enemy">
            <circle id="enemyPos14" serif:id="enemyPos" cx="381.667" cy="1545.42" r="22.5" style="fill:#232323;stroke:#8148c8;stroke-width:4.77px;"/>
            <g>
                <path d="M377.181,1541.89c0.332,0.397 0.513,0.898 0.513,1.416c0,1.869 0,6.366 0,6.366c0,0.689 -0.56,1.25 -1.25,1.25l-2.5,-0c-0.69,-0 -1.25,-0.561 -1.25,-1.25c0,-0 0,-4.606 0,-8.369c0,-0.732 0.458,-1.385 1.146,-1.634c0.687,-0.249 1.457,-0.04 1.925,0.522c0.549,0.658 1.059,1.27 1.416,1.699Z" style="fill:#fff;"/>
                <path d="M386.152,1541.89c-0.331,0.397 -0.513,0.898 -0.513,1.416c0,1.869 0,6.366 0,6.366c0,0.689 0.56,1.25 1.25,1.25l2.5,-0c0.69,-0 1.25,-0.561 1.25,-1.25l0,-8.369c0,-0.732 -0.458,-1.385 -1.145,-1.634c-0.688,-0.249 -1.458,-0.04 -1.926,0.522c-0.549,0.658 -1.059,1.27 -1.416,1.699Z" style="fill:#fff;"/>
            </g>
        </g>
        <g id="Enemy15" serif:id="Enemy">
            <circle id="enemyPos15" serif:id="enemyPos" cx="349.667" cy="1883.42" r="22.5" style="fill:#232323;stroke:#8148c8;stroke-width:4.77px;"/>
            <g>
                <path d="M345.181,1879.89c0.332,0.397 0.513,0.898 0.513,1.416c0,1.869 0,6.366 0,6.366c0,0.689 -0.56,1.25 -1.25,1.25l-2.5,-0c-0.69,-0 -1.25,-0.561 -1.25,-1.25l0,-8.369c0,-0.732 0.458,-1.385 1.146,-1.634c0.687,-0.249 1.457,-0.04 1.925,0.522c0.549,0.658 1.059,1.27 1.416,1.699Z" style="fill:#fff;"/>
                <path d="M354.152,1879.89c-0.331,0.397 -0.513,0.898 -0.513,1.416c0,1.869 0,6.366 0,6.366c0,0.689 0.56,1.25 1.25,1.25l2.5,-0c0.69,-0 1.25,-0.561 1.25,-1.25l0,-8.369c0,-0.732 -0.458,-1.385 -1.145,-1.634c-0.688,-0.249 -1.458,-0.04 -1.926,0.522c-0.549,0.658 -1.059,1.27 -1.416,1.699Z" style="fill:#fff;"/>
            </g>
        </g>
        <g id="Enemy16" serif:id="Enemy">
            <circle id="enemyPos16" serif:id="enemyPos" cx="311.667" cy="1837.42" r="22.5" style="fill:#232323;stroke:#8148c8;stroke-width:4.77px;"/>
            <g>
                <path d="M307.181,1833.89c0.332,0.397 0.513,0.898 0.513,1.416c0,1.869 0,6.366 0,6.366c0,0.689 -0.56,1.25 -1.25,1.25l-2.5,-0c-0.69,-0 -1.25,-0.561 -1.25,-1.25l0,-8.369c0,-0.732 0.458,-1.385 1.146,-1.634c0.687,-0.249 1.457,-0.04 1.925,0.522c0.549,0.658 1.059,1.27 1.416,1.699Z" style="fill:#fff;"/>
                <path d="M316.152,1833.89c-0.331,0.397 -0.513,0.898 -0.513,1.416l0,6.366c0,0.689 0.56,1.25 1.25,1.25l2.5,-0c0.69,-0 1.25,-0.561 1.25,-1.25l0,-8.369c0,-0.732 -0.458,-1.385 -1.145,-1.634c-0.688,-0.249 -1.458,-0.04 -1.926,0.522c-0.549,0.658 -1.059,1.27 -1.416,1.699Z" style="fill:#fff;"/>
            </g>
        </g>
        <g id="Enemy17" serif:id="Enemy">
            <circle id="enemyPos17" serif:id="enemyPos" cx="269.667" cy="480.085" r="22.5" style="fill:#232323;stroke:#8148c8;stroke-width:4.77px;"/>
            <g>
                <path d="M265.181,476.553c0.332,0.398 0.513,0.899 0.513,1.416l0,6.366c0,0.69 -0.56,1.25 -1.25,1.25l-2.5,0c-0.69,0 -1.25,-0.56 -1.25,-1.25l0,-8.369c0,-0.731 0.458,-1.384 1.146,-1.633c0.687,-0.249 1.457,-0.041 1.925,0.521c0.549,0.659 1.059,1.27 1.416,1.699Z" style="fill:#fff;"/>
                <path d="M274.152,476.553c-0.331,0.398 -0.513,0.899 -0.513,1.416l0,6.366c0,0.69 0.56,1.25 1.25,1.25l2.5,0c0.69,0 1.25,-0.56 1.25,-1.25l0,-8.369c0,-0.731 -0.458,-1.384 -1.145,-1.633c-0.688,-0.249 -1.458,-0.041 -1.926,0.521c-0.549,0.659 -1.059,1.27 -1.416,1.699Z" style="fill:#fff;"/>
            </g>
        </g>
        <g id="Enemy18" serif:id="Enemy">
            <circle id="enemyPos18" serif:id="enemyPos" cx="384.333" cy="2316.09" r="22.5" style="fill:#232323;stroke:#8148c8;stroke-width:4.77px;"/>
            <g>
                <path d="M379.848,2312.55c0.331,0.398 0.513,0.899 0.513,1.416l-0,6.366c-0,0.69 -0.56,1.25 -1.25,1.25l-2.5,0c-0.69,0 -1.25,-0.56 -1.25,-1.25l-0,-8.369c-0,-0.731 0.458,-1.384 1.145,-1.633c0.688,-0.249 1.458,-0.041 1.926,0.521c0.549,0.659 1.059,1.27 1.416,1.699Z" style="fill:#fff;"/>
                <path d="M388.819,2312.55c-0.332,0.398 -0.513,0.899 -0.513,1.416c-0,1.87 -0,6.366 -0,6.366c-0,0.69 0.56,1.25 1.25,1.25l2.5,0c0.69,0 1.25,-0.56 1.25,-1.25l-0,-8.369c-0,-0.731 -0.458,-1.384 -1.146,-1.633c-0.687,-0.249 -1.457,-0.041 -1.925,0.521c-0.549,0.659 -1.059,1.27 -1.416,1.699Z" style="fill:#fff;"/>
            </g>
        </g>
        <g id="Enemy19" serif:id="Enemy">
            <circle id="enemyPos19" serif:id="enemyPos" cx="292.333" cy="2206.75" r="22.5" style="fill:#232323;stroke:#8148c8;stroke-width:4.77px;"/>
            <g>
                <path d="M287.848,2203.22c0.331,0.398 0.513,0.899 0.513,1.416l-0,6.366c-0,0.69 -0.56,1.25 -1.25,1.25l-2.5,-0c-0.69,-0 -1.25,-0.56 -1.25,-1.25l-0,-8.369c-0,-0.731 0.458,-1.384 1.145,-1.633c0.688,-0.249 1.458,-0.041 1.926,0.521c0.549,0.658 1.059,1.27 1.416,1.699Z" style="fill:#fff;"/>
                <path d="M296.819,2203.22c-0.332,0.398 -0.513,0.899 -0.513,1.416l-0,6.366c-0,0.69 0.56,1.25 1.25,1.25l2.5,-0c0.69,-0 1.25,-0.56 1.25,-1.25c-0,-0 -0,-4.606 -0,-8.369c-0,-0.731 -0.458,-1.384 -1.146,-1.633c-0.687,-0.249 -1.457,-0.041 -1.925,0.521c-0.549,0.658 -1.059,1.27 -1.416,1.699Z" style="fill:#fff;"/>
            </g>
        </g>
        <g id="Enemy20" serif:id="Enemy">
            <circle id="enemyPos20" serif:id="enemyPos" cx="519" cy="2650.75" r="22.5" style="fill:#232323;stroke:#8148c8;stroke-width:4.77px;"/>
            <g>
                <path d="M514.515,2647.22c0.331,0.398 0.512,0.899 0.512,1.416c0,1.87 0,6.366 0,6.366c0,0.69 -0.56,1.25 -1.25,1.25l-2.5,-0c-0.69,-0 -1.25,-0.56 -1.25,-1.25l0,-8.369c0,-0.731 0.458,-1.384 1.146,-1.633c0.688,-0.249 1.458,-0.041 1.926,0.521c0.548,0.658 1.058,1.27 1.416,1.699Z" style="fill:#fff;"/>
                <path d="M523.485,2647.22c-0.331,0.398 -0.512,0.899 -0.512,1.416c-0,1.87 -0,6.366 -0,6.366c-0,0.69 0.56,1.25 1.25,1.25l2.5,-0c0.69,-0 1.25,-0.56 1.25,-1.25l-0,-8.369c-0,-0.731 -0.458,-1.384 -1.146,-1.633c-0.688,-0.249 -1.458,-0.041 -1.926,0.521c-0.548,0.658 -1.058,1.27 -1.416,1.699Z" style="fill:#fff;"/>
            </g>
        </g>
        <path id="_-collision-3" serif:id="{collision}" d="M264.32,2965.27c-11.069,0.999 -16.591,0.006 -16.591,0.006c-16.974,-1.812 -33.461,-9.217 -46.46,-22.215c-14.516,-14.516 7.53,-12.319 17.424,-2.425c20.59,20.59 54.023,20.59 74.613,0c9.894,-9.894 31.94,-12.091 17.424,2.425c-12.986,12.986 -29.454,20.389 -46.41,22.209c-2.765,0.297 -9.013,0.806 -16.591,0.006" style="fill:#a10745;stroke:#a10745;stroke-width:25.03px;"/>
        <path id="_-collision-4" serif:id="{collision}" d="M506.476,2814.27c-11.069,0.999 -16.591,0.006 -16.591,0.006c-16.974,-1.812 -33.462,-9.217 -46.46,-22.215c-14.516,-14.516 7.53,-12.319 17.424,-2.425c20.59,20.59 54.023,20.59 74.612,0c9.895,-9.894 31.94,-12.091 17.425,2.425c-12.986,12.986 -29.454,20.389 -46.41,22.209c-2.765,0.297 -9.013,0.806 -16.591,0.006" style="fill:#a10745;stroke:#a10745;stroke-width:25.03px;"/>
        <circle id="_-collisionCircle-" serif:id="{collisionCircle}" cx="174.077" cy="2265.53" r="66" style="fill:#a10745;stroke:#a10745;stroke-width:25.03px;"/>
        <circle id="_-collisionCircle-1" serif:id="{collisionCircle}" cx="580.577" cy="1951.29" r="66" style="fill:#a10745;stroke:#a10745;stroke-width:25.03px;"/>
        <circle id="_-collisionCircle-2" serif:id="{collisionCircle}" cx="380.833" cy="1340.62" r="66" style="fill:#a10745;stroke:#a10745;stroke-width:25.03px;"/>
        <circle id="_-collisionCircle-3" serif:id="{collisionCircle}" cx="253.068" cy="188.252" r="26" style="fill:#a10745;stroke:#a10745;stroke-width:25.03px;"/>
        <circle id="_-collisionCircle-4" serif:id="{collisionCircle}" cx="515.068" cy="360.252" r="26" style="fill:#a10745;stroke:#a10745;stroke-width:25.03px;"/>
        <g id="PowerPuck">
            <circle id="powerPos" cx="425" cy="2637.89" r="20.142" style="fill:#232323;stroke:#1cfe84;stroke-width:6.79px;"/>
            <g>
                <g id="eyes">
                    <g id="powerpuck-right-eye" serif:id="powerpuck/right-eye">
                        <g>
                            <path id="right-eye" d="M419.551,2636.48c-0.383,-0.101 -0.728,-0.291 -1.002,-0.554c-0.85,-0.816 -1.697,-1.635 -2.541,-2.458c-0.417,-0.406 -0.458,-1.173 0.124,-1.666c0.641,-0.543 1.281,-1.087 1.919,-1.633c0.573,-0.489 1.371,-0.398 1.798,0c1.544,1.44 3.096,2.87 4.659,4.291c0.51,0.465 0.773,1.308 0.295,2.06c-0.484,0.76 -1.437,0.969 -2.138,0.784c-1.038,-0.274 -2.076,-0.549 -3.114,-0.824Z" style="fill:#fff;"/>
                            <path id="right-eye1" serif:id="right-eye" d="M424.1,2632.41c-0.111,-0.352 -0.316,-0.655 -0.579,-0.894c-0.851,-0.773 -1.7,-1.549 -2.545,-2.327c-0.424,-0.39 -1.215,-0.486 -1.781,-0c-0.627,0.538 -1.256,1.076 -1.885,1.611c-0.576,0.491 -0.519,1.248 -0.105,1.646c1.542,1.483 3.093,2.955 4.655,4.417c0.542,0.508 1.47,0.705 2.278,0.267c0.757,-0.409 1.061,-1.257 0.842,-1.943c-0.296,-0.925 -0.589,-1.85 -0.88,-2.777Z" style="fill:#fff;"/>
                        </g>
                        <g>
                            <path id="right-eye2" serif:id="right-eye" d="M424.089,2642.63c-0.122,0.399 -0.351,0.745 -0.645,1.018c-0.994,0.925 -1.992,1.845 -2.993,2.761c-0.485,0.444 -1.432,0.63 -2.071,0c-0.651,-0.641 -1.3,-1.284 -1.947,-1.929c-0.62,-0.619 -0.344,-1.481 0.122,-1.891c1.772,-1.56 3.533,-3.131 5.284,-4.714c0.555,-0.501 1.481,-0.713 2.299,-0.269c0.775,0.419 1.085,1.293 0.872,1.999c-0.304,1.009 -0.611,2.018 -0.921,3.025Z" style="fill:#fff;"/>
                            <path id="right-eye3" serif:id="right-eye" d="M419.477,2638.27c-0.406,0.106 -0.773,0.304 -1.075,0.57c-0.992,0.876 -1.988,1.749 -2.987,2.619c-0.462,0.401 -0.752,1.252 -0.139,1.867c0.634,0.638 1.27,1.273 1.909,1.906c0.63,0.626 1.57,0.435 2.05,0c1.774,-1.604 3.537,-3.22 5.288,-4.849c0.527,-0.49 0.791,-1.372 0.289,-2.153c-0.492,-0.764 -1.439,-0.978 -2.148,-0.792c-1.062,0.278 -2.125,0.555 -3.187,0.832Z" style="fill:#fff;"/>
                        </g>
                    </g>
                    <g id="powerpuck-left-eye" serif:id="powerpuck/left-eye">
                        <g>
                            <path id="right-eye4" serif:id="right-eye" d="M425.961,2632.41c0.105,-0.351 0.306,-0.655 0.565,-0.894c0.839,-0.773 1.676,-1.549 2.51,-2.327c0.423,-0.395 1.214,-0.482 1.781,-0c0.635,0.538 1.272,1.076 1.909,1.611c0.577,0.485 0.543,1.243 0.13,1.646c-1.519,1.483 -3.049,2.955 -4.588,4.417c-0.54,0.512 -1.467,0.701 -2.275,0.267c-0.756,-0.405 -1.082,-1.249 -0.871,-1.943c0.282,-0.925 0.561,-1.85 0.839,-2.777Z" style="fill:#fff;"/>
                            <path id="right-eye5" serif:id="right-eye" d="M430.571,2636.48c0.381,-0.101 0.723,-0.29 0.994,-0.554c0.837,-0.816 1.672,-1.635 2.503,-2.458c0.416,-0.412 0.434,-1.179 -0.149,-1.666c-0.649,-0.543 -1.297,-1.087 -1.943,-1.633c-0.575,-0.484 -1.372,-0.403 -1.798,0c-1.522,1.44 -3.054,2.87 -4.594,4.291c-0.508,0.469 -0.75,1.314 -0.264,2.06c0.492,0.756 1.444,0.97 2.149,0.784c1.034,-0.274 2.068,-0.549 3.102,-0.824Z" style="fill:#fff;"/>
                        </g>
                        <g>
                            <path id="right-eye6" serif:id="right-eye" d="M430.672,2638.27c0.408,0.107 0.778,0.304 1.083,0.57c1.006,0.876 2.015,1.749 3.027,2.619c0.461,0.396 0.776,1.246 0.167,1.867c-0.625,0.638 -1.252,1.273 -1.88,1.906c-0.627,0.632 -1.57,0.429 -2.051,0c-1.798,-1.604 -3.585,-3.22 -5.361,-4.849c-0.53,-0.486 -0.815,-1.366 -0.321,-2.153c0.483,-0.768 1.43,-0.977 2.136,-0.792c1.067,0.278 2.133,0.555 3.2,0.832Z" style="fill:#fff;"/>
                            <path id="right-eye7" serif:id="right-eye" d="M426.125,2642.63c0.128,0.399 0.362,0.745 0.66,1.018c1.008,0.925 2.02,1.845 3.035,2.761c0.485,0.438 1.435,0.636 2.071,0c0.641,-0.641 1.28,-1.284 1.917,-1.929c0.618,-0.625 0.317,-1.486 -0.149,-1.891c-1.796,-1.56 -3.581,-3.131 -5.355,-4.714c-0.557,-0.497 -1.485,-0.717 -2.303,-0.269c-0.775,0.423 -1.064,1.301 -0.843,1.999c0.32,1.009 0.642,2.018 0.967,3.025Z" style="fill:#fff;"/>
                        </g>
                    </g>
                </g>
            </g>
        </g>
        <g id="PowerPuck1" serif:id="PowerPuck">
            <circle id="powerPos1" serif:id="powerPos" cx="285" cy="1907.89" r="20.142" style="fill:#232323;stroke:#1cfe84;stroke-width:6.79px;"/>
            <g>
                <g id="eyes1" serif:id="eyes">
                    <g id="powerpuck-right-eye1" serif:id="powerpuck/right-eye">
                        <g>
                            <path id="right-eye8" serif:id="right-eye" d="M279.551,1906.48c-0.383,-0.101 -0.728,-0.291 -1.002,-0.554c-0.85,-0.816 -1.697,-1.635 -2.541,-2.458c-0.417,-0.406 -0.458,-1.173 0.124,-1.666c0.641,-0.543 1.281,-1.087 1.919,-1.633c0.573,-0.489 1.371,-0.398 1.798,0c1.544,1.44 3.096,2.87 4.659,4.291c0.51,0.465 0.773,1.308 0.295,2.06c-0.484,0.76 -1.437,0.969 -2.138,0.784c-1.038,-0.274 -2.076,-0.549 -3.114,-0.824Z" style="fill:#fff;"/>
                            <path id="right-eye9" serif:id="right-eye" d="M284.1,1902.41c-0.111,-0.352 -0.316,-0.655 -0.579,-0.894c-0.851,-0.773 -1.7,-1.549 -2.545,-2.327c-0.424,-0.39 -1.215,-0.486 -1.781,-0c-0.627,0.538 -1.256,1.076 -1.885,1.611c-0.576,0.491 -0.519,1.248 -0.105,1.646c1.542,1.483 3.093,2.955 4.655,4.417c0.542,0.508 1.47,0.705 2.278,0.267c0.757,-0.409 1.061,-1.257 0.842,-1.943c-0.296,-0.925 -0.589,-1.85 -0.88,-2.777Z" style="fill:#fff;"/>
                        </g>
                        <g>
                            <path id="right-eye10" serif:id="right-eye" d="M284.089,1912.63c-0.122,0.399 -0.351,0.745 -0.645,1.018c-0.994,0.925 -1.992,1.845 -2.993,2.761c-0.485,0.444 -1.432,0.63 -2.071,0c-0.651,-0.641 -1.3,-1.284 -1.947,-1.929c-0.62,-0.619 -0.344,-1.481 0.122,-1.891c1.772,-1.56 3.533,-3.131 5.284,-4.714c0.555,-0.501 1.481,-0.713 2.299,-0.269c0.775,0.419 1.085,1.293 0.872,1.999c-0.304,1.009 -0.611,2.018 -0.921,3.025Z" style="fill:#fff;"/>
                            <path id="right-eye11" serif:id="right-eye" d="M279.477,1908.27c-0.406,0.106 -0.773,0.304 -1.075,0.57c-0.992,0.876 -1.988,1.749 -2.987,2.619c-0.462,0.401 -0.752,1.252 -0.139,1.867c0.634,0.638 1.27,1.273 1.909,1.906c0.63,0.626 1.57,0.435 2.05,0c1.774,-1.604 3.537,-3.22 5.288,-4.849c0.527,-0.49 0.791,-1.372 0.289,-2.153c-0.492,-0.764 -1.439,-0.978 -2.148,-0.792c-1.062,0.278 -2.125,0.555 -3.187,0.832Z" style="fill:#fff;"/>
                        </g>
                    </g>
                    <g id="powerpuck-left-eye1" serif:id="powerpuck/left-eye">
                        <g>
                            <path id="right-eye12" serif:id="right-eye" d="M285.961,1902.41c0.105,-0.351 0.306,-0.655 0.565,-0.894c0.839,-0.773 1.676,-1.549 2.51,-2.327c0.423,-0.395 1.214,-0.482 1.781,-0c0.635,0.538 1.272,1.076 1.909,1.611c0.577,0.485 0.543,1.243 0.13,1.646c-1.519,1.483 -3.049,2.955 -4.588,4.417c-0.54,0.512 -1.467,0.701 -2.275,0.267c-0.756,-0.405 -1.082,-1.249 -0.871,-1.943c0.282,-0.925 0.561,-1.85 0.839,-2.777Z" style="fill:#fff;"/>
                            <path id="right-eye13" serif:id="right-eye" d="M290.571,1906.48c0.381,-0.101 0.723,-0.29 0.994,-0.554c0.837,-0.816 1.672,-1.635 2.503,-2.458c0.416,-0.412 0.434,-1.179 -0.149,-1.666c-0.649,-0.543 -1.297,-1.087 -1.943,-1.633c-0.575,-0.484 -1.372,-0.403 -1.798,0c-1.522,1.441 -3.054,2.87 -4.594,4.291c-0.508,0.469 -0.75,1.314 -0.264,2.06c0.492,0.756 1.444,0.97 2.149,0.784c1.034,-0.274 2.068,-0.549 3.102,-0.824Z" style="fill:#fff;"/>
                        </g>
                        <g>
                            <path id="right-eye14" serif:id="right-eye" d="M290.672,1908.27c0.408,0.107 0.778,0.304 1.083,0.57c1.006,0.876 2.015,1.749 3.027,2.619c0.461,0.396 0.776,1.246 0.167,1.867c-0.625,0.638 -1.252,1.273 -1.88,1.906c-0.627,0.632 -1.57,0.429 -2.051,0c-1.798,-1.604 -3.585,-3.22 -5.361,-4.849c-0.53,-0.486 -0.815,-1.366 -0.321,-2.153c0.483,-0.768 1.43,-0.977 2.136,-0.792c1.067,0.278 2.133,0.555 3.2,0.832Z" style="fill:#fff;"/>
                            <path id="right-eye15" serif:id="right-eye" d="M286.125,1912.63c0.128,0.399 0.362,0.745 0.66,1.018c1.008,0.925 2.02,1.845 3.035,2.761c0.485,0.438 1.435,0.636 2.071,0c0.641,-0.641 1.28,-1.284 1.917,-1.929c0.618,-0.625 0.317,-1.486 -0.149,-1.891c-1.796,-1.56 -3.581,-3.131 -5.355,-4.714c-0.557,-0.497 -1.485,-0.717 -2.303,-0.269c-0.775,0.423 -1.064,1.301 -0.843,1.999c0.32,1.009 0.642,2.018 0.967,3.025Z" style="fill:#fff;"/>
                        </g>
                    </g>
                </g>
            </g>
        </g>
        <g id="PowerPuck2" serif:id="PowerPuck">
            <circle id="powerPos2" serif:id="powerPos" cx="293" cy="1249.89" r="20.142" style="fill:#232323;stroke:#1cfe84;stroke-width:6.79px;"/>
            <g>
                <g id="eyes2" serif:id="eyes">
                    <g id="powerpuck-right-eye2" serif:id="powerpuck/right-eye">
                        <g>
                            <path id="right-eye16" serif:id="right-eye" d="M287.551,1248.48c-0.383,-0.101 -0.728,-0.291 -1.002,-0.554c-0.85,-0.816 -1.697,-1.635 -2.541,-2.458c-0.417,-0.406 -0.458,-1.173 0.124,-1.666c0.641,-0.543 1.281,-1.087 1.919,-1.633c0.573,-0.489 1.371,-0.398 1.798,0c1.544,1.44 3.096,2.87 4.659,4.291c0.51,0.465 0.773,1.308 0.295,2.06c-0.484,0.76 -1.437,0.969 -2.138,0.784c-1.038,-0.274 -2.076,-0.549 -3.114,-0.824Z" style="fill:#fff;"/>
                            <path id="right-eye17" serif:id="right-eye" d="M292.1,1244.41c-0.111,-0.352 -0.316,-0.655 -0.579,-0.894c-0.851,-0.773 -1.7,-1.549 -2.545,-2.327c-0.424,-0.39 -1.215,-0.486 -1.781,-0c-0.627,0.538 -1.256,1.075 -1.885,1.611c-0.576,0.491 -0.519,1.248 -0.105,1.646c1.542,1.483 3.093,2.955 4.655,4.417c0.542,0.508 1.47,0.705 2.278,0.267c0.757,-0.409 1.061,-1.257 0.842,-1.943c-0.296,-0.925 -0.589,-1.85 -0.88,-2.777Z" style="fill:#fff;"/>
                        </g>
                        <g>
                            <path id="right-eye18" serif:id="right-eye" d="M292.089,1254.63c-0.122,0.399 -0.351,0.745 -0.645,1.018c-0.994,0.925 -1.992,1.845 -2.993,2.761c-0.485,0.444 -1.432,0.63 -2.071,0c-0.651,-0.641 -1.3,-1.284 -1.947,-1.929c-0.62,-0.619 -0.344,-1.481 0.122,-1.891c1.772,-1.56 3.533,-3.131 5.284,-4.714c0.555,-0.501 1.481,-0.713 2.299,-0.269c0.775,0.419 1.085,1.293 0.872,1.999c-0.304,1.009 -0.611,2.018 -0.921,3.025Z" style="fill:#fff;"/>
                            <path id="right-eye19" serif:id="right-eye" d="M287.477,1250.27c-0.406,0.106 -0.773,0.304 -1.075,0.57c-0.992,0.876 -1.988,1.749 -2.987,2.619c-0.462,0.401 -0.752,1.252 -0.139,1.867c0.634,0.638 1.27,1.273 1.909,1.906c0.63,0.626 1.57,0.435 2.05,0c1.774,-1.604 3.537,-3.22 5.288,-4.849c0.527,-0.49 0.791,-1.372 0.289,-2.153c-0.492,-0.764 -1.439,-0.978 -2.148,-0.792c-1.062,0.278 -2.125,0.555 -3.187,0.832Z" style="fill:#fff;"/>
                        </g>
                    </g>
                    <g id="powerpuck-left-eye2" serif:id="powerpuck/left-eye">
                        <g>
                            <path id="right-eye20" serif:id="right-eye" d="M293.961,1244.41c0.105,-0.351 0.306,-0.655 0.565,-0.894c0.839,-0.773 1.676,-1.549 2.51,-2.327c0.423,-0.395 1.214,-0.482 1.781,-0c0.635,0.538 1.272,1.075 1.909,1.611c0.577,0.485 0.543,1.243 0.13,1.646c-1.519,1.483 -3.049,2.955 -4.588,4.417c-0.54,0.512 -1.467,0.701 -2.275,0.267c-0.756,-0.405 -1.082,-1.249 -0.871,-1.943c0.282,-0.925 0.561,-1.85 0.839,-2.777Z" style="fill:#fff;"/>
                            <path id="right-eye21" serif:id="right-eye" d="M298.571,1248.48c0.381,-0.101 0.723,-0.29 0.994,-0.554c0.837,-0.816 1.672,-1.635 2.503,-2.458c0.416,-0.412 0.434,-1.179 -0.149,-1.666c-0.649,-0.543 -1.297,-1.087 -1.943,-1.633c-0.575,-0.484 -1.372,-0.403 -1.798,0c-1.522,1.44 -3.054,2.87 -4.594,4.291c-0.508,0.469 -0.75,1.314 -0.264,2.06c0.492,0.756 1.444,0.97 2.149,0.784c1.034,-0.274 2.068,-0.549 3.102,-0.824Z" style="fill:#fff;"/>
                        </g>
                        <g>
                            <path id="right-eye22" serif:id="right-eye" d="M298.672,1250.27c0.408,0.107 0.778,0.304 1.083,0.57c1.006,0.876 2.015,1.749 3.027,2.619c0.461,0.396 0.776,1.246 0.167,1.867c-0.625,0.638 -1.252,1.273 -1.88,1.906c-0.627,0.632 -1.57,0.429 -2.051,0c-1.798,-1.604 -3.585,-3.22 -5.361,-4.849c-0.53,-0.486 -0.815,-1.366 -0.321,-2.153c0.483,-0.768 1.43,-0.977 2.136,-0.792c1.067,0.278 2.133,0.555 3.2,0.832Z" style="fill:#fff;"/>
                            <path id="right-eye23" serif:id="right-eye" d="M294.125,1254.63c0.128,0.399 0.362,0.745 0.66,1.018c1.008,0.925 2.02,1.845 3.035,2.761c0.485,0.438 1.435,0.636 2.071,0c0.641,-0.641 1.28,-1.284 1.917,-1.929c0.618,-0.625 0.317,-1.486 -0.149,-1.891c-1.796,-1.56 -3.581,-3.131 -5.355,-4.714c-0.557,-0.497 -1.485,-0.717 -2.303,-0.269c-0.775,0.423 -1.064,1.301 -0.843,1.999c0.32,1.009 0.642,2.018 0.967,3.025Z" style="fill:#fff;"/>
                        </g>
                    </g>
                </g>
            </g>
        </g>
        <g id="PowerPuck3" serif:id="PowerPuck">
            <circle id="powerPos3" serif:id="powerPos" cx="379" cy="373.894" r="20.142" style="fill:#232323;stroke:#1cfe84;stroke-width:6.79px;"/>
            <g>
                <g id="eyes3" serif:id="eyes">
                    <g id="powerpuck-right-eye3" serif:id="powerpuck/right-eye">
                        <g>
                            <path id="right-eye24" serif:id="right-eye" d="M373.551,372.479c-0.383,-0.101 -0.728,-0.291 -1.002,-0.554c-0.85,-0.816 -1.697,-1.635 -2.541,-2.458c-0.417,-0.406 -0.458,-1.173 0.124,-1.666c0.641,-0.543 1.281,-1.087 1.919,-1.633c0.573,-0.489 1.371,-0.398 1.798,0c1.544,1.44 3.096,2.87 4.659,4.291c0.51,0.465 0.773,1.308 0.295,2.06c-0.484,0.76 -1.437,0.969 -2.138,0.784c-1.038,-0.274 -2.076,-0.549 -3.114,-0.824Z" style="fill:#fff;"/>
                            <path id="right-eye25" serif:id="right-eye" d="M378.1,368.41c-0.111,-0.352 -0.316,-0.655 -0.579,-0.894c-0.851,-0.773 -1.7,-1.549 -2.545,-2.327c-0.424,-0.39 -1.215,-0.487 -1.781,-0c-0.627,0.538 -1.256,1.075 -1.885,1.611c-0.576,0.491 -0.519,1.248 -0.105,1.646c1.542,1.483 3.093,2.955 4.655,4.417c0.542,0.508 1.47,0.705 2.278,0.267c0.757,-0.409 1.061,-1.257 0.842,-1.943c-0.296,-0.925 -0.589,-1.85 -0.88,-2.777Z" style="fill:#fff;"/>
                        </g>
                        <g>
                            <path id="right-eye26" serif:id="right-eye" d="M378.089,378.634c-0.122,0.399 -0.351,0.745 -0.645,1.018c-0.994,0.925 -1.992,1.845 -2.993,2.761c-0.485,0.444 -1.432,0.63 -2.071,0c-0.651,-0.641 -1.3,-1.284 -1.947,-1.929c-0.62,-0.619 -0.344,-1.481 0.122,-1.891c1.772,-1.56 3.533,-3.131 5.284,-4.714c0.555,-0.501 1.481,-0.713 2.299,-0.269c0.775,0.419 1.085,1.293 0.872,1.999c-0.304,1.009 -0.611,2.018 -0.921,3.025Z" style="fill:#fff;"/>
                            <path id="right-eye27" serif:id="right-eye" d="M373.477,374.269c-0.406,0.106 -0.773,0.304 -1.075,0.57c-0.992,0.876 -1.988,1.749 -2.987,2.619c-0.462,0.401 -0.752,1.252 -0.139,1.867c0.634,0.638 1.27,1.273 1.909,1.906c0.63,0.626 1.57,0.435 2.05,0c1.774,-1.604 3.537,-3.22 5.288,-4.849c0.527,-0.49 0.791,-1.372 0.289,-2.153c-0.492,-0.764 -1.439,-0.978 -2.148,-0.792c-1.062,0.278 -2.125,0.555 -3.187,0.832Z" style="fill:#fff;"/>
                        </g>
                    </g>
                    <g id="powerpuck-left-eye3" serif:id="powerpuck/left-eye">
                        <g>
                            <path id="right-eye28" serif:id="right-eye" d="M379.961,368.41c0.105,-0.351 0.306,-0.655 0.565,-0.894c0.839,-0.773 1.676,-1.549 2.51,-2.327c0.423,-0.395 1.214,-0.482 1.781,-0c0.635,0.538 1.272,1.075 1.909,1.611c0.577,0.485 0.543,1.243 0.13,1.646c-1.519,1.483 -3.049,2.955 -4.588,4.417c-0.54,0.512 -1.467,0.701 -2.275,0.267c-0.756,-0.405 -1.082,-1.249 -0.871,-1.943c0.282,-0.925 0.561,-1.85 0.839,-2.777Z" style="fill:#fff;"/>
                            <path id="right-eye29" serif:id="right-eye" d="M384.571,372.479c0.381,-0.101 0.723,-0.29 0.994,-0.554c0.837,-0.816 1.672,-1.635 2.503,-2.458c0.416,-0.412 0.434,-1.179 -0.149,-1.666c-0.649,-0.543 -1.297,-1.087 -1.943,-1.633c-0.575,-0.484 -1.372,-0.403 -1.798,0c-1.522,1.44 -3.054,2.87 -4.594,4.291c-0.508,0.469 -0.75,1.314 -0.264,2.06c0.492,0.756 1.444,0.97 2.149,0.784c1.034,-0.274 2.068,-0.549 3.102,-0.824Z" style="fill:#fff;"/>
                        </g>
                        <g>
                            <path id="right-eye30" serif:id="right-eye" d="M384.672,374.269c0.408,0.107 0.778,0.304 1.083,0.57c1.006,0.876 2.015,1.749 3.027,2.619c0.461,0.396 0.776,1.246 0.167,1.867c-0.625,0.638 -1.252,1.273 -1.88,1.906c-0.627,0.632 -1.57,0.429 -2.051,0c-1.798,-1.604 -3.585,-3.22 -5.361,-4.849c-0.53,-0.486 -0.815,-1.366 -0.321,-2.153c0.483,-0.768 1.43,-0.977 2.136,-0.792c1.067,0.278 2.133,0.555 3.2,0.832Z" style="fill:#fff;"/>
                            <path id="right-eye31" serif:id="right-eye" d="M380.125,378.634c0.128,0.399 0.362,0.745 0.66,1.018c1.008,0.925 2.02,1.845 3.035,2.761c0.485,0.438 1.435,0.636 2.071,0c0.641,-0.641 1.28,-1.284 1.917,-1.929c0.618,-0.625 0.317,-1.486 -0.149,-1.891c-1.796,-1.56 -3.581,-3.131 -5.355,-4.714c-0.557,-0.497 -1.485,-0.717 -2.303,-0.269c-0.775,0.423 -1.064,1.301 -0.843,1.999c0.32,1.009 0.642,2.018 0.967,3.025Z" style="fill:#fff;"/>
                        </g>
                    </g>
                </g>
            </g>
        </g>
    </g>
</svg>
