<?xml version="1.0" encoding="UTF-8" standalone="no"?>
<!DOCTYPE svg PUBLIC "-//W3C//DTD SVG 1.1//EN" "http://www.w3.org/Graphics/SVG/1.1/DTD/svg11.dtd">
<svg width="750px" height="3100px" version="1.1" xmlns="http://www.w3.org/2000/svg" xmlns:xlink="http://www.w3.org/1999/xlink" xml:space="preserve" xmlns:serif="http://www.serif.com/" style="fill-rule:evenodd;clip-rule:evenodd;stroke-linecap:round;stroke-linejoin:round;stroke-miterlimit:1.5;">
    <rect id="Level-intro" x="-0" y="0" width="750" height="3100" style="fill:#222;"/>
    <clipPath id="_clip1">
        <rect x="-0" y="0" width="750" height="3100"/>
    </clipPath>
    <g clip-path="url(#_clip1)">
        <path id="_-background-" serif:id="{background}" d="M449.667,2965.72l-275.59,-0c-59.744,-0 -108.25,-48.506 -108.25,-108.25l0,-216.5c0,-39.247 46.713,-73.644 78.767,-92.627c18.271,-10.793 29.482,-30.436 29.482,-51.657c-0,-38.078 0,-104.612 0,-191.3c0,-15.913 -6.321,-31.174 -17.573,-42.426c-11.252,-11.252 -26.514,-17.574 -42.427,-17.574c-8.861,0 -15.082,0 -15.082,0c-18.305,0 -33.167,-14.861 -33.167,-33.166l0,-66.334c0,-18.305 14.862,-33.166 33.167,-33.166l15.083,-0c33.137,-0 60,-26.863 60,-60c0,-669.985 0,-2150 0,-2150l-478.077,-4l-0,3582.28l765.327,-0l-11.66,-515.28Z" style="fill:#363636;stroke:#4e001f;stroke-width:25px;"/>
        <path id="_-background-1" serif:id="{background}" d="M277.077,3481l742.855,-0l0,-3549.74l-439.355,-0l0,2121.63c0,15.913 6.322,31.174 17.574,42.427c11.252,11.252 26.513,17.573 42.426,17.573l15.25,0c18.214,0 33,14.787 33,33l0,66c0,18.213 -14.786,33 -33,33l-15.25,0c-15.913,0 -31.174,6.322 -42.426,17.574c-11.252,11.252 -17.574,26.513 -17.574,42.426l0,191.8c0,21.222 11.211,40.865 29.483,51.659c32.054,18.981 78.767,53.378 78.767,92.625l0,216.5c0,59.744 -48.505,108.25 -108.25,108.25l-275.759,-0l-27.741,515.28Z" style="fill:#363636;stroke:#620027;stroke-width:25px;"/>
        <path id="_-collision-" serif:id="{collision}" d="M580.577,-64.951l0,2117.83c0,15.913 6.322,31.174 17.574,42.427c11.252,11.252 26.513,17.573 42.426,17.573l15.25,0c18.214,0 33,14.787 33,33l0,66c0,18.213 -14.786,33 -33,33l-15.25,0c-15.913,0 -31.174,6.322 -42.426,17.574c-11.252,11.252 -17.574,26.513 -17.574,42.426l0,191.8c0,21.222 11.211,40.865 29.483,51.659c32.054,18.981 78.767,53.378 78.767,92.625l0,216.5c0,59.744 -48.505,108.25 -108.25,108.25l-406.5,-0c-59.744,-0 -108.25,-48.506 -108.25,-108.25l0,-216.5c0,-39.247 46.713,-73.644 78.767,-92.627c18.271,-10.793 29.482,-30.436 29.482,-51.657c-0,-38.078 0,-104.612 0,-191.3c0,-15.913 -6.321,-31.174 -17.573,-42.426c-11.252,-11.252 -26.514,-17.574 -42.427,-17.574c-8.861,0 -15.082,0 -15.082,0c-18.305,0 -33.167,-14.861 -33.167,-33.166l0,-66.334c0,-18.305 14.862,-33.166 33.167,-33.166l15.083,-0c33.137,-0 60,-26.863 60,-60c0,-668.402 0,-2121.46 0,-2121.46" style="fill:none;stroke:#a10745;stroke-width:25px;"/>
        <g id="Holes">
            <g id="Hole">
                <circle id="holePos" cx="133.994" cy="2180.42" r="40"/>
            </g>
            <g id="Hole1" serif:id="Hole">
                <circle id="holePos1" serif:id="holePos" cx="133.994" cy="2645.75" r="40"/>
            </g>
            <g id="Hole2" serif:id="Hole">
                <circle id="holePos2" serif:id="holePos" cx="619.327" cy="2180.42" r="40"/>
            </g>
            <g id="Hole3" serif:id="Hole">
                <circle id="holePos3" serif:id="holePos" cx="237.077" cy="1753.75" r="40"/>
            </g>
            <g id="Hole4" serif:id="Hole">
                <circle id="holePos4" serif:id="holePos" cx="517.077" cy="1514.75" r="40"/>
            </g>
            <g id="Hole5" serif:id="Hole">
                <circle id="holePos5" serif:id="holePos" cx="237.077" cy="1622.75" r="40"/>
            </g>
            <g id="Hole6" serif:id="Hole">
                <circle id="holePos6" serif:id="holePos" cx="517.077" cy="1374.75" r="40"/>
            </g>
            <g id="Hole7" serif:id="Hole">
                <circle id="holePos7" serif:id="holePos" cx="243.077" cy="628.752" r="40"/>
            </g>
            <g id="Hole8" serif:id="Hole">
                <circle id="holePos8" serif:id="holePos" cx="243.077" cy="181.752" r="40"/>
            </g>
            <g id="Hole9" serif:id="Hole">
                <circle id="holePos9" serif:id="holePos" cx="521.077" cy="455.752" r="40"/>
            </g>
            <g id="Hole10" serif:id="Hole">
                <circle id="holePos10" serif:id="holePos" cx="379.077" cy="974.752" r="40"/>
            </g>
            <g id="Hole11" serif:id="Hole">
                <circle id="holePos11" serif:id="holePos" cx="526.216" cy="735.752" r="40"/>
            </g>
            <path id="_-collision-1" serif:id="{collision}" d="M370.757,897.824c11.069,-0.998 16.591,-0.005 16.591,-0.005c16.974,1.811 33.461,9.216 46.46,22.215c14.515,14.515 -7.53,12.318 -17.424,2.424c-20.59,-20.59 -54.023,-20.59 -74.613,0c-9.894,9.894 -31.94,12.091 -17.424,-2.424c12.986,-12.986 29.453,-20.389 46.41,-22.21c2.765,-0.297 9.013,-0.805 16.591,-0.005" style="fill:#a10745;stroke:#a10745;stroke-width:25.03px;"/>
            <g id="Hole12" serif:id="Hole">
                <circle id="holePos12" serif:id="holePos" cx="619.327" cy="2645.75" r="40"/>
            </g>
        </g>
        <g id="Player">
            <circle id="start" cx="377.327" cy="2842.86" r="22.5" style="fill:#232323;stroke:#00e3ff;stroke-width:4.77px;"/>
            <g>
                <path d="M373.355,2833.95l-0,13.167c-0,0.69 -0.56,1.25 -1.25,1.25l-2.5,0c-0.69,0 -1.25,-0.56 -1.25,-1.25l-0,-13.167c-0,-0.689 0.56,-1.25 1.25,-1.25l2.5,0c0.69,0 1.25,0.561 1.25,1.25Z" style="fill:#fff;"/>
                <path d="M386.3,2833.95l0,13.167c0,0.69 -0.56,1.25 -1.25,1.25l-2.5,0c-0.69,0 -1.25,-0.56 -1.25,-1.25l0,-13.167c0,-0.689 0.56,-1.25 1.25,-1.25l2.5,0c0.69,0 1.25,0.561 1.25,1.25Z" style="fill:#fff;"/>
            </g>
        </g>
        <g id="Enemies">
            <g id="Enemy">
                <circle id="enemyPos" cx="209.327" cy="2701.59" r="22.5" style="fill:#232323;stroke:#8148c8;stroke-width:4.77px;"/>
                <g>
                    <path d="M204.842,2698.05c0.331,0.398 0.513,0.899 0.513,1.416c-0,1.87 -0,6.366 -0,6.366c-0,0.69 -0.56,1.25 -1.25,1.25l-2.5,0c-0.69,0 -1.25,-0.56 -1.25,-1.25c-0,0 -0,-4.605 -0,-8.369c-0,-0.731 0.458,-1.384 1.145,-1.633c0.688,-0.249 1.458,-0.041 1.926,0.521c0.549,0.658 1.059,1.27 1.416,1.699Z" style="fill:#fff;"/>
                    <path d="M213.813,2698.05c-0.332,0.398 -0.513,0.899 -0.513,1.416c0,1.87 0,6.366 0,6.366c0,0.69 0.56,1.25 1.25,1.25l2.5,0c0.69,0 1.25,-0.56 1.25,-1.25c0,0 0,-4.605 0,-8.369c0,-0.731 -0.458,-1.384 -1.146,-1.633c-0.687,-0.249 -1.457,-0.041 -1.925,0.521c-0.549,0.658 -1.059,1.27 -1.416,1.699Z" style="fill:#fff;"/>
                </g>
            </g>
            <g id="Enemy1" serif:id="Enemy">
                <circle id="enemyPos1" serif:id="enemyPos" cx="209.327" cy="2189.59" r="22.5" style="fill:#232323;stroke:#8148c8;stroke-width:4.77px;"/>
                <g>
                    <path d="M204.842,2186.05c0.331,0.398 0.513,0.899 0.513,1.416l-0,6.366c-0,0.69 -0.56,1.25 -1.25,1.25l-2.5,0c-0.69,0 -1.25,-0.56 -1.25,-1.25l-0,-8.369c-0,-0.731 0.458,-1.384 1.145,-1.633c0.688,-0.249 1.458,-0.041 1.926,0.521c0.549,0.658 1.059,1.27 1.416,1.699Z" style="fill:#fff;"/>
                    <path d="M213.813,2186.05c-0.332,0.398 -0.513,0.899 -0.513,1.416c0,1.87 0,6.366 0,6.366c0,0.69 0.56,1.25 1.25,1.25l2.5,0c0.69,0 1.25,-0.56 1.25,-1.25l0,-8.369c0,-0.731 -0.458,-1.384 -1.146,-1.633c-0.687,-0.249 -1.457,-0.041 -1.925,0.521c-0.549,0.658 -1.059,1.27 -1.416,1.699Z" style="fill:#fff;"/>
                </g>
            </g>
            <g id="Enemy2" serif:id="Enemy">
                <circle id="enemyPos2" serif:id="enemyPos" cx="550.661" cy="2189.59" r="22.5" style="fill:#232323;stroke:#8148c8;stroke-width:4.77px;"/>
                <g>
                    <path d="M546.175,2186.05c0.332,0.398 0.513,0.899 0.513,1.416c0,1.87 0,6.366 0,6.366c0,0.69 -0.56,1.25 -1.25,1.25l-2.5,0c-0.69,0 -1.25,-0.56 -1.25,-1.25l0,-8.369c0,-0.731 0.458,-1.384 1.146,-1.633c0.687,-0.249 1.457,-0.041 1.925,0.521c0.549,0.658 1.059,1.27 1.416,1.699Z" style="fill:#fff;"/>
                    <path d="M555.146,2186.05c-0.331,0.398 -0.513,0.899 -0.513,1.416l0,6.366c0,0.69 0.56,1.25 1.25,1.25l2.5,0c0.69,0 1.25,-0.56 1.25,-1.25l0,-8.369c0,-0.731 -0.458,-1.384 -1.145,-1.633c-0.688,-0.249 -1.458,-0.041 -1.926,0.521c-0.549,0.658 -1.058,1.27 -1.416,1.699Z" style="fill:#fff;"/>
                </g>
            </g>
            <g id="Enemy3" serif:id="Enemy">
                <circle id="enemyPos3" serif:id="enemyPos" cx="428.642" cy="2433.25" r="22.5" style="fill:#232323;stroke:#8148c8;stroke-width:4.77px;"/>
                <g>
                    <path d="M424.157,2429.72c0.331,0.397 0.513,0.898 0.513,1.416c-0,1.87 -0,6.366 -0,6.366c-0,0.69 -0.56,1.25 -1.25,1.25l-2.5,-0c-0.69,-0 -1.25,-0.56 -1.25,-1.25l-0,-8.369c-0,-0.732 0.458,-1.385 1.145,-1.633c0.688,-0.249 1.458,-0.041 1.926,0.521c0.549,0.658 1.059,1.27 1.416,1.699Z" style="fill:#fff;"/>
                    <path d="M433.128,2429.72c-0.332,0.397 -0.513,0.898 -0.513,1.416c-0,1.87 -0,6.366 -0,6.366c-0,0.69 0.56,1.25 1.25,1.25l2.5,-0c0.69,-0 1.25,-0.56 1.25,-1.25l-0,-8.369c-0,-0.732 -0.458,-1.385 -1.146,-1.633c-0.687,-0.249 -1.457,-0.041 -1.925,0.521c-0.549,0.658 -1.059,1.27 -1.416,1.699Z" style="fill:#fff;"/>
                </g>
            </g>
            <g id="Enemy4" serif:id="Enemy">
                <circle id="enemyPos4" serif:id="enemyPos" cx="234.642" cy="1837.25" r="22.5" style="fill:#232323;stroke:#8148c8;stroke-width:4.77px;"/>
                <g>
                    <path d="M230.157,1833.72c0.331,0.397 0.513,0.898 0.513,1.416l-0,6.366c-0,0.69 -0.56,1.25 -1.25,1.25l-2.5,-0c-0.69,-0 -1.25,-0.56 -1.25,-1.25l-0,-8.369c-0,-0.732 0.458,-1.385 1.145,-1.633c0.688,-0.249 1.458,-0.041 1.926,0.521c0.549,0.658 1.059,1.27 1.416,1.699Z" style="fill:#fff;"/>
                    <path d="M239.128,1833.72c-0.332,0.397 -0.513,0.898 -0.513,1.416c-0,1.87 -0,6.366 -0,6.366c-0,0.69 0.56,1.25 1.25,1.25l2.5,-0c0.69,-0 1.25,-0.56 1.25,-1.25l-0,-8.369c-0,-0.732 -0.458,-1.385 -1.146,-1.633c-0.687,-0.249 -1.457,-0.041 -1.925,0.521c-0.549,0.658 -1.059,1.27 -1.416,1.699Z" style="fill:#fff;"/>
                </g>
            </g>
            <g id="Enemy5" serif:id="Enemy">
                <circle id="enemyPos5" serif:id="enemyPos" cx="234.642" cy="1896.25" r="22.5" style="fill:#232323;stroke:#8148c8;stroke-width:4.77px;"/>
                <g>
                    <path d="M230.157,1892.72c0.331,0.397 0.513,0.898 0.513,1.416l-0,6.366c-0,0.69 -0.56,1.25 -1.25,1.25l-2.5,-0c-0.69,-0 -1.25,-0.56 -1.25,-1.25l-0,-8.369c-0,-0.732 0.458,-1.385 1.145,-1.633c0.688,-0.249 1.458,-0.041 1.926,0.521c0.549,0.658 1.059,1.27 1.416,1.699Z" style="fill:#fff;"/>
                    <path d="M239.128,1892.72c-0.332,0.397 -0.513,0.898 -0.513,1.416c-0,1.87 -0,6.366 -0,6.366c-0,0.69 0.56,1.25 1.25,1.25l2.5,-0c0.69,-0 1.25,-0.56 1.25,-1.25l-0,-8.369c-0,-0.732 -0.458,-1.385 -1.146,-1.633c-0.687,-0.249 -1.457,-0.041 -1.925,0.521c-0.549,0.658 -1.059,1.27 -1.416,1.699Z" style="fill:#fff;"/>
                </g>
            </g>
            <g id="Enemy6" serif:id="Enemy">
                <circle id="enemyPos6" serif:id="enemyPos" cx="340.435" cy="2433.25" r="22.5" style="fill:#232323;stroke:#8148c8;stroke-width:4.77px;"/>
                <g>
                    <path d="M335.95,2429.72c0.331,0.397 0.512,0.898 0.512,1.416c0,1.87 0,6.366 0,6.366c0,0.69 -0.56,1.25 -1.25,1.25l-2.5,-0c-0.689,-0 -1.25,-0.56 -1.25,-1.25l0,-8.369c0,-0.732 0.458,-1.385 1.146,-1.633c0.688,-0.249 1.458,-0.041 1.926,0.521c0.548,0.658 1.058,1.27 1.416,1.699Z" style="fill:#fff;"/>
                    <path d="M344.92,2429.72c-0.331,0.397 -0.512,0.898 -0.512,1.416c-0,1.87 -0,6.366 -0,6.366c-0,0.69 0.56,1.25 1.25,1.25l2.5,-0c0.69,-0 1.25,-0.56 1.25,-1.25l-0,-8.369c-0,-0.732 -0.458,-1.385 -1.146,-1.633c-0.688,-0.249 -1.458,-0.041 -1.926,0.521c-0.548,0.658 -1.058,1.27 -1.416,1.699Z" style="fill:#fff;"/>
                </g>
            </g>
            <g id="Enemy7" serif:id="Enemy">
                <circle id="enemyPos7" serif:id="enemyPos" cx="556.827" cy="2683.39" r="22.5" style="fill:#232323;stroke:#8148c8;stroke-width:4.77px;"/>
                <g>
                    <path d="M552.342,2679.86c0.331,0.398 0.513,0.899 0.513,1.416c-0,1.87 -0,6.366 -0,6.366c-0,0.69 -0.56,1.25 -1.25,1.25l-2.5,0c-0.69,0 -1.25,-0.56 -1.25,-1.25c-0,0 -0,-4.605 -0,-8.369c-0,-0.731 0.458,-1.384 1.145,-1.633c0.688,-0.249 1.458,-0.041 1.926,0.521c0.549,0.658 1.059,1.27 1.416,1.699Z" style="fill:#fff;"/>
                    <path d="M561.313,2679.86c-0.332,0.398 -0.513,0.899 -0.513,1.416c0,1.87 0,6.366 0,6.366c0,0.69 0.56,1.25 1.25,1.25l2.5,0c0.69,0 1.25,-0.56 1.25,-1.25c0,0 0,-4.605 0,-8.369c0,-0.731 -0.458,-1.384 -1.146,-1.633c-0.687,-0.249 -1.457,-0.041 -1.925,0.521c-0.549,0.658 -1.059,1.27 -1.416,1.699Z" style="fill:#fff;"/>
                </g>
            </g>
            <g id="Enemy8" serif:id="Enemy">
                <circle id="enemyPos8" serif:id="enemyPos" cx="251.994" cy="2222.92" r="22.5" style="fill:#232323;stroke:#8148c8;stroke-width:4.77px;"/>
                <g>
                    <path d="M247.509,2219.39c0.331,0.397 0.512,0.898 0.512,1.416c0,1.869 0,6.365 0,6.365c0,0.69 -0.56,1.25 -1.25,1.25l-2.5,0c-0.689,0 -1.25,-0.56 -1.25,-1.25c0,0 0,-4.605 0,-8.369c0,-0.731 0.458,-1.384 1.146,-1.633c0.688,-0.249 1.458,-0.04 1.926,0.521c0.548,0.659 1.058,1.271 1.416,1.7Z" style="fill:#fff;"/>
                    <path d="M256.479,2219.39c-0.331,0.397 -0.512,0.898 -0.512,1.416c-0,1.869 -0,6.365 -0,6.365c-0,0.69 0.56,1.25 1.25,1.25l2.5,0c0.69,0 1.25,-0.56 1.25,-1.25c-0,0 -0,-4.605 -0,-8.369c-0,-0.731 -0.458,-1.384 -1.146,-1.633c-0.688,-0.249 -1.458,-0.04 -1.926,0.521c-0.548,0.659 -1.058,1.271 -1.416,1.7Z" style="fill:#fff;"/>
                </g>
            </g>
            <g id="Enemy9" serif:id="Enemy">
                <circle id="enemyPos9" serif:id="enemyPos" cx="299.577" cy="1804.25" r="22.5" style="fill:#232323;stroke:#8148c8;stroke-width:4.77px;"/>
                <g>
                    <path d="M295.092,1800.72c0.331,0.397 0.513,0.898 0.513,1.416l-0,6.366c-0,0.69 -0.56,1.25 -1.25,1.25l-2.5,-0c-0.69,-0 -1.25,-0.56 -1.25,-1.25l-0,-8.369c-0,-0.732 0.458,-1.384 1.145,-1.633c0.688,-0.249 1.458,-0.041 1.926,0.521c0.549,0.658 1.059,1.27 1.416,1.699Z" style="fill:#fff;"/>
                    <path d="M304.063,1800.72c-0.332,0.397 -0.513,0.898 -0.513,1.416c0,1.87 0,6.366 0,6.366c0,0.69 0.56,1.25 1.25,1.25l2.5,-0c0.69,-0 1.25,-0.56 1.25,-1.25l0,-8.369c0,-0.732 -0.458,-1.384 -1.146,-1.633c-0.687,-0.249 -1.457,-0.041 -1.925,0.521c-0.549,0.658 -1.059,1.27 -1.416,1.699Z" style="fill:#fff;"/>
                </g>
            </g>
            <g id="Enemy10" serif:id="Enemy">
                <circle id="enemyPos10" serif:id="enemyPos" cx="319.744" cy="1613.09" r="22.5" style="fill:#232323;stroke:#8148c8;stroke-width:4.77px;"/>
                <g>
                    <path d="M315.259,1609.55c0.331,0.398 0.512,0.899 0.512,1.416c0,1.87 0,6.366 0,6.366c0,0.69 -0.56,1.25 -1.25,1.25l-2.5,0c-0.689,0 -1.25,-0.56 -1.25,-1.25l0,-8.369c0,-0.731 0.459,-1.384 1.146,-1.633c0.688,-0.249 1.458,-0.041 1.926,0.521c0.548,0.659 1.058,1.27 1.416,1.699Z" style="fill:#fff;"/>
                    <path d="M324.229,1609.55c-0.331,0.398 -0.512,0.899 -0.512,1.416c-0,1.87 -0,6.366 -0,6.366c-0,0.69 0.56,1.25 1.25,1.25l2.5,0c0.69,0 1.25,-0.56 1.25,-1.25c-0,0 -0,-4.605 -0,-8.369c-0,-0.731 -0.458,-1.384 -1.146,-1.633c-0.688,-0.249 -1.457,-0.041 -1.926,0.521c-0.548,0.659 -1.058,1.27 -1.416,1.699Z" style="fill:#fff;"/>
                </g>
            </g>
            <g id="Enemy11" serif:id="Enemy">
                <circle id="enemyPos11" serif:id="enemyPos" cx="240.744" cy="1542.09" r="22.5" style="fill:#232323;stroke:#8148c8;stroke-width:4.77px;"/>
                <g>
                    <path d="M236.259,1538.55c0.331,0.398 0.512,0.899 0.512,1.416c0,1.87 0,6.366 0,6.366c0,0.69 -0.56,1.25 -1.25,1.25l-2.5,0c-0.689,0 -1.25,-0.56 -1.25,-1.25l0,-8.369c0,-0.731 0.459,-1.384 1.146,-1.633c0.688,-0.249 1.458,-0.041 1.926,0.521c0.548,0.659 1.058,1.27 1.416,1.699Z" style="fill:#fff;"/>
                    <path d="M245.229,1538.55c-0.331,0.398 -0.512,0.899 -0.512,1.416l-0,6.366c-0,0.69 0.56,1.25 1.25,1.25l2.5,0c0.69,0 1.25,-0.56 1.25,-1.25l-0,-8.369c-0,-0.731 -0.458,-1.384 -1.146,-1.633c-0.688,-0.249 -1.457,-0.041 -1.926,0.521c-0.548,0.659 -1.058,1.27 -1.416,1.699Z" style="fill:#fff;"/>
                </g>
            </g>
            <g id="Enemy12" serif:id="Enemy">
                <circle id="enemyPos12" serif:id="enemyPos" cx="243.744" cy="1471.09" r="22.5" style="fill:#232323;stroke:#8148c8;stroke-width:4.77px;"/>
                <g>
                    <path d="M239.259,1467.55c0.331,0.398 0.512,0.899 0.512,1.416l0,6.366c0,0.69 -0.56,1.25 -1.25,1.25l-2.5,0c-0.689,0 -1.25,-0.56 -1.25,-1.25l0,-8.369c0,-0.731 0.459,-1.384 1.146,-1.633c0.688,-0.249 1.458,-0.041 1.926,0.521c0.548,0.659 1.058,1.27 1.416,1.699Z" style="fill:#fff;"/>
                    <path d="M248.229,1467.55c-0.331,0.398 -0.512,0.899 -0.512,1.416c-0,1.87 -0,6.366 -0,6.366c-0,0.69 0.56,1.25 1.25,1.25l2.5,0c0.69,0 1.25,-0.56 1.25,-1.25l-0,-8.369c-0,-0.731 -0.458,-1.384 -1.146,-1.633c-0.688,-0.249 -1.457,-0.041 -1.926,0.521c-0.548,0.659 -1.058,1.27 -1.416,1.699Z" style="fill:#fff;"/>
                </g>
            </g>
            <g id="Enemy13" serif:id="Enemy">
                <circle id="enemyPos13" serif:id="enemyPos" cx="472.077" cy="1315.75" r="22.5" style="fill:#232323;stroke:#8148c8;stroke-width:4.77px;"/>
                <g>
                    <path d="M467.592,1312.22c0.331,0.397 0.513,0.899 0.513,1.416c-0,1.87 -0,6.366 -0,6.366c-0,0.69 -0.56,1.25 -1.25,1.25l-2.5,-0c-0.69,-0 -1.25,-0.56 -1.25,-1.25c-0,-0 -0,-4.606 -0,-8.369c-0,-0.731 0.458,-1.384 1.145,-1.633c0.688,-0.249 1.458,-0.041 1.926,0.521c0.549,0.658 1.059,1.27 1.416,1.699Z" style="fill:#fff;"/>
                    <path d="M476.563,1312.22c-0.332,0.397 -0.513,0.899 -0.513,1.416c0,1.87 0,6.366 0,6.366c0,0.69 0.56,1.25 1.25,1.25l2.5,-0c0.69,-0 1.25,-0.56 1.25,-1.25l0,-8.369c0,-0.731 -0.458,-1.384 -1.146,-1.633c-0.687,-0.249 -1.457,-0.041 -1.925,0.521c-0.549,0.658 -1.059,1.27 -1.416,1.699Z" style="fill:#fff;"/>
                </g>
            </g>
            <g id="Enemy14" serif:id="Enemy">
                <circle id="enemyPos14" serif:id="enemyPos" cx="438.744" cy="1383.75" r="22.5" style="fill:#232323;stroke:#8148c8;stroke-width:4.77px;"/>
                <g>
                    <path d="M434.259,1380.22c0.331,0.397 0.512,0.899 0.512,1.416l0,6.366c0,0.69 -0.56,1.25 -1.25,1.25l-2.5,-0c-0.689,-0 -1.25,-0.56 -1.25,-1.25l0,-8.369c0,-0.731 0.458,-1.384 1.146,-1.633c0.688,-0.249 1.458,-0.041 1.926,0.521c0.548,0.658 1.058,1.27 1.416,1.699Z" style="fill:#fff;"/>
                    <path d="M443.229,1380.22c-0.331,0.397 -0.512,0.899 -0.512,1.416c-0,1.87 -0,6.366 -0,6.366c-0,0.69 0.56,1.25 1.25,1.25l2.5,-0c0.69,-0 1.25,-0.56 1.25,-1.25l-0,-8.369c-0,-0.731 -0.458,-1.384 -1.146,-1.633c-0.688,-0.249 -1.458,-0.041 -1.926,0.521c-0.548,0.658 -1.058,1.27 -1.416,1.699Z" style="fill:#fff;"/>
                </g>
            </g>
            <g id="Enemy15" serif:id="Enemy">
                <circle id="enemyPos15" serif:id="enemyPos" cx="530.744" cy="813.085" r="22.5" style="fill:#232323;stroke:#8148c8;stroke-width:4.77px;"/>
                <g>
                    <path d="M526.259,809.553c0.331,0.398 0.512,0.899 0.512,1.416c0,1.87 0,6.366 0,6.366c0,0.69 -0.56,1.25 -1.25,1.25l-2.5,0c-0.689,0 -1.25,-0.56 -1.25,-1.25l0,-8.369c0,-0.731 0.458,-1.384 1.146,-1.633c0.688,-0.249 1.458,-0.041 1.926,0.521c0.548,0.659 1.058,1.27 1.416,1.699Z" style="fill:#fff;"/>
                    <path d="M535.229,809.553c-0.331,0.398 -0.512,0.899 -0.512,1.416c-0,1.87 -0,6.366 -0,6.366c-0,0.69 0.56,1.25 1.25,1.25l2.5,0c0.69,0 1.25,-0.56 1.25,-1.25l-0,-8.369c-0,-0.731 -0.458,-1.384 -1.146,-1.633c-0.688,-0.249 -1.458,-0.041 -1.926,0.521c-0.548,0.659 -1.058,1.27 -1.416,1.699Z" style="fill:#fff;"/>
                </g>
            </g>
            <g id="Enemy16" serif:id="Enemy">
                <circle id="enemyPos16" serif:id="enemyPos" cx="313.411" cy="1003.75" r="22.5" style="fill:#232323;stroke:#8148c8;stroke-width:4.77px;"/>
                <g>
                    <path d="M308.925,1000.22c0.332,0.397 0.513,0.899 0.513,1.416l0,6.366c0,0.69 -0.56,1.25 -1.25,1.25l-2.5,-0c-0.69,-0 -1.25,-0.56 -1.25,-1.25l0,-8.369c0,-0.732 0.458,-1.384 1.146,-1.633c0.687,-0.249 1.457,-0.041 1.925,0.521c0.549,0.658 1.059,1.27 1.416,1.699Z" style="fill:#fff;"/>
                    <path d="M317.896,1000.22c-0.331,0.397 -0.513,0.899 -0.513,1.416c0,1.87 0,6.366 0,6.366c0,0.69 0.56,1.25 1.25,1.25l2.5,-0c0.69,-0 1.25,-0.56 1.25,-1.25l0,-8.369c0,-0.732 -0.458,-1.384 -1.145,-1.633c-0.688,-0.249 -1.458,-0.041 -1.926,0.521c-0.549,0.658 -1.058,1.27 -1.416,1.699Z" style="fill:#fff;"/>
                </g>
            </g>
            <g id="Enemy17" serif:id="Enemy">
                <circle id="enemyPos17" serif:id="enemyPos" cx="445.411" cy="1005.09" r="22.5" style="fill:#232323;stroke:#8148c8;stroke-width:4.77px;"/>
                <g>
                    <path d="M440.925,1001.55c0.332,0.398 0.513,0.899 0.513,1.416l0,6.366c0,0.69 -0.56,1.25 -1.25,1.25l-2.5,0c-0.69,0 -1.25,-0.56 -1.25,-1.25l0,-8.369c0,-0.731 0.458,-1.384 1.146,-1.633c0.687,-0.249 1.457,-0.041 1.925,0.521c0.549,0.659 1.059,1.27 1.416,1.699Z" style="fill:#fff;"/>
                    <path d="M449.896,1001.55c-0.331,0.398 -0.513,0.899 -0.513,1.416l0,6.366c0,0.69 0.56,1.25 1.25,1.25l2.5,0c0.69,0 1.25,-0.56 1.25,-1.25l0,-8.369c0,-0.731 -0.458,-1.384 -1.145,-1.633c-0.688,-0.249 -1.458,-0.041 -1.926,0.521c-0.549,0.659 -1.058,1.27 -1.416,1.699Z" style="fill:#fff;"/>
                </g>
            </g>
            <g id="Enemy18" serif:id="Enemy">
                <circle id="enemyPos18" serif:id="enemyPos" cx="536.411" cy="1005.09" r="22.5" style="fill:#232323;stroke:#8148c8;stroke-width:4.77px;"/>
                <g>
                    <path d="M531.925,1001.55c0.332,0.398 0.513,0.899 0.513,1.416l0,6.366c0,0.69 -0.56,1.25 -1.25,1.25l-2.5,0c-0.69,0 -1.25,-0.56 -1.25,-1.25c0,0 0,-4.605 0,-8.369c0,-0.731 0.458,-1.384 1.146,-1.633c0.687,-0.249 1.457,-0.041 1.925,0.521c0.549,0.659 1.059,1.27 1.416,1.699Z" style="fill:#fff;"/>
                    <path d="M540.896,1001.55c-0.331,0.398 -0.513,0.899 -0.513,1.416l0,6.366c0,0.69 0.56,1.25 1.25,1.25l2.5,0c0.69,0 1.25,-0.56 1.25,-1.25l0,-8.369c0,-0.731 -0.458,-1.384 -1.145,-1.633c-0.688,-0.249 -1.458,-0.041 -1.926,0.521c-0.549,0.659 -1.058,1.27 -1.416,1.699Z" style="fill:#fff;"/>
                </g>
            </g>
            <g id="Enemy19" serif:id="Enemy">
                <circle id="enemyPos19" serif:id="enemyPos" cx="536.411" cy="1297.09" r="22.5" style="fill:#232323;stroke:#8148c8;stroke-width:4.77px;"/>
                <g>
                    <path d="M531.925,1293.55c0.332,0.398 0.513,0.899 0.513,1.416l0,6.366c0,0.69 -0.56,1.25 -1.25,1.25l-2.5,0c-0.69,0 -1.25,-0.56 -1.25,-1.25c0,0 0,-4.605 0,-8.369c0,-0.731 0.458,-1.384 1.146,-1.633c0.687,-0.249 1.457,-0.041 1.925,0.521c0.549,0.659 1.059,1.27 1.416,1.699Z" style="fill:#fff;"/>
                    <path d="M540.896,1293.55c-0.331,0.398 -0.513,0.899 -0.513,1.416l0,6.366c0,0.69 0.56,1.25 1.25,1.25l2.5,0c0.69,0 1.25,-0.56 1.25,-1.25l0,-8.369c0,-0.731 -0.458,-1.384 -1.145,-1.633c-0.688,-0.249 -1.458,-0.041 -1.926,0.521c-0.549,0.659 -1.058,1.27 -1.416,1.699Z" style="fill:#fff;"/>
                </g>
            </g>
            <g id="Enemy20" serif:id="Enemy">
                <circle id="enemyPos20" serif:id="enemyPos" cx="381.077" cy="1060.75" r="22.5" style="fill:#232323;stroke:#8148c8;stroke-width:4.77px;"/>
                <g>
                    <path d="M376.592,1057.22c0.331,0.397 0.513,0.899 0.513,1.416l-0,6.366c-0,0.69 -0.56,1.25 -1.25,1.25l-2.5,-0c-0.69,-0 -1.25,-0.56 -1.25,-1.25l-0,-8.369c-0,-0.731 0.458,-1.384 1.145,-1.633c0.688,-0.249 1.458,-0.041 1.926,0.521c0.549,0.658 1.059,1.27 1.416,1.699Z" style="fill:#fff;"/>
                    <path d="M385.563,1057.22c-0.332,0.397 -0.513,0.899 -0.513,1.416c0,1.87 0,6.366 0,6.366c0,0.69 0.56,1.25 1.25,1.25l2.5,-0c0.69,-0 1.25,-0.56 1.25,-1.25l0,-8.369c0,-0.731 -0.458,-1.384 -1.146,-1.633c-0.687,-0.249 -1.457,-0.041 -1.925,0.521c-0.549,0.658 -1.059,1.27 -1.416,1.699Z" style="fill:#fff;"/>
                </g>
            </g>
            <g id="Enemy21" serif:id="Enemy">
                <circle id="enemyPos21" serif:id="enemyPos" cx="381.077" cy="845.419" r="22.5" style="fill:#232323;stroke:#8148c8;stroke-width:4.77px;"/>
                <g>
                    <path d="M376.592,841.887c0.331,0.397 0.513,0.898 0.513,1.416l-0,6.366c-0,0.689 -0.56,1.25 -1.25,1.25l-2.5,-0c-0.69,-0 -1.25,-0.561 -1.25,-1.25l-0,-8.37c-0,-0.731 0.458,-1.384 1.145,-1.633c0.688,-0.249 1.458,-0.04 1.926,0.522c0.549,0.658 1.059,1.27 1.416,1.699Z" style="fill:#fff;"/>
                    <path d="M385.563,841.887c-0.332,0.397 -0.513,0.898 -0.513,1.416c0,1.869 0,6.366 0,6.366c0,0.689 0.56,1.25 1.25,1.25l2.5,-0c0.69,-0 1.25,-0.561 1.25,-1.25l0,-8.37c0,-0.731 -0.458,-1.384 -1.146,-1.633c-0.687,-0.249 -1.457,-0.04 -1.925,0.522c-0.549,0.658 -1.059,1.27 -1.416,1.699Z" style="fill:#fff;"/>
                </g>
            </g>
            <g id="Enemy22" serif:id="Enemy">
                <circle id="enemyPos22" serif:id="enemyPos" cx="530.077" cy="662.752" r="22.5" style="fill:#232323;stroke:#8148c8;stroke-width:4.77px;"/>
                <g>
                    <path d="M525.592,659.22c0.331,0.398 0.513,0.899 0.513,1.416l-0,6.366c-0,0.69 -0.56,1.25 -1.25,1.25l-2.5,-0c-0.69,-0 -1.25,-0.56 -1.25,-1.25l-0,-8.369c-0,-0.731 0.458,-1.384 1.145,-1.633c0.688,-0.249 1.458,-0.041 1.926,0.521c0.549,0.658 1.059,1.27 1.416,1.699Z" style="fill:#fff;"/>
                    <path d="M534.563,659.22c-0.332,0.398 -0.513,0.899 -0.513,1.416c0,1.87 0,6.366 0,6.366c0,0.69 0.56,1.25 1.25,1.25l2.5,-0c0.69,-0 1.25,-0.56 1.25,-1.25l0,-8.369c0,-0.731 -0.458,-1.384 -1.146,-1.633c-0.687,-0.249 -1.457,-0.041 -1.925,0.521c-0.549,0.658 -1.059,1.27 -1.416,1.699Z" style="fill:#fff;"/>
                </g>
            </g>
            <g id="Enemy23" serif:id="Enemy">
                <circle id="enemyPos23" serif:id="enemyPos" cx="372.077" cy="388.752" r="22.5" style="fill:#232323;stroke:#8148c8;stroke-width:4.77px;"/>
                <g>
                    <path d="M367.592,385.22c0.331,0.398 0.513,0.899 0.513,1.416c-0,1.87 -0,6.366 -0,6.366c-0,0.69 -0.56,1.25 -1.25,1.25l-2.5,-0c-0.69,-0 -1.25,-0.56 -1.25,-1.25l-0,-8.369c-0,-0.731 0.458,-1.384 1.145,-1.633c0.688,-0.249 1.458,-0.041 1.926,0.521c0.549,0.658 1.059,1.27 1.416,1.699Z" style="fill:#fff;"/>
                    <path d="M376.563,385.22c-0.332,0.398 -0.513,0.899 -0.513,1.416c0,1.87 0,6.366 0,6.366c0,0.69 0.56,1.25 1.25,1.25l2.5,-0c0.69,-0 1.25,-0.56 1.25,-1.25l0,-8.369c0,-0.731 -0.458,-1.384 -1.146,-1.633c-0.687,-0.249 -1.457,-0.041 -1.925,0.521c-0.549,0.658 -1.059,1.27 -1.416,1.699Z" style="fill:#fff;"/>
                </g>
            </g>
            <g id="Enemy24" serif:id="Enemy">
                <circle id="enemyPos24" serif:id="enemyPos" cx="372.077" cy="236.752" r="22.5" style="fill:#232323;stroke:#8148c8;stroke-width:4.77px;"/>
                <g>
                    <path d="M367.592,233.22c0.331,0.398 0.513,0.899 0.513,1.416c-0,1.87 -0,6.366 -0,6.366c-0,0.69 -0.56,1.25 -1.25,1.25l-2.5,-0c-0.69,-0 -1.25,-0.56 -1.25,-1.25l-0,-8.369c-0,-0.731 0.458,-1.384 1.145,-1.633c0.688,-0.249 1.458,-0.041 1.926,0.521c0.549,0.658 1.059,1.27 1.416,1.699Z" style="fill:#fff;"/>
                    <path d="M376.563,233.22c-0.332,0.398 -0.513,0.899 -0.513,1.416c0,1.87 0,6.366 0,6.366c0,0.69 0.56,1.25 1.25,1.25l2.5,-0c0.69,-0 1.25,-0.56 1.25,-1.25l0,-8.369c0,-0.731 -0.458,-1.384 -1.146,-1.633c-0.687,-0.249 -1.457,-0.041 -1.925,0.521c-0.549,0.658 -1.059,1.27 -1.416,1.699Z" style="fill:#fff;"/>
                </g>
            </g>
            <g id="Enemy25" serif:id="Enemy">
                <circle id="enemyPos25" serif:id="enemyPos" cx="230.077" cy="254.752" r="22.5" style="fill:#232323;stroke:#8148c8;stroke-width:4.77px;"/>
                <g>
                    <path d="M225.592,251.22c0.331,0.398 0.513,0.899 0.513,1.416c-0,1.87 -0,6.366 -0,6.366c-0,0.69 -0.56,1.25 -1.25,1.25l-2.5,-0c-0.69,-0 -1.25,-0.56 -1.25,-1.25l-0,-8.369c-0,-0.731 0.458,-1.384 1.145,-1.633c0.688,-0.249 1.458,-0.041 1.926,0.521c0.549,0.658 1.059,1.27 1.416,1.699Z" style="fill:#fff;"/>
                    <path d="M234.563,251.22c-0.332,0.398 -0.513,0.899 -0.513,1.416c0,1.87 0,6.366 0,6.366c0,0.69 0.56,1.25 1.25,1.25l2.5,-0c0.69,-0 1.25,-0.56 1.25,-1.25l0,-8.369c0,-0.731 -0.458,-1.384 -1.146,-1.633c-0.687,-0.249 -1.457,-0.041 -1.925,0.521c-0.549,0.658 -1.059,1.27 -1.416,1.699Z" style="fill:#fff;"/>
                </g>
            </g>
            <g id="Enemy26" serif:id="Enemy">
                <circle id="enemyPos26" serif:id="enemyPos" cx="456.077" cy="444.752" r="22.5" style="fill:#232323;stroke:#8148c8;stroke-width:4.77px;"/>
                <g>
                    <path d="M451.592,441.22c0.331,0.398 0.513,0.899 0.513,1.416c-0,1.87 -0,6.366 -0,6.366c-0,0.69 -0.56,1.25 -1.25,1.25l-2.5,-0c-0.69,-0 -1.25,-0.56 -1.25,-1.25l-0,-8.369c-0,-0.731 0.458,-1.384 1.145,-1.633c0.688,-0.249 1.458,-0.041 1.926,0.521c0.549,0.658 1.059,1.27 1.416,1.699Z" style="fill:#fff;"/>
                    <path d="M460.563,441.22c-0.332,0.398 -0.513,0.899 -0.513,1.416l0,6.366c0,0.69 0.56,1.25 1.25,1.25l2.5,-0c0.69,-0 1.25,-0.56 1.25,-1.25l0,-8.369c0,-0.731 -0.458,-1.384 -1.146,-1.633c-0.687,-0.249 -1.457,-0.041 -1.925,0.521c-0.549,0.658 -1.059,1.27 -1.416,1.699Z" style="fill:#fff;"/>
                </g>
            </g>
            <g id="Enemy27" serif:id="Enemy">
                <circle id="enemyPos27" serif:id="enemyPos" cx="381.077" cy="752.752" r="22.5" style="fill:#232323;stroke:#8148c8;stroke-width:4.77px;"/>
                <g>
                    <path d="M376.592,749.22c0.331,0.398 0.513,0.899 0.513,1.416l-0,6.366c-0,0.69 -0.56,1.25 -1.25,1.25l-2.5,-0c-0.69,-0 -1.25,-0.56 -1.25,-1.25l-0,-8.369c-0,-0.731 0.458,-1.384 1.145,-1.633c0.688,-0.249 1.458,-0.041 1.926,0.521c0.549,0.658 1.059,1.27 1.416,1.699Z" style="fill:#fff;"/>
                    <path d="M385.563,749.22c-0.332,0.398 -0.513,0.899 -0.513,1.416c0,1.87 0,6.366 0,6.366c0,0.69 0.56,1.25 1.25,1.25l2.5,-0c0.69,-0 1.25,-0.56 1.25,-1.25l0,-8.369c0,-0.731 -0.458,-1.384 -1.146,-1.633c-0.687,-0.249 -1.457,-0.041 -1.925,0.521c-0.549,0.658 -1.059,1.27 -1.416,1.699Z" style="fill:#fff;"/>
                </g>
            </g>
            <g id="Enemy28" serif:id="Enemy">
                <circle id="enemyPos28" serif:id="enemyPos" cx="245.077" cy="710.752" r="22.5" style="fill:#232323;stroke:#8148c8;stroke-width:4.77px;"/>
                <g>
                    <path d="M240.592,707.22c0.331,0.398 0.513,0.899 0.513,1.416c-0,1.87 -0,6.366 -0,6.366c-0,0.69 -0.56,1.25 -1.25,1.25l-2.5,-0c-0.69,-0 -1.25,-0.56 -1.25,-1.25l-0,-8.369c-0,-0.731 0.458,-1.384 1.145,-1.633c0.688,-0.249 1.458,-0.041 1.926,0.521c0.549,0.658 1.059,1.27 1.416,1.699Z" style="fill:#fff;"/>
                    <path d="M249.563,707.22c-0.332,0.398 -0.513,0.899 -0.513,1.416c0,1.87 0,6.366 0,6.366c0,0.69 0.56,1.25 1.25,1.25l2.5,-0c0.69,-0 1.25,-0.56 1.25,-1.25l0,-8.369c0,-0.731 -0.458,-1.384 -1.146,-1.633c-0.687,-0.249 -1.457,-0.041 -1.925,0.521c-0.549,0.658 -1.059,1.27 -1.416,1.699Z" style="fill:#fff;"/>
                </g>
            </g>
            <g id="Enemy29" serif:id="Enemy">
                <circle id="enemyPos29" serif:id="enemyPos" cx="517.077" cy="1590.59" r="22.5" style="fill:#232323;stroke:#8148c8;stroke-width:4.77px;"/>
                <g>
                    <path d="M512.592,1587.05c0.331,0.398 0.513,0.899 0.513,1.416l-0,6.366c-0,0.69 -0.56,1.25 -1.25,1.25l-2.5,0c-0.69,0 -1.25,-0.56 -1.25,-1.25l-0,-8.369c-0,-0.731 0.458,-1.384 1.145,-1.633c0.688,-0.249 1.458,-0.041 1.926,0.521c0.549,0.659 1.059,1.27 1.416,1.699Z" style="fill:#fff;"/>
                    <path d="M521.563,1587.05c-0.332,0.398 -0.513,0.899 -0.513,1.416c0,1.87 0,6.366 0,6.366c0,0.69 0.56,1.25 1.25,1.25l2.5,0c0.69,0 1.25,-0.56 1.25,-1.25l0,-8.369c0,-0.731 -0.458,-1.384 -1.146,-1.633c-0.687,-0.249 -1.457,-0.041 -1.925,0.521c-0.549,0.659 -1.059,1.27 -1.416,1.699Z" style="fill:#fff;"/>
                </g>
            </g>
        </g>
        <path id="_-collision-2" serif:id="{collision}" d="M176.099,1681c-0,-0 82.685,-0 102,-0c1.061,-0 2.078,0.421 2.828,1.171c0.75,0.751 1.172,1.768 1.172,2.829c-0,3.106 -0,7.394 -0,10.5c-0,2.209 -1.791,4 -4,4c-22.373,-0 -131,-0 -131,-0l-0,-18.5l68.5,-0" style="fill:#676767;stroke:#a10745;stroke-width:25px;"/>
        <path id="_-collision-3" serif:id="{collision}" d="M578.505,1456.5l-102,-0c-1.061,-0 -2.079,-0.422 -2.829,-1.172c-0.75,-0.75 -1.171,-1.767 -1.171,-2.828c-0,-3.106 -0,-7.394 -0,-10.5c-0,-2.209 1.791,-4 4,-4c22.372,-0 131,-0 131,-0l-0,18.5l-68.5,-0" style="fill:#676767;stroke:#a10745;stroke-width:25px;"/>
        <circle id="_-collisionCircle-" serif:id="{collisionCircle}" cx="375" cy="315.621" r="26" style="fill:#a10745;stroke:#a10745;stroke-width:25.03px;"/>
        <g id="PowerPuck">
            <circle id="powerPos" cx="521.077" cy="1681.89" r="20.142" style="fill:#232323;stroke:#1cfe84;stroke-width:6.79px;"/>
            <g>
                <g id="eyes">
                    <g id="powerpuck-right-eye" serif:id="powerpuck/right-eye">
                        <g>
                            <path id="right-eye" d="M515.628,1680.48c-0.383,-0.101 -0.728,-0.291 -1.002,-0.554c-0.85,-0.816 -1.697,-1.635 -2.54,-2.458c-0.417,-0.406 -0.459,-1.173 0.124,-1.666c0.64,-0.543 1.28,-1.087 1.919,-1.633c0.572,-0.489 1.37,-0.398 1.797,0c1.544,1.44 3.097,2.87 4.659,4.291c0.51,0.465 0.773,1.308 0.295,2.06c-0.483,0.76 -1.437,0.969 -2.137,0.784c-1.039,-0.274 -2.077,-0.549 -3.115,-0.824Z" style="fill:#fff;"/>
                            <path id="right-eye1" serif:id="right-eye" d="M520.177,1676.41c-0.111,-0.352 -0.316,-0.655 -0.579,-0.894c-0.851,-0.773 -1.699,-1.549 -2.545,-2.327c-0.424,-0.39 -1.215,-0.486 -1.781,-0c-0.627,0.538 -1.255,1.076 -1.884,1.611c-0.577,0.491 -0.519,1.248 -0.106,1.646c1.542,1.483 3.094,2.955 4.655,4.417c0.542,0.508 1.47,0.705 2.279,0.267c0.756,-0.409 1.06,-1.257 0.841,-1.943c-0.295,-0.925 -0.589,-1.85 -0.88,-2.777Z" style="fill:#fff;"/>
                        </g>
                        <g>
                            <path id="right-eye2" serif:id="right-eye" d="M520.167,1686.63c-0.123,0.399 -0.351,0.745 -0.645,1.018c-0.995,0.925 -1.992,1.845 -2.994,2.761c-0.485,0.444 -1.432,0.63 -2.07,0c-0.651,-0.641 -1.3,-1.284 -1.947,-1.929c-0.62,-0.619 -0.345,-1.481 0.121,-1.891c1.772,-1.56 3.533,-3.131 5.284,-4.714c0.555,-0.501 1.481,-0.713 2.299,-0.269c0.775,0.419 1.086,1.293 0.873,1.999c-0.305,1.009 -0.612,2.018 -0.921,3.025Z" style="fill:#fff;"/>
                            <path id="right-eye3" serif:id="right-eye" d="M515.554,1682.27c-0.406,0.106 -0.773,0.304 -1.074,0.57c-0.993,0.876 -1.989,1.749 -2.988,2.619c-0.461,0.401 -0.751,1.252 -0.139,1.867c0.635,0.638 1.271,1.273 1.909,1.906c0.63,0.626 1.57,0.435 2.051,0c1.774,-1.604 3.537,-3.22 5.288,-4.849c0.526,-0.49 0.79,-1.372 0.288,-2.153c-0.491,-0.764 -1.438,-0.978 -2.148,-0.792c-1.062,0.278 -2.124,0.555 -3.187,0.832Z" style="fill:#fff;"/>
                        </g>
                    </g>
                    <g id="powerpuck-left-eye" serif:id="powerpuck/left-eye">
                        <g>
                            <path id="right-eye4" serif:id="right-eye" d="M522.038,1676.41c0.105,-0.351 0.306,-0.655 0.565,-0.894c0.84,-0.773 1.677,-1.549 2.511,-2.327c0.423,-0.395 1.213,-0.482 1.781,-0c0.635,0.538 1.271,1.076 1.908,1.611c0.577,0.485 0.544,1.243 0.131,1.646c-1.52,1.483 -3.049,2.955 -4.589,4.417c-0.539,0.512 -1.467,0.701 -2.275,0.267c-0.756,-0.405 -1.081,-1.249 -0.87,-1.943c0.281,-0.925 0.561,-1.85 0.838,-2.777Z" style="fill:#fff;"/>
                            <path id="right-eye5" serif:id="right-eye" d="M526.648,1680.48c0.381,-0.101 0.724,-0.29 0.994,-0.554c0.838,-0.816 1.672,-1.635 2.503,-2.458c0.417,-0.412 0.434,-1.179 -0.149,-1.666c-0.649,-0.543 -1.296,-1.087 -1.943,-1.633c-0.574,-0.484 -1.372,-0.403 -1.798,0c-1.522,1.44 -3.053,2.87 -4.594,4.291c-0.508,0.469 -0.75,1.314 -0.264,2.06c0.492,0.756 1.445,0.97 2.149,0.784c1.034,-0.274 2.069,-0.549 3.102,-0.824Z" style="fill:#fff;"/>
                        </g>
                        <g>
                            <path id="right-eye6" serif:id="right-eye" d="M526.749,1682.27c0.409,0.107 0.778,0.304 1.083,0.57c1.006,0.876 2.015,1.749 3.027,2.619c0.462,0.396 0.776,1.246 0.167,1.867c-0.625,0.638 -1.251,1.273 -1.88,1.906c-0.627,0.632 -1.57,0.429 -2.051,0c-1.798,-1.604 -3.585,-3.22 -5.361,-4.849c-0.529,-0.486 -0.815,-1.366 -0.32,-2.153c0.482,-0.768 1.43,-0.977 2.136,-0.792c1.066,0.278 2.132,0.555 3.199,0.832Z" style="fill:#fff;"/>
                            <path id="right-eye7" serif:id="right-eye" d="M522.202,1686.63c0.129,0.399 0.363,0.745 0.661,1.018c1.008,0.925 2.019,1.845 3.035,2.761c0.485,0.438 1.435,0.636 2.07,0c0.641,-0.641 1.281,-1.284 1.918,-1.929c0.617,-0.625 0.316,-1.486 -0.15,-1.891c-1.795,-1.56 -3.58,-3.131 -5.355,-4.714c-0.557,-0.497 -1.484,-0.717 -2.303,-0.269c-0.775,0.423 -1.063,1.301 -0.842,1.999c0.32,1.009 0.642,2.018 0.966,3.025Z" style="fill:#fff;"/>
                        </g>
                    </g>
                </g>
            </g>
        </g>
        <g id="PowerPuck1" serif:id="PowerPuck">
            <circle id="powerPos1" serif:id="powerPos" cx="240.077" cy="1391.89" r="20.142" style="fill:#232323;stroke:#1cfe84;stroke-width:6.79px;"/>
            <g>
                <g id="eyes1" serif:id="eyes">
                    <g id="powerpuck-right-eye1" serif:id="powerpuck/right-eye">
                        <g>
                            <path id="right-eye8" serif:id="right-eye" d="M234.628,1390.48c-0.383,-0.101 -0.728,-0.291 -1.002,-0.554c-0.85,-0.816 -1.697,-1.635 -2.54,-2.458c-0.417,-0.406 -0.459,-1.173 0.124,-1.666c0.64,-0.543 1.28,-1.087 1.919,-1.633c0.572,-0.489 1.37,-0.398 1.797,0c1.544,1.44 3.097,2.87 4.659,4.291c0.51,0.465 0.773,1.308 0.295,2.06c-0.483,0.76 -1.437,0.969 -2.137,0.784c-1.039,-0.274 -2.077,-0.549 -3.115,-0.824Z" style="fill:#fff;"/>
                            <path id="right-eye9" serif:id="right-eye" d="M239.177,1386.41c-0.111,-0.352 -0.316,-0.655 -0.579,-0.894c-0.851,-0.773 -1.699,-1.549 -2.545,-2.327c-0.424,-0.39 -1.215,-0.486 -1.781,-0c-0.627,0.538 -1.255,1.076 -1.884,1.611c-0.577,0.491 -0.519,1.248 -0.106,1.646c1.542,1.483 3.094,2.955 4.655,4.417c0.542,0.508 1.47,0.705 2.279,0.267c0.756,-0.409 1.06,-1.257 0.841,-1.943c-0.295,-0.925 -0.589,-1.85 -0.88,-2.777Z" style="fill:#fff;"/>
                        </g>
                        <g>
                            <path id="right-eye10" serif:id="right-eye" d="M239.167,1396.63c-0.123,0.399 -0.351,0.745 -0.645,1.018c-0.995,0.925 -1.992,1.845 -2.994,2.761c-0.485,0.444 -1.432,0.63 -2.07,0c-0.651,-0.641 -1.3,-1.284 -1.947,-1.929c-0.62,-0.619 -0.345,-1.481 0.121,-1.891c1.772,-1.56 3.533,-3.131 5.284,-4.714c0.555,-0.501 1.481,-0.713 2.299,-0.269c0.775,0.419 1.086,1.293 0.873,1.999c-0.305,1.009 -0.612,2.018 -0.921,3.025Z" style="fill:#fff;"/>
                            <path id="right-eye11" serif:id="right-eye" d="M234.554,1392.27c-0.406,0.106 -0.773,0.304 -1.074,0.57c-0.993,0.876 -1.989,1.749 -2.988,2.619c-0.461,0.401 -0.751,1.252 -0.139,1.867c0.635,0.638 1.271,1.273 1.909,1.906c0.63,0.626 1.57,0.435 2.051,0c1.774,-1.604 3.537,-3.22 5.288,-4.849c0.526,-0.49 0.79,-1.372 0.288,-2.153c-0.491,-0.764 -1.438,-0.978 -2.148,-0.792c-1.062,0.278 -2.124,0.555 -3.187,0.832Z" style="fill:#fff;"/>
                        </g>
                    </g>
                    <g id="powerpuck-left-eye1" serif:id="powerpuck/left-eye">
                        <g>
                            <path id="right-eye12" serif:id="right-eye" d="M241.038,1386.41c0.105,-0.351 0.306,-0.655 0.565,-0.894c0.84,-0.773 1.677,-1.549 2.511,-2.327c0.423,-0.395 1.213,-0.482 1.781,-0c0.635,0.538 1.271,1.076 1.908,1.611c0.577,0.485 0.544,1.243 0.131,1.646c-1.52,1.483 -3.049,2.955 -4.589,4.417c-0.539,0.512 -1.467,0.701 -2.275,0.267c-0.756,-0.405 -1.081,-1.249 -0.87,-1.943c0.281,-0.925 0.561,-1.85 0.838,-2.777Z" style="fill:#fff;"/>
                            <path id="right-eye13" serif:id="right-eye" d="M245.648,1390.48c0.381,-0.101 0.724,-0.29 0.994,-0.554c0.838,-0.816 1.672,-1.635 2.503,-2.458c0.417,-0.412 0.434,-1.179 -0.149,-1.666c-0.649,-0.543 -1.296,-1.087 -1.943,-1.633c-0.574,-0.484 -1.372,-0.403 -1.798,0c-1.522,1.44 -3.053,2.87 -4.594,4.291c-0.508,0.469 -0.75,1.314 -0.264,2.06c0.492,0.756 1.445,0.97 2.149,0.784c1.034,-0.274 2.069,-0.549 3.102,-0.824Z" style="fill:#fff;"/>
                        </g>
                        <g>
                            <path id="right-eye14" serif:id="right-eye" d="M245.749,1392.27c0.409,0.107 0.778,0.304 1.083,0.57c1.006,0.876 2.015,1.749 3.027,2.619c0.462,0.396 0.776,1.246 0.167,1.867c-0.625,0.638 -1.251,1.273 -1.88,1.906c-0.627,0.632 -1.57,0.429 -2.051,0c-1.798,-1.604 -3.585,-3.22 -5.361,-4.849c-0.529,-0.486 -0.815,-1.366 -0.32,-2.153c0.482,-0.768 1.43,-0.977 2.136,-0.792c1.066,0.278 2.132,0.555 3.199,0.832Z" style="fill:#fff;"/>
                            <path id="right-eye15" serif:id="right-eye" d="M241.202,1396.63c0.129,0.399 0.363,0.745 0.661,1.018c1.008,0.925 2.019,1.845 3.035,2.761c0.485,0.438 1.435,0.636 2.07,0c0.641,-0.641 1.281,-1.284 1.918,-1.929c0.617,-0.625 0.316,-1.486 -0.15,-1.891c-1.795,-1.56 -3.58,-3.131 -5.355,-4.714c-0.557,-0.497 -1.484,-0.717 -2.303,-0.269c-0.775,0.423 -1.063,1.301 -0.842,1.999c0.32,1.009 0.642,2.018 0.966,3.025Z" style="fill:#fff;"/>
                        </g>
                    </g>
                </g>
            </g>
        </g>
        <g id="PowerPuck2" serif:id="PowerPuck">
            <circle id="powerPos2" serif:id="powerPos" cx="448.785" cy="1080.08" r="20.142" style="fill:#232323;stroke:#1cfe84;stroke-width:6.79px;"/>
            <g>
                <g id="eyes2" serif:id="eyes">
                    <g id="powerpuck-right-eye2" serif:id="powerpuck/right-eye">
                        <g>
                            <path id="right-eye16" serif:id="right-eye" d="M443.335,1078.67c-0.383,-0.102 -0.728,-0.291 -1.002,-0.555c-0.85,-0.816 -1.696,-1.635 -2.54,-2.457c-0.417,-0.407 -0.458,-1.174 0.124,-1.667c0.641,-0.543 1.28,-1.087 1.919,-1.632c0.572,-0.489 1.371,-0.398 1.797,-0c1.544,1.44 3.097,2.87 4.659,4.291c0.511,0.464 0.774,1.307 0.295,2.059c-0.483,0.761 -1.436,0.969 -2.137,0.784c-1.038,-0.274 -2.077,-0.548 -3.115,-0.823Z" style="fill:#fff;"/>
                            <path id="right-eye17" serif:id="right-eye" d="M447.884,1074.6c-0.11,-0.352 -0.315,-0.656 -0.578,-0.895c-0.851,-0.773 -1.7,-1.548 -2.546,-2.327c-0.423,-0.39 -1.215,-0.486 -1.781,0c-0.627,0.539 -1.255,1.076 -1.884,1.612c-0.576,0.49 -0.519,1.248 -0.106,1.645c1.542,1.483 3.094,2.955 4.655,4.418c0.543,0.507 1.471,0.704 2.279,0.267c0.757,-0.409 1.061,-1.257 0.841,-1.943c-0.295,-0.925 -0.588,-1.851 -0.88,-2.777Z" style="fill:#fff;"/>
                        </g>
                        <g>
                            <path id="right-eye18" serif:id="right-eye" d="M447.874,1084.82c-0.122,0.399 -0.351,0.745 -0.645,1.019c-0.994,0.924 -1.992,1.844 -2.994,2.761c-0.485,0.444 -1.431,0.629 -2.07,-0c-0.651,-0.641 -1.3,-1.284 -1.947,-1.93c-0.62,-0.618 -0.345,-1.48 0.121,-1.89c1.772,-1.56 3.534,-3.131 5.284,-4.714c0.555,-0.502 1.481,-0.714 2.3,-0.27c0.774,0.42 1.085,1.294 0.872,2c-0.305,1.009 -0.612,2.017 -0.921,3.024Z" style="fill:#fff;"/>
                            <path id="right-eye19" serif:id="right-eye" d="M443.262,1080.46c-0.407,0.106 -0.773,0.303 -1.075,0.569c-0.993,0.877 -1.989,1.75 -2.988,2.619c-0.461,0.402 -0.751,1.253 -0.139,1.868c0.635,0.637 1.271,1.272 1.909,1.906c0.631,0.625 1.57,0.434 2.051,-0c1.774,-1.605 3.537,-3.221 5.288,-4.85c0.527,-0.489 0.791,-1.372 0.288,-2.153c-0.491,-0.763 -1.438,-0.978 -2.148,-0.792c-1.062,0.278 -2.124,0.556 -3.186,0.833Z" style="fill:#fff;"/>
                        </g>
                    </g>
                    <g id="powerpuck-left-eye2" serif:id="powerpuck/left-eye">
                        <g>
                            <path id="right-eye20" serif:id="right-eye" d="M449.746,1074.6c0.105,-0.352 0.305,-0.656 0.565,-0.895c0.839,-0.773 1.676,-1.548 2.51,-2.327c0.423,-0.395 1.213,-0.481 1.781,0c0.635,0.539 1.271,1.076 1.909,1.612c0.577,0.485 0.543,1.242 0.13,1.645c-1.52,1.483 -3.049,2.955 -4.589,4.418c-0.539,0.512 -1.466,0.7 -2.274,0.267c-0.756,-0.406 -1.082,-1.25 -0.871,-1.943c0.282,-0.925 0.561,-1.851 0.839,-2.777Z" style="fill:#fff;"/>
                            <path id="right-eye21" serif:id="right-eye" d="M454.356,1078.67c0.38,-0.102 0.723,-0.291 0.993,-0.555c0.838,-0.816 1.672,-1.635 2.504,-2.457c0.416,-0.412 0.434,-1.179 -0.149,-1.667c-0.649,-0.543 -1.297,-1.087 -1.944,-1.632c-0.574,-0.485 -1.371,-0.403 -1.797,-0c-1.523,1.44 -3.054,2.87 -4.595,4.291c-0.507,0.468 -0.749,1.314 -0.264,2.059c0.492,0.756 1.445,0.971 2.149,0.784c1.035,-0.274 2.069,-0.548 3.103,-0.823Z" style="fill:#fff;"/>
                        </g>
                        <g>
                            <path id="right-eye22" serif:id="right-eye" d="M454.456,1080.46c0.409,0.106 0.778,0.304 1.083,0.569c1.006,0.877 2.015,1.75 3.028,2.619c0.461,0.397 0.775,1.247 0.167,1.868c-0.625,0.637 -1.252,1.272 -1.881,1.906c-0.627,0.631 -1.57,0.428 -2.05,-0c-1.799,-1.605 -3.586,-3.221 -5.361,-4.85c-0.53,-0.485 -0.816,-1.365 -0.321,-2.153c0.482,-0.768 1.43,-0.976 2.136,-0.792c1.066,0.278 2.133,0.556 3.199,0.833Z" style="fill:#fff;"/>
                            <path id="right-eye23" serif:id="right-eye" d="M449.909,1084.82c0.129,0.399 0.363,0.745 0.661,1.019c1.008,0.924 2.02,1.844 3.035,2.761c0.485,0.438 1.435,0.635 2.07,-0c0.642,-0.641 1.281,-1.284 1.918,-1.93c0.617,-0.624 0.317,-1.485 -0.149,-1.89c-1.796,-1.56 -3.581,-3.131 -5.355,-4.714c-0.558,-0.497 -1.485,-0.717 -2.304,-0.27c-0.775,0.423 -1.063,1.301 -0.842,2c0.32,1.009 0.642,2.017 0.966,3.024Z" style="fill:#fff;"/>
                        </g>
                    </g>
                </g>
            </g>
        </g>
    </g>
</svg>
