<?xml version="1.0" encoding="UTF-8" standalone="no"?>
<!DOCTYPE svg PUBLIC "-//W3C//DTD SVG 1.1//EN" "http://www.w3.org/Graphics/SVG/1.1/DTD/svg11.dtd">
<svg width="750px" height="3100px" version="1.1" xmlns="http://www.w3.org/2000/svg" xmlns:xlink="http://www.w3.org/1999/xlink" xml:space="preserve" xmlns:serif="http://www.serif.com/" style="fill-rule:evenodd;clip-rule:evenodd;stroke-linecap:round;stroke-linejoin:round;stroke-miterlimit:1.5;">
    <rect id="Level-4" x="0" y="0" width="750" height="3100" style="fill:#222;"/>
    <clipPath id="_clip1">
        <rect x="0" y="0" width="750" height="3100"/>
    </clipPath>
    <g clip-path="url(#_clip1)">
        <g id="Hole">
            <circle id="holePos" cx="508.273" cy="2795.2" r="40"/>
        </g>
        <g id="Hole1" serif:id="Hole">
            <circle id="holePos1" serif:id="holePos" cx="163.523" cy="2670.2" r="40"/>
        </g>
        <g id="Hole2" serif:id="Hole">
            <circle id="holePos2" serif:id="holePos" cx="276.773" cy="2291.53" r="40"/>
        </g>
        <g id="Hole3" serif:id="Hole">
            <circle id="holePos3" serif:id="holePos" cx="315.744" cy="2989.2" r="40"/>
        </g>
        <g id="Hole4" serif:id="Hole">
            <circle id="holePos4" serif:id="holePos" cx="141.44" cy="1791.03" r="40"/>
        </g>
        <g id="Hole5" serif:id="Hole">
            <circle id="holePos5" serif:id="holePos" cx="375" cy="1011.53" r="40"/>
        </g>
        <g id="Hole6" serif:id="Hole">
            <circle id="holePos6" serif:id="holePos" cx="505" cy="797.531" r="40"/>
        </g>
        <g id="Hole7" serif:id="Hole">
            <circle id="holePos7" serif:id="holePos" cx="287.44" cy="610.198" r="40"/>
        </g>
        <g id="Hole8" serif:id="Hole">
            <circle id="holePos8" serif:id="holePos" cx="487.961" cy="438.198" r="40"/>
        </g>
        <g id="Hole9" serif:id="Hole">
            <circle id="holePos9" serif:id="holePos" cx="499.773" cy="290.865" r="40"/>
        </g>
        <g id="Hole10" serif:id="Hole">
            <circle id="holePos10" serif:id="holePos" cx="285.44" cy="70.865" r="40"/>
        </g>
        <g id="Hole11" serif:id="Hole">
            <circle id="holePos11" serif:id="holePos" cx="508.273" cy="1820.87" r="40"/>
        </g>
        <g id="Hole12" serif:id="Hole">
            <circle id="holePos12" serif:id="holePos" cx="228.773" cy="1944.87" r="40"/>
        </g>
        <g id="Hole13" serif:id="Hole">
            <circle id="holePos13" serif:id="holePos" cx="514.579" cy="1460.2" r="40"/>
        </g>
        <g id="Hole14" serif:id="Hole">
            <circle id="holePos14" serif:id="holePos" cx="465.039" cy="2291.53" r="40"/>
        </g>
        <g id="PowerPuck">
            <circle id="powerPos" cx="361.353" cy="2401.71" r="20.142" style="fill:#232323;stroke:#1cfe84;stroke-width:6.79px;"/>
            <g>
                <g id="eyes">
                    <g id="powerpuck-right-eye" serif:id="powerpuck/right-eye">
                        <g>
                            <path id="right-eye" d="M366.802,2400.3c0.383,-0.102 0.728,-0.292 1.002,-0.555c0.85,-0.816 1.697,-1.635 2.54,-2.457c0.417,-0.407 0.459,-1.174 -0.124,-1.667c-0.641,-0.543 -1.28,-1.087 -1.919,-1.632c-0.572,-0.49 -1.37,-0.398 -1.797,-0c-1.544,1.44 -3.097,2.87 -4.659,4.291c-0.51,0.464 -0.773,1.307 -0.295,2.059c0.483,0.76 1.437,0.969 2.137,0.784c1.039,-0.274 2.077,-0.548 3.115,-0.823Z" style="fill:#fff;"/>
                            <path id="right-eye1" serif:id="right-eye" d="M362.253,2396.23c0.111,-0.351 0.316,-0.655 0.578,-0.894c0.852,-0.773 1.7,-1.548 2.546,-2.327c0.424,-0.39 1.215,-0.486 1.781,0c0.627,0.539 1.255,1.076 1.884,1.612c0.577,0.49 0.519,1.248 0.106,1.645c-1.542,1.483 -3.094,2.955 -4.655,4.417c-0.542,0.508 -1.47,0.705 -2.279,0.268c-0.756,-0.41 -1.061,-1.257 -0.841,-1.944c0.295,-0.924 0.589,-1.85 0.88,-2.777Z" style="fill:#fff;"/>
                        </g>
                        <g>
                            <path id="right-eye2" serif:id="right-eye" d="M362.263,2406.45c0.123,0.399 0.351,0.745 0.645,1.019c0.994,0.924 1.992,1.844 2.994,2.761c0.485,0.443 1.432,0.629 2.07,-0c0.651,-0.641 1.3,-1.285 1.947,-1.93c0.62,-0.618 0.345,-1.48 -0.121,-1.891c-1.772,-1.56 -3.533,-3.131 -5.284,-4.714c-0.555,-0.501 -1.481,-0.713 -2.3,-0.269c-0.774,0.42 -1.085,1.294 -0.872,1.999c0.305,1.01 0.612,2.018 0.921,3.025Z" style="fill:#fff;"/>
                            <path id="right-eye3" serif:id="right-eye" d="M366.876,2402.09c0.406,0.106 0.773,0.303 1.074,0.569c0.993,0.877 1.989,1.75 2.988,2.619c0.461,0.402 0.751,1.253 0.139,1.868c-0.635,0.637 -1.271,1.272 -1.909,1.906c-0.631,0.625 -1.57,0.434 -2.051,-0c-1.774,-1.605 -3.537,-3.221 -5.288,-4.85c-0.527,-0.489 -0.79,-1.372 -0.288,-2.153c0.491,-0.764 1.438,-0.978 2.148,-0.792c1.062,0.278 2.124,0.556 3.187,0.833Z" style="fill:#fff;"/>
                        </g>
                    </g>
                    <g id="powerpuck-left-eye" serif:id="powerpuck/left-eye">
                        <g>
                            <path id="right-eye4" serif:id="right-eye" d="M360.392,2396.23c-0.105,-0.351 -0.306,-0.655 -0.565,-0.894c-0.84,-0.773 -1.677,-1.548 -2.511,-2.327c-0.423,-0.395 -1.213,-0.481 -1.781,0c-0.635,0.539 -1.271,1.076 -1.908,1.612c-0.577,0.485 -0.544,1.242 -0.131,1.645c1.52,1.483 3.049,2.955 4.589,4.417c0.539,0.513 1.466,0.701 2.275,0.268c0.756,-0.406 1.081,-1.25 0.87,-1.944c-0.281,-0.924 -0.561,-1.85 -0.838,-2.777Z" style="fill:#fff;"/>
                            <path id="right-eye5" serif:id="right-eye" d="M355.781,2400.3c-0.38,-0.102 -0.723,-0.291 -0.993,-0.555c-0.838,-0.816 -1.672,-1.635 -2.503,-2.457c-0.417,-0.412 -0.434,-1.18 0.149,-1.667c0.649,-0.543 1.296,-1.087 1.943,-1.632c0.574,-0.485 1.372,-0.403 1.798,-0c1.522,1.44 3.053,2.87 4.594,4.291c0.508,0.468 0.749,1.313 0.264,2.059c-0.492,0.756 -1.445,0.97 -2.149,0.784c-1.034,-0.274 -2.069,-0.548 -3.103,-0.823Z" style="fill:#fff;"/>
                        </g>
                        <g>
                            <path id="right-eye6" serif:id="right-eye" d="M355.681,2402.09c-0.409,0.106 -0.778,0.303 -1.083,0.569c-1.006,0.877 -2.015,1.75 -3.027,2.619c-0.462,0.396 -0.776,1.247 -0.167,1.868c0.625,0.637 1.251,1.272 1.88,1.906c0.627,0.631 1.57,0.428 2.05,-0c1.799,-1.605 3.586,-3.221 5.362,-4.85c0.529,-0.485 0.815,-1.365 0.32,-2.153c-0.482,-0.768 -1.43,-0.976 -2.136,-0.792c-1.066,0.278 -2.132,0.556 -3.199,0.833Z" style="fill:#fff;"/>
                            <path id="right-eye7" serif:id="right-eye" d="M360.228,2406.45c-0.129,0.399 -0.363,0.745 -0.661,1.019c-1.008,0.924 -2.02,1.844 -3.035,2.761c-0.485,0.437 -1.435,0.635 -2.07,-0c-0.641,-0.641 -1.281,-1.285 -1.918,-1.93c-0.617,-0.624 -0.317,-1.485 0.15,-1.891c1.795,-1.56 3.58,-3.131 5.355,-4.714c0.557,-0.497 1.484,-0.716 2.303,-0.269c0.775,0.423 1.063,1.301 0.842,1.999c-0.32,1.01 -0.642,2.018 -0.966,3.025Z" style="fill:#fff;"/>
                        </g>
                    </g>
                </g>
            </g>
        </g>
        <g id="PowerPuck1" serif:id="PowerPuck">
            <circle id="powerPos1" serif:id="powerPos" cx="440.019" cy="1584.38" r="20.142" style="fill:#232323;stroke:#1cfe84;stroke-width:6.79px;"/>
            <g>
                <g id="eyes1" serif:id="eyes">
                    <g id="powerpuck-right-eye1" serif:id="powerpuck/right-eye">
                        <g>
                            <path id="right-eye8" serif:id="right-eye" d="M445.469,1582.97c0.383,-0.101 0.728,-0.291 1.002,-0.554c0.849,-0.816 1.696,-1.635 2.54,-2.458c0.417,-0.406 0.458,-1.173 -0.124,-1.666c-0.641,-0.543 -1.28,-1.087 -1.919,-1.633c-0.572,-0.489 -1.371,-0.398 -1.797,0c-1.545,1.44 -3.097,2.87 -4.659,4.291c-0.511,0.465 -0.774,1.308 -0.295,2.06c0.483,0.76 1.436,0.969 2.137,0.784c1.038,-0.274 2.077,-0.549 3.115,-0.824Z" style="fill:#fff;"/>
                            <path id="right-eye9" serif:id="right-eye" d="M440.92,1578.9c0.11,-0.352 0.315,-0.655 0.578,-0.894c0.851,-0.773 1.7,-1.549 2.546,-2.327c0.423,-0.39 1.215,-0.486 1.781,-0c0.627,0.538 1.255,1.076 1.884,1.611c0.576,0.491 0.519,1.248 0.105,1.646c-1.541,1.483 -3.093,2.955 -4.655,4.417c-0.542,0.508 -1.47,0.705 -2.278,0.267c-0.757,-0.409 -1.061,-1.257 -0.842,-1.943c0.296,-0.925 0.589,-1.85 0.881,-2.777Z" style="fill:#fff;"/>
                        </g>
                        <g>
                            <path id="right-eye10" serif:id="right-eye" d="M440.93,1589.12c0.122,0.399 0.351,0.745 0.645,1.018c0.994,0.925 1.992,1.845 2.994,2.761c0.485,0.444 1.431,0.63 2.07,0c0.651,-0.641 1.3,-1.284 1.947,-1.929c0.62,-0.619 0.345,-1.481 -0.121,-1.891c-1.772,-1.56 -3.534,-3.131 -5.285,-4.714c-0.554,-0.501 -1.48,-0.713 -2.299,-0.269c-0.774,0.419 -1.085,1.293 -0.872,1.999c0.305,1.009 0.611,2.018 0.921,3.025Z" style="fill:#fff;"/>
                            <path id="right-eye11" serif:id="right-eye" d="M445.542,1584.76c0.407,0.106 0.773,0.304 1.075,0.57c0.993,0.876 1.989,1.749 2.988,2.619c0.461,0.401 0.751,1.252 0.138,1.867c-0.634,0.638 -1.27,1.273 -1.908,1.906c-0.631,0.626 -1.57,0.435 -2.051,0c-1.774,-1.604 -3.537,-3.22 -5.288,-4.849c-0.527,-0.49 -0.791,-1.372 -0.288,-2.153c0.491,-0.764 1.438,-0.978 2.148,-0.792c1.062,0.278 2.124,0.555 3.186,0.832Z" style="fill:#fff;"/>
                        </g>
                    </g>
                    <g id="powerpuck-left-eye1" serif:id="powerpuck/left-eye">
                        <g>
                            <path id="right-eye12" serif:id="right-eye" d="M439.058,1578.9c-0.105,-0.351 -0.305,-0.655 -0.565,-0.894c-0.839,-0.773 -1.676,-1.549 -2.51,-2.327c-0.423,-0.395 -1.213,-0.482 -1.781,-0c-0.635,0.538 -1.271,1.076 -1.909,1.611c-0.577,0.485 -0.543,1.243 -0.13,1.646c1.52,1.483 3.049,2.955 4.589,4.417c0.539,0.512 1.466,0.701 2.274,0.267c0.756,-0.405 1.082,-1.249 0.871,-1.943c-0.282,-0.925 -0.561,-1.85 -0.839,-2.777Z" style="fill:#fff;"/>
                            <path id="right-eye13" serif:id="right-eye" d="M434.448,1582.97c-0.38,-0.101 -0.723,-0.29 -0.993,-0.554c-0.838,-0.816 -1.672,-1.635 -2.504,-2.458c-0.416,-0.412 -0.434,-1.179 0.149,-1.666c0.649,-0.543 1.297,-1.087 1.944,-1.633c0.574,-0.484 1.371,-0.403 1.797,0c1.523,1.44 3.054,2.87 4.594,4.291c0.508,0.469 0.75,1.314 0.265,2.06c-0.492,0.756 -1.445,0.97 -2.149,0.784c-1.035,-0.274 -2.069,-0.549 -3.103,-0.824Z" style="fill:#fff;"/>
                        </g>
                        <g>
                            <path id="right-eye14" serif:id="right-eye" d="M434.348,1584.76c-0.409,0.107 -0.778,0.304 -1.084,0.57c-1.005,0.876 -2.014,1.749 -3.027,2.619c-0.461,0.396 -0.776,1.246 -0.167,1.867c0.625,0.638 1.252,1.273 1.881,1.906c0.627,0.632 1.57,0.429 2.05,0c1.799,-1.604 3.586,-3.22 5.361,-4.849c0.53,-0.486 0.816,-1.366 0.321,-2.153c-0.483,-0.768 -1.43,-0.977 -2.136,-0.792c-1.066,0.278 -2.133,0.555 -3.199,0.832Z" style="fill:#fff;"/>
                            <path id="right-eye15" serif:id="right-eye" d="M438.894,1589.12c-0.128,0.399 -0.362,0.745 -0.66,1.018c-1.008,0.925 -2.02,1.845 -3.035,2.761c-0.485,0.438 -1.435,0.636 -2.071,0c-0.641,-0.641 -1.28,-1.284 -1.917,-1.929c-0.617,-0.625 -0.317,-1.486 0.149,-1.891c1.796,-1.56 3.581,-3.131 5.355,-4.714c0.557,-0.497 1.485,-0.717 2.304,-0.269c0.775,0.423 1.063,1.301 0.842,1.999c-0.32,1.009 -0.642,2.018 -0.967,3.025Z" style="fill:#fff;"/>
                        </g>
                    </g>
                </g>
            </g>
        </g>
        <g id="PowerPuck2" serif:id="PowerPuck">
            <circle id="powerPos2" serif:id="powerPos" cx="280.019" cy="831.047" r="20.142" style="fill:#232323;stroke:#1cfe84;stroke-width:6.79px;"/>
            <g>
                <g id="eyes2" serif:id="eyes">
                    <g id="powerpuck-right-eye2" serif:id="powerpuck/right-eye">
                        <g>
                            <path id="right-eye16" serif:id="right-eye" d="M285.469,829.632c0.383,-0.102 0.728,-0.291 1.002,-0.554c0.849,-0.816 1.696,-1.635 2.54,-2.458c0.417,-0.406 0.458,-1.173 -0.124,-1.667c-0.641,-0.542 -1.28,-1.086 -1.919,-1.632c-0.572,-0.489 -1.371,-0.398 -1.797,-0c-1.544,1.44 -3.097,2.87 -4.659,4.291c-0.511,0.464 -0.774,1.307 -0.295,2.06c0.483,0.76 1.436,0.968 2.137,0.783c1.038,-0.273 2.077,-0.548 3.115,-0.823Z" style="fill:#fff;"/>
                            <path id="right-eye17" serif:id="right-eye" d="M280.92,825.563c0.11,-0.352 0.315,-0.656 0.578,-0.894c0.851,-0.773 1.7,-1.549 2.546,-2.328c0.423,-0.39 1.215,-0.486 1.781,0c0.627,0.539 1.255,1.076 1.884,1.612c0.576,0.491 0.519,1.248 0.105,1.646c-1.541,1.482 -3.093,2.954 -4.655,4.417c-0.542,0.507 -1.47,0.704 -2.278,0.267c-0.757,-0.409 -1.061,-1.257 -0.842,-1.943c0.296,-0.925 0.589,-1.851 0.881,-2.777Z" style="fill:#fff;"/>
                        </g>
                        <g>
                            <path id="right-eye18" serif:id="right-eye" d="M280.93,835.786c0.122,0.399 0.351,0.745 0.645,1.019c0.994,0.924 1.992,1.845 2.994,2.761c0.485,0.444 1.431,0.629 2.07,0c0.651,-0.641 1.3,-1.284 1.947,-1.929c0.62,-0.619 0.345,-1.481 -0.121,-1.891c-1.772,-1.56 -3.534,-3.131 -5.285,-4.714c-0.554,-0.502 -1.48,-0.713 -2.299,-0.27c-0.774,0.42 -1.085,1.294 -0.872,2c0.305,1.009 0.611,2.017 0.921,3.024Z" style="fill:#fff;"/>
                            <path id="right-eye19" serif:id="right-eye" d="M285.542,831.422c0.407,0.106 0.773,0.303 1.075,0.57c0.993,0.876 1.989,1.749 2.988,2.618c0.461,0.402 0.751,1.253 0.138,1.868c-0.634,0.637 -1.27,1.273 -1.908,1.906c-0.631,0.626 -1.57,0.434 -2.051,-0c-1.774,-1.604 -3.537,-3.221 -5.288,-4.849c-0.527,-0.49 -0.791,-1.372 -0.288,-2.153c0.491,-0.764 1.438,-0.979 2.148,-0.793c1.062,0.278 2.124,0.556 3.186,0.833Z" style="fill:#fff;"/>
                        </g>
                    </g>
                    <g id="powerpuck-left-eye2" serif:id="powerpuck/left-eye">
                        <g>
                            <path id="right-eye20" serif:id="right-eye" d="M279.058,825.563c-0.105,-0.351 -0.305,-0.656 -0.565,-0.894c-0.839,-0.773 -1.676,-1.549 -2.51,-2.328c-0.423,-0.394 -1.213,-0.481 -1.781,0c-0.635,0.539 -1.271,1.076 -1.909,1.612c-0.577,0.485 -0.543,1.243 -0.13,1.646c1.52,1.483 3.049,2.954 4.589,4.417c0.539,0.512 1.466,0.7 2.274,0.267c0.756,-0.406 1.082,-1.249 0.871,-1.943c-0.282,-0.925 -0.561,-1.851 -0.839,-2.777Z" style="fill:#fff;"/>
                            <path id="right-eye21" serif:id="right-eye" d="M274.448,829.632c-0.38,-0.101 -0.723,-0.291 -0.993,-0.554c-0.838,-0.816 -1.672,-1.635 -2.504,-2.458c-0.416,-0.412 -0.434,-1.179 0.149,-1.667c0.649,-0.542 1.297,-1.086 1.944,-1.632c0.574,-0.484 1.371,-0.403 1.797,-0c1.523,1.44 3.054,2.87 4.595,4.291c0.507,0.469 0.749,1.314 0.264,2.06c-0.492,0.756 -1.445,0.97 -2.149,0.783c-1.035,-0.273 -2.069,-0.548 -3.103,-0.823Z" style="fill:#fff;"/>
                        </g>
                        <g>
                            <path id="right-eye22" serif:id="right-eye" d="M274.348,831.422c-0.409,0.106 -0.778,0.304 -1.084,0.57c-1.005,0.876 -2.014,1.749 -3.027,2.618c-0.461,0.397 -0.776,1.247 -0.167,1.868c0.625,0.637 1.252,1.273 1.881,1.906c0.627,0.632 1.57,0.429 2.05,-0c1.799,-1.604 3.586,-3.221 5.361,-4.849c0.53,-0.486 0.816,-1.366 0.321,-2.153c-0.483,-0.768 -1.43,-0.977 -2.136,-0.793c-1.066,0.278 -2.133,0.556 -3.199,0.833Z" style="fill:#fff;"/>
                            <path id="right-eye23" serif:id="right-eye" d="M278.894,835.786c-0.128,0.4 -0.362,0.745 -0.66,1.019c-1.008,0.924 -2.02,1.845 -3.035,2.761c-0.485,0.438 -1.435,0.635 -2.071,0c-0.641,-0.641 -1.28,-1.284 -1.917,-1.929c-0.617,-0.625 -0.317,-1.486 0.149,-1.891c1.796,-1.56 3.581,-3.131 5.355,-4.714c0.557,-0.497 1.485,-0.717 2.304,-0.27c0.775,0.424 1.063,1.302 0.842,2c-0.32,1.009 -0.642,2.017 -0.967,3.024Z" style="fill:#fff;"/>
                        </g>
                    </g>
                </g>
            </g>
        </g>
        <g id="PowerPuck3" serif:id="PowerPuck">
            <circle id="powerPos3" serif:id="powerPos" cx="246.019" cy="1047.05" r="20.142" style="fill:#232323;stroke:#1cfe84;stroke-width:6.79px;"/>
            <g>
                <g id="eyes3" serif:id="eyes">
                    <g id="powerpuck-right-eye3" serif:id="powerpuck/right-eye">
                        <g>
                            <path id="right-eye24" serif:id="right-eye" d="M251.469,1045.63c0.383,-0.102 0.728,-0.291 1.002,-0.554c0.849,-0.816 1.696,-1.635 2.54,-2.458c0.417,-0.406 0.458,-1.173 -0.124,-1.667c-0.641,-0.542 -1.28,-1.086 -1.919,-1.632c-0.572,-0.489 -1.371,-0.398 -1.797,-0c-1.545,1.44 -3.097,2.87 -4.659,4.291c-0.511,0.464 -0.774,1.307 -0.295,2.06c0.483,0.76 1.436,0.968 2.137,0.783c1.038,-0.273 2.077,-0.548 3.115,-0.823Z" style="fill:#fff;"/>
                            <path id="right-eye25" serif:id="right-eye" d="M246.92,1041.56c0.11,-0.352 0.315,-0.656 0.578,-0.894c0.851,-0.773 1.7,-1.549 2.546,-2.328c0.423,-0.39 1.215,-0.486 1.781,0c0.627,0.539 1.255,1.076 1.884,1.612c0.576,0.491 0.519,1.248 0.105,1.646c-1.541,1.482 -3.093,2.954 -4.655,4.417c-0.542,0.507 -1.47,0.704 -2.278,0.267c-0.757,-0.409 -1.061,-1.257 -0.842,-1.943c0.296,-0.925 0.589,-1.851 0.881,-2.777Z" style="fill:#fff;"/>
                        </g>
                        <g>
                            <path id="right-eye26" serif:id="right-eye" d="M246.93,1051.79c0.122,0.399 0.351,0.745 0.645,1.019c0.994,0.924 1.992,1.845 2.994,2.761c0.485,0.444 1.431,0.629 2.07,0c0.651,-0.641 1.3,-1.284 1.947,-1.929c0.62,-0.619 0.345,-1.481 -0.121,-1.891c-1.772,-1.56 -3.534,-3.131 -5.285,-4.714c-0.554,-0.502 -1.48,-0.713 -2.299,-0.27c-0.774,0.42 -1.085,1.294 -0.872,2c0.305,1.009 0.611,2.017 0.921,3.024Z" style="fill:#fff;"/>
                            <path id="right-eye27" serif:id="right-eye" d="M251.542,1047.42c0.407,0.106 0.773,0.303 1.075,0.57c0.993,0.876 1.989,1.749 2.988,2.618c0.461,0.402 0.751,1.253 0.138,1.868c-0.634,0.637 -1.27,1.273 -1.908,1.906c-0.631,0.626 -1.57,0.434 -2.051,-0c-1.774,-1.604 -3.537,-3.221 -5.288,-4.849c-0.527,-0.49 -0.791,-1.372 -0.288,-2.153c0.491,-0.764 1.438,-0.979 2.148,-0.793c1.062,0.278 2.124,0.556 3.186,0.833Z" style="fill:#fff;"/>
                        </g>
                    </g>
                    <g id="powerpuck-left-eye3" serif:id="powerpuck/left-eye">
                        <g>
                            <path id="right-eye28" serif:id="right-eye" d="M245.058,1041.56c-0.105,-0.351 -0.305,-0.656 -0.565,-0.894c-0.839,-0.773 -1.676,-1.549 -2.51,-2.328c-0.423,-0.394 -1.213,-0.481 -1.781,0c-0.635,0.539 -1.271,1.076 -1.909,1.612c-0.577,0.485 -0.543,1.243 -0.13,1.646c1.52,1.483 3.049,2.954 4.589,4.417c0.539,0.512 1.466,0.7 2.274,0.267c0.756,-0.406 1.082,-1.249 0.871,-1.943c-0.282,-0.925 -0.561,-1.851 -0.839,-2.777Z" style="fill:#fff;"/>
                            <path id="right-eye29" serif:id="right-eye" d="M240.448,1045.63c-0.38,-0.101 -0.723,-0.291 -0.993,-0.554c-0.838,-0.816 -1.672,-1.635 -2.504,-2.458c-0.416,-0.412 -0.434,-1.179 0.149,-1.667c0.649,-0.542 1.297,-1.086 1.944,-1.632c0.574,-0.484 1.371,-0.403 1.797,-0c1.523,1.44 3.054,2.87 4.594,4.291c0.508,0.469 0.75,1.314 0.265,2.06c-0.492,0.756 -1.445,0.97 -2.149,0.783c-1.035,-0.273 -2.069,-0.548 -3.103,-0.823Z" style="fill:#fff;"/>
                        </g>
                        <g>
                            <path id="right-eye30" serif:id="right-eye" d="M240.348,1047.42c-0.409,0.106 -0.778,0.304 -1.084,0.57c-1.005,0.876 -2.014,1.749 -3.027,2.618c-0.461,0.397 -0.776,1.247 -0.167,1.868c0.625,0.637 1.252,1.273 1.881,1.906c0.627,0.632 1.57,0.429 2.05,-0c1.799,-1.604 3.586,-3.221 5.361,-4.849c0.53,-0.486 0.816,-1.366 0.321,-2.153c-0.483,-0.768 -1.43,-0.977 -2.136,-0.793c-1.066,0.278 -2.133,0.556 -3.199,0.833Z" style="fill:#fff;"/>
                            <path id="right-eye31" serif:id="right-eye" d="M244.894,1051.79c-0.128,0.4 -0.362,0.745 -0.66,1.019c-1.008,0.924 -2.02,1.845 -3.035,2.761c-0.485,0.438 -1.435,0.635 -2.071,0c-0.641,-0.641 -1.28,-1.284 -1.917,-1.929c-0.617,-0.625 -0.317,-1.486 0.149,-1.891c1.796,-1.56 3.581,-3.131 5.355,-4.714c0.557,-0.497 1.485,-0.717 2.304,-0.27c0.775,0.424 1.063,1.302 0.842,2c-0.32,1.009 -0.642,2.017 -0.967,3.024Z" style="fill:#fff;"/>
                        </g>
                    </g>
                </g>
            </g>
        </g>
        <g id="PowerPuck4" serif:id="PowerPuck">
            <circle id="powerPos4" serif:id="powerPos" cx="339.915" cy="213.047" r="20.142" style="fill:#232323;stroke:#1cfe84;stroke-width:6.79px;"/>
            <g>
                <g id="eyes4" serif:id="eyes">
                    <g id="powerpuck-right-eye4" serif:id="powerpuck/right-eye">
                        <g>
                            <path id="right-eye32" serif:id="right-eye" d="M345.365,211.632c0.383,-0.102 0.728,-0.291 1.002,-0.554c0.85,-0.816 1.696,-1.635 2.54,-2.458c0.417,-0.406 0.458,-1.174 -0.124,-1.667c-0.641,-0.542 -1.28,-1.086 -1.919,-1.632c-0.572,-0.489 -1.371,-0.398 -1.797,-0c-1.544,1.44 -3.097,2.87 -4.659,4.291c-0.511,0.464 -0.774,1.307 -0.295,2.06c0.483,0.76 1.436,0.968 2.137,0.783c1.038,-0.274 2.077,-0.548 3.115,-0.823Z" style="fill:#fff;"/>
                            <path id="right-eye33" serif:id="right-eye" d="M340.816,207.563c0.11,-0.352 0.315,-0.656 0.578,-0.894c0.851,-0.773 1.7,-1.549 2.546,-2.328c0.423,-0.39 1.215,-0.486 1.781,0c0.627,0.539 1.255,1.076 1.884,1.612c0.576,0.491 0.519,1.248 0.106,1.646c-1.542,1.482 -3.094,2.954 -4.655,4.417c-0.542,0.507 -1.47,0.704 -2.279,0.267c-0.757,-0.409 -1.061,-1.257 -0.841,-1.943c0.295,-0.925 0.588,-1.851 0.88,-2.777Z" style="fill:#fff;"/>
                        </g>
                        <g>
                            <path id="right-eye34" serif:id="right-eye" d="M340.826,217.786c0.123,0.399 0.351,0.745 0.645,1.019c0.994,0.924 1.992,1.845 2.994,2.761c0.485,0.444 1.431,0.629 2.07,0c0.651,-0.641 1.3,-1.284 1.947,-1.929c0.62,-0.619 0.345,-1.481 -0.121,-1.891c-1.772,-1.56 -3.534,-3.131 -5.284,-4.714c-0.555,-0.502 -1.481,-0.713 -2.3,-0.27c-0.774,0.42 -1.085,1.294 -0.872,2c0.305,1.009 0.612,2.017 0.921,3.024Z" style="fill:#fff;"/>
                            <path id="right-eye35" serif:id="right-eye" d="M345.438,213.422c0.407,0.106 0.773,0.303 1.075,0.57c0.993,0.876 1.989,1.749 2.988,2.618c0.461,0.402 0.751,1.253 0.139,1.868c-0.635,0.637 -1.271,1.273 -1.909,1.906c-0.631,0.626 -1.57,0.434 -2.051,-0c-1.774,-1.604 -3.537,-3.221 -5.288,-4.849c-0.527,-0.49 -0.791,-1.372 -0.288,-2.153c0.491,-0.764 1.438,-0.979 2.148,-0.793c1.062,0.278 2.124,0.556 3.186,0.833Z" style="fill:#fff;"/>
                        </g>
                    </g>
                    <g id="powerpuck-left-eye4" serif:id="powerpuck/left-eye">
                        <g>
                            <path id="right-eye36" serif:id="right-eye" d="M338.955,207.563c-0.106,-0.351 -0.306,-0.656 -0.566,-0.894c-0.839,-0.773 -1.676,-1.549 -2.51,-2.328c-0.423,-0.394 -1.213,-0.481 -1.781,0c-0.635,0.539 -1.271,1.076 -1.909,1.612c-0.577,0.485 -0.543,1.243 -0.13,1.646c1.52,1.483 3.049,2.954 4.589,4.417c0.539,0.512 1.466,0.7 2.274,0.267c0.756,-0.406 1.082,-1.249 0.871,-1.943c-0.282,-0.925 -0.561,-1.851 -0.838,-2.777Z" style="fill:#fff;"/>
                            <path id="right-eye37" serif:id="right-eye" d="M334.344,211.632c-0.38,-0.101 -0.723,-0.291 -0.993,-0.554c-0.838,-0.816 -1.672,-1.635 -2.504,-2.458c-0.416,-0.412 -0.434,-1.179 0.149,-1.667c0.649,-0.542 1.297,-1.086 1.944,-1.632c0.574,-0.484 1.371,-0.403 1.797,-0c1.523,1.44 3.054,2.87 4.595,4.291c0.507,0.468 0.749,1.314 0.264,2.06c-0.492,0.756 -1.445,0.97 -2.149,0.783c-1.035,-0.274 -2.069,-0.548 -3.103,-0.823Z" style="fill:#fff;"/>
                        </g>
                        <g>
                            <path id="right-eye38" serif:id="right-eye" d="M334.244,213.422c-0.409,0.106 -0.778,0.304 -1.083,0.57c-1.006,0.876 -2.015,1.749 -3.028,2.618c-0.461,0.397 -0.775,1.247 -0.166,1.868c0.624,0.637 1.251,1.273 1.88,1.906c0.627,0.632 1.57,0.429 2.05,-0c1.799,-1.604 3.586,-3.221 5.361,-4.849c0.53,-0.486 0.816,-1.366 0.321,-2.153c-0.482,-0.768 -1.43,-0.977 -2.136,-0.793c-1.066,0.278 -2.133,0.556 -3.199,0.833Z" style="fill:#fff;"/>
                            <path id="right-eye39" serif:id="right-eye" d="M338.791,217.786c-0.129,0.4 -0.363,0.745 -0.661,1.019c-1.008,0.924 -2.02,1.845 -3.035,2.761c-0.485,0.438 -1.435,0.635 -2.07,0c-0.642,-0.641 -1.281,-1.284 -1.918,-1.929c-0.617,-0.625 -0.317,-1.486 0.149,-1.891c1.796,-1.56 3.581,-3.131 5.355,-4.714c0.558,-0.497 1.485,-0.717 2.304,-0.27c0.775,0.424 1.063,1.302 0.842,2c-0.32,1.009 -0.642,2.017 -0.966,3.024Z" style="fill:#fff;"/>
                        </g>
                    </g>
                </g>
            </g>
        </g>
        <g id="PowerPuck5" serif:id="PowerPuck">
            <circle id="powerPos5" serif:id="powerPos" cx="291.165" cy="2735.06" r="20.142" style="fill:#232323;stroke:#1cfe84;stroke-width:6.79px;"/>
            <g>
                <g id="eyes5" serif:id="eyes">
                    <g id="powerpuck-right-eye5" serif:id="powerpuck/right-eye">
                        <g>
                            <path id="right-eye40" serif:id="right-eye" d="M296.615,2733.64c0.383,-0.102 0.728,-0.291 1.002,-0.555c0.85,-0.816 1.696,-1.635 2.54,-2.457c0.417,-0.407 0.458,-1.174 -0.124,-1.667c-0.641,-0.543 -1.28,-1.087 -1.919,-1.632c-0.572,-0.489 -1.37,-0.398 -1.797,-0c-1.544,1.44 -3.097,2.87 -4.659,4.291c-0.51,0.464 -0.773,1.307 -0.295,2.059c0.483,0.761 1.436,0.969 2.137,0.784c1.039,-0.274 2.077,-0.548 3.115,-0.823Z" style="fill:#fff;"/>
                            <path id="right-eye41" serif:id="right-eye" d="M292.066,2729.57c0.11,-0.351 0.316,-0.655 0.578,-0.894c0.851,-0.773 1.7,-1.548 2.546,-2.327c0.424,-0.39 1.215,-0.486 1.781,0c0.627,0.539 1.255,1.076 1.884,1.612c0.576,0.49 0.519,1.248 0.106,1.645c-1.542,1.483 -3.094,2.955 -4.655,4.417c-0.542,0.508 -1.47,0.705 -2.279,0.268c-0.757,-0.409 -1.061,-1.257 -0.841,-1.944c0.295,-0.924 0.589,-1.85 0.88,-2.777Z" style="fill:#fff;"/>
                        </g>
                        <g>
                            <path id="right-eye42" serif:id="right-eye" d="M292.076,2739.8c0.123,0.399 0.351,0.745 0.645,1.019c0.994,0.924 1.992,1.844 2.994,2.761c0.485,0.444 1.431,0.629 2.07,-0c0.651,-0.641 1.3,-1.285 1.947,-1.93c0.62,-0.618 0.345,-1.48 -0.121,-1.89c-1.772,-1.561 -3.534,-3.131 -5.284,-4.714c-0.555,-0.502 -1.481,-0.714 -2.3,-0.27c-0.774,0.42 -1.085,1.294 -0.872,2c0.305,1.009 0.612,2.017 0.921,3.024Z" style="fill:#fff;"/>
                            <path id="right-eye43" serif:id="right-eye" d="M296.689,2735.43c0.406,0.106 0.773,0.303 1.074,0.569c0.993,0.877 1.989,1.75 2.988,2.619c0.461,0.402 0.751,1.253 0.139,1.868c-0.635,0.637 -1.271,1.272 -1.909,1.906c-0.631,0.625 -1.57,0.434 -2.051,-0c-1.774,-1.605 -3.537,-3.221 -5.288,-4.85c-0.527,-0.489 -0.791,-1.372 -0.288,-2.153c0.491,-0.763 1.438,-0.978 2.148,-0.792c1.062,0.278 2.124,0.556 3.187,0.833Z" style="fill:#fff;"/>
                        </g>
                    </g>
                    <g id="powerpuck-left-eye5" serif:id="powerpuck/left-eye">
                        <g>
                            <path id="right-eye44" serif:id="right-eye" d="M290.205,2729.57c-0.106,-0.351 -0.306,-0.655 -0.565,-0.894c-0.84,-0.773 -1.677,-1.548 -2.511,-2.327c-0.423,-0.395 -1.213,-0.481 -1.781,0c-0.635,0.539 -1.271,1.076 -1.909,1.612c-0.576,0.485 -0.543,1.242 -0.13,1.645c1.52,1.483 3.049,2.955 4.589,4.417c0.539,0.513 1.466,0.701 2.274,0.268c0.757,-0.406 1.082,-1.25 0.871,-1.944c-0.281,-0.924 -0.561,-1.85 -0.838,-2.777Z" style="fill:#fff;"/>
                            <path id="right-eye45" serif:id="right-eye" d="M285.594,2733.64c-0.38,-0.102 -0.723,-0.291 -0.993,-0.555c-0.838,-0.816 -1.672,-1.635 -2.503,-2.457c-0.417,-0.412 -0.434,-1.179 0.149,-1.667c0.648,-0.543 1.296,-1.087 1.943,-1.632c0.574,-0.485 1.372,-0.403 1.797,-0c1.523,1.44 3.054,2.87 4.595,4.291c0.508,0.468 0.749,1.313 0.264,2.059c-0.492,0.756 -1.445,0.971 -2.149,0.784c-1.035,-0.274 -2.069,-0.548 -3.103,-0.823Z" style="fill:#fff;"/>
                        </g>
                        <g>
                            <path id="right-eye46" serif:id="right-eye" d="M285.494,2735.43c-0.409,0.106 -0.778,0.303 -1.083,0.569c-1.006,0.877 -2.015,1.75 -3.027,2.619c-0.462,0.396 -0.776,1.247 -0.167,1.868c0.624,0.637 1.251,1.272 1.88,1.906c0.627,0.631 1.57,0.428 2.05,-0c1.799,-1.605 3.586,-3.221 5.362,-4.85c0.529,-0.485 0.815,-1.365 0.32,-2.153c-0.482,-0.768 -1.43,-0.976 -2.136,-0.792c-1.066,0.278 -2.132,0.556 -3.199,0.833Z" style="fill:#fff;"/>
                            <path id="right-eye47" serif:id="right-eye" d="M290.041,2739.8c-0.129,0.399 -0.363,0.745 -0.661,1.019c-1.008,0.924 -2.02,1.844 -3.035,2.761c-0.485,0.438 -1.435,0.635 -2.07,-0c-0.642,-0.641 -1.281,-1.285 -1.918,-1.93c-0.617,-0.624 -0.317,-1.485 0.15,-1.89c1.795,-1.561 3.58,-3.132 5.355,-4.714c0.557,-0.497 1.484,-0.717 2.303,-0.27c0.775,0.423 1.063,1.301 0.842,2c-0.32,1.009 -0.642,2.017 -0.966,3.024Z" style="fill:#fff;"/>
                        </g>
                    </g>
                </g>
            </g>
        </g>
        <g id="Enemy">
            <circle id="enemyPos" cx="508.273" cy="2715.2" r="22.5" style="fill:#232323;stroke:#8148c8;stroke-width:4.77px;"/>
            <g>
                <path d="M512.758,2711.67c-0.331,0.398 -0.512,0.899 -0.512,1.416c-0,1.87 -0,6.366 -0,6.366c-0,0.69 0.56,1.25 1.25,1.25l2.5,-0c0.69,-0 1.25,-0.56 1.25,-1.25c-0,-0 -0,-4.606 -0,-8.369c-0,-0.731 -0.458,-1.384 -1.146,-1.633c-0.688,-0.249 -1.458,-0.041 -1.926,0.521c-0.548,0.658 -1.058,1.27 -1.416,1.699Z" style="fill:#fff;"/>
                <path d="M503.788,2711.67c0.331,0.398 0.512,0.899 0.512,1.416l0,6.366c0,0.69 -0.56,1.25 -1.25,1.25l-2.5,-0c-0.69,-0 -1.25,-0.56 -1.25,-1.25l0,-8.369c0,-0.731 0.458,-1.384 1.146,-1.633c0.688,-0.249 1.458,-0.041 1.926,0.521c0.548,0.658 1.058,1.27 1.416,1.699Z" style="fill:#fff;"/>
            </g>
        </g>
        <g id="Enemy1" serif:id="Enemy">
            <circle id="enemyPos1" serif:id="enemyPos" cx="226.023" cy="2607.7" r="22.5" style="fill:#232323;stroke:#8148c8;stroke-width:4.77px;"/>
            <g>
                <path d="M230.508,2604.17c-0.331,0.398 -0.512,0.899 -0.512,1.416l-0,6.366c-0,0.69 0.56,1.25 1.25,1.25l2.5,-0c0.69,-0 1.25,-0.56 1.25,-1.25l-0,-8.369c-0,-0.731 -0.458,-1.384 -1.146,-1.633c-0.688,-0.249 -1.457,-0.041 -1.926,0.521c-0.548,0.658 -1.058,1.27 -1.416,1.699Z" style="fill:#fff;"/>
                <path d="M221.538,2604.17c0.331,0.398 0.512,0.899 0.512,1.416c0,1.87 0,6.366 0,6.366c0,0.69 -0.56,1.25 -1.25,1.25l-2.5,-0c-0.689,-0 -1.25,-0.56 -1.25,-1.25c0,-0 0,-4.606 0,-8.369c0,-0.731 0.459,-1.384 1.146,-1.633c0.688,-0.249 1.458,-0.041 1.926,0.521c0.548,0.658 1.058,1.27 1.416,1.699Z" style="fill:#fff;"/>
            </g>
        </g>
        <g id="Enemy2" serif:id="Enemy">
            <circle id="enemyPos2" serif:id="enemyPos" cx="314.135" cy="3063.2" r="22.5" style="fill:#232323;stroke:#8148c8;stroke-width:4.77px;"/>
            <g>
                <path d="M318.62,3059.67c-0.331,0.398 -0.513,0.899 -0.513,1.416l0,6.366c0,0.69 0.561,1.25 1.25,1.25l2.5,-0c0.69,-0 1.25,-0.56 1.25,-1.25l0,-8.369c0,-0.731 -0.458,-1.384 -1.145,-1.633c-0.688,-0.249 -1.458,-0.041 -1.926,0.521c-0.549,0.658 -1.058,1.27 -1.416,1.699Z" style="fill:#fff;"/>
                <path d="M309.65,3059.67c0.331,0.398 0.512,0.899 0.512,1.416c0,1.87 0,6.366 0,6.366c0,0.69 -0.56,1.25 -1.25,1.25l-2.5,-0c-0.69,-0 -1.25,-0.56 -1.25,-1.25c0,-0 0,-4.606 0,-8.369c0,-0.731 0.458,-1.384 1.146,-1.633c0.688,-0.249 1.457,-0.041 1.926,0.521c0.548,0.658 1.058,1.27 1.416,1.699Z" style="fill:#fff;"/>
            </g>
        </g>
        <g id="Enemy3" serif:id="Enemy">
            <circle id="enemyPos3" serif:id="enemyPos" cx="508.273" cy="2899.2" r="22.5" style="fill:#232323;stroke:#8148c8;stroke-width:4.77px;"/>
            <g>
                <path d="M512.758,2895.67c-0.331,0.398 -0.512,0.899 -0.512,1.416c-0,1.87 -0,6.366 -0,6.366c-0,0.69 0.56,1.25 1.25,1.25l2.5,-0c0.69,-0 1.25,-0.56 1.25,-1.25c-0,-0 -0,-4.606 -0,-8.369c-0,-0.731 -0.458,-1.384 -1.146,-1.633c-0.688,-0.249 -1.458,-0.041 -1.926,0.521c-0.548,0.658 -1.058,1.27 -1.416,1.699Z" style="fill:#fff;"/>
                <path d="M503.788,2895.67c0.331,0.398 0.512,0.899 0.512,1.416l0,6.366c0,0.69 -0.56,1.25 -1.25,1.25l-2.5,-0c-0.69,-0 -1.25,-0.56 -1.25,-1.25l0,-8.369c0,-0.731 0.458,-1.384 1.146,-1.633c0.688,-0.249 1.458,-0.041 1.926,0.521c0.548,0.658 1.058,1.27 1.416,1.699Z" style="fill:#fff;"/>
            </g>
        </g>
        <g id="Enemy4" serif:id="Enemy">
            <circle id="enemyPos4" serif:id="enemyPos" cx="226.023" cy="2732.7" r="22.5" style="fill:#232323;stroke:#8148c8;stroke-width:4.77px;"/>
            <g>
                <path d="M230.508,2729.17c-0.331,0.398 -0.512,0.899 -0.512,1.416c-0,1.87 -0,6.366 -0,6.366c-0,0.69 0.56,1.25 1.25,1.25l2.5,-0c0.69,-0 1.25,-0.56 1.25,-1.25l-0,-8.369c-0,-0.731 -0.458,-1.384 -1.146,-1.633c-0.688,-0.249 -1.457,-0.041 -1.926,0.521c-0.548,0.658 -1.058,1.27 -1.416,1.699Z" style="fill:#fff;"/>
                <path d="M221.538,2729.17c0.331,0.398 0.512,0.899 0.512,1.416c0,1.87 0,6.366 0,6.366c0,0.69 -0.56,1.25 -1.25,1.25l-2.5,-0c-0.689,-0 -1.25,-0.56 -1.25,-1.25c0,-0 0,-4.606 0,-8.369c0,-0.731 0.459,-1.384 1.146,-1.633c0.688,-0.249 1.458,-0.041 1.926,0.521c0.548,0.658 1.058,1.27 1.416,1.699Z" style="fill:#fff;"/>
            </g>
        </g>
        <g id="Enemy5" serif:id="Enemy">
            <circle id="enemyPos5" serif:id="enemyPos" cx="274.273" cy="2868.2" r="22.5" style="fill:#232323;stroke:#8148c8;stroke-width:4.77px;"/>
            <g>
                <path d="M278.758,2864.67c-0.331,0.398 -0.512,0.899 -0.512,1.416c-0,1.87 -0,6.366 -0,6.366c-0,0.69 0.56,1.25 1.25,1.25l2.5,-0c0.69,-0 1.25,-0.56 1.25,-1.25c-0,-0 -0,-4.606 -0,-8.369c-0,-0.731 -0.458,-1.384 -1.146,-1.633c-0.688,-0.249 -1.458,-0.041 -1.926,0.521c-0.548,0.658 -1.058,1.27 -1.416,1.699Z" style="fill:#fff;"/>
                <path d="M269.788,2864.67c0.331,0.398 0.512,0.899 0.512,1.416l0,6.366c0,0.69 -0.56,1.25 -1.25,1.25l-2.5,-0c-0.69,-0 -1.25,-0.56 -1.25,-1.25l0,-8.369c0,-0.731 0.458,-1.384 1.146,-1.633c0.688,-0.249 1.458,-0.041 1.926,0.521c0.548,0.658 1.058,1.27 1.416,1.699Z" style="fill:#fff;"/>
            </g>
        </g>
        <g id="Enemy6" serif:id="Enemy">
            <circle id="enemyPos6" serif:id="enemyPos" cx="248.523" cy="2670.2" r="22.5" style="fill:#232323;stroke:#8148c8;stroke-width:4.77px;"/>
            <g>
                <path d="M253.008,2666.67c-0.331,0.398 -0.512,0.899 -0.512,1.416l-0,6.366c-0,0.69 0.56,1.25 1.25,1.25l2.5,-0c0.69,-0 1.25,-0.56 1.25,-1.25l-0,-8.369c-0,-0.731 -0.458,-1.384 -1.146,-1.633c-0.688,-0.249 -1.457,-0.041 -1.926,0.521c-0.548,0.658 -1.058,1.27 -1.416,1.699Z" style="fill:#fff;"/>
                <path d="M244.038,2666.67c0.331,0.398 0.512,0.899 0.512,1.416c0,1.87 0,6.366 0,6.366c0,0.69 -0.56,1.25 -1.25,1.25l-2.5,-0c-0.689,-0 -1.25,-0.56 -1.25,-1.25c0,-0 0,-4.606 0,-8.369c0,-0.731 0.459,-1.384 1.146,-1.633c0.688,-0.249 1.458,-0.041 1.926,0.521c0.548,0.658 1.058,1.27 1.416,1.699Z" style="fill:#fff;"/>
            </g>
        </g>
        <g id="Enemy7" serif:id="Enemy">
            <circle id="enemyPos7" serif:id="enemyPos" cx="360.94" cy="2098.87" r="22.5" style="fill:#232323;stroke:#8148c8;stroke-width:4.77px;"/>
            <g>
                <path d="M365.425,2095.33c-0.331,0.397 -0.513,0.898 -0.513,1.416c0,1.869 0,6.366 0,6.366c0,0.689 0.56,1.25 1.25,1.25l2.5,-0c0.69,-0 1.25,-0.561 1.25,-1.25l0,-8.369c0,-0.732 -0.458,-1.385 -1.145,-1.634c-0.688,-0.249 -1.458,-0.04 -1.926,0.522c-0.549,0.658 -1.059,1.27 -1.416,1.699Z" style="fill:#fff;"/>
                <path d="M356.454,2095.33c0.332,0.397 0.513,0.898 0.513,1.416c0,1.869 0,6.366 0,6.366c0,0.689 -0.56,1.25 -1.25,1.25l-2.5,-0c-0.69,-0 -1.25,-0.561 -1.25,-1.25c0,-0 0,-4.606 0,-8.369c0,-0.732 0.458,-1.385 1.146,-1.634c0.687,-0.249 1.457,-0.04 1.925,0.522c0.549,0.658 1.059,1.27 1.416,1.699Z" style="fill:#fff;"/>
            </g>
        </g>
        <g id="Enemy8" serif:id="Enemy">
            <circle id="enemyPos8" serif:id="enemyPos" cx="392.94" cy="2048.2" r="22.5" style="fill:#232323;stroke:#8148c8;stroke-width:4.77px;"/>
            <g>
                <path d="M397.425,2044.67c-0.331,0.398 -0.513,0.899 -0.513,1.416c0,1.87 0,6.366 0,6.366c0,0.69 0.56,1.25 1.25,1.25l2.5,-0c0.69,-0 1.25,-0.56 1.25,-1.25l0,-8.369c0,-0.731 -0.458,-1.384 -1.145,-1.633c-0.688,-0.249 -1.458,-0.041 -1.926,0.521c-0.549,0.658 -1.059,1.27 -1.416,1.699Z" style="fill:#fff;"/>
                <path d="M388.454,2044.67c0.332,0.398 0.513,0.899 0.513,1.416c0,1.87 0,6.366 0,6.366c0,0.69 -0.56,1.25 -1.25,1.25l-2.5,-0c-0.69,-0 -1.25,-0.56 -1.25,-1.25c0,-0 0,-4.606 0,-8.369c0,-0.731 0.458,-1.384 1.146,-1.633c0.687,-0.249 1.457,-0.041 1.925,0.521c0.549,0.658 1.059,1.27 1.416,1.699Z" style="fill:#fff;"/>
            </g>
        </g>
        <g id="Enemy9" serif:id="Enemy">
            <circle id="enemyPos9" serif:id="enemyPos" cx="525.773" cy="1922.87" r="22.5" style="fill:#232323;stroke:#8148c8;stroke-width:4.77px;"/>
            <g>
                <path d="M530.258,1919.33c-0.331,0.397 -0.512,0.898 -0.512,1.416c-0,1.869 -0,6.366 -0,6.366c-0,0.689 0.56,1.25 1.25,1.25l2.5,-0c0.69,-0 1.25,-0.561 1.25,-1.25c-0,-0 -0,-4.606 -0,-8.369c-0,-0.732 -0.458,-1.385 -1.146,-1.634c-0.688,-0.249 -1.458,-0.04 -1.926,0.522c-0.548,0.658 -1.058,1.27 -1.416,1.699Z" style="fill:#fff;"/>
                <path d="M521.288,1919.33c0.331,0.397 0.512,0.898 0.512,1.416l0,6.366c0,0.689 -0.56,1.25 -1.25,1.25l-2.5,-0c-0.69,-0 -1.25,-0.561 -1.25,-1.25c0,-0 0,-4.606 0,-8.369c0,-0.732 0.458,-1.385 1.146,-1.634c0.688,-0.249 1.458,-0.04 1.926,0.522c0.548,0.658 1.058,1.27 1.416,1.699Z" style="fill:#fff;"/>
            </g>
        </g>
        <g id="Enemy10" serif:id="Enemy">
            <circle id="enemyPos10" serif:id="enemyPos" cx="339.273" cy="2294.87" r="22.5" style="fill:#232323;stroke:#8148c8;stroke-width:4.77px;"/>
            <g>
                <path d="M343.758,2291.33c-0.331,0.397 -0.512,0.898 -0.512,1.416c-0,1.869 -0,6.366 -0,6.366c-0,0.689 0.56,1.25 1.25,1.25l2.5,-0c0.69,-0 1.25,-0.561 1.25,-1.25l-0,-8.369c-0,-0.732 -0.458,-1.385 -1.146,-1.634c-0.688,-0.249 -1.458,-0.04 -1.926,0.522c-0.548,0.658 -1.058,1.27 -1.416,1.699Z" style="fill:#fff;"/>
                <path d="M334.788,2291.33c0.331,0.397 0.512,0.898 0.512,1.416c0,1.869 0,6.366 0,6.366c0,0.689 -0.56,1.25 -1.25,1.25l-2.5,-0c-0.69,-0 -1.25,-0.561 -1.25,-1.25c0,-0 0,-4.606 0,-8.369c0,-0.732 0.458,-1.385 1.146,-1.634c0.688,-0.249 1.458,-0.04 1.926,0.522c0.548,0.658 1.058,1.27 1.416,1.699Z" style="fill:#fff;"/>
            </g>
        </g>
        <g id="Enemy11" serif:id="Enemy">
            <circle id="enemyPos11" serif:id="enemyPos" cx="235.273" cy="1768.53" r="22.5" style="fill:#232323;stroke:#8148c8;stroke-width:4.77px;"/>
            <g>
                <path d="M239.758,1765c-0.331,0.398 -0.512,0.899 -0.512,1.416c-0,1.87 -0,6.366 -0,6.366c-0,0.69 0.56,1.25 1.25,1.25l2.5,0c0.69,0 1.25,-0.56 1.25,-1.25c-0,0 -0,-4.605 -0,-8.369c-0,-0.731 -0.458,-1.384 -1.146,-1.633c-0.688,-0.249 -1.458,-0.041 -1.926,0.521c-0.548,0.659 -1.058,1.27 -1.416,1.699Z" style="fill:#fff;"/>
                <path d="M230.788,1765c0.331,0.398 0.512,0.899 0.512,1.416l0,6.366c0,0.69 -0.56,1.25 -1.25,1.25l-2.5,0c-0.69,0 -1.25,-0.56 -1.25,-1.25l0,-8.369c0,-0.731 0.458,-1.384 1.146,-1.633c0.688,-0.249 1.458,-0.041 1.926,0.521c0.548,0.659 1.058,1.27 1.416,1.699Z" style="fill:#fff;"/>
            </g>
        </g>
        <g id="Enemy12" serif:id="Enemy">
            <circle id="enemyPos12" serif:id="enemyPos" cx="399.273" cy="528.138" r="22.5" style="fill:#232323;stroke:#8148c8;stroke-width:4.77px;"/>
            <g>
                <path d="M403.758,524.606c-0.331,0.398 -0.512,0.899 -0.512,1.416c-0,1.87 -0,6.366 -0,6.366c-0,0.69 0.56,1.25 1.25,1.25l2.5,-0c0.69,-0 1.25,-0.56 1.25,-1.25l-0,-8.369c-0,-0.731 -0.458,-1.384 -1.146,-1.633c-0.688,-0.249 -1.458,-0.041 -1.926,0.521c-0.548,0.658 -1.058,1.27 -1.416,1.699Z" style="fill:#fff;"/>
                <path d="M394.788,524.606c0.331,0.398 0.512,0.899 0.512,1.416c0,1.87 0,6.366 0,6.366c0,0.69 -0.56,1.25 -1.25,1.25l-2.5,-0c-0.69,-0 -1.25,-0.56 -1.25,-1.25c0,-0 0,-4.606 0,-8.369c0,-0.731 0.458,-1.384 1.146,-1.633c0.688,-0.249 1.458,-0.041 1.926,0.521c0.548,0.658 1.058,1.27 1.416,1.699Z" style="fill:#fff;"/>
            </g>
        </g>
        <g id="Enemy13" serif:id="Enemy">
            <circle id="enemyPos13" serif:id="enemyPos" cx="477.273" cy="192.138" r="22.5" style="fill:#232323;stroke:#8148c8;stroke-width:4.77px;"/>
            <g>
                <path d="M481.758,188.606c-0.331,0.398 -0.512,0.899 -0.512,1.416c-0,1.87 -0,6.366 -0,6.366c-0,0.69 0.56,1.25 1.25,1.25l2.5,-0c0.69,-0 1.25,-0.56 1.25,-1.25l-0,-8.369c-0,-0.731 -0.458,-1.384 -1.146,-1.633c-0.688,-0.249 -1.458,-0.041 -1.926,0.521c-0.548,0.658 -1.058,1.27 -1.416,1.699Z" style="fill:#fff;"/>
                <path d="M472.788,188.606c0.331,0.398 0.512,0.899 0.512,1.416c0,1.87 0,6.366 0,6.366c0,0.69 -0.56,1.25 -1.25,1.25l-2.5,-0c-0.69,-0 -1.25,-0.56 -1.25,-1.25c0,-0 0,-4.606 0,-8.369c0,-0.731 0.458,-1.384 1.146,-1.633c0.688,-0.249 1.458,-0.041 1.926,0.521c0.548,0.658 1.058,1.27 1.416,1.699Z" style="fill:#fff;"/>
            </g>
        </g>
        <g id="Enemy14" serif:id="Enemy">
            <circle id="enemyPos14" serif:id="enemyPos" cx="371.273" cy="52.138" r="22.5" style="fill:#232323;stroke:#8148c8;stroke-width:4.77px;"/>
            <g>
                <path d="M375.758,48.606c-0.331,0.398 -0.512,0.899 -0.512,1.416c-0,1.87 -0,6.366 -0,6.366c-0,0.69 0.56,1.25 1.25,1.25l2.5,-0c0.69,-0 1.25,-0.56 1.25,-1.25l-0,-8.369c-0,-0.731 -0.458,-1.384 -1.146,-1.633c-0.688,-0.249 -1.458,-0.041 -1.926,0.521c-0.548,0.658 -1.058,1.27 -1.416,1.699Z" style="fill:#fff;"/>
                <path d="M366.788,48.606c0.331,0.398 0.512,0.899 0.512,1.416c0,1.87 0,6.366 0,6.366c0,0.69 -0.56,1.25 -1.25,1.25l-2.5,-0c-0.69,-0 -1.25,-0.56 -1.25,-1.25l0,-8.369c0,-0.731 0.458,-1.384 1.146,-1.633c0.688,-0.249 1.458,-0.041 1.926,0.521c0.548,0.658 1.058,1.27 1.416,1.699Z" style="fill:#fff;"/>
            </g>
        </g>
        <g id="Enemy15" serif:id="Enemy">
            <circle id="enemyPos15" serif:id="enemyPos" cx="241.273" cy="152.138" r="22.5" style="fill:#232323;stroke:#8148c8;stroke-width:4.77px;"/>
            <g>
                <path d="M245.758,148.606c-0.331,0.398 -0.512,0.899 -0.512,1.416c-0,1.87 -0,6.366 -0,6.366c-0,0.69 0.56,1.25 1.25,1.25l2.5,-0c0.69,-0 1.25,-0.56 1.25,-1.25c-0,-0 -0,-4.606 -0,-8.369c-0,-0.731 -0.458,-1.384 -1.146,-1.633c-0.688,-0.249 -1.458,-0.041 -1.926,0.521c-0.548,0.658 -1.058,1.27 -1.416,1.699Z" style="fill:#fff;"/>
                <path d="M236.788,148.606c0.331,0.398 0.512,0.899 0.512,1.416c0,1.87 0,6.366 0,6.366c0,0.69 -0.56,1.25 -1.25,1.25l-2.5,-0c-0.69,-0 -1.25,-0.56 -1.25,-1.25c0,-0 0,-4.606 0,-8.369c0,-0.731 0.458,-1.384 1.146,-1.633c0.688,-0.249 1.458,-0.041 1.926,0.521c0.548,0.658 1.058,1.27 1.416,1.699Z" style="fill:#fff;"/>
            </g>
        </g>
        <g id="Enemy16" serif:id="Enemy">
            <circle id="enemyPos16" serif:id="enemyPos" cx="264.606" cy="1474.87" r="22.5" style="fill:#232323;stroke:#8148c8;stroke-width:4.77px;"/>
            <g>
                <path d="M269.092,1471.33c-0.332,0.397 -0.513,0.898 -0.513,1.416c-0,1.869 -0,6.366 -0,6.366c-0,0.689 0.56,1.25 1.25,1.25l2.5,-0c0.69,-0 1.25,-0.561 1.25,-1.25c-0,-0 -0,-4.606 -0,-8.369c-0,-0.732 -0.458,-1.385 -1.146,-1.634c-0.687,-0.249 -1.457,-0.04 -1.925,0.522c-0.549,0.658 -1.059,1.27 -1.416,1.699Z" style="fill:#fff;"/>
                <path d="M260.121,1471.33c0.331,0.397 0.513,0.898 0.513,1.416c-0,1.869 -0,6.366 -0,6.366c-0,0.689 -0.56,1.25 -1.25,1.25l-2.5,-0c-0.69,-0 -1.25,-0.561 -1.25,-1.25c-0,-0 -0,-4.606 -0,-8.369c-0,-0.732 0.458,-1.385 1.145,-1.634c0.688,-0.249 1.458,-0.04 1.926,0.522c0.549,0.658 1.059,1.27 1.416,1.699Z" style="fill:#fff;"/>
            </g>
        </g>
        <g id="Enemy17" serif:id="Enemy">
            <circle id="enemyPos17" serif:id="enemyPos" cx="312.606" cy="1421.53" r="22.5" style="fill:#232323;stroke:#8148c8;stroke-width:4.77px;"/>
            <g>
                <path d="M317.092,1418c-0.332,0.398 -0.513,0.899 -0.513,1.416c-0,1.87 -0,6.366 -0,6.366c-0,0.69 0.56,1.25 1.25,1.25l2.5,0c0.69,0 1.25,-0.56 1.25,-1.25c-0,0 -0,-4.605 -0,-8.369c-0,-0.731 -0.458,-1.384 -1.146,-1.633c-0.687,-0.249 -1.457,-0.041 -1.925,0.521c-0.549,0.659 -1.059,1.27 -1.416,1.699Z" style="fill:#fff;"/>
                <path d="M308.121,1418c0.331,0.398 0.513,0.899 0.513,1.416c-0,1.87 -0,6.366 -0,6.366c-0,0.69 -0.56,1.25 -1.25,1.25l-2.5,0c-0.69,0 -1.25,-0.56 -1.25,-1.25c-0,0 -0,-4.605 -0,-8.369c-0,-0.731 0.458,-1.384 1.145,-1.633c0.688,-0.249 1.458,-0.041 1.926,0.521c0.549,0.659 1.059,1.27 1.416,1.699Z" style="fill:#fff;"/>
            </g>
        </g>
        <g id="Enemy18" serif:id="Enemy">
            <circle id="enemyPos18" serif:id="enemyPos" cx="539.539" cy="518.198" r="22.5" style="fill:#232323;stroke:#8148c8;stroke-width:4.77px;"/>
            <g>
                <path d="M544.024,514.666c-0.331,0.398 -0.512,0.899 -0.512,1.416c-0,1.87 -0,6.366 -0,6.366c-0,0.69 0.56,1.25 1.25,1.25l2.5,-0c0.689,-0 1.25,-0.56 1.25,-1.25c-0,-0 -0,-4.606 -0,-8.369c-0,-0.731 -0.458,-1.384 -1.146,-1.633c-0.688,-0.249 -1.458,-0.041 -1.926,0.521c-0.548,0.658 -1.058,1.27 -1.416,1.699Z" style="fill:#fff;"/>
                <path d="M535.054,514.666c0.331,0.398 0.512,0.899 0.512,1.416l0,6.366c0,0.69 -0.56,1.25 -1.25,1.25l-2.5,-0c-0.69,-0 -1.25,-0.56 -1.25,-1.25l0,-8.369c0,-0.731 0.458,-1.384 1.146,-1.633c0.688,-0.249 1.458,-0.041 1.926,0.521c0.548,0.658 1.058,1.27 1.416,1.699Z" style="fill:#fff;"/>
            </g>
        </g>
        <g id="Enemy19" serif:id="Enemy">
            <circle id="enemyPos19" serif:id="enemyPos" cx="527.961" cy="724.198" r="22.5" style="fill:#232323;stroke:#8148c8;stroke-width:4.77px;"/>
            <g>
                <path d="M532.446,720.666c-0.331,0.398 -0.512,0.899 -0.512,1.416c-0,1.87 -0,6.366 -0,6.366c-0,0.69 0.56,1.25 1.25,1.25l2.5,-0c0.69,-0 1.25,-0.56 1.25,-1.25c-0,-0 -0,-4.606 -0,-8.369c-0,-0.731 -0.458,-1.384 -1.146,-1.633c-0.688,-0.249 -1.458,-0.041 -1.926,0.521c-0.548,0.658 -1.058,1.27 -1.416,1.699Z" style="fill:#fff;"/>
                <path d="M523.476,720.666c0.331,0.398 0.512,0.899 0.512,1.416l0,6.366c0,0.69 -0.56,1.25 -1.25,1.25l-2.5,-0c-0.689,-0 -1.25,-0.56 -1.25,-1.25l0,-8.369c0,-0.731 0.458,-1.384 1.146,-1.633c0.688,-0.249 1.458,-0.041 1.926,0.521c0.548,0.658 1.058,1.27 1.416,1.699Z" style="fill:#fff;"/>
            </g>
        </g>
        <g id="Enemy20" serif:id="Enemy">
            <circle id="enemyPos20" serif:id="enemyPos" cx="193.273" cy="1073.53" r="22.5" style="fill:#232323;stroke:#8148c8;stroke-width:4.77px;"/>
            <g>
                <path d="M197.758,1070c-0.331,0.398 -0.512,0.899 -0.512,1.416c-0,1.87 -0,6.366 -0,6.366c-0,0.69 0.56,1.25 1.25,1.25l2.5,0c0.69,0 1.25,-0.56 1.25,-1.25c-0,0 -0,-4.605 -0,-8.369c-0,-0.731 -0.458,-1.384 -1.146,-1.633c-0.688,-0.249 -1.458,-0.041 -1.926,0.521c-0.548,0.659 -1.058,1.27 -1.416,1.699Z" style="fill:#fff;"/>
                <path d="M188.788,1070c0.331,0.398 0.512,0.899 0.512,1.416c0,1.87 0,6.366 0,6.366c0,0.69 -0.56,1.25 -1.25,1.25l-2.5,0c-0.69,0 -1.25,-0.56 -1.25,-1.25c0,0 0,-4.605 0,-8.369c0,-0.731 0.458,-1.384 1.146,-1.633c0.688,-0.249 1.458,-0.041 1.926,0.521c0.548,0.659 1.058,1.27 1.416,1.699Z" style="fill:#fff;"/>
            </g>
        </g>
        <g id="Enemy21" serif:id="Enemy">
            <circle id="enemyPos21" serif:id="enemyPos" cx="189.273" cy="1020.2" r="22.5" style="fill:#232323;stroke:#8148c8;stroke-width:4.77px;"/>
            <g>
                <path d="M193.758,1016.67c-0.331,0.398 -0.512,0.899 -0.512,1.416c-0,1.87 -0,6.366 -0,6.366c-0,0.69 0.56,1.25 1.25,1.25l2.5,-0c0.69,-0 1.25,-0.56 1.25,-1.25l-0,-8.369c-0,-0.731 -0.458,-1.384 -1.146,-1.633c-0.688,-0.249 -1.458,-0.041 -1.926,0.521c-0.548,0.658 -1.058,1.27 -1.416,1.699Z" style="fill:#fff;"/>
                <path d="M184.788,1016.67c0.331,0.398 0.512,0.899 0.512,1.416c0,1.87 0,6.366 0,6.366c0,0.69 -0.56,1.25 -1.25,1.25l-2.5,-0c-0.69,-0 -1.25,-0.56 -1.25,-1.25c0,-0 0,-4.606 0,-8.369c0,-0.731 0.458,-1.384 1.146,-1.633c0.688,-0.249 1.458,-0.041 1.926,0.521c0.548,0.658 1.058,1.27 1.416,1.699Z" style="fill:#fff;"/>
            </g>
        </g>
        <g id="Enemy22" serif:id="Enemy">
            <circle id="enemyPos22" serif:id="enemyPos" cx="297.303" cy="966.865" r="22.5" style="fill:#232323;stroke:#8148c8;stroke-width:4.77px;"/>
            <g>
                <path d="M301.788,963.333c-0.331,0.397 -0.512,0.898 -0.512,1.416c-0,1.869 -0,6.366 -0,6.366c-0,0.689 0.56,1.25 1.25,1.25l2.5,-0c0.69,-0 1.25,-0.561 1.25,-1.25c-0,-0 -0,-4.606 -0,-8.369c-0,-0.732 -0.458,-1.385 -1.146,-1.634c-0.688,-0.249 -1.458,-0.04 -1.926,0.522c-0.548,0.658 -1.058,1.27 -1.416,1.699Z" style="fill:#fff;"/>
                <path d="M292.818,963.333c0.331,0.397 0.512,0.898 0.512,1.416l0,6.366c0,0.689 -0.56,1.25 -1.25,1.25l-2.5,-0c-0.689,-0 -1.25,-0.561 -1.25,-1.25l0,-8.369c0,-0.732 0.458,-1.385 1.146,-1.634c0.688,-0.249 1.458,-0.04 1.926,0.522c0.548,0.658 1.058,1.27 1.416,1.699Z" style="fill:#fff;"/>
            </g>
        </g>
        <g id="Enemy23" serif:id="Enemy">
            <circle id="enemyPos23" serif:id="enemyPos" cx="298.606" cy="1014.87" r="22.5" style="fill:#232323;stroke:#8148c8;stroke-width:4.77px;"/>
            <g>
                <path d="M303.092,1011.33c-0.332,0.397 -0.513,0.898 -0.513,1.416c-0,1.869 -0,6.366 -0,6.366c-0,0.689 0.56,1.25 1.25,1.25l2.5,-0c0.69,-0 1.25,-0.561 1.25,-1.25c-0,-0 -0,-4.606 -0,-8.369c-0,-0.732 -0.458,-1.385 -1.146,-1.634c-0.687,-0.249 -1.457,-0.04 -1.925,0.522c-0.549,0.658 -1.059,1.27 -1.416,1.699Z" style="fill:#fff;"/>
                <path d="M294.121,1011.33c0.331,0.397 0.513,0.898 0.513,1.416l-0,6.366c-0,0.689 -0.56,1.25 -1.25,1.25l-2.5,-0c-0.69,-0 -1.25,-0.561 -1.25,-1.25l-0,-8.369c-0,-0.732 0.458,-1.385 1.145,-1.634c0.688,-0.249 1.458,-0.04 1.926,0.522c0.549,0.658 1.059,1.27 1.416,1.699Z" style="fill:#fff;"/>
            </g>
        </g>
        <g id="Enemy24" serif:id="Enemy">
            <circle id="enemyPos24" serif:id="enemyPos" cx="297.273" cy="1072.2" r="22.5" style="fill:#232323;stroke:#8148c8;stroke-width:4.77px;"/>
            <g>
                <path d="M301.758,1068.67c-0.331,0.398 -0.512,0.899 -0.512,1.416c-0,1.87 -0,6.366 -0,6.366c-0,0.69 0.56,1.25 1.25,1.25l2.5,-0c0.69,-0 1.25,-0.56 1.25,-1.25c-0,-0 -0,-4.606 -0,-8.369c-0,-0.731 -0.458,-1.384 -1.146,-1.633c-0.688,-0.249 -1.458,-0.041 -1.926,0.521c-0.548,0.658 -1.058,1.27 -1.416,1.699Z" style="fill:#fff;"/>
                <path d="M292.788,1068.67c0.331,0.398 0.512,0.899 0.512,1.416l0,6.366c0,0.69 -0.56,1.25 -1.25,1.25l-2.5,-0c-0.69,-0 -1.25,-0.56 -1.25,-1.25l0,-8.369c0,-0.731 0.458,-1.384 1.146,-1.633c0.688,-0.249 1.458,-0.041 1.926,0.521c0.548,0.658 1.058,1.27 1.416,1.699Z" style="fill:#fff;"/>
            </g>
        </g>
        <g id="Enemy25" serif:id="Enemy">
            <circle id="enemyPos25" serif:id="enemyPos" cx="197.94" cy="966.865" r="22.5" style="fill:#232323;stroke:#8148c8;stroke-width:4.77px;"/>
            <g>
                <path d="M202.425,963.333c-0.331,0.397 -0.513,0.898 -0.513,1.416c0,1.869 0,6.366 0,6.366c0,0.689 0.56,1.25 1.25,1.25l2.5,-0c0.69,-0 1.25,-0.561 1.25,-1.25l0,-8.369c0,-0.732 -0.458,-1.385 -1.145,-1.634c-0.688,-0.249 -1.458,-0.04 -1.926,0.522c-0.549,0.658 -1.059,1.27 -1.416,1.699Z" style="fill:#fff;"/>
                <path d="M193.454,963.333c0.332,0.397 0.513,0.898 0.513,1.416c0,1.869 0,6.366 0,6.366c0,0.689 -0.56,1.25 -1.25,1.25l-2.5,-0c-0.69,-0 -1.25,-0.561 -1.25,-1.25l0,-8.369c0,-0.732 0.458,-1.385 1.146,-1.634c0.687,-0.249 1.457,-0.04 1.925,0.522c0.549,0.658 1.059,1.27 1.416,1.699Z" style="fill:#fff;"/>
            </g>
        </g>
        <g id="Enemy26" serif:id="Enemy">
            <circle id="enemyPos26" serif:id="enemyPos" cx="427.273" cy="938.865" r="22.5" style="fill:#232323;stroke:#8148c8;stroke-width:4.77px;"/>
            <g>
                <path d="M431.758,935.333c-0.331,0.397 -0.512,0.898 -0.512,1.416c-0,1.869 -0,6.366 -0,6.366c-0,0.689 0.56,1.25 1.25,1.25l2.5,-0c0.69,-0 1.25,-0.561 1.25,-1.25l-0,-8.369c-0,-0.732 -0.458,-1.385 -1.146,-1.634c-0.688,-0.249 -1.458,-0.04 -1.926,0.522c-0.548,0.658 -1.058,1.27 -1.416,1.699Z" style="fill:#fff;"/>
                <path d="M422.788,935.333c0.331,0.397 0.512,0.898 0.512,1.416c0,1.869 0,6.366 0,6.366c0,0.689 -0.56,1.25 -1.25,1.25l-2.5,-0c-0.69,-0 -1.25,-0.561 -1.25,-1.25c0,-0 0,-4.606 0,-8.369c0,-0.732 0.458,-1.385 1.146,-1.634c0.688,-0.249 1.458,-0.04 1.926,0.522c0.548,0.658 1.058,1.27 1.416,1.699Z" style="fill:#fff;"/>
            </g>
        </g>
        <g id="Enemy27" serif:id="Enemy">
            <circle id="enemyPos27" serif:id="enemyPos" cx="494.273" cy="868.865" r="22.5" style="fill:#232323;stroke:#8148c8;stroke-width:4.77px;"/>
            <g>
                <path d="M498.758,865.333c-0.331,0.397 -0.512,0.898 -0.512,1.416c-0,1.869 -0,6.366 -0,6.366c-0,0.689 0.56,1.25 1.25,1.25l2.5,-0c0.69,-0 1.25,-0.561 1.25,-1.25c-0,-0 -0,-4.606 -0,-8.369c-0,-0.732 -0.458,-1.385 -1.146,-1.634c-0.688,-0.249 -1.458,-0.04 -1.926,0.522c-0.548,0.658 -1.058,1.27 -1.416,1.699Z" style="fill:#fff;"/>
                <path d="M489.788,865.333c0.331,0.397 0.512,0.898 0.512,1.416c0,1.869 0,6.366 0,6.366c0,0.689 -0.56,1.25 -1.25,1.25l-2.5,-0c-0.69,-0 -1.25,-0.561 -1.25,-1.25c0,-0 0,-4.606 0,-8.369c0,-0.732 0.458,-1.385 1.146,-1.634c0.688,-0.249 1.458,-0.04 1.926,0.522c0.548,0.658 1.058,1.27 1.416,1.699Z" style="fill:#fff;"/>
            </g>
        </g>
        <g id="Enemy28" serif:id="Enemy">
            <circle id="enemyPos28" serif:id="enemyPos" cx="296.606" cy="532.138" r="22.5" style="fill:#232323;stroke:#8148c8;stroke-width:4.77px;"/>
            <g>
                <path d="M301.092,528.606c-0.332,0.398 -0.513,0.899 -0.513,1.416l-0,6.366c-0,0.69 0.56,1.25 1.25,1.25l2.5,-0c0.69,-0 1.25,-0.56 1.25,-1.25l-0,-8.369c-0,-0.731 -0.458,-1.384 -1.146,-1.633c-0.687,-0.249 -1.457,-0.041 -1.925,0.521c-0.549,0.658 -1.059,1.27 -1.416,1.699Z" style="fill:#fff;"/>
                <path d="M292.121,528.606c0.331,0.398 0.513,0.899 0.513,1.416c-0,1.87 -0,6.366 -0,6.366c-0,0.69 -0.56,1.25 -1.25,1.25l-2.5,-0c-0.69,-0 -1.25,-0.56 -1.25,-1.25c-0,-0 -0,-4.606 -0,-8.369c-0,-0.731 0.458,-1.384 1.145,-1.633c0.688,-0.249 1.458,-0.041 1.926,0.521c0.549,0.658 1.059,1.27 1.416,1.699Z" style="fill:#fff;"/>
            </g>
        </g>
        <g id="Enemy29" serif:id="Enemy">
            <circle id="enemyPos29" serif:id="enemyPos" cx="204.606" cy="609.471" r="22.5" style="fill:#232323;stroke:#8148c8;stroke-width:4.77px;"/>
            <g>
                <path d="M209.092,605.939c-0.332,0.398 -0.513,0.899 -0.513,1.416c-0,1.87 -0,6.366 -0,6.366c-0,0.69 0.56,1.25 1.25,1.25l2.5,0c0.69,0 1.25,-0.56 1.25,-1.25l-0,-8.369c-0,-0.731 -0.458,-1.384 -1.146,-1.633c-0.687,-0.249 -1.457,-0.041 -1.925,0.521c-0.549,0.659 -1.059,1.27 -1.416,1.699Z" style="fill:#fff;"/>
                <path d="M200.121,605.939c0.331,0.398 0.513,0.899 0.513,1.416l-0,6.366c-0,0.69 -0.56,1.25 -1.25,1.25l-2.5,0c-0.69,0 -1.25,-0.56 -1.25,-1.25l-0,-8.369c-0,-0.731 0.458,-1.384 1.145,-1.633c0.688,-0.249 1.458,-0.041 1.926,0.521c0.549,0.659 1.059,1.27 1.416,1.699Z" style="fill:#fff;"/>
            </g>
        </g>
        <g id="Enemy30" serif:id="Enemy">
            <circle id="enemyPos30" serif:id="enemyPos" cx="277.94" cy="1576.2" r="22.5" style="fill:#232323;stroke:#8148c8;stroke-width:4.77px;"/>
            <g>
                <path d="M282.425,1572.67c-0.331,0.398 -0.513,0.899 -0.513,1.416l0,6.366c0,0.69 0.56,1.25 1.25,1.25l2.5,-0c0.69,-0 1.25,-0.56 1.25,-1.25l0,-8.369c0,-0.731 -0.458,-1.384 -1.145,-1.633c-0.688,-0.249 -1.458,-0.041 -1.926,0.521c-0.549,0.658 -1.059,1.27 -1.416,1.699Z" style="fill:#fff;"/>
                <path d="M273.454,1572.67c0.332,0.398 0.513,0.899 0.513,1.416c0,1.87 0,6.366 0,6.366c0,0.69 -0.56,1.25 -1.25,1.25l-2.5,-0c-0.69,-0 -1.25,-0.56 -1.25,-1.25c0,-0 0,-4.606 0,-8.369c0,-0.731 0.458,-1.384 1.146,-1.633c0.687,-0.249 1.457,-0.041 1.925,0.521c0.549,0.658 1.059,1.27 1.416,1.699Z" style="fill:#fff;"/>
            </g>
        </g>
        <g id="Enemy31" serif:id="Enemy">
            <circle id="enemyPos31" serif:id="enemyPos" cx="261.94" cy="686.805" r="22.5" style="fill:#232323;stroke:#8148c8;stroke-width:4.77px;"/>
            <g>
                <path d="M266.425,683.273c-0.331,0.397 -0.513,0.898 -0.513,1.416c0,1.869 0,6.366 0,6.366c0,0.689 0.56,1.25 1.25,1.25l2.5,-0c0.69,-0 1.25,-0.561 1.25,-1.25c0,-0 0,-4.606 0,-8.369c0,-0.732 -0.458,-1.385 -1.145,-1.634c-0.688,-0.249 -1.458,-0.04 -1.926,0.522c-0.549,0.658 -1.059,1.27 -1.416,1.699Z" style="fill:#fff;"/>
                <path d="M257.454,683.273c0.332,0.397 0.513,0.898 0.513,1.416c0,1.869 0,6.366 0,6.366c0,0.689 -0.56,1.25 -1.25,1.25l-2.5,-0c-0.69,-0 -1.25,-0.561 -1.25,-1.25l0,-8.369c0,-0.732 0.458,-1.385 1.146,-1.634c0.687,-0.249 1.457,-0.04 1.925,0.522c0.549,0.658 1.059,1.27 1.416,1.699Z" style="fill:#fff;"/>
            </g>
        </g>
        <g id="Enemy32" serif:id="Enemy">
            <circle id="enemyPos32" serif:id="enemyPos" cx="272.606" cy="1877.53" r="22.5" style="fill:#232323;stroke:#8148c8;stroke-width:4.77px;"/>
            <g>
                <path d="M277.092,1874c-0.332,0.398 -0.513,0.899 -0.513,1.416c-0,1.87 -0,6.366 -0,6.366c-0,0.69 0.56,1.25 1.25,1.25l2.5,0c0.69,0 1.25,-0.56 1.25,-1.25l-0,-8.369c-0,-0.731 -0.458,-1.384 -1.146,-1.633c-0.687,-0.249 -1.457,-0.041 -1.925,0.521c-0.549,0.659 -1.059,1.27 -1.416,1.699Z" style="fill:#fff;"/>
                <path d="M268.121,1874c0.331,0.398 0.513,0.899 0.513,1.416c-0,1.87 -0,6.366 -0,6.366c-0,0.69 -0.56,1.25 -1.25,1.25l-2.5,0c-0.69,0 -1.25,-0.56 -1.25,-1.25c-0,0 -0,-4.605 -0,-8.369c-0,-0.731 0.458,-1.384 1.145,-1.633c0.688,-0.249 1.458,-0.041 1.926,0.521c0.549,0.659 1.059,1.27 1.416,1.699Z" style="fill:#fff;"/>
            </g>
        </g>
        <g id="Enemy33" serif:id="Enemy">
            <circle id="enemyPos33" serif:id="enemyPos" cx="398.273" cy="2294.87" r="22.5" style="fill:#232323;stroke:#8148c8;stroke-width:4.77px;"/>
            <g>
                <path d="M402.758,2291.33c-0.331,0.397 -0.512,0.898 -0.512,1.416c-0,1.869 -0,6.366 -0,6.366c-0,0.689 0.56,1.25 1.25,1.25l2.5,-0c0.69,-0 1.25,-0.561 1.25,-1.25l-0,-8.369c-0,-0.732 -0.458,-1.385 -1.146,-1.634c-0.688,-0.249 -1.458,-0.04 -1.926,0.522c-0.548,0.658 -1.058,1.27 -1.416,1.699Z" style="fill:#fff;"/>
                <path d="M393.788,2291.33c0.331,0.397 0.512,0.898 0.512,1.416c0,1.869 0,6.366 0,6.366c0,0.689 -0.56,1.25 -1.25,1.25l-2.5,-0c-0.69,-0 -1.25,-0.561 -1.25,-1.25c0,-0 0,-4.606 0,-8.369c0,-0.732 0.458,-1.385 1.146,-1.634c0.688,-0.249 1.458,-0.04 1.926,0.522c0.548,0.658 1.058,1.27 1.416,1.699Z" style="fill:#fff;"/>
            </g>
        </g>
        <g id="Enemy34" serif:id="Enemy">
            <circle id="enemyPos34" serif:id="enemyPos" cx="212.773" cy="2328.53" r="22.5" style="fill:#232323;stroke:#8148c8;stroke-width:4.77px;"/>
            <g>
                <path d="M217.258,2325c-0.331,0.398 -0.512,0.899 -0.512,1.416c-0,1.87 -0,6.366 -0,6.366c-0,0.69 0.56,1.25 1.25,1.25l2.5,0c0.69,0 1.25,-0.56 1.25,-1.25c-0,0 -0,-4.605 -0,-8.369c-0,-0.731 -0.458,-1.384 -1.146,-1.633c-0.688,-0.249 -1.458,-0.041 -1.926,0.521c-0.548,0.659 -1.058,1.27 -1.416,1.699Z" style="fill:#fff;"/>
                <path d="M208.288,2325c0.331,0.398 0.512,0.899 0.512,1.416c0,1.87 0,6.366 0,6.366c0,0.69 -0.56,1.25 -1.25,1.25l-2.5,0c-0.69,0 -1.25,-0.56 -1.25,-1.25l0,-8.369c0,-0.731 0.458,-1.384 1.146,-1.633c0.688,-0.249 1.458,-0.041 1.926,0.521c0.548,0.659 1.058,1.27 1.416,1.699Z" style="fill:#fff;"/>
            </g>
        </g>
        <g id="Enemy35" serif:id="Enemy">
            <circle id="enemyPos35" serif:id="enemyPos" cx="375" cy="1090.2" r="22.5" style="fill:#232323;stroke:#8148c8;stroke-width:4.77px;"/>
            <g>
                <path d="M379.485,1086.67c-0.331,0.398 -0.512,0.899 -0.512,1.416c-0,1.87 -0,6.366 -0,6.366c-0,0.69 0.56,1.25 1.25,1.25l2.5,-0c0.69,-0 1.25,-0.56 1.25,-1.25c-0,-0 -0,-4.606 -0,-8.369c-0,-0.731 -0.458,-1.384 -1.146,-1.633c-0.688,-0.249 -1.458,-0.041 -1.926,0.521c-0.548,0.658 -1.058,1.27 -1.416,1.699Z" style="fill:#fff;"/>
                <path d="M370.515,1086.67c0.331,0.398 0.512,0.899 0.512,1.416c0,1.87 0,6.366 0,6.366c0,0.69 -0.56,1.25 -1.25,1.25l-2.5,-0c-0.69,-0 -1.25,-0.56 -1.25,-1.25c0,-0 0,-4.606 0,-8.369c0,-0.731 0.458,-1.384 1.146,-1.633c0.688,-0.249 1.458,-0.041 1.926,0.521c0.548,0.658 1.058,1.27 1.416,1.699Z" style="fill:#fff;"/>
            </g>
        </g>
        <g id="Enemy36" serif:id="Enemy">
            <circle id="enemyPos36" serif:id="enemyPos" cx="584.539" cy="614.138" r="22.5" style="fill:#232323;stroke:#8148c8;stroke-width:4.77px;"/>
            <g>
                <path d="M589.024,610.606c-0.331,0.398 -0.512,0.899 -0.512,1.416c-0,1.87 -0,6.366 -0,6.366c-0,0.69 0.56,1.25 1.25,1.25l2.5,-0c0.689,-0 1.25,-0.56 1.25,-1.25l-0,-8.369c-0,-0.731 -0.458,-1.384 -1.146,-1.633c-0.688,-0.249 -1.458,-0.041 -1.926,0.521c-0.548,0.658 -1.058,1.27 -1.416,1.699Z" style="fill:#fff;"/>
                <path d="M580.054,610.606c0.331,0.398 0.512,0.899 0.512,1.416c0,1.87 0,6.366 0,6.366c0,0.69 -0.56,1.25 -1.25,1.25l-2.5,-0c-0.69,-0 -1.25,-0.56 -1.25,-1.25c0,-0 0,-4.606 0,-8.369c0,-0.731 0.458,-1.384 1.146,-1.633c0.688,-0.249 1.458,-0.041 1.926,0.521c0.548,0.658 1.058,1.27 1.416,1.699Z" style="fill:#fff;"/>
            </g>
        </g>
        <g id="Enemy37" serif:id="Enemy">
            <circle id="enemyPos37" serif:id="enemyPos" cx="395.8" cy="701.698" r="22.5" style="fill:#232323;stroke:#8148c8;stroke-width:4.77px;"/>
            <g>
                <path d="M400.286,698.166c-0.332,0.398 -0.513,0.899 -0.513,1.416l-0,6.366c-0,0.69 0.56,1.25 1.25,1.25l2.5,-0c0.69,-0 1.25,-0.56 1.25,-1.25l-0,-8.369c-0,-0.731 -0.458,-1.384 -1.146,-1.633c-0.687,-0.249 -1.457,-0.041 -1.925,0.521c-0.549,0.658 -1.059,1.27 -1.416,1.699Z" style="fill:#fff;"/>
                <path d="M391.315,698.166c0.331,0.398 0.513,0.899 0.513,1.416c-0,1.87 -0,6.366 -0,6.366c-0,0.69 -0.56,1.25 -1.25,1.25l-2.5,-0c-0.69,-0 -1.25,-0.56 -1.25,-1.25c-0,-0 -0,-4.606 -0,-8.369c-0,-0.731 0.458,-1.384 1.145,-1.633c0.688,-0.249 1.458,-0.041 1.926,0.521c0.549,0.658 1.059,1.27 1.416,1.699Z" style="fill:#fff;"/>
            </g>
        </g>
        <g id="Enemy38" serif:id="Enemy">
            <circle id="enemyPos38" serif:id="enemyPos" cx="336.94" cy="1576.2" r="22.5" style="fill:#232323;stroke:#8148c8;stroke-width:4.77px;"/>
            <g>
                <path d="M341.425,1572.67c-0.331,0.398 -0.513,0.899 -0.513,1.416c0,1.87 0,6.366 0,6.366c0,0.69 0.56,1.25 1.25,1.25l2.5,-0c0.69,-0 1.25,-0.56 1.25,-1.25l0,-8.369c0,-0.731 -0.458,-1.384 -1.145,-1.633c-0.688,-0.249 -1.458,-0.041 -1.926,0.521c-0.549,0.658 -1.059,1.27 -1.416,1.699Z" style="fill:#fff;"/>
                <path d="M332.454,1572.67c0.332,0.398 0.513,0.899 0.513,1.416c0,1.87 0,6.366 0,6.366c0,0.69 -0.56,1.25 -1.25,1.25l-2.5,-0c-0.69,-0 -1.25,-0.56 -1.25,-1.25c0,-0 0,-4.606 0,-8.369c0,-0.731 0.458,-1.384 1.146,-1.633c0.687,-0.249 1.457,-0.041 1.925,0.521c0.549,0.658 1.059,1.27 1.416,1.699Z" style="fill:#fff;"/>
            </g>
        </g>
        <g id="Enemy39" serif:id="Enemy">
            <circle id="enemyPos39" serif:id="enemyPos" cx="320.94" cy="686.805" r="22.5" style="fill:#232323;stroke:#8148c8;stroke-width:4.77px;"/>
            <g>
                <path d="M325.425,683.273c-0.331,0.397 -0.513,0.898 -0.513,1.416c0,1.869 0,6.366 0,6.366c0,0.689 0.56,1.25 1.25,1.25l2.5,-0c0.69,-0 1.25,-0.561 1.25,-1.25c0,-0 0,-4.606 0,-8.369c0,-0.732 -0.458,-1.385 -1.145,-1.634c-0.688,-0.249 -1.458,-0.04 -1.926,0.522c-0.549,0.658 -1.059,1.27 -1.416,1.699Z" style="fill:#fff;"/>
                <path d="M316.454,683.273c0.332,0.397 0.513,0.898 0.513,1.416c0,1.869 0,6.366 0,6.366c0,0.689 -0.56,1.25 -1.25,1.25l-2.5,-0c-0.69,-0 -1.25,-0.561 -1.25,-1.25c0,-0 0,-4.606 0,-8.369c0,-0.732 0.458,-1.385 1.146,-1.634c0.687,-0.249 1.457,-0.04 1.925,0.522c0.549,0.658 1.059,1.27 1.416,1.699Z" style="fill:#fff;"/>
            </g>
        </g>
        <g id="Enemy40" serif:id="Enemy">
            <circle id="enemyPos40" serif:id="enemyPos" cx="267.136" cy="2220.2" r="22.5" style="fill:#232323;stroke:#8148c8;stroke-width:4.77px;"/>
            <g>
                <path d="M271.622,2216.67c-0.332,0.398 -0.513,0.899 -0.513,1.416c0,1.87 0,6.366 0,6.366c0,0.69 0.56,1.25 1.25,1.25l2.5,-0c0.69,-0 1.25,-0.56 1.25,-1.25c0,-0 0,-4.606 0,-8.369c0,-0.731 -0.458,-1.384 -1.146,-1.633c-0.687,-0.249 -1.457,-0.041 -1.925,0.521c-0.549,0.658 -1.059,1.27 -1.416,1.699Z" style="fill:#fff;"/>
                <path d="M262.651,2216.67c0.331,0.398 0.513,0.899 0.513,1.416c-0,1.87 -0,6.366 -0,6.366c-0,0.69 -0.56,1.25 -1.25,1.25l-2.5,-0c-0.69,-0 -1.25,-0.56 -1.25,-1.25c-0,-0 -0,-4.606 -0,-8.369c-0,-0.731 0.458,-1.384 1.145,-1.633c0.688,-0.249 1.458,-0.041 1.926,0.521c0.549,0.658 1.059,1.27 1.416,1.699Z" style="fill:#fff;"/>
            </g>
        </g>
        <g id="Enemy41" serif:id="Enemy">
            <circle id="enemyPos41" serif:id="enemyPos" cx="469.803" cy="2217.53" r="22.5" style="fill:#232323;stroke:#8148c8;stroke-width:4.77px;"/>
            <g>
                <path d="M474.288,2214c-0.331,0.398 -0.512,0.899 -0.512,1.416c-0,1.87 -0,6.366 -0,6.366c-0,0.69 0.56,1.25 1.25,1.25l2.5,0c0.69,0 1.25,-0.56 1.25,-1.25c-0,0 -0,-4.605 -0,-8.369c-0,-0.731 -0.458,-1.384 -1.146,-1.633c-0.688,-0.249 -1.458,-0.041 -1.926,0.521c-0.548,0.659 -1.058,1.27 -1.416,1.699Z" style="fill:#fff;"/>
                <path d="M465.318,2214c0.331,0.398 0.512,0.899 0.512,1.416l0,6.366c0,0.69 -0.56,1.25 -1.25,1.25l-2.5,0c-0.689,0 -1.25,-0.56 -1.25,-1.25l0,-8.369c0,-0.731 0.458,-1.384 1.146,-1.633c0.688,-0.249 1.458,-0.041 1.926,0.521c0.548,0.659 1.058,1.27 1.416,1.699Z" style="fill:#fff;"/>
            </g>
        </g>
        <g id="Enemy42" serif:id="Enemy">
            <circle id="enemyPos42" serif:id="enemyPos" cx="264.94" cy="2018.87" r="22.5" style="fill:#232323;stroke:#8148c8;stroke-width:4.77px;"/>
            <g>
                <path d="M269.425,2015.33c-0.331,0.397 -0.513,0.898 -0.513,1.416c0,1.869 0,6.366 0,6.366c0,0.689 0.56,1.25 1.25,1.25l2.5,-0c0.69,-0 1.25,-0.561 1.25,-1.25c0,-0 0,-4.606 0,-8.369c0,-0.732 -0.458,-1.385 -1.145,-1.634c-0.688,-0.249 -1.458,-0.04 -1.926,0.522c-0.549,0.658 -1.059,1.27 -1.416,1.699Z" style="fill:#fff;"/>
                <path d="M260.454,2015.33c0.332,0.397 0.513,0.898 0.513,1.416c0,1.869 0,6.366 0,6.366c0,0.689 -0.56,1.25 -1.25,1.25l-2.5,-0c-0.69,-0 -1.25,-0.561 -1.25,-1.25l0,-8.369c0,-0.732 0.458,-1.385 1.146,-1.634c0.687,-0.249 1.457,-0.04 1.925,0.522c0.549,0.658 1.059,1.27 1.416,1.699Z" style="fill:#fff;"/>
            </g>
        </g>
        <g id="Enemy43" serif:id="Enemy">
            <circle id="enemyPos43" serif:id="enemyPos" cx="530.773" cy="1723.53" r="22.5" style="fill:#232323;stroke:#8148c8;stroke-width:4.77px;"/>
            <g>
                <path d="M535.258,1720c-0.331,0.398 -0.512,0.899 -0.512,1.416c-0,1.87 -0,6.366 -0,6.366c-0,0.69 0.56,1.25 1.25,1.25l2.5,0c0.69,0 1.25,-0.56 1.25,-1.25c-0,0 -0,-4.605 -0,-8.369c-0,-0.731 -0.458,-1.384 -1.146,-1.633c-0.688,-0.249 -1.458,-0.041 -1.926,0.521c-0.548,0.659 -1.058,1.27 -1.416,1.699Z" style="fill:#fff;"/>
                <path d="M526.288,1720c0.331,0.398 0.512,0.899 0.512,1.416l0,6.366c0,0.69 -0.56,1.25 -1.25,1.25l-2.5,0c-0.69,0 -1.25,-0.56 -1.25,-1.25c0,0 0,-4.605 0,-8.369c0,-0.731 0.458,-1.384 1.146,-1.633c0.688,-0.249 1.458,-0.041 1.926,0.521c0.548,0.659 1.058,1.27 1.416,1.699Z" style="fill:#fff;"/>
            </g>
        </g>
        <g id="Enemy44" serif:id="Enemy">
            <circle id="enemyPos44" serif:id="enemyPos" cx="516.8" cy="1594.2" r="22.5" style="fill:#232323;stroke:#8148c8;stroke-width:4.77px;"/>
            <g>
                <path d="M521.286,1590.67c-0.332,0.398 -0.513,0.899 -0.513,1.416c-0,1.87 -0,6.366 -0,6.366c-0,0.69 0.56,1.25 1.25,1.25l2.5,-0c0.69,-0 1.25,-0.56 1.25,-1.25l-0,-8.369c-0,-0.731 -0.458,-1.384 -1.146,-1.633c-0.687,-0.249 -1.457,-0.041 -1.925,0.521c-0.549,0.658 -1.059,1.27 -1.416,1.699Z" style="fill:#fff;"/>
                <path d="M512.315,1590.67c0.331,0.398 0.513,0.899 0.513,1.416c-0,1.87 -0,6.366 -0,6.366c-0,0.69 -0.56,1.25 -1.25,1.25l-2.5,-0c-0.69,-0 -1.25,-0.56 -1.25,-1.25c-0,-0 -0,-4.606 -0,-8.369c-0,-0.731 0.458,-1.384 1.145,-1.633c0.688,-0.249 1.458,-0.041 1.926,0.521c0.549,0.658 1.059,1.27 1.416,1.699Z" style="fill:#fff;"/>
            </g>
        </g>
        <path id="_-collision-" serif:id="{collision}" d="M259.419,2934.9c-7.757,7.96 -10.47,12.871 -10.47,12.871c-9.3,14.314 -13.954,31.779 -12.066,50.064c2.107,20.42 14.308,1.927 12.872,-11.991c-2.99,-28.965 18.098,-54.908 47.062,-57.898c13.919,-1.436 29.529,-17.158 9.11,-15.05c-18.268,1.886 -34.4,9.995 -46.508,22.004c-1.975,1.958 -6.31,6.486 -10.47,12.871" style="fill:#a10745;stroke:#a10745;stroke-width:25.03px;"/>
        <path id="_-collision-1" serif:id="{collision}" d="M545.453,392.773c-7.028,-8.611 -11.599,-11.863 -11.599,-11.863c-13.165,-10.866 -29.989,-17.473 -48.371,-17.673c-20.526,-0.225 -3.539,13.997 10.453,14.15c29.117,0.318 52.498,24.215 52.18,53.332c-0.153,13.991 13.694,31.286 13.918,10.759c0.201,-18.364 -6.024,-35.312 -16.581,-48.705c-1.721,-2.184 -5.728,-7.006 -11.599,-11.863" style="fill:#a10745;stroke:#a10745;stroke-width:25.03px;"/>
        <circle id="_-collisionCircle-" serif:id="{collisionCircle}" cx="280.635" cy="2450.99" r="26" style="fill:#a10745;stroke:#a10745;stroke-width:25.03px;"/>
        <path id="_-collision-2" serif:id="{collision}" d="M580.577,3206.11l0,-1749.37c0,-28.44 -15.987,-54.464 -41.356,-67.32c-9.268,-4.696 -19.175,-9.716 -28.685,-14.536c-29.418,-14.907 -47.957,-45.087 -47.956,-78.066c0.005,-79.361 0.013,-226.232 0.018,-298.356c0.001,-26.661 12.156,-51.867 33.017,-68.469c14.47,-11.516 31.546,-25.105 46.58,-37.069c24.252,-19.301 38.382,-48.606 38.382,-79.601l0,-121.045c0,-9.293 6.388,-17.367 15.431,-19.505c28.997,-6.932 50.569,-33.044 50.569,-64.155c0,-31.121 -21.585,-57.239 -50.588,-64.188c-9.015,-2.128 -15.385,-10.176 -15.385,-19.439c-0.027,-102.444 -0.027,-616.682 -0.027,-616.682" style="fill:none;stroke:#a10745;stroke-width:25px;"/>
        <path id="_-background-" serif:id="{background}" d="M580.577,3206.11l0,-1749.37c0,-28.44 -15.987,-54.464 -41.356,-67.32c-9.268,-4.696 -19.175,-9.716 -28.685,-14.536c-29.418,-14.907 -47.957,-45.087 -47.956,-78.066c0.005,-79.361 0.013,-226.232 0.018,-298.356c0.001,-26.661 12.156,-51.867 33.017,-68.469c14.47,-11.516 31.546,-25.105 46.58,-37.069c24.252,-19.301 38.382,-48.606 38.382,-79.601l0,-121.045c0,-9.293 6.388,-17.367 15.431,-19.505c28.997,-6.932 50.569,-33.044 50.569,-64.155c0,-31.121 -21.585,-57.239 -50.588,-64.188c-9.015,-2.128 -15.385,-10.176 -15.385,-19.439c-0.027,-102.444 -0.027,-616.682 -0.027,-616.682l288.442,0l0,3322l-288.442,-24.203Z" style="fill:#240227;stroke:#a10745;stroke-width:25px;"/>
        <path id="_-collision-3" serif:id="{collision}" d="M174.1,-315.688l-0,823.27l-43.068,357.532c-0,0 -48.465,791.629 -57.987,947.165c-0.981,16.026 7.539,31.134 21.761,38.588c15.729,8.243 36.601,19.182 53.495,28.036c17.813,9.335 27.938,28.766 25.386,48.714c-17.305,135.222 -82.301,643.115 -97.496,761.848c-1.814,14.177 7.362,27.439 21.269,30.738c12.919,3.065 28.969,6.873 43.037,10.21c19.683,4.67 33.58,22.25 33.58,42.48c0,108.168 0,433.419 0,433.419" style="fill:none;stroke:#a10745;stroke-width:25px;"/>
        <path id="_-background-1" serif:id="{background}" d="M174.077,3206.31l-360.058,24l0,-3546l360.081,0l-0,823.27l-43.068,357.532c-0,0 -48.465,791.629 -57.987,947.165c-0.981,16.026 7.539,31.134 21.761,38.588c15.729,8.243 36.6,19.181 53.494,28.035c17.813,9.336 27.939,28.767 25.385,48.716c-17.31,135.223 -82.324,643.107 -97.524,761.844c-1.815,14.179 7.362,27.441 21.27,30.74c12.926,3.065 28.987,6.875 43.063,10.213c19.685,4.669 33.583,22.249 33.583,42.48c0,108.171 0,433.417 0,433.417Z" style="fill:#240227;stroke:#a10745;stroke-width:25px;"/>
    </g>
</svg>
