<?xml version="1.0" encoding="UTF-8" standalone="no"?>
<!DOCTYPE svg PUBLIC "-//W3C//DTD SVG 1.1//EN" "http://www.w3.org/Graphics/SVG/1.1/DTD/svg11.dtd">
<svg width="750px" height="3100px" version="1.1" xmlns="http://www.w3.org/2000/svg" xmlns:xlink="http://www.w3.org/1999/xlink" xml:space="preserve" xmlns:serif="http://www.serif.com/" style="fill-rule:evenodd;clip-rule:evenodd;stroke-linecap:round;stroke-linejoin:round;stroke-miterlimit:1.5;">
    <rect id="Level-3" x="-0" y="0" width="750" height="3100" style="fill:#222;"/>
    <clipPath id="_clip1">
        <rect x="-0" y="0" width="750" height="3100"/>
    </clipPath>
    <g clip-path="url(#_clip1)">
        <path id="_-collision-" serif:id="{collision}" d="M174.1,3230.31c0,-0 0,-1043.64 0,-1168.49c-0,-7.962 -2.16,-15.776 -6.249,-22.608c-10.276,-17.169 -30.976,-51.756 -44.762,-74.79c-8.317,-13.896 -7.852,-31.347 1.194,-44.78c13.349,-19.823 32.425,-48.152 42.848,-63.63c4.893,-7.267 7.507,-15.828 7.507,-24.589c-0,-56.647 -0,-277.477 -0,-374.681c-0,-28.44 15.988,-54.464 41.356,-67.32c9.268,-4.696 19.175,-9.716 28.686,-14.536c29.418,-14.907 47.957,-45.087 47.955,-78.066c-0.005,-79.317 -0.013,-226.07 -0.017,-298.236c-0.002,-26.729 -12.219,-51.992 -33.17,-68.59c-14.535,-11.515 -31.687,-25.104 -46.789,-37.067c-24.357,-19.296 -38.559,-48.667 -38.559,-79.741c0,-39.779 0,-93.517 0,-120.914c-0,-9.284 -6.377,-17.354 -15.41,-19.5c-28.876,-6.935 -50.052,-33.045 -50.052,-64.152c-0,-31.117 21.58,-57.232 50.577,-64.185c9.02,-2.131 15.389,-10.187 15.381,-19.455c-0.06,-102.476 -0.496,-616.669 -0.496,-616.669" style="fill:none;stroke:#a10745;stroke-width:25px;"/>
        <path id="_-background-" serif:id="{background}" d="M174.1,3230.31c0,-0 0,-1043.64 0,-1168.49c-0,-7.962 -2.16,-15.776 -6.249,-22.608c-10.276,-17.169 -30.976,-51.756 -44.762,-74.79c-8.317,-13.896 -7.852,-31.347 1.194,-44.78c13.349,-19.823 32.425,-48.152 42.848,-63.63c4.893,-7.267 7.507,-15.828 7.507,-24.589c-0,-56.647 -0,-277.477 -0,-374.681c-0,-28.44 15.988,-54.464 41.356,-67.32c9.268,-4.696 19.175,-9.716 28.686,-14.536c29.418,-14.907 47.957,-45.087 47.955,-78.066c-0.005,-79.317 -0.013,-226.07 -0.017,-298.236c-0.002,-26.729 -12.219,-51.992 -33.17,-68.59c-14.535,-11.515 -31.687,-25.104 -46.789,-37.067c-24.357,-19.296 -38.559,-48.667 -38.559,-79.741c0,-39.779 0,-93.517 0,-120.914c-0,-9.284 -6.377,-17.354 -15.41,-19.5c-28.876,-6.935 -50.052,-33.045 -50.052,-64.152c-0,-31.117 21.58,-57.232 50.577,-64.185c9.02,-2.131 15.389,-10.187 15.381,-19.455c-0.06,-102.476 -0.496,-616.669 -0.496,-616.669l-321.081,0l0,3322l321.081,-0Z" style="fill:#520758;stroke:#a10745;stroke-width:25px;"/>
        <path id="_-collision-1" serif:id="{collision}" d="M580.6,-315.688l-0,2129.8c0,15.08 -8.328,28.928 -21.648,35.998c-16.828,8.932 -40.214,21.344 -57.96,30.763c-15.723,8.345 -25.553,24.691 -25.552,42.492c0.004,129.942 0.023,658.825 0.028,785.691c0,15.239 12.21,27.668 27.446,27.94c10.631,0.19 23.053,0.411 34.807,0.621c23.804,0.426 42.879,19.844 42.879,43.652c-0,115.609 -0,425.046 0,425.046" style="fill:none;stroke:#a10745;stroke-width:25px;"/>
        <path id="_-background-1" serif:id="{background}" d="M580.6,3206.31l307.086,-0.203l-0,-3521.8l-307.086,0l-0,2129.8c0,15.08 -8.328,28.928 -21.648,35.998c-16.828,8.932 -40.214,21.344 -57.96,30.763c-15.723,8.345 -25.553,24.691 -25.552,42.492c0.004,129.942 0.023,658.825 0.028,785.691c0,15.239 12.21,27.668 27.446,27.94c10.631,0.19 23.053,0.411 34.807,0.621c23.804,0.426 42.879,19.844 42.879,43.652c-0,115.609 -0,425.046 -0,425.046Z" style="fill:#211423;stroke:#a10745;stroke-width:25px;"/>
        <g id="Hole">
            <circle id="holePos" cx="515.44" cy="2803.53" r="40"/>
        </g>
        <g id="Hole1" serif:id="Hole">
            <circle id="holePos1" serif:id="holePos" cx="232.773" cy="2642.2" r="40"/>
        </g>
        <g id="Hole2" serif:id="Hole">
            <circle id="holePos2" serif:id="holePos" cx="232.773" cy="2291.53" r="40"/>
        </g>
        <g id="Hole3" serif:id="Hole">
            <circle id="holePos3" serif:id="holePos" cx="271.744" cy="2989.2" r="40"/>
        </g>
        <g id="Hole4" serif:id="Hole">
            <circle id="holePos4" serif:id="holePos" cx="239.44" cy="1656.87" r="40"/>
        </g>
        <g id="Hole5" serif:id="Hole">
            <circle id="holePos5" serif:id="holePos" cx="438.106" cy="999.531" r="40"/>
        </g>
        <g id="Hole6" serif:id="Hole">
            <circle id="holePos6" serif:id="holePos" cx="243.44" cy="610.198" r="40"/>
        </g>
        <g id="Hole7" serif:id="Hole">
            <circle id="holePos7" serif:id="holePos" cx="490.106" cy="438.198" r="40"/>
        </g>
        <g id="Hole8" serif:id="Hole">
            <circle id="holePos8" serif:id="holePos" cx="519.44" cy="296.865" r="40"/>
        </g>
        <g id="Hole9" serif:id="Hole">
            <circle id="holePos9" serif:id="holePos" cx="235.44" cy="153.865" r="40"/>
        </g>
        <g id="Hole10" serif:id="Hole">
            <circle id="holePos10" serif:id="holePos" cx="522.106" cy="1804.87" r="40"/>
        </g>
        <g id="Hole11" serif:id="Hole">
            <circle id="holePos11" serif:id="holePos" cx="184.773" cy="1944.87" r="40"/>
        </g>
        <g id="Hole12" serif:id="Hole">
            <circle id="holePos12" serif:id="holePos" cx="516.773" cy="1422.2" r="40"/>
        </g>
        <g id="Hole13" serif:id="Hole">
            <circle id="holePos13" serif:id="holePos" cx="421.039" cy="2291.53" r="40"/>
        </g>
        <g id="PowerPuck">
            <circle id="powerPos" cx="317.353" cy="2401.71" r="20.142" style="fill:#232323;stroke:#1cfe84;stroke-width:6.79px;"/>
            <g>
                <g id="eyes">
                    <g id="powerpuck-right-eye" serif:id="powerpuck/right-eye">
                        <g>
                            <path id="right-eye" d="M322.802,2400.3c0.383,-0.102 0.728,-0.292 1.002,-0.555c0.85,-0.816 1.697,-1.635 2.54,-2.457c0.417,-0.407 0.459,-1.174 -0.124,-1.667c-0.641,-0.543 -1.28,-1.087 -1.919,-1.632c-0.572,-0.49 -1.37,-0.398 -1.797,-0c-1.544,1.44 -3.097,2.87 -4.659,4.291c-0.51,0.464 -0.773,1.307 -0.295,2.059c0.483,0.76 1.437,0.969 2.137,0.784c1.039,-0.274 2.077,-0.548 3.115,-0.823Z" style="fill:#fff;"/>
                            <path id="right-eye1" serif:id="right-eye" d="M318.253,2396.23c0.111,-0.351 0.316,-0.655 0.578,-0.894c0.852,-0.773 1.7,-1.548 2.546,-2.327c0.424,-0.39 1.215,-0.486 1.781,0c0.627,0.539 1.255,1.076 1.884,1.612c0.577,0.49 0.519,1.248 0.106,1.645c-1.542,1.483 -3.094,2.955 -4.655,4.417c-0.542,0.508 -1.47,0.705 -2.279,0.268c-0.756,-0.41 -1.061,-1.257 -0.841,-1.944c0.295,-0.924 0.589,-1.85 0.88,-2.777Z" style="fill:#fff;"/>
                        </g>
                        <g>
                            <path id="right-eye2" serif:id="right-eye" d="M318.263,2406.45c0.123,0.399 0.351,0.745 0.645,1.019c0.994,0.924 1.992,1.844 2.994,2.761c0.485,0.443 1.432,0.629 2.07,-0c0.651,-0.641 1.3,-1.285 1.947,-1.93c0.62,-0.618 0.345,-1.48 -0.121,-1.891c-1.772,-1.56 -3.533,-3.131 -5.284,-4.714c-0.555,-0.501 -1.481,-0.713 -2.3,-0.269c-0.774,0.42 -1.085,1.294 -0.872,1.999c0.305,1.01 0.612,2.018 0.921,3.025Z" style="fill:#fff;"/>
                            <path id="right-eye3" serif:id="right-eye" d="M322.876,2402.09c0.406,0.106 0.773,0.303 1.074,0.569c0.993,0.877 1.989,1.75 2.988,2.619c0.461,0.402 0.751,1.253 0.139,1.868c-0.635,0.637 -1.271,1.272 -1.909,1.906c-0.631,0.625 -1.57,0.434 -2.051,-0c-1.774,-1.605 -3.537,-3.221 -5.288,-4.85c-0.527,-0.489 -0.79,-1.372 -0.288,-2.153c0.491,-0.764 1.438,-0.978 2.148,-0.792c1.062,0.278 2.124,0.556 3.187,0.833Z" style="fill:#fff;"/>
                        </g>
                    </g>
                    <g id="powerpuck-left-eye" serif:id="powerpuck/left-eye">
                        <g>
                            <path id="right-eye4" serif:id="right-eye" d="M316.392,2396.23c-0.105,-0.351 -0.306,-0.655 -0.565,-0.894c-0.84,-0.773 -1.677,-1.548 -2.511,-2.327c-0.423,-0.395 -1.213,-0.481 -1.781,0c-0.635,0.539 -1.271,1.076 -1.908,1.612c-0.577,0.485 -0.544,1.242 -0.131,1.645c1.52,1.483 3.049,2.955 4.589,4.417c0.539,0.513 1.466,0.701 2.275,0.268c0.756,-0.406 1.081,-1.25 0.87,-1.944c-0.281,-0.924 -0.561,-1.85 -0.838,-2.777Z" style="fill:#fff;"/>
                            <path id="right-eye5" serif:id="right-eye" d="M311.781,2400.3c-0.38,-0.102 -0.723,-0.291 -0.993,-0.555c-0.838,-0.816 -1.672,-1.635 -2.503,-2.457c-0.417,-0.412 -0.434,-1.18 0.149,-1.667c0.649,-0.543 1.296,-1.087 1.943,-1.632c0.574,-0.485 1.372,-0.403 1.798,-0c1.522,1.44 3.053,2.87 4.594,4.291c0.508,0.468 0.749,1.313 0.264,2.059c-0.492,0.756 -1.445,0.97 -2.149,0.784c-1.034,-0.274 -2.069,-0.548 -3.103,-0.823Z" style="fill:#fff;"/>
                        </g>
                        <g>
                            <path id="right-eye6" serif:id="right-eye" d="M311.681,2402.09c-0.409,0.106 -0.778,0.303 -1.083,0.569c-1.006,0.877 -2.015,1.75 -3.027,2.619c-0.462,0.396 -0.776,1.247 -0.167,1.868c0.625,0.637 1.251,1.272 1.88,1.906c0.627,0.631 1.57,0.428 2.05,-0c1.799,-1.605 3.586,-3.221 5.362,-4.85c0.529,-0.485 0.815,-1.365 0.32,-2.153c-0.482,-0.768 -1.43,-0.976 -2.136,-0.792c-1.066,0.278 -2.132,0.556 -3.199,0.833Z" style="fill:#fff;"/>
                            <path id="right-eye7" serif:id="right-eye" d="M316.228,2406.45c-0.129,0.399 -0.363,0.745 -0.661,1.019c-1.008,0.924 -2.02,1.844 -3.035,2.761c-0.485,0.437 -1.435,0.635 -2.07,-0c-0.641,-0.641 -1.281,-1.285 -1.918,-1.93c-0.617,-0.624 -0.317,-1.485 0.15,-1.891c1.795,-1.56 3.58,-3.131 5.355,-4.714c0.557,-0.497 1.484,-0.716 2.303,-0.269c0.775,0.423 1.063,1.301 0.842,1.999c-0.32,1.01 -0.642,2.018 -0.966,3.025Z" style="fill:#fff;"/>
                        </g>
                    </g>
                </g>
            </g>
        </g>
        <g id="PowerPuck1" serif:id="PowerPuck">
            <circle id="powerPos1" serif:id="powerPos" cx="396.019" cy="1584.38" r="20.142" style="fill:#232323;stroke:#1cfe84;stroke-width:6.79px;"/>
            <g>
                <g id="eyes1" serif:id="eyes">
                    <g id="powerpuck-right-eye1" serif:id="powerpuck/right-eye">
                        <g>
                            <path id="right-eye8" serif:id="right-eye" d="M401.469,1582.97c0.383,-0.101 0.728,-0.291 1.002,-0.554c0.849,-0.816 1.696,-1.635 2.54,-2.458c0.417,-0.406 0.458,-1.173 -0.124,-1.666c-0.641,-0.543 -1.28,-1.087 -1.919,-1.633c-0.572,-0.489 -1.371,-0.398 -1.797,0c-1.545,1.44 -3.097,2.87 -4.659,4.291c-0.511,0.465 -0.774,1.308 -0.295,2.06c0.483,0.76 1.436,0.969 2.137,0.784c1.038,-0.274 2.077,-0.549 3.115,-0.824Z" style="fill:#fff;"/>
                            <path id="right-eye9" serif:id="right-eye" d="M396.92,1578.9c0.11,-0.352 0.315,-0.655 0.578,-0.894c0.851,-0.773 1.7,-1.549 2.546,-2.327c0.423,-0.39 1.215,-0.486 1.781,-0c0.627,0.538 1.255,1.076 1.884,1.611c0.576,0.491 0.519,1.248 0.105,1.646c-1.541,1.483 -3.093,2.955 -4.655,4.417c-0.542,0.508 -1.47,0.705 -2.278,0.267c-0.757,-0.409 -1.061,-1.257 -0.842,-1.943c0.296,-0.925 0.589,-1.85 0.881,-2.777Z" style="fill:#fff;"/>
                        </g>
                        <g>
                            <path id="right-eye10" serif:id="right-eye" d="M396.93,1589.12c0.122,0.399 0.351,0.745 0.645,1.018c0.994,0.925 1.992,1.845 2.994,2.761c0.485,0.444 1.431,0.63 2.07,0c0.651,-0.641 1.3,-1.284 1.947,-1.929c0.62,-0.619 0.345,-1.481 -0.121,-1.891c-1.772,-1.56 -3.534,-3.131 -5.285,-4.714c-0.554,-0.501 -1.48,-0.713 -2.299,-0.269c-0.774,0.419 -1.085,1.293 -0.872,1.999c0.305,1.009 0.611,2.018 0.921,3.025Z" style="fill:#fff;"/>
                            <path id="right-eye11" serif:id="right-eye" d="M401.542,1584.76c0.407,0.106 0.773,0.304 1.075,0.57c0.993,0.876 1.989,1.749 2.988,2.619c0.461,0.401 0.751,1.252 0.138,1.867c-0.634,0.638 -1.27,1.273 -1.908,1.906c-0.631,0.626 -1.57,0.435 -2.051,0c-1.774,-1.604 -3.537,-3.22 -5.288,-4.849c-0.527,-0.49 -0.791,-1.372 -0.288,-2.153c0.491,-0.764 1.438,-0.978 2.148,-0.792c1.062,0.278 2.124,0.555 3.186,0.832Z" style="fill:#fff;"/>
                        </g>
                    </g>
                    <g id="powerpuck-left-eye1" serif:id="powerpuck/left-eye">
                        <g>
                            <path id="right-eye12" serif:id="right-eye" d="M395.058,1578.9c-0.105,-0.351 -0.305,-0.655 -0.565,-0.894c-0.839,-0.773 -1.676,-1.549 -2.51,-2.327c-0.423,-0.395 -1.213,-0.482 -1.781,-0c-0.635,0.538 -1.271,1.076 -1.909,1.611c-0.577,0.485 -0.543,1.243 -0.13,1.646c1.52,1.483 3.049,2.955 4.589,4.417c0.539,0.512 1.466,0.701 2.274,0.267c0.756,-0.405 1.082,-1.249 0.871,-1.943c-0.282,-0.925 -0.561,-1.85 -0.839,-2.777Z" style="fill:#fff;"/>
                            <path id="right-eye13" serif:id="right-eye" d="M390.448,1582.97c-0.38,-0.101 -0.723,-0.29 -0.993,-0.554c-0.838,-0.816 -1.672,-1.635 -2.504,-2.458c-0.416,-0.412 -0.434,-1.179 0.149,-1.666c0.649,-0.543 1.297,-1.087 1.944,-1.633c0.574,-0.484 1.371,-0.403 1.797,0c1.523,1.44 3.054,2.87 4.594,4.291c0.508,0.469 0.75,1.314 0.265,2.06c-0.492,0.756 -1.445,0.97 -2.149,0.784c-1.035,-0.274 -2.069,-0.549 -3.103,-0.824Z" style="fill:#fff;"/>
                        </g>
                        <g>
                            <path id="right-eye14" serif:id="right-eye" d="M390.348,1584.76c-0.409,0.107 -0.778,0.304 -1.084,0.57c-1.005,0.876 -2.014,1.749 -3.027,2.619c-0.461,0.396 -0.776,1.246 -0.167,1.867c0.625,0.638 1.252,1.273 1.881,1.906c0.627,0.632 1.57,0.429 2.05,0c1.798,-1.604 3.586,-3.22 5.361,-4.849c0.53,-0.486 0.816,-1.366 0.321,-2.153c-0.483,-0.768 -1.43,-0.977 -2.136,-0.792c-1.066,0.278 -2.133,0.555 -3.199,0.832Z" style="fill:#fff;"/>
                            <path id="right-eye15" serif:id="right-eye" d="M394.894,1589.12c-0.128,0.399 -0.362,0.745 -0.66,1.018c-1.008,0.925 -2.02,1.845 -3.035,2.761c-0.485,0.438 -1.435,0.636 -2.071,0c-0.641,-0.641 -1.28,-1.284 -1.917,-1.929c-0.617,-0.625 -0.317,-1.486 0.149,-1.891c1.796,-1.56 3.581,-3.131 5.355,-4.714c0.557,-0.497 1.485,-0.717 2.304,-0.269c0.775,0.423 1.063,1.301 0.842,1.999c-0.32,1.009 -0.642,2.018 -0.967,3.025Z" style="fill:#fff;"/>
                        </g>
                    </g>
                </g>
            </g>
        </g>
        <g id="PowerPuck2" serif:id="PowerPuck">
            <circle id="powerPos2" serif:id="powerPos" cx="236.019" cy="831.047" r="20.142" style="fill:#232323;stroke:#1cfe84;stroke-width:6.79px;"/>
            <g>
                <g id="eyes2" serif:id="eyes">
                    <g id="powerpuck-right-eye2" serif:id="powerpuck/right-eye">
                        <g>
                            <path id="right-eye16" serif:id="right-eye" d="M241.469,829.632c0.383,-0.102 0.728,-0.291 1.002,-0.554c0.849,-0.816 1.696,-1.635 2.54,-2.458c0.417,-0.406 0.458,-1.173 -0.124,-1.667c-0.641,-0.542 -1.28,-1.086 -1.919,-1.632c-0.572,-0.489 -1.371,-0.398 -1.797,-0c-1.544,1.44 -3.097,2.87 -4.659,4.291c-0.511,0.464 -0.774,1.307 -0.295,2.06c0.483,0.76 1.436,0.968 2.137,0.783c1.038,-0.273 2.077,-0.548 3.115,-0.823Z" style="fill:#fff;"/>
                            <path id="right-eye17" serif:id="right-eye" d="M236.92,825.563c0.11,-0.352 0.315,-0.656 0.578,-0.894c0.851,-0.773 1.7,-1.549 2.546,-2.328c0.423,-0.39 1.215,-0.486 1.781,0c0.627,0.539 1.255,1.076 1.884,1.612c0.576,0.491 0.519,1.248 0.105,1.646c-1.541,1.482 -3.093,2.954 -4.655,4.417c-0.542,0.507 -1.47,0.704 -2.278,0.267c-0.757,-0.409 -1.061,-1.257 -0.842,-1.943c0.296,-0.925 0.589,-1.851 0.881,-2.777Z" style="fill:#fff;"/>
                        </g>
                        <g>
                            <path id="right-eye18" serif:id="right-eye" d="M236.93,835.786c0.122,0.399 0.351,0.745 0.645,1.019c0.994,0.924 1.992,1.845 2.994,2.761c0.485,0.444 1.431,0.629 2.07,0c0.651,-0.641 1.3,-1.284 1.947,-1.929c0.62,-0.619 0.345,-1.481 -0.121,-1.891c-1.772,-1.56 -3.534,-3.131 -5.285,-4.714c-0.554,-0.502 -1.48,-0.713 -2.299,-0.27c-0.774,0.42 -1.085,1.294 -0.872,2c0.305,1.009 0.611,2.017 0.921,3.024Z" style="fill:#fff;"/>
                            <path id="right-eye19" serif:id="right-eye" d="M241.542,831.422c0.407,0.106 0.773,0.303 1.075,0.57c0.993,0.876 1.989,1.749 2.988,2.618c0.461,0.402 0.751,1.253 0.138,1.868c-0.634,0.637 -1.27,1.273 -1.908,1.906c-0.631,0.626 -1.57,0.434 -2.051,-0c-1.774,-1.604 -3.537,-3.221 -5.288,-4.849c-0.527,-0.49 -0.791,-1.372 -0.288,-2.153c0.491,-0.764 1.438,-0.979 2.148,-0.793c1.062,0.278 2.124,0.556 3.186,0.833Z" style="fill:#fff;"/>
                        </g>
                    </g>
                    <g id="powerpuck-left-eye2" serif:id="powerpuck/left-eye">
                        <g>
                            <path id="right-eye20" serif:id="right-eye" d="M235.058,825.563c-0.105,-0.351 -0.305,-0.656 -0.565,-0.894c-0.839,-0.773 -1.676,-1.549 -2.51,-2.328c-0.423,-0.394 -1.213,-0.481 -1.781,0c-0.635,0.539 -1.271,1.076 -1.909,1.612c-0.577,0.485 -0.543,1.243 -0.13,1.646c1.52,1.483 3.049,2.954 4.589,4.417c0.539,0.512 1.466,0.7 2.274,0.267c0.756,-0.406 1.082,-1.249 0.871,-1.943c-0.282,-0.925 -0.561,-1.851 -0.839,-2.777Z" style="fill:#fff;"/>
                            <path id="right-eye21" serif:id="right-eye" d="M230.448,829.632c-0.38,-0.101 -0.723,-0.291 -0.993,-0.554c-0.838,-0.816 -1.672,-1.635 -2.504,-2.458c-0.416,-0.412 -0.434,-1.179 0.149,-1.667c0.649,-0.542 1.297,-1.086 1.944,-1.632c0.574,-0.484 1.371,-0.403 1.797,-0c1.523,1.44 3.054,2.87 4.595,4.291c0.507,0.469 0.749,1.314 0.264,2.06c-0.492,0.756 -1.445,0.97 -2.149,0.783c-1.035,-0.273 -2.069,-0.548 -3.103,-0.823Z" style="fill:#fff;"/>
                        </g>
                        <g>
                            <path id="right-eye22" serif:id="right-eye" d="M230.348,831.422c-0.409,0.106 -0.778,0.304 -1.084,0.57c-1.005,0.876 -2.014,1.749 -3.027,2.618c-0.461,0.397 -0.776,1.247 -0.167,1.868c0.625,0.637 1.252,1.273 1.881,1.906c0.627,0.632 1.57,0.429 2.05,-0c1.799,-1.604 3.586,-3.221 5.361,-4.849c0.53,-0.486 0.816,-1.366 0.321,-2.153c-0.483,-0.768 -1.43,-0.977 -2.136,-0.793c-1.066,0.278 -2.133,0.556 -3.199,0.833Z" style="fill:#fff;"/>
                            <path id="right-eye23" serif:id="right-eye" d="M234.894,835.786c-0.128,0.4 -0.362,0.745 -0.66,1.019c-1.008,0.924 -2.02,1.845 -3.035,2.761c-0.485,0.438 -1.435,0.635 -2.071,0c-0.641,-0.641 -1.28,-1.284 -1.917,-1.929c-0.617,-0.625 -0.317,-1.486 0.149,-1.891c1.796,-1.56 3.581,-3.131 5.355,-4.714c0.557,-0.497 1.485,-0.717 2.304,-0.27c0.775,0.424 1.063,1.302 0.842,2c-0.32,1.009 -0.642,2.017 -0.967,3.024Z" style="fill:#fff;"/>
                        </g>
                    </g>
                </g>
            </g>
        </g>
        <g id="PowerPuck3" serif:id="PowerPuck">
            <circle id="powerPos3" serif:id="powerPos" cx="352.019" cy="267.047" r="20.142" style="fill:#232323;stroke:#1cfe84;stroke-width:6.79px;"/>
            <g>
                <g id="eyes3" serif:id="eyes">
                    <g id="powerpuck-right-eye3" serif:id="powerpuck/right-eye">
                        <g>
                            <path id="right-eye24" serif:id="right-eye" d="M357.469,265.632c0.383,-0.102 0.728,-0.291 1.002,-0.554c0.849,-0.816 1.696,-1.635 2.54,-2.458c0.417,-0.406 0.458,-1.173 -0.124,-1.667c-0.641,-0.542 -1.28,-1.086 -1.919,-1.632c-0.572,-0.489 -1.371,-0.398 -1.797,0c-1.544,1.44 -3.097,2.87 -4.659,4.291c-0.511,0.464 -0.774,1.308 -0.295,2.06c0.483,0.76 1.436,0.968 2.137,0.783c1.038,-0.273 2.077,-0.548 3.115,-0.823Z" style="fill:#fff;"/>
                            <path id="right-eye25" serif:id="right-eye" d="M352.92,261.563c0.11,-0.352 0.315,-0.656 0.578,-0.894c0.851,-0.773 1.7,-1.549 2.546,-2.328c0.423,-0.39 1.215,-0.486 1.781,0c0.627,0.539 1.255,1.076 1.884,1.612c0.576,0.491 0.519,1.248 0.105,1.646c-1.541,1.482 -3.093,2.954 -4.655,4.417c-0.542,0.507 -1.47,0.704 -2.278,0.267c-0.757,-0.409 -1.061,-1.257 -0.842,-1.943c0.296,-0.925 0.589,-1.851 0.881,-2.777Z" style="fill:#fff;"/>
                        </g>
                        <g>
                            <path id="right-eye26" serif:id="right-eye" d="M352.93,271.786c0.122,0.399 0.351,0.745 0.645,1.019c0.994,0.924 1.992,1.845 2.994,2.761c0.485,0.444 1.431,0.629 2.07,0c0.651,-0.641 1.3,-1.284 1.947,-1.929c0.62,-0.619 0.345,-1.481 -0.121,-1.891c-1.772,-1.56 -3.534,-3.131 -5.285,-4.714c-0.554,-0.502 -1.48,-0.713 -2.299,-0.27c-0.774,0.42 -1.085,1.294 -0.872,2c0.305,1.009 0.611,2.017 0.921,3.024Z" style="fill:#fff;"/>
                            <path id="right-eye27" serif:id="right-eye" d="M357.542,267.422c0.407,0.106 0.773,0.303 1.075,0.57c0.993,0.876 1.989,1.749 2.988,2.619c0.461,0.401 0.751,1.252 0.138,1.867c-0.634,0.637 -1.27,1.273 -1.908,1.906c-0.631,0.626 -1.57,0.434 -2.051,-0c-1.774,-1.604 -3.537,-3.221 -5.288,-4.849c-0.527,-0.49 -0.791,-1.372 -0.288,-2.153c0.491,-0.764 1.438,-0.979 2.148,-0.793c1.062,0.278 2.124,0.556 3.186,0.833Z" style="fill:#fff;"/>
                        </g>
                    </g>
                    <g id="powerpuck-left-eye3" serif:id="powerpuck/left-eye">
                        <g>
                            <path id="right-eye28" serif:id="right-eye" d="M351.058,261.563c-0.105,-0.351 -0.305,-0.656 -0.565,-0.894c-0.839,-0.773 -1.676,-1.549 -2.51,-2.328c-0.423,-0.394 -1.213,-0.481 -1.781,0c-0.635,0.539 -1.271,1.076 -1.909,1.612c-0.577,0.485 -0.543,1.243 -0.13,1.646c1.52,1.483 3.049,2.954 4.589,4.417c0.539,0.512 1.466,0.701 2.274,0.267c0.756,-0.406 1.082,-1.249 0.871,-1.943c-0.282,-0.925 -0.561,-1.851 -0.839,-2.777Z" style="fill:#fff;"/>
                            <path id="right-eye29" serif:id="right-eye" d="M346.448,265.632c-0.38,-0.101 -0.723,-0.291 -0.993,-0.554c-0.838,-0.816 -1.672,-1.635 -2.504,-2.458c-0.416,-0.412 -0.434,-1.179 0.149,-1.667c0.649,-0.542 1.297,-1.086 1.944,-1.632c0.574,-0.484 1.371,-0.403 1.797,0c1.523,1.44 3.054,2.87 4.595,4.291c0.507,0.469 0.749,1.314 0.264,2.06c-0.492,0.756 -1.445,0.97 -2.149,0.783c-1.035,-0.273 -2.069,-0.548 -3.103,-0.823Z" style="fill:#fff;"/>
                        </g>
                        <g>
                            <path id="right-eye30" serif:id="right-eye" d="M346.348,267.422c-0.409,0.106 -0.778,0.304 -1.084,0.57c-1.005,0.876 -2.014,1.749 -3.027,2.619c-0.461,0.396 -0.776,1.246 -0.167,1.867c0.625,0.637 1.252,1.273 1.881,1.906c0.627,0.632 1.57,0.429 2.05,-0c1.799,-1.604 3.586,-3.221 5.361,-4.849c0.53,-0.486 0.816,-1.366 0.321,-2.153c-0.483,-0.768 -1.43,-0.977 -2.136,-0.793c-1.066,0.278 -2.133,0.556 -3.199,0.833Z" style="fill:#fff;"/>
                            <path id="right-eye31" serif:id="right-eye" d="M350.894,271.786c-0.128,0.4 -0.362,0.745 -0.66,1.019c-1.008,0.924 -2.02,1.845 -3.035,2.761c-0.485,0.438 -1.435,0.635 -2.071,0c-0.641,-0.641 -1.28,-1.284 -1.917,-1.929c-0.617,-0.625 -0.317,-1.486 0.149,-1.891c1.796,-1.56 3.581,-3.131 5.355,-4.714c0.557,-0.497 1.485,-0.717 2.304,-0.27c0.775,0.424 1.063,1.302 0.842,2c-0.32,1.009 -0.642,2.017 -0.967,3.024Z" style="fill:#fff;"/>
                        </g>
                    </g>
                </g>
            </g>
        </g>
        <g id="PowerPuck4" serif:id="PowerPuck">
            <circle id="powerPos4" serif:id="powerPos" cx="529.353" cy="1151.05" r="20.142" style="fill:#232323;stroke:#1cfe84;stroke-width:6.79px;"/>
            <g>
                <g id="eyes4" serif:id="eyes">
                    <g id="powerpuck-right-eye4" serif:id="powerpuck/right-eye">
                        <g>
                            <path id="right-eye32" serif:id="right-eye" d="M534.802,1149.63c0.383,-0.102 0.728,-0.291 1.002,-0.554c0.85,-0.816 1.697,-1.635 2.54,-2.458c0.417,-0.406 0.459,-1.174 -0.124,-1.667c-0.641,-0.542 -1.28,-1.086 -1.919,-1.632c-0.572,-0.489 -1.37,-0.398 -1.797,-0c-1.544,1.44 -3.097,2.87 -4.659,4.291c-0.51,0.464 -0.773,1.307 -0.295,2.06c0.483,0.76 1.437,0.968 2.137,0.783c1.039,-0.273 2.077,-0.548 3.115,-0.823Z" style="fill:#fff;"/>
                            <path id="right-eye33" serif:id="right-eye" d="M530.253,1145.56c0.111,-0.352 0.316,-0.656 0.578,-0.894c0.852,-0.773 1.7,-1.549 2.546,-2.328c0.424,-0.39 1.215,-0.486 1.781,0c0.627,0.539 1.255,1.076 1.884,1.612c0.577,0.491 0.519,1.248 0.106,1.646c-1.542,1.482 -3.094,2.954 -4.655,4.417c-0.542,0.507 -1.47,0.704 -2.279,0.267c-0.756,-0.409 -1.061,-1.257 -0.841,-1.943c0.295,-0.925 0.589,-1.851 0.88,-2.777Z" style="fill:#fff;"/>
                        </g>
                        <g>
                            <path id="right-eye34" serif:id="right-eye" d="M530.263,1155.79c0.123,0.399 0.351,0.745 0.645,1.019c0.994,0.924 1.992,1.845 2.994,2.761c0.485,0.444 1.432,0.629 2.07,0c0.651,-0.641 1.3,-1.284 1.947,-1.929c0.62,-0.619 0.345,-1.481 -0.121,-1.891c-1.772,-1.56 -3.534,-3.131 -5.284,-4.714c-0.555,-0.502 -1.481,-0.713 -2.3,-0.27c-0.774,0.42 -1.085,1.294 -0.872,2c0.305,1.009 0.612,2.017 0.921,3.024Z" style="fill:#fff;"/>
                            <path id="right-eye35" serif:id="right-eye" d="M534.876,1151.42c0.406,0.106 0.773,0.303 1.074,0.57c0.993,0.876 1.989,1.749 2.988,2.618c0.461,0.402 0.751,1.253 0.139,1.868c-0.635,0.637 -1.271,1.273 -1.909,1.906c-0.631,0.626 -1.57,0.434 -2.051,-0c-1.774,-1.604 -3.537,-3.221 -5.288,-4.849c-0.527,-0.49 -0.79,-1.372 -0.288,-2.153c0.491,-0.764 1.438,-0.979 2.148,-0.793c1.062,0.278 2.124,0.556 3.187,0.833Z" style="fill:#fff;"/>
                        </g>
                    </g>
                    <g id="powerpuck-left-eye4" serif:id="powerpuck/left-eye">
                        <g>
                            <path id="right-eye36" serif:id="right-eye" d="M528.392,1145.56c-0.105,-0.351 -0.306,-0.656 -0.565,-0.894c-0.84,-0.773 -1.677,-1.549 -2.511,-2.328c-0.423,-0.394 -1.213,-0.481 -1.781,0c-0.635,0.539 -1.271,1.076 -1.908,1.612c-0.577,0.485 -0.544,1.243 -0.131,1.646c1.52,1.483 3.049,2.954 4.589,4.417c0.539,0.512 1.466,0.7 2.275,0.267c0.756,-0.406 1.081,-1.249 0.87,-1.943c-0.281,-0.925 -0.561,-1.851 -0.838,-2.777Z" style="fill:#fff;"/>
                            <path id="right-eye37" serif:id="right-eye" d="M523.781,1149.63c-0.38,-0.101 -0.723,-0.291 -0.993,-0.554c-0.838,-0.816 -1.672,-1.635 -2.503,-2.458c-0.417,-0.412 -0.434,-1.179 0.149,-1.667c0.649,-0.542 1.296,-1.086 1.943,-1.632c0.574,-0.484 1.372,-0.403 1.798,-0c1.522,1.44 3.053,2.87 4.594,4.291c0.508,0.468 0.749,1.314 0.264,2.06c-0.492,0.756 -1.445,0.97 -2.149,0.783c-1.034,-0.273 -2.069,-0.548 -3.103,-0.823Z" style="fill:#fff;"/>
                        </g>
                        <g>
                            <path id="right-eye38" serif:id="right-eye" d="M523.681,1151.42c-0.409,0.106 -0.778,0.304 -1.083,0.57c-1.006,0.876 -2.015,1.749 -3.027,2.618c-0.462,0.397 -0.776,1.247 -0.167,1.868c0.624,0.637 1.251,1.273 1.88,1.906c0.627,0.632 1.57,0.429 2.05,-0c1.799,-1.604 3.586,-3.221 5.362,-4.849c0.529,-0.486 0.815,-1.366 0.32,-2.153c-0.482,-0.768 -1.43,-0.977 -2.136,-0.793c-1.066,0.278 -2.132,0.556 -3.199,0.833Z" style="fill:#fff;"/>
                            <path id="right-eye39" serif:id="right-eye" d="M528.228,1155.79c-0.129,0.4 -0.363,0.745 -0.661,1.019c-1.008,0.924 -2.02,1.845 -3.035,2.761c-0.485,0.438 -1.435,0.635 -2.07,0c-0.641,-0.641 -1.281,-1.284 -1.918,-1.929c-0.617,-0.625 -0.317,-1.486 0.15,-1.891c1.795,-1.56 3.58,-3.131 5.355,-4.714c0.557,-0.497 1.484,-0.717 2.303,-0.27c0.775,0.424 1.063,1.302 0.842,2c-0.32,1.009 -0.642,2.017 -0.966,3.024Z" style="fill:#fff;"/>
                        </g>
                    </g>
                </g>
            </g>
        </g>
        <g id="PowerPuck5" serif:id="PowerPuck">
            <circle id="powerPos5" serif:id="powerPos" cx="307.749" cy="2726.89" r="20.142" style="fill:#232323;stroke:#1cfe84;stroke-width:6.79px;"/>
            <g>
                <g id="eyes5" serif:id="eyes">
                    <g id="powerpuck-right-eye5" serif:id="powerpuck/right-eye">
                        <g>
                            <path id="right-eye40" serif:id="right-eye" d="M313.198,2725.47c0.383,-0.102 0.728,-0.291 1.002,-0.554c0.85,-0.816 1.697,-1.635 2.54,-2.458c0.417,-0.406 0.459,-1.173 -0.124,-1.667c-0.64,-0.542 -1.28,-1.086 -1.918,-1.632c-0.573,-0.489 -1.371,-0.398 -1.798,0c-1.544,1.44 -3.097,2.87 -4.659,4.291c-0.51,0.464 -0.773,1.308 -0.295,2.06c0.484,0.76 1.437,0.968 2.137,0.783c1.039,-0.273 2.077,-0.548 3.115,-0.823Z" style="fill:#fff;"/>
                            <path id="right-eye41" serif:id="right-eye" d="M308.649,2721.41c0.111,-0.352 0.316,-0.656 0.579,-0.894c0.851,-0.773 1.699,-1.549 2.545,-2.328c0.424,-0.39 1.215,-0.486 1.781,0c0.627,0.539 1.255,1.076 1.884,1.612c0.577,0.491 0.519,1.248 0.106,1.646c-1.542,1.483 -3.093,2.954 -4.655,4.417c-0.542,0.507 -1.47,0.704 -2.279,0.267c-0.756,-0.409 -1.06,-1.257 -0.841,-1.943c0.295,-0.925 0.589,-1.851 0.88,-2.777Z" style="fill:#fff;"/>
                        </g>
                        <g>
                            <path id="right-eye42" serif:id="right-eye" d="M308.659,2731.63c0.123,0.399 0.351,0.745 0.646,1.019c0.994,0.924 1.992,1.845 2.993,2.761c0.485,0.444 1.432,0.629 2.07,0c0.651,-0.641 1.3,-1.284 1.947,-1.929c0.621,-0.619 0.345,-1.481 -0.121,-1.891c-1.772,-1.56 -3.533,-3.131 -5.284,-4.714c-0.555,-0.502 -1.481,-0.713 -2.299,-0.27c-0.775,0.42 -1.085,1.294 -0.873,2c0.305,1.009 0.612,2.017 0.921,3.024Z" style="fill:#fff;"/>
                            <path id="right-eye43" serif:id="right-eye" d="M313.272,2727.26c0.406,0.106 0.773,0.303 1.074,0.57c0.993,0.876 1.989,1.749 2.988,2.619c0.461,0.401 0.751,1.252 0.139,1.867c-0.634,0.637 -1.271,1.273 -1.909,1.906c-0.63,0.626 -1.57,0.435 -2.05,-0c-1.775,-1.604 -3.538,-3.22 -5.289,-4.849c-0.526,-0.49 -0.79,-1.372 -0.288,-2.153c0.491,-0.764 1.439,-0.979 2.148,-0.793c1.062,0.278 2.124,0.556 3.187,0.833Z" style="fill:#fff;"/>
                        </g>
                    </g>
                    <g id="powerpuck-left-eye5" serif:id="powerpuck/left-eye">
                        <g>
                            <path id="right-eye44" serif:id="right-eye" d="M306.788,2721.41c-0.105,-0.351 -0.306,-0.656 -0.565,-0.894c-0.84,-0.773 -1.676,-1.549 -2.511,-2.328c-0.423,-0.394 -1.213,-0.481 -1.781,0c-0.635,0.539 -1.271,1.076 -1.908,1.612c-0.577,0.485 -0.543,1.243 -0.13,1.646c1.519,1.483 3.048,2.955 4.588,4.417c0.539,0.512 1.467,0.701 2.275,0.267c0.756,-0.406 1.082,-1.249 0.87,-1.943c-0.281,-0.925 -0.561,-1.851 -0.838,-2.777Z" style="fill:#fff;"/>
                            <path id="right-eye45" serif:id="right-eye" d="M302.178,2725.47c-0.381,-0.101 -0.723,-0.291 -0.994,-0.554c-0.838,-0.816 -1.672,-1.635 -2.503,-2.458c-0.417,-0.412 -0.434,-1.179 0.149,-1.667c0.649,-0.542 1.296,-1.086 1.943,-1.632c0.574,-0.484 1.372,-0.403 1.798,0c1.522,1.44 3.053,2.87 4.594,4.291c0.508,0.469 0.75,1.314 0.264,2.06c-0.492,0.756 -1.445,0.97 -2.149,0.783c-1.034,-0.273 -2.068,-0.548 -3.102,-0.823Z" style="fill:#fff;"/>
                        </g>
                        <g>
                            <path id="right-eye46" serif:id="right-eye" d="M302.077,2727.26c-0.409,0.106 -0.778,0.304 -1.083,0.57c-1.006,0.876 -2.015,1.749 -3.027,2.619c-0.462,0.396 -0.776,1.246 -0.167,1.867c0.625,0.637 1.251,1.273 1.88,1.906c0.627,0.632 1.57,0.429 2.051,-0c1.798,-1.604 3.585,-3.221 5.361,-4.849c0.529,-0.486 0.815,-1.366 0.32,-2.153c-0.482,-0.768 -1.43,-0.977 -2.136,-0.793c-1.066,0.278 -2.132,0.556 -3.199,0.833Z" style="fill:#fff;"/>
                            <path id="right-eye47" serif:id="right-eye" d="M306.624,2731.63c-0.129,0.4 -0.363,0.746 -0.661,1.019c-1.008,0.924 -2.019,1.845 -3.035,2.761c-0.485,0.438 -1.435,0.635 -2.07,0c-0.641,-0.641 -1.281,-1.284 -1.918,-1.929c-0.617,-0.625 -0.316,-1.486 0.15,-1.891c1.795,-1.56 3.58,-3.131 5.355,-4.714c0.557,-0.497 1.485,-0.717 2.303,-0.27c0.775,0.424 1.063,1.302 0.842,2c-0.319,1.009 -0.642,2.017 -0.966,3.024Z" style="fill:#fff;"/>
                        </g>
                    </g>
                </g>
            </g>
        </g>
        <g id="Enemy">
            <circle id="enemyPos" cx="518.273" cy="2890.87" r="22.5" style="fill:#232323;stroke:#8148c8;stroke-width:4.77px;"/>
            <g>
                <path d="M522.758,2887.33c-0.331,0.397 -0.512,0.898 -0.512,1.416c-0,1.869 -0,6.366 -0,6.366c-0,0.689 0.56,1.25 1.25,1.25l2.5,-0c0.69,-0 1.25,-0.561 1.25,-1.25c-0,-0 -0,-4.606 -0,-8.369c-0,-0.732 -0.458,-1.385 -1.146,-1.634c-0.688,-0.249 -1.458,-0.04 -1.926,0.522c-0.548,0.658 -1.058,1.27 -1.416,1.699Z" style="fill:#fff;"/>
                <path d="M513.788,2887.33c0.331,0.397 0.512,0.898 0.512,1.416c0,1.869 0,6.366 0,6.366c0,0.689 -0.56,1.25 -1.25,1.25l-2.5,-0c-0.69,-0 -1.25,-0.561 -1.25,-1.25c0,-0 0,-4.606 0,-8.369c0,-0.732 0.458,-1.385 1.146,-1.634c0.688,-0.249 1.458,-0.04 1.926,0.522c0.548,0.658 1.058,1.27 1.416,1.699Z" style="fill:#fff;"/>
            </g>
        </g>
        <g id="Enemy1" serif:id="Enemy">
            <circle id="enemyPos1" serif:id="enemyPos" cx="233.135" cy="2556.2" r="22.5" style="fill:#232323;stroke:#8148c8;stroke-width:4.77px;"/>
            <g>
                <path d="M237.62,2552.67c-0.331,0.398 -0.513,0.899 -0.513,1.416c0,1.87 0,6.366 0,6.366c0,0.69 0.561,1.25 1.25,1.25l2.5,-0c0.69,-0 1.25,-0.56 1.25,-1.25c0,-0 0,-4.606 0,-8.369c0,-0.731 -0.458,-1.384 -1.145,-1.633c-0.688,-0.249 -1.458,-0.041 -1.926,0.521c-0.549,0.658 -1.058,1.27 -1.416,1.699Z" style="fill:#fff;"/>
                <path d="M228.65,2552.67c0.331,0.398 0.512,0.899 0.512,1.416l0,6.366c0,0.69 -0.56,1.25 -1.25,1.25l-2.5,-0c-0.69,-0 -1.25,-0.56 -1.25,-1.25l0,-8.369c0,-0.731 0.458,-1.384 1.146,-1.633c0.688,-0.249 1.457,-0.041 1.926,0.521c0.548,0.658 1.058,1.27 1.416,1.699Z" style="fill:#fff;"/>
            </g>
        </g>
        <g id="Enemy2" serif:id="Enemy">
            <circle id="enemyPos2" serif:id="enemyPos" cx="352.5" cy="2999.2" r="22.5" style="fill:#232323;stroke:#8148c8;stroke-width:4.77px;"/>
            <g>
                <path d="M356.985,2995.67c-0.331,0.398 -0.512,0.899 -0.512,1.416c-0,1.87 -0,6.366 -0,6.366c-0,0.69 0.56,1.25 1.25,1.25l2.5,-0c0.69,-0 1.25,-0.56 1.25,-1.25l-0,-8.369c-0,-0.731 -0.458,-1.384 -1.146,-1.633c-0.688,-0.249 -1.458,-0.041 -1.926,0.521c-0.548,0.658 -1.058,1.27 -1.416,1.699Z" style="fill:#fff;"/>
                <path d="M348.015,2995.67c0.331,0.398 0.512,0.899 0.512,1.416c0,1.87 0,6.366 0,6.366c0,0.69 -0.56,1.25 -1.25,1.25l-2.5,-0c-0.69,-0 -1.25,-0.56 -1.25,-1.25c0,-0 0,-4.606 0,-8.369c0,-0.731 0.458,-1.384 1.146,-1.633c0.688,-0.249 1.458,-0.041 1.926,0.521c0.548,0.658 1.058,1.27 1.416,1.699Z" style="fill:#fff;"/>
            </g>
        </g>
        <g id="Enemy3" serif:id="Enemy">
            <circle id="enemyPos3" serif:id="enemyPos" cx="464.135" cy="2853.2" r="22.5" style="fill:#232323;stroke:#8148c8;stroke-width:4.77px;"/>
            <g>
                <path d="M468.62,2849.67c-0.331,0.398 -0.513,0.899 -0.513,1.416c0,1.87 0,6.366 0,6.366c0,0.69 0.561,1.25 1.25,1.25l2.5,-0c0.69,-0 1.25,-0.56 1.25,-1.25c0,-0 0,-4.606 0,-8.369c0,-0.731 -0.458,-1.384 -1.145,-1.633c-0.688,-0.249 -1.458,-0.041 -1.926,0.521c-0.549,0.658 -1.058,1.27 -1.416,1.699Z" style="fill:#fff;"/>
                <path d="M459.65,2849.67c0.331,0.398 0.512,0.899 0.512,1.416c0,1.87 0,6.366 0,6.366c0,0.69 -0.56,1.25 -1.25,1.25l-2.5,-0c-0.69,-0 -1.25,-0.56 -1.25,-1.25c0,-0 0,-4.606 0,-8.369c0,-0.731 0.458,-1.384 1.146,-1.633c0.688,-0.249 1.457,-0.041 1.926,0.521c0.548,0.658 1.058,1.27 1.416,1.699Z" style="fill:#fff;"/>
            </g>
        </g>
        <g id="Enemy4" serif:id="Enemy">
            <circle id="enemyPos4" serif:id="enemyPos" cx="240.135" cy="2719.2" r="22.5" style="fill:#232323;stroke:#8148c8;stroke-width:4.77px;"/>
            <g>
                <path d="M244.62,2715.67c-0.331,0.398 -0.513,0.899 -0.513,1.416c0,1.87 0,6.366 0,6.366c0,0.69 0.561,1.25 1.25,1.25l2.5,-0c0.69,-0 1.25,-0.56 1.25,-1.25c0,-0 0,-4.606 0,-8.369c0,-0.731 -0.458,-1.384 -1.145,-1.633c-0.688,-0.249 -1.458,-0.041 -1.926,0.521c-0.549,0.658 -1.058,1.27 -1.416,1.699Z" style="fill:#fff;"/>
                <path d="M235.65,2715.67c0.331,0.398 0.512,0.899 0.512,1.416l0,6.366c0,0.69 -0.56,1.25 -1.25,1.25l-2.5,-0c-0.69,-0 -1.25,-0.56 -1.25,-1.25l0,-8.369c0,-0.731 0.458,-1.384 1.146,-1.633c0.688,-0.249 1.457,-0.041 1.926,0.521c0.548,0.658 1.058,1.27 1.416,1.699Z" style="fill:#fff;"/>
            </g>
        </g>
        <g id="Enemy5" serif:id="Enemy">
            <circle id="enemyPos5" serif:id="enemyPos" cx="230.273" cy="2868.2" r="22.5" style="fill:#232323;stroke:#8148c8;stroke-width:4.77px;"/>
            <g>
                <path d="M234.758,2864.67c-0.331,0.398 -0.512,0.899 -0.512,1.416c-0,1.87 -0,6.366 -0,6.366c-0,0.69 0.56,1.25 1.25,1.25l2.5,-0c0.69,-0 1.25,-0.56 1.25,-1.25l-0,-8.369c-0,-0.731 -0.458,-1.384 -1.146,-1.633c-0.688,-0.249 -1.458,-0.041 -1.926,0.521c-0.548,0.658 -1.058,1.27 -1.416,1.699Z" style="fill:#fff;"/>
                <path d="M225.788,2864.67c0.331,0.398 0.512,0.899 0.512,1.416c0,1.87 0,6.366 0,6.366c0,0.69 -0.56,1.25 -1.25,1.25l-2.5,-0c-0.69,-0 -1.25,-0.56 -1.25,-1.25c0,-0 0,-4.606 0,-8.369c0,-0.731 0.458,-1.384 1.146,-1.633c0.688,-0.249 1.458,-0.041 1.926,0.521c0.548,0.658 1.058,1.27 1.416,1.699Z" style="fill:#fff;"/>
            </g>
        </g>
        <g id="Enemy6" serif:id="Enemy">
            <circle id="enemyPos6" serif:id="enemyPos" cx="310.273" cy="2646.87" r="22.5" style="fill:#232323;stroke:#8148c8;stroke-width:4.77px;"/>
            <g>
                <path d="M314.758,2643.33c-0.331,0.397 -0.512,0.898 -0.512,1.416c-0,1.869 -0,6.366 -0,6.366c-0,0.689 0.56,1.25 1.25,1.25l2.5,-0c0.69,-0 1.25,-0.561 1.25,-1.25c-0,-0 -0,-4.606 -0,-8.369c-0,-0.732 -0.458,-1.385 -1.146,-1.634c-0.688,-0.249 -1.458,-0.04 -1.926,0.522c-0.548,0.658 -1.058,1.27 -1.416,1.699Z" style="fill:#fff;"/>
                <path d="M305.788,2643.33c0.331,0.397 0.512,0.898 0.512,1.416c0,1.869 0,6.366 0,6.366c0,0.689 -0.56,1.25 -1.25,1.25l-2.5,-0c-0.69,-0 -1.25,-0.561 -1.25,-1.25c0,-0 0,-4.606 0,-8.369c0,-0.732 0.458,-1.385 1.146,-1.634c0.688,-0.249 1.458,-0.04 1.926,0.522c0.548,0.658 1.058,1.27 1.416,1.699Z" style="fill:#fff;"/>
            </g>
        </g>
        <g id="Enemy7" serif:id="Enemy">
            <circle id="enemyPos7" serif:id="enemyPos" cx="316.94" cy="2098.87" r="22.5" style="fill:#232323;stroke:#8148c8;stroke-width:4.77px;"/>
            <g>
                <path d="M321.425,2095.33c-0.331,0.397 -0.513,0.898 -0.513,1.416c0,1.869 0,6.366 0,6.366c0,0.689 0.56,1.25 1.25,1.25l2.5,-0c0.69,-0 1.25,-0.561 1.25,-1.25c0,-0 0,-4.606 0,-8.369c0,-0.732 -0.458,-1.385 -1.145,-1.634c-0.688,-0.249 -1.458,-0.04 -1.926,0.522c-0.549,0.658 -1.059,1.27 -1.416,1.699Z" style="fill:#fff;"/>
                <path d="M312.454,2095.33c0.332,0.397 0.513,0.898 0.513,1.416l0,6.366c0,0.689 -0.56,1.25 -1.25,1.25l-2.5,-0c-0.69,-0 -1.25,-0.561 -1.25,-1.25l0,-8.369c0,-0.732 0.458,-1.385 1.146,-1.634c0.687,-0.249 1.457,-0.04 1.925,0.522c0.549,0.658 1.059,1.27 1.416,1.699Z" style="fill:#fff;"/>
            </g>
        </g>
        <g id="Enemy8" serif:id="Enemy">
            <circle id="enemyPos8" serif:id="enemyPos" cx="348.94" cy="2048.2" r="22.5" style="fill:#232323;stroke:#8148c8;stroke-width:4.77px;"/>
            <g>
                <path d="M353.425,2044.67c-0.331,0.398 -0.513,0.899 -0.513,1.416c0,1.87 0,6.366 0,6.366c0,0.69 0.56,1.25 1.25,1.25l2.5,-0c0.69,-0 1.25,-0.56 1.25,-1.25l0,-8.369c0,-0.731 -0.458,-1.384 -1.145,-1.633c-0.688,-0.249 -1.458,-0.041 -1.926,0.521c-0.549,0.658 -1.059,1.27 -1.416,1.699Z" style="fill:#fff;"/>
                <path d="M344.454,2044.67c0.332,0.398 0.513,0.899 0.513,1.416c0,1.87 0,6.366 0,6.366c0,0.69 -0.56,1.25 -1.25,1.25l-2.5,-0c-0.69,-0 -1.25,-0.56 -1.25,-1.25c0,-0 0,-4.606 0,-8.369c0,-0.731 0.458,-1.384 1.146,-1.633c0.687,-0.249 1.457,-0.041 1.925,0.521c0.549,0.658 1.059,1.27 1.416,1.699Z" style="fill:#fff;"/>
            </g>
        </g>
        <g id="Enemy9" serif:id="Enemy">
            <circle id="enemyPos9" serif:id="enemyPos" cx="451.606" cy="1846.87" r="22.5" style="fill:#232323;stroke:#8148c8;stroke-width:4.77px;"/>
            <g>
                <path d="M456.092,1843.33c-0.332,0.397 -0.513,0.898 -0.513,1.416c-0,1.869 -0,6.366 -0,6.366c-0,0.689 0.56,1.25 1.25,1.25l2.5,-0c0.69,-0 1.25,-0.561 1.25,-1.25l-0,-8.369c-0,-0.732 -0.458,-1.385 -1.146,-1.634c-0.687,-0.249 -1.457,-0.04 -1.925,0.522c-0.549,0.658 -1.059,1.27 -1.416,1.699Z" style="fill:#fff;"/>
                <path d="M447.121,1843.33c0.331,0.397 0.513,0.898 0.513,1.416c-0,1.869 -0,6.366 -0,6.366c-0,0.689 -0.56,1.25 -1.25,1.25l-2.5,-0c-0.69,-0 -1.25,-0.561 -1.25,-1.25c-0,-0 -0,-4.606 -0,-8.369c-0,-0.732 0.458,-1.385 1.145,-1.634c0.688,-0.249 1.458,-0.04 1.926,0.522c0.549,0.658 1.059,1.27 1.416,1.699Z" style="fill:#fff;"/>
            </g>
        </g>
        <g id="Enemy10" serif:id="Enemy">
            <circle id="enemyPos10" serif:id="enemyPos" cx="295.273" cy="2294.87" r="22.5" style="fill:#232323;stroke:#8148c8;stroke-width:4.77px;"/>
            <g>
                <path d="M299.758,2291.33c-0.331,0.397 -0.512,0.898 -0.512,1.416c-0,1.869 -0,6.366 -0,6.366c-0,0.689 0.56,1.25 1.25,1.25l2.5,-0c0.69,-0 1.25,-0.561 1.25,-1.25c-0,-0 -0,-4.606 -0,-8.369c-0,-0.732 -0.458,-1.385 -1.146,-1.634c-0.688,-0.249 -1.458,-0.04 -1.926,0.522c-0.548,0.658 -1.058,1.27 -1.416,1.699Z" style="fill:#fff;"/>
                <path d="M290.788,2291.33c0.331,0.397 0.512,0.898 0.512,1.416c0,1.869 0,6.366 0,6.366c0,0.689 -0.56,1.25 -1.25,1.25l-2.5,-0c-0.69,-0 -1.25,-0.561 -1.25,-1.25c0,-0 0,-4.606 0,-8.369c0,-0.732 0.458,-1.385 1.146,-1.634c0.688,-0.249 1.458,-0.04 1.926,0.522c0.548,0.658 1.058,1.27 1.416,1.699Z" style="fill:#fff;"/>
            </g>
        </g>
        <g id="Enemy11" serif:id="Enemy">
            <circle id="enemyPos11" serif:id="enemyPos" cx="371.273" cy="1417.53" r="22.5" style="fill:#232323;stroke:#8148c8;stroke-width:4.77px;"/>
            <g>
                <path d="M375.758,1414c-0.331,0.398 -0.512,0.899 -0.512,1.416l-0,6.366c-0,0.69 0.56,1.25 1.25,1.25l2.5,0c0.69,0 1.25,-0.56 1.25,-1.25c-0,0 -0,-4.605 -0,-8.369c-0,-0.731 -0.458,-1.384 -1.146,-1.633c-0.688,-0.249 -1.458,-0.041 -1.926,0.521c-0.548,0.659 -1.058,1.27 -1.416,1.699Z" style="fill:#fff;"/>
                <path d="M366.788,1414c0.331,0.398 0.512,0.899 0.512,1.416c0,1.87 0,6.366 0,6.366c0,0.69 -0.56,1.25 -1.25,1.25l-2.5,0c-0.69,0 -1.25,-0.56 -1.25,-1.25c0,0 0,-4.605 0,-8.369c0,-0.731 0.458,-1.384 1.146,-1.633c0.688,-0.249 1.458,-0.041 1.926,0.521c0.548,0.659 1.058,1.27 1.416,1.699Z" style="fill:#fff;"/>
            </g>
        </g>
        <g id="Enemy12" serif:id="Enemy">
            <circle id="enemyPos12" serif:id="enemyPos" cx="355.273" cy="528.138" r="22.5" style="fill:#232323;stroke:#8148c8;stroke-width:4.77px;"/>
            <g>
                <path d="M359.758,524.606c-0.331,0.398 -0.512,0.899 -0.512,1.416c-0,1.87 -0,6.366 -0,6.366c-0,0.69 0.56,1.25 1.25,1.25l2.5,-0c0.69,-0 1.25,-0.56 1.25,-1.25l-0,-8.369c-0,-0.731 -0.458,-1.384 -1.146,-1.633c-0.688,-0.249 -1.458,-0.041 -1.926,0.521c-0.548,0.658 -1.058,1.27 -1.416,1.699Z" style="fill:#fff;"/>
                <path d="M350.788,524.606c0.331,0.398 0.512,0.899 0.512,1.416c0,1.87 0,6.366 0,6.366c0,0.69 -0.56,1.25 -1.25,1.25l-2.5,-0c-0.69,-0 -1.25,-0.56 -1.25,-1.25l0,-8.369c0,-0.731 0.458,-1.384 1.146,-1.633c0.688,-0.249 1.458,-0.041 1.926,0.521c0.548,0.658 1.058,1.27 1.416,1.699Z" style="fill:#fff;"/>
            </g>
        </g>
        <g id="Enemy13" serif:id="Enemy">
            <circle id="enemyPos13" serif:id="enemyPos" cx="220.606" cy="1474.87" r="22.5" style="fill:#232323;stroke:#8148c8;stroke-width:4.77px;"/>
            <g>
                <path d="M225.092,1471.33c-0.332,0.397 -0.513,0.898 -0.513,1.416c-0,1.869 -0,6.366 -0,6.366c-0,0.689 0.56,1.25 1.25,1.25l2.5,-0c0.69,-0 1.25,-0.561 1.25,-1.25c-0,-0 -0,-4.606 -0,-8.369c-0,-0.732 -0.458,-1.385 -1.146,-1.634c-0.687,-0.249 -1.457,-0.04 -1.925,0.522c-0.549,0.658 -1.059,1.27 -1.416,1.699Z" style="fill:#fff;"/>
                <path d="M216.121,1471.33c0.331,0.397 0.513,0.898 0.513,1.416c-0,1.869 -0,6.366 -0,6.366c-0,0.689 -0.56,1.25 -1.25,1.25l-2.5,-0c-0.69,-0 -1.25,-0.561 -1.25,-1.25c-0,-0 -0,-4.606 -0,-8.369c-0,-0.732 0.458,-1.385 1.145,-1.634c0.688,-0.249 1.458,-0.04 1.926,0.522c0.549,0.658 1.059,1.27 1.416,1.699Z" style="fill:#fff;"/>
            </g>
        </g>
        <g id="Enemy14" serif:id="Enemy">
            <circle id="enemyPos14" serif:id="enemyPos" cx="268.606" cy="1421.53" r="22.5" style="fill:#232323;stroke:#8148c8;stroke-width:4.77px;"/>
            <g>
                <path d="M273.092,1418c-0.332,0.398 -0.513,0.899 -0.513,1.416c-0,1.87 -0,6.366 -0,6.366c-0,0.69 0.56,1.25 1.25,1.25l2.5,0c0.69,0 1.25,-0.56 1.25,-1.25c-0,0 -0,-4.605 -0,-8.369c-0,-0.731 -0.458,-1.384 -1.146,-1.633c-0.687,-0.249 -1.457,-0.041 -1.925,0.521c-0.549,0.659 -1.059,1.27 -1.416,1.699Z" style="fill:#fff;"/>
                <path d="M264.121,1418c0.331,0.398 0.513,0.899 0.513,1.416l-0,6.366c-0,0.69 -0.56,1.25 -1.25,1.25l-2.5,0c-0.69,0 -1.25,-0.56 -1.25,-1.25l-0,-8.369c-0,-0.731 0.458,-1.384 1.145,-1.633c0.688,-0.249 1.458,-0.041 1.926,0.521c0.549,0.659 1.059,1.27 1.416,1.699Z" style="fill:#fff;"/>
            </g>
        </g>
        <g id="Enemy15" serif:id="Enemy">
            <circle id="enemyPos15" serif:id="enemyPos" cx="533.94" cy="516.198" r="22.5" style="fill:#232323;stroke:#8148c8;stroke-width:4.77px;"/>
            <g>
                <path d="M538.425,512.666c-0.331,0.398 -0.513,0.899 -0.513,1.416c0,1.87 0,6.366 0,6.366c0,0.69 0.56,1.25 1.25,1.25l2.5,-0c0.69,-0 1.25,-0.56 1.25,-1.25l0,-8.369c0,-0.731 -0.458,-1.384 -1.145,-1.633c-0.688,-0.249 -1.458,-0.041 -1.926,0.521c-0.549,0.658 -1.059,1.27 -1.416,1.699Z" style="fill:#fff;"/>
                <path d="M529.454,512.666c0.332,0.398 0.513,0.899 0.513,1.416c0,1.87 0,6.366 0,6.366c0,0.69 -0.56,1.25 -1.25,1.25l-2.5,-0c-0.69,-0 -1.25,-0.56 -1.25,-1.25l0,-8.369c0,-0.731 0.458,-1.384 1.146,-1.633c0.687,-0.249 1.457,-0.041 1.925,0.521c0.549,0.658 1.059,1.27 1.416,1.699Z" style="fill:#fff;"/>
            </g>
        </g>
        <g id="Enemy16" serif:id="Enemy">
            <circle id="enemyPos16" serif:id="enemyPos" cx="399.273" cy="436.198" r="22.5" style="fill:#232323;stroke:#8148c8;stroke-width:4.77px;"/>
            <g>
                <path d="M403.758,432.666c-0.331,0.398 -0.512,0.899 -0.512,1.416l-0,6.366c-0,0.69 0.56,1.25 1.25,1.25l2.5,-0c0.69,-0 1.25,-0.56 1.25,-1.25c-0,-0 -0,-4.606 -0,-8.369c-0,-0.731 -0.458,-1.384 -1.146,-1.633c-0.688,-0.249 -1.458,-0.041 -1.926,0.521c-0.548,0.658 -1.058,1.27 -1.416,1.699Z" style="fill:#fff;"/>
                <path d="M394.788,432.666c0.331,0.398 0.512,0.899 0.512,1.416l0,6.366c0,0.69 -0.56,1.25 -1.25,1.25l-2.5,-0c-0.69,-0 -1.25,-0.56 -1.25,-1.25c0,-0 0,-4.606 0,-8.369c0,-0.731 0.458,-1.384 1.146,-1.633c0.688,-0.249 1.458,-0.041 1.926,0.521c0.548,0.658 1.058,1.27 1.416,1.699Z" style="fill:#fff;"/>
            </g>
        </g>
        <g id="Enemy17" serif:id="Enemy">
            <circle id="enemyPos17" serif:id="enemyPos" cx="299.273" cy="293.531" r="22.5" style="fill:#232323;stroke:#8148c8;stroke-width:4.77px;"/>
            <g>
                <path d="M303.758,289.999c-0.331,0.398 -0.512,0.899 -0.512,1.416c-0,1.87 -0,6.366 -0,6.366c-0,0.69 0.56,1.25 1.25,1.25l2.5,0c0.69,0 1.25,-0.56 1.25,-1.25c-0,0 -0,-4.605 -0,-8.369c-0,-0.731 -0.458,-1.384 -1.146,-1.633c-0.688,-0.249 -1.458,-0.041 -1.926,0.521c-0.548,0.659 -1.058,1.27 -1.416,1.699Z" style="fill:#fff;"/>
                <path d="M294.788,289.999c0.331,0.398 0.512,0.899 0.512,1.416c0,1.87 0,6.366 0,6.366c0,0.69 -0.56,1.25 -1.25,1.25l-2.5,0c-0.69,0 -1.25,-0.56 -1.25,-1.25c0,0 0,-4.605 0,-8.369c0,-0.731 0.458,-1.384 1.146,-1.633c0.688,-0.249 1.458,-0.041 1.926,0.521c0.548,0.659 1.058,1.27 1.416,1.699Z" style="fill:#fff;"/>
            </g>
        </g>
        <g id="Enemy18" serif:id="Enemy">
            <circle id="enemyPos18" serif:id="enemyPos" cx="295.273" cy="240.198" r="22.5" style="fill:#232323;stroke:#8148c8;stroke-width:4.77px;"/>
            <g>
                <path d="M299.758,236.666c-0.331,0.398 -0.512,0.899 -0.512,1.416c-0,1.87 -0,6.366 -0,6.366c-0,0.69 0.56,1.25 1.25,1.25l2.5,-0c0.69,-0 1.25,-0.56 1.25,-1.25c-0,-0 -0,-4.606 -0,-8.369c-0,-0.731 -0.458,-1.384 -1.146,-1.633c-0.688,-0.249 -1.458,-0.041 -1.926,0.521c-0.548,0.658 -1.058,1.27 -1.416,1.699Z" style="fill:#fff;"/>
                <path d="M290.788,236.666c0.331,0.398 0.512,0.899 0.512,1.416c0,1.87 0,6.366 0,6.366c0,0.69 -0.56,1.25 -1.25,1.25l-2.5,-0c-0.69,-0 -1.25,-0.56 -1.25,-1.25c0,-0 0,-4.606 0,-8.369c0,-0.731 0.458,-1.384 1.146,-1.633c0.688,-0.249 1.458,-0.041 1.926,0.521c0.548,0.658 1.058,1.27 1.416,1.699Z" style="fill:#fff;"/>
            </g>
        </g>
        <g id="Enemy19" serif:id="Enemy">
            <circle id="enemyPos19" serif:id="enemyPos" cx="403.303" cy="186.865" r="22.5" style="fill:#232323;stroke:#8148c8;stroke-width:4.77px;"/>
            <g>
                <path d="M407.788,183.333c-0.331,0.397 -0.512,0.898 -0.512,1.416c-0,1.869 -0,6.366 -0,6.366c-0,0.689 0.56,1.25 1.25,1.25l2.5,-0c0.69,-0 1.25,-0.561 1.25,-1.25c-0,-0 -0,-4.606 -0,-8.369c-0,-0.732 -0.458,-1.385 -1.146,-1.634c-0.688,-0.249 -1.458,-0.04 -1.926,0.522c-0.548,0.658 -1.058,1.27 -1.416,1.699Z" style="fill:#fff;"/>
                <path d="M398.818,183.333c0.331,0.397 0.512,0.898 0.512,1.416l0,6.366c0,0.689 -0.56,1.25 -1.25,1.25l-2.5,-0c-0.689,-0 -1.25,-0.561 -1.25,-1.25l0,-8.369c0,-0.732 0.458,-1.385 1.146,-1.634c0.688,-0.249 1.458,-0.04 1.926,0.522c0.548,0.658 1.058,1.27 1.416,1.699Z" style="fill:#fff;"/>
            </g>
        </g>
        <g id="Enemy20" serif:id="Enemy">
            <circle id="enemyPos20" serif:id="enemyPos" cx="404.606" cy="234.865" r="22.5" style="fill:#232323;stroke:#8148c8;stroke-width:4.77px;"/>
            <g>
                <path d="M409.092,231.333c-0.332,0.397 -0.513,0.898 -0.513,1.416c-0,1.869 -0,6.366 -0,6.366c-0,0.689 0.56,1.25 1.25,1.25l2.5,-0c0.69,-0 1.25,-0.561 1.25,-1.25c-0,-0 -0,-4.606 -0,-8.369c-0,-0.732 -0.458,-1.385 -1.146,-1.634c-0.687,-0.249 -1.457,-0.04 -1.925,0.522c-0.549,0.658 -1.059,1.27 -1.416,1.699Z" style="fill:#fff;"/>
                <path d="M400.121,231.333c0.331,0.397 0.513,0.898 0.513,1.416l-0,6.366c-0,0.689 -0.56,1.25 -1.25,1.25l-2.5,-0c-0.69,-0 -1.25,-0.561 -1.25,-1.25c-0,-0 -0,-4.606 -0,-8.369c-0,-0.732 0.458,-1.385 1.145,-1.634c0.688,-0.249 1.458,-0.04 1.926,0.522c0.549,0.658 1.059,1.27 1.416,1.699Z" style="fill:#fff;"/>
            </g>
        </g>
        <g id="Enemy21" serif:id="Enemy">
            <circle id="enemyPos21" serif:id="enemyPos" cx="403.273" cy="292.198" r="22.5" style="fill:#232323;stroke:#8148c8;stroke-width:4.77px;"/>
            <g>
                <path d="M407.758,288.666c-0.331,0.398 -0.512,0.899 -0.512,1.416c-0,1.87 -0,6.366 -0,6.366c-0,0.69 0.56,1.25 1.25,1.25l2.5,-0c0.69,-0 1.25,-0.56 1.25,-1.25l-0,-8.369c-0,-0.731 -0.458,-1.384 -1.146,-1.633c-0.688,-0.249 -1.458,-0.041 -1.926,0.521c-0.548,0.658 -1.058,1.27 -1.416,1.699Z" style="fill:#fff;"/>
                <path d="M398.788,288.666c0.331,0.398 0.512,0.899 0.512,1.416l0,6.366c0,0.69 -0.56,1.25 -1.25,1.25l-2.5,-0c-0.69,-0 -1.25,-0.56 -1.25,-1.25l0,-8.369c0,-0.731 0.458,-1.384 1.146,-1.633c0.688,-0.249 1.458,-0.041 1.926,0.521c0.548,0.658 1.058,1.27 1.416,1.699Z" style="fill:#fff;"/>
            </g>
        </g>
        <g id="Enemy22" serif:id="Enemy">
            <circle id="enemyPos22" serif:id="enemyPos" cx="303.94" cy="186.865" r="22.5" style="fill:#232323;stroke:#8148c8;stroke-width:4.77px;"/>
            <g>
                <path d="M308.425,183.333c-0.331,0.397 -0.513,0.898 -0.513,1.416c0,1.869 0,6.366 0,6.366c0,0.689 0.56,1.25 1.25,1.25l2.5,-0c0.69,-0 1.25,-0.561 1.25,-1.25l0,-8.369c0,-0.732 -0.458,-1.385 -1.145,-1.634c-0.688,-0.249 -1.458,-0.04 -1.926,0.522c-0.549,0.658 -1.059,1.27 -1.416,1.699Z" style="fill:#fff;"/>
                <path d="M299.454,183.333c0.332,0.397 0.513,0.898 0.513,1.416c0,1.869 0,6.366 0,6.366c0,0.689 -0.56,1.25 -1.25,1.25l-2.5,-0c-0.69,-0 -1.25,-0.561 -1.25,-1.25c0,-0 0,-4.606 0,-8.369c0,-0.732 0.458,-1.385 1.146,-1.634c0.687,-0.249 1.457,-0.04 1.925,0.522c0.549,0.658 1.059,1.27 1.416,1.699Z" style="fill:#fff;"/>
            </g>
        </g>
        <g id="Enemy23" serif:id="Enemy">
            <circle id="enemyPos23" serif:id="enemyPos" cx="383.273" cy="938.865" r="22.5" style="fill:#232323;stroke:#8148c8;stroke-width:4.77px;"/>
            <g>
                <path d="M387.758,935.333c-0.331,0.397 -0.512,0.898 -0.512,1.416c-0,1.869 -0,6.366 -0,6.366c-0,0.689 0.56,1.25 1.25,1.25l2.5,-0c0.69,-0 1.25,-0.561 1.25,-1.25c-0,-0 -0,-4.606 -0,-8.369c-0,-0.732 -0.458,-1.385 -1.146,-1.634c-0.688,-0.249 -1.458,-0.04 -1.926,0.522c-0.548,0.658 -1.058,1.27 -1.416,1.699Z" style="fill:#fff;"/>
                <path d="M378.788,935.333c0.331,0.397 0.512,0.898 0.512,1.416c0,1.869 0,6.366 0,6.366c0,0.689 -0.56,1.25 -1.25,1.25l-2.5,-0c-0.69,-0 -1.25,-0.561 -1.25,-1.25l0,-8.369c0,-0.732 0.458,-1.385 1.146,-1.634c0.688,-0.249 1.458,-0.04 1.926,0.522c0.548,0.658 1.058,1.27 1.416,1.699Z" style="fill:#fff;"/>
            </g>
        </g>
        <g id="Enemy24" serif:id="Enemy">
            <circle id="enemyPos24" serif:id="enemyPos" cx="252.606" cy="532.138" r="22.5" style="fill:#232323;stroke:#8148c8;stroke-width:4.77px;"/>
            <g>
                <path d="M257.092,528.606c-0.332,0.398 -0.513,0.899 -0.513,1.416c-0,1.87 -0,6.366 -0,6.366c-0,0.69 0.56,1.25 1.25,1.25l2.5,-0c0.69,-0 1.25,-0.56 1.25,-1.25c-0,-0 -0,-4.606 -0,-8.369c-0,-0.731 -0.458,-1.384 -1.146,-1.633c-0.687,-0.249 -1.457,-0.041 -1.925,0.521c-0.549,0.658 -1.059,1.27 -1.416,1.699Z" style="fill:#fff;"/>
                <path d="M248.121,528.606c0.331,0.398 0.513,0.899 0.513,1.416l-0,6.366c-0,0.69 -0.56,1.25 -1.25,1.25l-2.5,-0c-0.69,-0 -1.25,-0.56 -1.25,-1.25c-0,-0 -0,-4.606 -0,-8.369c-0,-0.731 0.458,-1.384 1.145,-1.633c0.688,-0.249 1.458,-0.041 1.926,0.521c0.549,0.658 1.059,1.27 1.416,1.699Z" style="fill:#fff;"/>
            </g>
        </g>
        <g id="Enemy25" serif:id="Enemy">
            <circle id="enemyPos25" serif:id="enemyPos" cx="160.606" cy="609.471" r="22.5" style="fill:#232323;stroke:#8148c8;stroke-width:4.77px;"/>
            <g>
                <path d="M165.092,605.939c-0.332,0.398 -0.513,0.899 -0.513,1.416c-0,1.87 -0,6.366 -0,6.366c-0,0.69 0.56,1.25 1.25,1.25l2.5,0c0.69,0 1.25,-0.56 1.25,-1.25c-0,0 -0,-4.605 -0,-8.369c-0,-0.731 -0.458,-1.384 -1.146,-1.633c-0.687,-0.249 -1.457,-0.041 -1.925,0.521c-0.549,0.659 -1.059,1.27 -1.416,1.699Z" style="fill:#fff;"/>
                <path d="M156.121,605.939c0.331,0.398 0.513,0.899 0.513,1.416c-0,1.87 -0,6.366 -0,6.366c-0,0.69 -0.56,1.25 -1.25,1.25l-2.5,0c-0.69,0 -1.25,-0.56 -1.25,-1.25c-0,0 -0,-4.605 -0,-8.369c-0,-0.731 0.458,-1.384 1.145,-1.633c0.688,-0.249 1.458,-0.041 1.926,0.521c0.549,0.659 1.059,1.27 1.416,1.699Z" style="fill:#fff;"/>
            </g>
        </g>
        <g id="Enemy26" serif:id="Enemy">
            <circle id="enemyPos26" serif:id="enemyPos" cx="233.94" cy="1576.2" r="22.5" style="fill:#232323;stroke:#8148c8;stroke-width:4.77px;"/>
            <g>
                <path d="M238.425,1572.67c-0.331,0.398 -0.513,0.899 -0.513,1.416c0,1.87 0,6.366 0,6.366c0,0.69 0.56,1.25 1.25,1.25l2.5,-0c0.69,-0 1.25,-0.56 1.25,-1.25c0,-0 0,-4.606 0,-8.369c0,-0.731 -0.458,-1.384 -1.145,-1.633c-0.688,-0.249 -1.458,-0.041 -1.926,0.521c-0.549,0.658 -1.059,1.27 -1.416,1.699Z" style="fill:#fff;"/>
                <path d="M229.454,1572.67c0.332,0.398 0.513,0.899 0.513,1.416c0,1.87 0,6.366 0,6.366c0,0.69 -0.56,1.25 -1.25,1.25l-2.5,-0c-0.69,-0 -1.25,-0.56 -1.25,-1.25l0,-8.369c0,-0.731 0.458,-1.384 1.146,-1.633c0.687,-0.249 1.457,-0.041 1.925,0.521c0.549,0.658 1.059,1.27 1.416,1.699Z" style="fill:#fff;"/>
            </g>
        </g>
        <g id="Enemy27" serif:id="Enemy">
            <circle id="enemyPos27" serif:id="enemyPos" cx="217.94" cy="686.805" r="22.5" style="fill:#232323;stroke:#8148c8;stroke-width:4.77px;"/>
            <g>
                <path d="M222.425,683.273c-0.331,0.397 -0.513,0.898 -0.513,1.416c0,1.869 0,6.366 0,6.366c0,0.689 0.56,1.25 1.25,1.25l2.5,-0c0.69,-0 1.25,-0.561 1.25,-1.25l0,-8.369c0,-0.732 -0.458,-1.385 -1.145,-1.634c-0.688,-0.249 -1.458,-0.04 -1.926,0.522c-0.549,0.658 -1.059,1.27 -1.416,1.699Z" style="fill:#fff;"/>
                <path d="M213.454,683.273c0.332,0.397 0.513,0.898 0.513,1.416c0,1.869 0,6.366 0,6.366c0,0.689 -0.56,1.25 -1.25,1.25l-2.5,-0c-0.69,-0 -1.25,-0.561 -1.25,-1.25c0,-0 0,-4.606 0,-8.369c0,-0.732 0.458,-1.385 1.146,-1.634c0.687,-0.249 1.457,-0.04 1.925,0.522c0.549,0.658 1.059,1.27 1.416,1.699Z" style="fill:#fff;"/>
            </g>
        </g>
        <g id="Enemy28" serif:id="Enemy">
            <circle id="enemyPos28" serif:id="enemyPos" cx="228.606" cy="1877.53" r="22.5" style="fill:#232323;stroke:#8148c8;stroke-width:4.77px;"/>
            <g>
                <path d="M233.092,1874c-0.332,0.398 -0.513,0.899 -0.513,1.416c-0,1.87 -0,6.366 -0,6.366c-0,0.69 0.56,1.25 1.25,1.25l2.5,0c0.69,0 1.25,-0.56 1.25,-1.25c-0,0 -0,-4.605 -0,-8.369c-0,-0.731 -0.458,-1.384 -1.146,-1.633c-0.687,-0.249 -1.457,-0.041 -1.925,0.521c-0.549,0.659 -1.059,1.27 -1.416,1.699Z" style="fill:#fff;"/>
                <path d="M224.121,1874c0.331,0.398 0.513,0.899 0.513,1.416c-0,1.87 -0,6.366 -0,6.366c-0,0.69 -0.56,1.25 -1.25,1.25l-2.5,0c-0.69,0 -1.25,-0.56 -1.25,-1.25c-0,0 -0,-4.605 -0,-8.369c-0,-0.731 0.458,-1.384 1.145,-1.633c0.688,-0.249 1.458,-0.041 1.926,0.521c0.549,0.659 1.059,1.27 1.416,1.699Z" style="fill:#fff;"/>
            </g>
        </g>
        <g id="Enemy29" serif:id="Enemy">
            <circle id="enemyPos29" serif:id="enemyPos" cx="354.273" cy="2294.87" r="22.5" style="fill:#232323;stroke:#8148c8;stroke-width:4.77px;"/>
            <g>
                <path d="M358.758,2291.33c-0.331,0.397 -0.512,0.898 -0.512,1.416c-0,1.869 -0,6.366 -0,6.366c-0,0.689 0.56,1.25 1.25,1.25l2.5,-0c0.69,-0 1.25,-0.561 1.25,-1.25l-0,-8.369c-0,-0.732 -0.458,-1.385 -1.146,-1.634c-0.688,-0.249 -1.458,-0.04 -1.926,0.522c-0.548,0.658 -1.058,1.27 -1.416,1.699Z" style="fill:#fff;"/>
                <path d="M349.788,2291.33c0.331,0.397 0.512,0.898 0.512,1.416l0,6.366c0,0.689 -0.56,1.25 -1.25,1.25l-2.5,-0c-0.69,-0 -1.25,-0.561 -1.25,-1.25l0,-8.369c0,-0.732 0.458,-1.385 1.146,-1.634c0.688,-0.249 1.458,-0.04 1.926,0.522c0.548,0.658 1.058,1.27 1.416,1.699Z" style="fill:#fff;"/>
            </g>
        </g>
        <g id="Enemy30" serif:id="Enemy">
            <circle id="enemyPos30" serif:id="enemyPos" cx="430.273" cy="1417.53" r="22.5" style="fill:#232323;stroke:#8148c8;stroke-width:4.77px;"/>
            <g>
                <path d="M434.758,1414c-0.331,0.398 -0.512,0.899 -0.512,1.416c-0,1.87 -0,6.366 -0,6.366c-0,0.69 0.56,1.25 1.25,1.25l2.5,0c0.69,0 1.25,-0.56 1.25,-1.25l-0,-8.369c-0,-0.731 -0.458,-1.384 -1.146,-1.633c-0.688,-0.249 -1.458,-0.041 -1.926,0.521c-0.548,0.659 -1.058,1.27 -1.416,1.699Z" style="fill:#fff;"/>
                <path d="M425.788,1414c0.331,0.398 0.512,0.899 0.512,1.416c0,1.87 0,6.366 0,6.366c0,0.69 -0.56,1.25 -1.25,1.25l-2.5,0c-0.69,0 -1.25,-0.56 -1.25,-1.25c0,0 0,-4.605 0,-8.369c0,-0.731 0.458,-1.384 1.146,-1.633c0.688,-0.249 1.458,-0.041 1.926,0.521c0.548,0.659 1.058,1.27 1.416,1.699Z" style="fill:#fff;"/>
            </g>
        </g>
        <g id="Enemy31" serif:id="Enemy">
            <circle id="enemyPos31" serif:id="enemyPos" cx="508.94" cy="1012.2" r="22.5" style="fill:#232323;stroke:#8148c8;stroke-width:4.77px;"/>
            <g>
                <path d="M513.425,1008.67c-0.331,0.398 -0.513,0.899 -0.513,1.416c0,1.87 0,6.366 0,6.366c0,0.69 0.56,1.25 1.25,1.25l2.5,-0c0.69,-0 1.25,-0.56 1.25,-1.25l0,-8.369c0,-0.731 -0.458,-1.384 -1.145,-1.633c-0.688,-0.249 -1.458,-0.041 -1.926,0.521c-0.549,0.658 -1.059,1.27 -1.416,1.699Z" style="fill:#fff;"/>
                <path d="M504.454,1008.67c0.332,0.398 0.513,0.899 0.513,1.416c0,1.87 0,6.366 0,6.366c0,0.69 -0.56,1.25 -1.25,1.25l-2.5,-0c-0.69,-0 -1.25,-0.56 -1.25,-1.25c0,-0 0,-4.606 0,-8.369c0,-0.731 0.458,-1.384 1.146,-1.633c0.687,-0.249 1.457,-0.041 1.925,0.521c0.549,0.658 1.059,1.27 1.416,1.699Z" style="fill:#fff;"/>
            </g>
        </g>
        <g id="Enemy32" serif:id="Enemy">
            <circle id="enemyPos32" serif:id="enemyPos" cx="414.273" cy="528.138" r="22.5" style="fill:#232323;stroke:#8148c8;stroke-width:4.77px;"/>
            <g>
                <path d="M418.758,524.606c-0.331,0.398 -0.512,0.899 -0.512,1.416c-0,1.87 -0,6.366 -0,6.366c-0,0.69 0.56,1.25 1.25,1.25l2.5,-0c0.69,-0 1.25,-0.56 1.25,-1.25c-0,-0 -0,-4.606 -0,-8.369c-0,-0.731 -0.458,-1.384 -1.146,-1.633c-0.688,-0.249 -1.458,-0.041 -1.926,0.521c-0.548,0.658 -1.058,1.27 -1.416,1.699Z" style="fill:#fff;"/>
                <path d="M409.788,524.606c0.331,0.398 0.512,0.899 0.512,1.416c0,1.87 0,6.366 0,6.366c0,0.69 -0.56,1.25 -1.25,1.25l-2.5,-0c-0.69,-0 -1.25,-0.56 -1.25,-1.25c0,-0 0,-4.606 0,-8.369c0,-0.731 0.458,-1.384 1.146,-1.633c0.688,-0.249 1.458,-0.041 1.926,0.521c0.548,0.658 1.058,1.27 1.416,1.699Z" style="fill:#fff;"/>
            </g>
        </g>
        <g id="Enemy33" serif:id="Enemy">
            <circle id="enemyPos33" serif:id="enemyPos" cx="532.94" cy="217.698" r="22.5" style="fill:#232323;stroke:#8148c8;stroke-width:4.77px;"/>
            <g>
                <path d="M537.425,214.166c-0.331,0.398 -0.513,0.899 -0.513,1.416c0,1.87 0,6.366 0,6.366c0,0.69 0.56,1.25 1.25,1.25l2.5,-0c0.69,-0 1.25,-0.56 1.25,-1.25l0,-8.369c0,-0.731 -0.458,-1.384 -1.145,-1.633c-0.688,-0.249 -1.458,-0.041 -1.926,0.521c-0.549,0.658 -1.059,1.27 -1.416,1.699Z" style="fill:#fff;"/>
                <path d="M528.454,214.166c0.332,0.398 0.513,0.899 0.513,1.416c0,1.87 0,6.366 0,6.366c0,0.69 -0.56,1.25 -1.25,1.25l-2.5,-0c-0.69,-0 -1.25,-0.56 -1.25,-1.25c0,-0 0,-4.606 0,-8.369c0,-0.731 0.458,-1.384 1.146,-1.633c0.687,-0.249 1.457,-0.041 1.925,0.521c0.549,0.658 1.059,1.27 1.416,1.699Z" style="fill:#fff;"/>
            </g>
        </g>
        <g id="Enemy34" serif:id="Enemy">
            <circle id="enemyPos34" serif:id="enemyPos" cx="292.94" cy="1576.2" r="22.5" style="fill:#232323;stroke:#8148c8;stroke-width:4.77px;"/>
            <g>
                <path d="M297.425,1572.67c-0.331,0.398 -0.513,0.899 -0.513,1.416c0,1.87 0,6.366 0,6.366c0,0.69 0.56,1.25 1.25,1.25l2.5,-0c0.69,-0 1.25,-0.56 1.25,-1.25c0,-0 0,-4.606 0,-8.369c0,-0.731 -0.458,-1.384 -1.145,-1.633c-0.688,-0.249 -1.458,-0.041 -1.926,0.521c-0.549,0.658 -1.059,1.27 -1.416,1.699Z" style="fill:#fff;"/>
                <path d="M288.454,1572.67c0.332,0.398 0.513,0.899 0.513,1.416l0,6.366c0,0.69 -0.56,1.25 -1.25,1.25l-2.5,-0c-0.69,-0 -1.25,-0.56 -1.25,-1.25c0,-0 0,-4.606 0,-8.369c0,-0.731 0.458,-1.384 1.146,-1.633c0.687,-0.249 1.457,-0.041 1.925,0.521c0.549,0.658 1.059,1.27 1.416,1.699Z" style="fill:#fff;"/>
            </g>
        </g>
        <g id="Enemy35" serif:id="Enemy">
            <circle id="enemyPos35" serif:id="enemyPos" cx="276.94" cy="686.805" r="22.5" style="fill:#232323;stroke:#8148c8;stroke-width:4.77px;"/>
            <g>
                <path d="M281.425,683.273c-0.331,0.397 -0.513,0.898 -0.513,1.416c0,1.869 0,6.366 0,6.366c0,0.689 0.56,1.25 1.25,1.25l2.5,-0c0.69,-0 1.25,-0.561 1.25,-1.25l0,-8.369c0,-0.732 -0.458,-1.385 -1.145,-1.634c-0.688,-0.249 -1.458,-0.04 -1.926,0.522c-0.549,0.658 -1.059,1.27 -1.416,1.699Z" style="fill:#fff;"/>
                <path d="M272.454,683.273c0.332,0.397 0.513,0.898 0.513,1.416l0,6.366c0,0.689 -0.56,1.25 -1.25,1.25l-2.5,-0c-0.69,-0 -1.25,-0.561 -1.25,-1.25l0,-8.369c0,-0.732 0.458,-1.385 1.146,-1.634c0.687,-0.249 1.457,-0.04 1.925,0.522c0.549,0.658 1.059,1.27 1.416,1.699Z" style="fill:#fff;"/>
            </g>
        </g>
        <g id="Enemy36" serif:id="Enemy">
            <circle id="enemyPos36" serif:id="enemyPos" cx="478.94" cy="914.805" r="22.5" style="fill:#232323;stroke:#8148c8;stroke-width:4.77px;"/>
            <g>
                <path d="M483.425,911.273c-0.331,0.397 -0.513,0.898 -0.513,1.416c0,1.869 0,6.366 0,6.366c0,0.689 0.56,1.25 1.25,1.25l2.5,-0c0.69,-0 1.25,-0.561 1.25,-1.25c0,-0 0,-4.606 0,-8.369c0,-0.732 -0.458,-1.385 -1.145,-1.634c-0.688,-0.249 -1.458,-0.04 -1.926,0.522c-0.549,0.658 -1.059,1.27 -1.416,1.699Z" style="fill:#fff;"/>
                <path d="M474.454,911.273c0.332,0.397 0.513,0.898 0.513,1.416c0,1.869 0,6.366 0,6.366c0,0.689 -0.56,1.25 -1.25,1.25l-2.5,-0c-0.69,-0 -1.25,-0.561 -1.25,-1.25c0,-0 0,-4.606 0,-8.369c0,-0.732 0.458,-1.385 1.146,-1.634c0.687,-0.249 1.457,-0.04 1.925,0.522c0.549,0.658 1.059,1.27 1.416,1.699Z" style="fill:#fff;"/>
            </g>
        </g>
        <g id="Enemy37" serif:id="Enemy">
            <circle id="enemyPos37" serif:id="enemyPos" cx="524.94" cy="1336.81" r="22.5" style="fill:#232323;stroke:#8148c8;stroke-width:4.77px;"/>
            <g>
                <path d="M529.425,1333.27c-0.331,0.397 -0.513,0.898 -0.513,1.416c0,1.87 0,6.366 0,6.366c0,0.689 0.56,1.25 1.25,1.25l2.5,-0c0.69,-0 1.25,-0.561 1.25,-1.25l0,-8.369c0,-0.732 -0.458,-1.385 -1.145,-1.634c-0.688,-0.249 -1.458,-0.04 -1.926,0.522c-0.549,0.658 -1.059,1.27 -1.416,1.699Z" style="fill:#fff;"/>
                <path d="M520.454,1333.27c0.332,0.397 0.513,0.898 0.513,1.416c0,1.87 0,6.366 0,6.366c0,0.689 -0.56,1.25 -1.25,1.25l-2.5,-0c-0.69,-0 -1.25,-0.561 -1.25,-1.25c0,-0 0,-4.606 0,-8.369c0,-0.732 0.458,-1.385 1.146,-1.634c0.687,-0.249 1.457,-0.04 1.925,0.522c0.549,0.658 1.059,1.27 1.416,1.699Z" style="fill:#fff;"/>
            </g>
        </g>
        <g id="Enemy38" serif:id="Enemy">
            <circle id="enemyPos38" serif:id="enemyPos" cx="223.136" cy="2220.2" r="22.5" style="fill:#232323;stroke:#8148c8;stroke-width:4.77px;"/>
            <g>
                <path d="M227.622,2216.67c-0.332,0.398 -0.513,0.899 -0.513,1.416c0,1.87 0,6.366 0,6.366c0,0.69 0.56,1.25 1.25,1.25l2.5,-0c0.69,-0 1.25,-0.56 1.25,-1.25c0,-0 0,-4.606 0,-8.369c0,-0.731 -0.458,-1.384 -1.146,-1.633c-0.687,-0.249 -1.457,-0.041 -1.925,0.521c-0.549,0.658 -1.059,1.27 -1.416,1.699Z" style="fill:#fff;"/>
                <path d="M218.651,2216.67c0.331,0.398 0.513,0.899 0.513,1.416l-0,6.366c-0,0.69 -0.56,1.25 -1.25,1.25l-2.5,-0c-0.69,-0 -1.25,-0.56 -1.25,-1.25l-0,-8.369c-0,-0.731 0.458,-1.384 1.145,-1.633c0.688,-0.249 1.458,-0.041 1.926,0.521c0.549,0.658 1.059,1.27 1.416,1.699Z" style="fill:#fff;"/>
            </g>
        </g>
        <g id="Enemy39" serif:id="Enemy">
            <circle id="enemyPos39" serif:id="enemyPos" cx="425.803" cy="2217.53" r="22.5" style="fill:#232323;stroke:#8148c8;stroke-width:4.77px;"/>
            <g>
                <path d="M430.288,2214c-0.331,0.398 -0.512,0.899 -0.512,1.416c-0,1.87 -0,6.366 -0,6.366c-0,0.69 0.56,1.25 1.25,1.25l2.5,0c0.69,0 1.25,-0.56 1.25,-1.25c-0,0 -0,-4.605 -0,-8.369c-0,-0.731 -0.458,-1.384 -1.146,-1.633c-0.688,-0.249 -1.458,-0.041 -1.926,0.521c-0.548,0.659 -1.058,1.27 -1.416,1.699Z" style="fill:#fff;"/>
                <path d="M421.318,2214c0.331,0.398 0.512,0.899 0.512,1.416c0,1.87 0,6.366 0,6.366c0,0.69 -0.56,1.25 -1.25,1.25l-2.5,0c-0.689,0 -1.25,-0.56 -1.25,-1.25c0,0 0,-4.605 0,-8.369c0,-0.731 0.458,-1.384 1.146,-1.633c0.688,-0.249 1.458,-0.041 1.926,0.521c0.548,0.659 1.058,1.27 1.416,1.699Z" style="fill:#fff;"/>
            </g>
        </g>
        <g id="Enemy40" serif:id="Enemy">
            <circle id="enemyPos40" serif:id="enemyPos" cx="220.94" cy="2018.87" r="22.5" style="fill:#232323;stroke:#8148c8;stroke-width:4.77px;"/>
            <g>
                <path d="M225.425,2015.33c-0.331,0.397 -0.513,0.898 -0.513,1.416c0,1.869 0,6.366 0,6.366c0,0.689 0.56,1.25 1.25,1.25l2.5,-0c0.69,-0 1.25,-0.561 1.25,-1.25l0,-8.369c0,-0.732 -0.458,-1.385 -1.145,-1.634c-0.688,-0.249 -1.458,-0.04 -1.926,0.522c-0.549,0.658 -1.059,1.27 -1.416,1.699Z" style="fill:#fff;"/>
                <path d="M216.454,2015.33c0.332,0.397 0.513,0.898 0.513,1.416c0,1.869 0,6.366 0,6.366c0,0.689 -0.56,1.25 -1.25,1.25l-2.5,-0c-0.69,-0 -1.25,-0.561 -1.25,-1.25c0,-0 0,-4.606 0,-8.369c0,-0.732 0.458,-1.385 1.146,-1.634c0.687,-0.249 1.457,-0.04 1.925,0.522c0.549,0.658 1.059,1.27 1.416,1.699Z" style="fill:#fff;"/>
            </g>
        </g>
        <g id="Enemy41" serif:id="Enemy">
            <circle id="enemyPos41" serif:id="enemyPos" cx="523.606" cy="1721.53" r="22.5" style="fill:#232323;stroke:#8148c8;stroke-width:4.77px;"/>
            <g>
                <path d="M528.092,1718c-0.332,0.398 -0.513,0.899 -0.513,1.416c-0,1.87 -0,6.366 -0,6.366c-0,0.69 0.56,1.25 1.25,1.25l2.5,0c0.69,0 1.25,-0.56 1.25,-1.25l-0,-8.369c-0,-0.731 -0.458,-1.384 -1.146,-1.633c-0.687,-0.249 -1.457,-0.041 -1.925,0.521c-0.549,0.659 -1.059,1.27 -1.416,1.699Z" style="fill:#fff;"/>
                <path d="M519.121,1718c0.331,0.398 0.513,0.899 0.513,1.416c-0,1.87 -0,6.366 -0,6.366c-0,0.69 -0.56,1.25 -1.25,1.25l-2.5,0c-0.69,0 -1.25,-0.56 -1.25,-1.25c-0,0 -0,-4.605 -0,-8.369c-0,-0.731 0.458,-1.384 1.145,-1.633c0.688,-0.249 1.458,-0.041 1.926,0.521c0.549,0.659 1.059,1.27 1.416,1.699Z" style="fill:#fff;"/>
            </g>
        </g>
        <g id="Enemy42" serif:id="Enemy">
            <circle id="enemyPos42" serif:id="enemyPos" cx="526.273" cy="1500.2" r="22.5" style="fill:#232323;stroke:#8148c8;stroke-width:4.77px;"/>
            <g>
                <path d="M530.758,1496.67c-0.331,0.398 -0.512,0.899 -0.512,1.416c-0,1.87 -0,6.366 -0,6.366c-0,0.69 0.56,1.25 1.25,1.25l2.5,-0c0.69,-0 1.25,-0.56 1.25,-1.25l-0,-8.369c-0,-0.731 -0.458,-1.384 -1.146,-1.633c-0.688,-0.249 -1.458,-0.041 -1.926,0.521c-0.548,0.658 -1.058,1.27 -1.416,1.699Z" style="fill:#fff;"/>
                <path d="M521.788,1496.67c0.331,0.398 0.512,0.899 0.512,1.416c0,1.87 0,6.366 0,6.366c0,0.69 -0.56,1.25 -1.25,1.25l-2.5,-0c-0.69,-0 -1.25,-0.56 -1.25,-1.25l0,-8.369c0,-0.731 0.458,-1.384 1.146,-1.633c0.688,-0.249 1.458,-0.041 1.926,0.521c0.548,0.658 1.058,1.27 1.416,1.699Z" style="fill:#fff;"/>
            </g>
        </g>
        <path id="_-collision-2" serif:id="{collision}" d="M215.419,2934.9c-7.757,7.96 -10.47,12.871 -10.47,12.871c-9.3,14.314 -13.954,31.779 -12.066,50.064c2.107,20.42 14.308,1.927 12.872,-11.991c-2.99,-28.965 18.098,-54.908 47.062,-57.898c13.919,-1.436 29.529,-17.158 9.11,-15.05c-18.268,1.886 -34.4,9.995 -46.508,22.004c-1.975,1.958 -6.31,6.486 -10.47,12.871" style="fill:#a10745;stroke:#a10745;stroke-width:25.03px;"/>
        <path id="_-collision-3" serif:id="{collision}" d="M547.598,392.773c-7.027,-8.611 -11.599,-11.863 -11.599,-11.863c-13.165,-10.866 -29.989,-17.473 -48.37,-17.673c-20.527,-0.225 -3.539,13.997 10.452,14.15c29.117,0.318 52.498,24.215 52.18,53.332c-0.153,13.991 13.694,31.286 13.919,10.759c0.2,-18.364 -6.025,-35.312 -16.582,-48.705c-1.721,-2.184 -5.727,-7.006 -11.599,-11.863" style="fill:#a10745;stroke:#a10745;stroke-width:25.03px;"/>
        <circle id="_-collisionCircle-" serif:id="{collisionCircle}" cx="236.635" cy="2450.99" r="26" style="fill:#a10745;stroke:#a10745;stroke-width:25.03px;"/>
    </g>
</svg>
