<?xml version="1.0" encoding="UTF-8" standalone="no"?>
<!DOCTYPE svg PUBLIC "-//W3C//DTD SVG 1.1//EN" "http://www.w3.org/Graphics/SVG/1.1/DTD/svg11.dtd">
<svg width="750px" height="3100px" version="1.1" xmlns="http://www.w3.org/2000/svg" xmlns:xlink="http://www.w3.org/1999/xlink" xml:space="preserve" xmlns:serif="http://www.serif.com/" style="fill-rule:evenodd;clip-rule:evenodd;stroke-linecap:round;stroke-linejoin:round;stroke-miterlimit:1.5;">
    <rect id="Level-1" x="-0" y="0" width="750" height="3100" style="fill:#222;"/>
    <clipPath id="_clip1">
        <rect x="-0" y="0" width="750" height="3100"/>
    </clipPath>
    <g clip-path="url(#_clip1)">
        <path id="_-collision-" serif:id="{collision}" d="M580.577,3206.11l0,-3297.8" style="fill:none;stroke:#a10745;stroke-width:25px;"/>
        <path id="_-collision-1" serif:id="{collision}" d="M174.077,-315.688c0,0 0,3522 0,3522" style="fill:none;stroke:#a10745;stroke-width:25px;"/>
        <g id="Hole">
            <circle id="holePos" cx="379.077" cy="974.752" r="40"/>
        </g>
        <g id="Hole1" serif:id="Hole">
            <circle id="holePos1" serif:id="holePos" cx="260.077" cy="2897.75" r="40"/>
        </g>
        <g id="Hole2" serif:id="Hole">
            <circle id="holePos2" serif:id="holePos" cx="501.077" cy="2740.75" r="40"/>
        </g>
        <path id="_-collision-2" serif:id="{collision}" d="M433.808,920.309c14.515,14.516 -7.53,27.319 -17.424,17.425c-20.59,-20.59 -54.023,-20.59 -74.613,-0c-9.894,9.894 -31.94,-2.909 -17.424,-17.425c30.206,-30.206 79.254,-30.206 109.461,0Z" style="fill:#a10745;"/>
        <path id="_-collision-3" serif:id="{collision}" d="M205.269,2944.1c-14.516,-14.516 7.53,-27.319 17.424,-17.425c20.59,20.59 54.023,20.59 74.613,0c9.894,-9.894 31.94,2.909 17.424,17.425c-30.207,30.206 -79.254,30.206 -109.461,-0Z" style="fill:#a10745;"/>
        <path id="_-collision-4" serif:id="{collision}" d="M445.269,2788.1c-14.516,-14.516 7.53,-27.319 17.424,-17.425c20.59,20.59 54.023,20.59 74.613,0c9.894,-9.894 31.94,2.909 17.424,17.425c-30.206,30.206 -79.254,30.206 -109.461,-0Z" style="fill:#a10745;"/>
        <g id="Enemy">
            <circle id="enemyPos" cx="375" cy="2870.75" r="22.5" style="fill:#232323;stroke:#8148c8;stroke-width:4.77px;"/>
            <g>
                <path d="M370.515,2867.22c0.331,0.398 0.512,0.899 0.512,1.416c0,1.87 0,6.366 0,6.366c0,0.69 -0.56,1.25 -1.25,1.25l-2.5,-0c-0.69,-0 -1.25,-0.56 -1.25,-1.25c0,-0 0,-4.606 0,-8.369c0,-0.731 0.458,-1.384 1.146,-1.633c0.688,-0.249 1.458,-0.041 1.926,0.521c0.548,0.658 1.058,1.27 1.416,1.699Z" style="fill:#fff;"/>
                <path d="M379.485,2867.22c-0.331,0.398 -0.512,0.899 -0.512,1.416c-0,1.87 -0,6.366 -0,6.366c-0,0.69 0.56,1.25 1.25,1.25l2.5,-0c0.69,-0 1.25,-0.56 1.25,-1.25l-0,-8.369c-0,-0.731 -0.458,-1.384 -1.146,-1.633c-0.688,-0.249 -1.458,-0.041 -1.926,0.521c-0.548,0.658 -1.058,1.27 -1.416,1.699Z" style="fill:#fff;"/>
            </g>
        </g>
        <g id="Enemy1" serif:id="Enemy">
            <circle id="enemyPos1" serif:id="enemyPos" cx="236.333" cy="2780.09" r="22.5" style="fill:#232323;stroke:#8148c8;stroke-width:4.77px;"/>
            <g>
                <path d="M231.848,2776.55c0.331,0.398 0.513,0.899 0.513,1.416l-0,6.366c-0,0.69 -0.56,1.25 -1.25,1.25l-2.5,0c-0.69,0 -1.25,-0.56 -1.25,-1.25l-0,-8.369c-0,-0.731 0.458,-1.384 1.145,-1.633c0.688,-0.249 1.458,-0.041 1.926,0.521c0.549,0.659 1.059,1.27 1.416,1.699Z" style="fill:#fff;"/>
                <path d="M240.819,2776.55c-0.332,0.398 -0.513,0.899 -0.513,1.416l-0,6.366c-0,0.69 0.56,1.25 1.25,1.25l2.5,0c0.69,0 1.25,-0.56 1.25,-1.25l-0,-8.369c-0,-0.731 -0.458,-1.384 -1.146,-1.633c-0.687,-0.249 -1.457,-0.041 -1.925,0.521c-0.549,0.659 -1.059,1.27 -1.416,1.699Z" style="fill:#fff;"/>
            </g>
        </g>
        <g id="Enemy2" serif:id="Enemy">
            <circle id="enemyPos2" serif:id="enemyPos" cx="511" cy="2505.42" r="22.5" style="fill:#232323;stroke:#8148c8;stroke-width:4.77px;"/>
            <g>
                <path d="M506.515,2501.89c0.331,0.397 0.512,0.898 0.512,1.416l0,6.366c0,0.689 -0.56,1.25 -1.25,1.25l-2.5,-0c-0.69,-0 -1.25,-0.561 -1.25,-1.25l0,-8.369c0,-0.732 0.458,-1.385 1.146,-1.634c0.688,-0.249 1.458,-0.04 1.926,0.522c0.548,0.658 1.058,1.27 1.416,1.699Z" style="fill:#fff;"/>
                <path d="M515.485,2501.89c-0.331,0.397 -0.512,0.898 -0.512,1.416c-0,1.869 -0,6.366 -0,6.366c-0,0.689 0.56,1.25 1.25,1.25l2.5,-0c0.69,-0 1.25,-0.561 1.25,-1.25l-0,-8.369c-0,-0.732 -0.458,-1.385 -1.146,-1.634c-0.688,-0.249 -1.458,-0.04 -1.926,0.522c-0.548,0.658 -1.058,1.27 -1.416,1.699Z" style="fill:#fff;"/>
            </g>
        </g>
        <g id="Enemy3" serif:id="Enemy">
            <circle id="enemyPos3" serif:id="enemyPos" cx="519" cy="2650.75" r="22.5" style="fill:#232323;stroke:#8148c8;stroke-width:4.77px;"/>
            <g>
                <path d="M514.515,2647.22c0.331,0.398 0.512,0.899 0.512,1.416c0,1.87 0,6.366 0,6.366c0,0.69 -0.56,1.25 -1.25,1.25l-2.5,-0c-0.69,-0 -1.25,-0.56 -1.25,-1.25l0,-8.369c0,-0.731 0.458,-1.384 1.146,-1.633c0.688,-0.249 1.458,-0.041 1.926,0.521c0.548,0.658 1.058,1.27 1.416,1.699Z" style="fill:#fff;"/>
                <path d="M523.485,2647.22c-0.331,0.398 -0.512,0.899 -0.512,1.416c-0,1.87 -0,6.366 -0,6.366c-0,0.69 0.56,1.25 1.25,1.25l2.5,-0c0.69,-0 1.25,-0.56 1.25,-1.25l-0,-8.369c-0,-0.731 -0.458,-1.384 -1.146,-1.633c-0.688,-0.249 -1.458,-0.041 -1.926,0.521c-0.548,0.658 -1.058,1.27 -1.416,1.699Z" style="fill:#fff;"/>
            </g>
        </g>
    </g>
</svg>
