<?xml version="1.0" encoding="UTF-8" standalone="no"?>
<!DOCTYPE svg PUBLIC "-//W3C//DTD SVG 1.1//EN" "http://www.w3.org/Graphics/SVG/1.1/DTD/svg11.dtd">
<svg width="750px" height="3100px" version="1.1" xmlns="http://www.w3.org/2000/svg" xmlns:xlink="http://www.w3.org/1999/xlink" xml:space="preserve" xmlns:serif="http://www.serif.com/" style="fill-rule:evenodd;clip-rule:evenodd;stroke-linecap:round;stroke-linejoin:round;stroke-miterlimit:1.5;">
    <rect id="Level-1" x="-0" y="0" width="750" height="3100" style="fill:#222;"/>
    <clipPath id="_clip1">
        <rect x="-0" y="0" width="750" height="3100"/>
    </clipPath>
    <g clip-path="url(#_clip1)">
        <path id="_-collision-" serif:id="{collision}" d="M580.577,3206.11l0,-2513.83c0,-9.293 6.388,-17.367 15.431,-19.505c28.997,-6.932 50.569,-33.044 50.569,-64.155c0,-31.121 -21.585,-57.239 -50.588,-64.188c-9.015,-2.128 -15.385,-10.176 -15.385,-19.439c-0.027,-102.444 -0.027,-616.682 -0.027,-616.682" style="fill:none;stroke:#a10745;stroke-width:25px;"/>
        <path id="_-background-" serif:id="{background}" d="M580.577,3206.11l0,-2513.83c0,-9.293 6.388,-17.367 15.431,-19.505c28.997,-6.932 50.569,-33.044 50.569,-64.155c0,-31.121 -21.585,-57.239 -50.588,-64.188c-9.015,-2.128 -15.385,-10.176 -15.385,-19.439c-0.027,-102.444 -0.027,-616.682 -0.027,-616.682l399.125,0l0,3297.8l-399.125,-0Z" style="fill:#4b001e;stroke:#a10745;stroke-width:25px;"/>
        <path id="_-collision-1" serif:id="{collision}" d="M174.077,-315.688c0,0 0,3522 0,3522" style="fill:none;stroke:#a10745;stroke-width:25px;"/>
        <path id="_-background-1" serif:id="{background}" d="M174.077,3206.31l-314.375,-0.203l0,-3521.8l314.375,0c0,0 0,3522 0,3522Z" style="fill:#4b001e;stroke:#a10745;stroke-width:25px;"/>
        <g id="Hole">
            <circle id="holePos" cx="379.077" cy="974.752" r="40"/>
        </g>
        <g id="Hole1" serif:id="Hole">
            <circle id="holePos1" serif:id="holePos" cx="580.577" cy="611.418" r="40"/>
        </g>
        <g id="Hole2" serif:id="Hole">
            <circle id="holePos2" serif:id="holePos" cx="373.244" cy="476.085" r="40"/>
        </g>
        <g id="Hole3" serif:id="Hole">
            <circle id="holePos3" serif:id="holePos" cx="256" cy="2892.7" r="40"/>
        </g>
        <g id="Hole4" serif:id="Hole">
            <circle id="holePos4" serif:id="holePos" cx="498.155" cy="2741.7" r="40"/>
        </g>
        <g id="Hole5" serif:id="Hole">
            <circle id="holePos5" serif:id="holePos" cx="236.822" cy="2386.2" r="40"/>
        </g>
        <g id="Hole6" serif:id="Hole">
            <circle id="holePos6" serif:id="holePos" cx="236.822" cy="2148.36" r="40"/>
        </g>
        <g id="Hole7" serif:id="Hole">
            <circle id="holePos7" serif:id="holePos" cx="522.155" cy="1837.69" r="40"/>
        </g>
        <g id="Hole8" serif:id="Hole">
            <circle id="holePos8" serif:id="holePos" cx="382.155" cy="1465.69" r="40"/>
        </g>
        <g id="Hole9" serif:id="Hole">
            <circle id="holePos9" serif:id="holePos" cx="522.155" cy="2069.7" r="40"/>
        </g>
        <path id="_-collision-2" serif:id="{collision}" d="M370.757,891.957c11.069,-0.998 16.591,-0.005 16.591,-0.005c16.974,1.811 33.461,9.216 46.46,22.215c14.515,14.515 -7.53,12.319 -17.424,2.424c-20.59,-20.589 -54.023,-20.589 -74.613,0c-9.894,9.895 -31.94,12.091 -17.424,-2.424c12.986,-12.986 29.453,-20.389 46.41,-22.21c2.765,-0.297 9.013,-0.805 16.591,-0.005" style="fill:#a10745;stroke:#a10745;stroke-width:25.03px;"/>
        <g id="Enemy">
            <circle id="enemyPos" cx="375" cy="2870.75" r="22.5" style="fill:#232323;stroke:#8148c8;stroke-width:4.77px;"/>
            <g>
                <path d="M370.515,2867.22c0.331,0.398 0.512,0.899 0.512,1.416c0,1.87 0,6.366 0,6.366c0,0.69 -0.56,1.25 -1.25,1.25l-2.5,-0c-0.69,-0 -1.25,-0.56 -1.25,-1.25c0,-0 0,-4.606 0,-8.369c0,-0.731 0.458,-1.384 1.146,-1.633c0.688,-0.249 1.458,-0.041 1.926,0.521c0.548,0.658 1.058,1.27 1.416,1.699Z" style="fill:#fff;"/>
                <path d="M379.485,2867.22c-0.331,0.398 -0.512,0.899 -0.512,1.416c-0,1.87 -0,6.366 -0,6.366c-0,0.69 0.56,1.25 1.25,1.25l2.5,-0c0.69,-0 1.25,-0.56 1.25,-1.25l-0,-8.369c-0,-0.731 -0.458,-1.384 -1.146,-1.633c-0.688,-0.249 -1.458,-0.041 -1.926,0.521c-0.548,0.658 -1.058,1.27 -1.416,1.699Z" style="fill:#fff;"/>
            </g>
        </g>
        <g id="Enemy1" serif:id="Enemy">
            <circle id="enemyPos1" serif:id="enemyPos" cx="236.333" cy="2780.09" r="22.5" style="fill:#232323;stroke:#8148c8;stroke-width:4.77px;"/>
            <g>
                <path d="M231.848,2776.55c0.331,0.398 0.513,0.899 0.513,1.416l-0,6.366c-0,0.69 -0.56,1.25 -1.25,1.25l-2.5,0c-0.69,0 -1.25,-0.56 -1.25,-1.25l-0,-8.369c-0,-0.731 0.458,-1.384 1.145,-1.633c0.688,-0.249 1.458,-0.041 1.926,0.521c0.549,0.659 1.059,1.27 1.416,1.699Z" style="fill:#fff;"/>
                <path d="M240.819,2776.55c-0.332,0.398 -0.513,0.899 -0.513,1.416l-0,6.366c-0,0.69 0.56,1.25 1.25,1.25l2.5,0c0.69,0 1.25,-0.56 1.25,-1.25l-0,-8.369c-0,-0.731 -0.458,-1.384 -1.146,-1.633c-0.687,-0.249 -1.457,-0.041 -1.925,0.521c-0.549,0.659 -1.059,1.27 -1.416,1.699Z" style="fill:#fff;"/>
            </g>
        </g>
        <g id="Enemy2" serif:id="Enemy">
            <circle id="enemyPos2" serif:id="enemyPos" cx="511" cy="2505.42" r="22.5" style="fill:#232323;stroke:#8148c8;stroke-width:4.77px;"/>
            <g>
                <path d="M506.515,2501.89c0.331,0.397 0.512,0.898 0.512,1.416l0,6.366c0,0.689 -0.56,1.25 -1.25,1.25l-2.5,-0c-0.69,-0 -1.25,-0.561 -1.25,-1.25l0,-8.369c0,-0.732 0.458,-1.385 1.146,-1.634c0.688,-0.249 1.458,-0.04 1.926,0.522c0.548,0.658 1.058,1.27 1.416,1.699Z" style="fill:#fff;"/>
                <path d="M515.485,2501.89c-0.331,0.397 -0.512,0.898 -0.512,1.416c-0,1.869 -0,6.366 -0,6.366c-0,0.689 0.56,1.25 1.25,1.25l2.5,-0c0.69,-0 1.25,-0.561 1.25,-1.25l-0,-8.369c-0,-0.732 -0.458,-1.385 -1.146,-1.634c-0.688,-0.249 -1.458,-0.04 -1.926,0.522c-0.548,0.658 -1.058,1.27 -1.416,1.699Z" style="fill:#fff;"/>
            </g>
        </g>
        <g id="Enemy3" serif:id="Enemy">
            <circle id="enemyPos3" serif:id="enemyPos" cx="241.667" cy="2462.75" r="22.5" style="fill:#232323;stroke:#8148c8;stroke-width:4.77px;"/>
            <g>
                <path d="M237.181,2459.22c0.332,0.398 0.513,0.899 0.513,1.416c0,1.87 0,6.366 0,6.366c0,0.69 -0.56,1.25 -1.25,1.25l-2.5,-0c-0.69,-0 -1.25,-0.56 -1.25,-1.25l0,-8.369c0,-0.731 0.458,-1.384 1.146,-1.633c0.687,-0.249 1.457,-0.041 1.925,0.521c0.549,0.658 1.059,1.27 1.416,1.699Z" style="fill:#fff;"/>
                <path d="M246.152,2459.22c-0.331,0.398 -0.513,0.899 -0.513,1.416l0,6.366c0,0.69 0.56,1.25 1.25,1.25l2.5,-0c0.69,-0 1.25,-0.56 1.25,-1.25l0,-8.369c0,-0.731 -0.458,-1.384 -1.145,-1.633c-0.688,-0.249 -1.458,-0.041 -1.926,0.521c-0.549,0.658 -1.059,1.27 -1.416,1.699Z" style="fill:#fff;"/>
            </g>
        </g>
        <g id="Enemy4" serif:id="Enemy">
            <circle id="enemyPos4" serif:id="enemyPos" cx="465.667" cy="2130.75" r="22.5" style="fill:#232323;stroke:#8148c8;stroke-width:4.77px;"/>
            <g>
                <path d="M461.181,2127.22c0.332,0.398 0.513,0.899 0.513,1.416l0,6.366c0,0.69 -0.56,1.25 -1.25,1.25l-2.5,-0c-0.69,-0 -1.25,-0.56 -1.25,-1.25l0,-8.369c0,-0.731 0.458,-1.384 1.146,-1.633c0.687,-0.249 1.457,-0.041 1.925,0.521c0.549,0.658 1.059,1.27 1.416,1.699Z" style="fill:#fff;"/>
                <path d="M470.152,2127.22c-0.331,0.398 -0.513,0.899 -0.513,1.416l0,6.366c0,0.69 0.56,1.25 1.25,1.25l2.5,-0c0.69,-0 1.25,-0.56 1.25,-1.25l0,-8.369c0,-0.731 -0.458,-1.384 -1.145,-1.633c-0.688,-0.249 -1.458,-0.041 -1.926,0.521c-0.549,0.658 -1.059,1.27 -1.416,1.699Z" style="fill:#fff;"/>
            </g>
        </g>
        <g id="Enemy5" serif:id="Enemy">
            <circle id="enemyPos5" serif:id="enemyPos" cx="532.333" cy="1769.42" r="22.5" style="fill:#232323;stroke:#8148c8;stroke-width:4.77px;"/>
            <g>
                <path d="M527.848,1765.89c0.331,0.397 0.513,0.898 0.513,1.416c-0,1.869 -0,6.366 -0,6.366c-0,0.689 -0.56,1.25 -1.25,1.25l-2.5,-0c-0.69,-0 -1.25,-0.561 -1.25,-1.25l-0,-8.369c-0,-0.732 0.458,-1.385 1.145,-1.634c0.688,-0.249 1.458,-0.04 1.926,0.522c0.549,0.658 1.059,1.27 1.416,1.699Z" style="fill:#fff;"/>
                <path d="M536.819,1765.89c-0.332,0.397 -0.513,0.898 -0.513,1.416l-0,6.366c-0,0.689 0.56,1.25 1.25,1.25l2.5,-0c0.69,-0 1.25,-0.561 1.25,-1.25l-0,-8.369c-0,-0.732 -0.458,-1.385 -1.146,-1.634c-0.687,-0.249 -1.457,-0.04 -1.925,0.522c-0.549,0.658 -1.059,1.27 -1.416,1.699Z" style="fill:#fff;"/>
            </g>
        </g>
        <g id="Enemy6" serif:id="Enemy">
            <circle id="enemyPos6" serif:id="enemyPos" cx="519" cy="1348.09" r="22.5" style="fill:#232323;stroke:#8148c8;stroke-width:4.77px;"/>
            <g>
                <path d="M514.515,1344.55c0.331,0.398 0.512,0.899 0.512,1.416c0,1.87 0,6.366 0,6.366c0,0.69 -0.56,1.25 -1.25,1.25l-2.5,0c-0.69,0 -1.25,-0.56 -1.25,-1.25l0,-8.369c0,-0.731 0.458,-1.384 1.146,-1.633c0.688,-0.249 1.458,-0.041 1.926,0.521c0.548,0.659 1.058,1.27 1.416,1.699Z" style="fill:#fff;"/>
                <path d="M523.485,1344.55c-0.331,0.398 -0.512,0.899 -0.512,1.416c-0,1.87 -0,6.366 -0,6.366c-0,0.69 0.56,1.25 1.25,1.25l2.5,0c0.69,0 1.25,-0.56 1.25,-1.25c-0,0 -0,-4.605 -0,-8.369c-0,-0.731 -0.458,-1.384 -1.146,-1.633c-0.688,-0.249 -1.458,-0.041 -1.926,0.521c-0.548,0.659 -1.058,1.27 -1.416,1.699Z" style="fill:#fff;"/>
            </g>
        </g>
        <g id="Enemy7" serif:id="Enemy">
            <circle id="enemyPos7" serif:id="enemyPos" cx="240.333" cy="1345.42" r="22.5" style="fill:#232323;stroke:#8148c8;stroke-width:4.77px;"/>
            <g>
                <path d="M235.848,1341.89c0.331,0.397 0.513,0.898 0.513,1.416l-0,6.366c-0,0.689 -0.56,1.25 -1.25,1.25l-2.5,-0c-0.69,-0 -1.25,-0.561 -1.25,-1.25c-0,-0 -0,-4.606 -0,-8.369c-0,-0.732 0.458,-1.385 1.145,-1.634c0.688,-0.249 1.458,-0.04 1.926,0.522c0.549,0.658 1.059,1.27 1.416,1.699Z" style="fill:#fff;"/>
                <path d="M244.819,1341.89c-0.332,0.397 -0.513,0.898 -0.513,1.416l-0,6.366c-0,0.689 0.56,1.25 1.25,1.25l2.5,-0c0.69,-0 1.25,-0.561 1.25,-1.25c-0,-0 -0,-4.606 -0,-8.369c-0,-0.732 -0.458,-1.385 -1.146,-1.634c-0.687,-0.249 -1.457,-0.04 -1.925,0.522c-0.549,0.658 -1.059,1.27 -1.416,1.699Z" style="fill:#fff;"/>
            </g>
        </g>
        <g id="Enemy8" serif:id="Enemy">
            <circle id="enemyPos8" serif:id="enemyPos" cx="336.333" cy="1040.09" r="22.5" style="fill:#232323;stroke:#8148c8;stroke-width:4.77px;"/>
            <g>
                <path d="M331.848,1036.55c0.331,0.398 0.513,0.899 0.513,1.416c-0,1.87 -0,6.366 -0,6.366c-0,0.69 -0.56,1.25 -1.25,1.25l-2.5,0c-0.69,0 -1.25,-0.56 -1.25,-1.25l-0,-8.369c-0,-0.731 0.458,-1.384 1.145,-1.633c0.688,-0.249 1.458,-0.041 1.926,0.521c0.549,0.659 1.059,1.27 1.416,1.699Z" style="fill:#fff;"/>
                <path d="M340.819,1036.55c-0.332,0.398 -0.513,0.899 -0.513,1.416c-0,1.87 -0,6.366 -0,6.366c-0,0.69 0.56,1.25 1.25,1.25l2.5,0c0.69,0 1.25,-0.56 1.25,-1.25l-0,-8.369c-0,-0.731 -0.458,-1.384 -1.146,-1.633c-0.687,-0.249 -1.457,-0.041 -1.925,0.521c-0.549,0.659 -1.059,1.27 -1.416,1.699Z" style="fill:#fff;"/>
            </g>
        </g>
        <g id="Enemy9" serif:id="Enemy">
            <circle id="enemyPos9" serif:id="enemyPos" cx="439" cy="1044.09" r="22.5" style="fill:#232323;stroke:#8148c8;stroke-width:4.77px;"/>
            <g>
                <path d="M434.515,1040.55c0.331,0.398 0.512,0.899 0.512,1.416c0,1.87 0,6.366 0,6.366c0,0.69 -0.56,1.25 -1.25,1.25l-2.5,0c-0.69,0 -1.25,-0.56 -1.25,-1.25l0,-8.369c0,-0.731 0.458,-1.384 1.146,-1.633c0.688,-0.249 1.458,-0.041 1.926,0.521c0.548,0.659 1.058,1.27 1.416,1.699Z" style="fill:#fff;"/>
                <path d="M443.485,1040.55c-0.331,0.398 -0.512,0.899 -0.512,1.416c-0,1.87 -0,6.366 -0,6.366c-0,0.69 0.56,1.25 1.25,1.25l2.5,0c0.69,0 1.25,-0.56 1.25,-1.25l-0,-8.369c-0,-0.731 -0.458,-1.384 -1.146,-1.633c-0.688,-0.249 -1.458,-0.041 -1.926,0.521c-0.548,0.659 -1.058,1.27 -1.416,1.699Z" style="fill:#fff;"/>
            </g>
        </g>
        <g id="Enemy10" serif:id="Enemy">
            <circle id="enemyPos10" serif:id="enemyPos" cx="376.333" cy="846.752" r="22.5" style="fill:#232323;stroke:#8148c8;stroke-width:4.77px;"/>
            <g>
                <path d="M371.848,843.22c0.331,0.398 0.513,0.899 0.513,1.416l-0,6.366c-0,0.69 -0.56,1.25 -1.25,1.25l-2.5,-0c-0.69,-0 -1.25,-0.56 -1.25,-1.25c-0,-0 -0,-4.606 -0,-8.369c-0,-0.731 0.458,-1.384 1.145,-1.633c0.688,-0.249 1.458,-0.041 1.926,0.521c0.549,0.658 1.059,1.27 1.416,1.699Z" style="fill:#fff;"/>
                <path d="M380.819,843.22c-0.332,0.398 -0.513,0.899 -0.513,1.416l-0,6.366c-0,0.69 0.56,1.25 1.25,1.25l2.5,-0c0.69,-0 1.25,-0.56 1.25,-1.25l-0,-8.369c-0,-0.731 -0.458,-1.384 -1.146,-1.633c-0.687,-0.249 -1.457,-0.041 -1.925,0.521c-0.549,0.658 -1.059,1.27 -1.416,1.699Z" style="fill:#fff;"/>
            </g>
        </g>
        <g id="Enemy11" serif:id="Enemy">
            <circle id="enemyPos11" serif:id="enemyPos" cx="449.667" cy="625.419" r="22.5" style="fill:#232323;stroke:#8148c8;stroke-width:4.77px;"/>
            <g>
                <path d="M445.181,621.887c0.332,0.397 0.513,0.898 0.513,1.416c0,1.869 0,6.366 0,6.366c0,0.689 -0.56,1.25 -1.25,1.25l-2.5,-0c-0.69,-0 -1.25,-0.561 -1.25,-1.25l0,-8.369c0,-0.732 0.458,-1.385 1.146,-1.634c0.687,-0.249 1.457,-0.04 1.925,0.522c0.549,0.658 1.059,1.27 1.416,1.699Z" style="fill:#fff;"/>
                <path d="M454.152,621.887c-0.331,0.397 -0.513,0.898 -0.513,1.416c0,1.869 0,6.366 0,6.366c0,0.689 0.56,1.25 1.25,1.25l2.5,-0c0.69,-0 1.25,-0.561 1.25,-1.25l0,-8.369c0,-0.732 -0.458,-1.385 -1.145,-1.634c-0.688,-0.249 -1.458,-0.04 -1.926,0.522c-0.549,0.658 -1.059,1.27 -1.416,1.699Z" style="fill:#fff;"/>
            </g>
        </g>
        <g id="Enemy12" serif:id="Enemy">
            <circle id="enemyPos12" serif:id="enemyPos" cx="269.667" cy="480.085" r="22.5" style="fill:#232323;stroke:#8148c8;stroke-width:4.77px;"/>
            <g>
                <path d="M265.181,476.553c0.332,0.398 0.513,0.899 0.513,1.416l0,6.366c0,0.69 -0.56,1.25 -1.25,1.25l-2.5,0c-0.69,0 -1.25,-0.56 -1.25,-1.25l0,-8.369c0,-0.731 0.458,-1.384 1.146,-1.633c0.687,-0.249 1.457,-0.041 1.925,0.521c0.549,0.659 1.059,1.27 1.416,1.699Z" style="fill:#fff;"/>
                <path d="M274.152,476.553c-0.331,0.398 -0.513,0.899 -0.513,1.416l0,6.366c0,0.69 0.56,1.25 1.25,1.25l2.5,0c0.69,0 1.25,-0.56 1.25,-1.25l0,-8.369c0,-0.731 -0.458,-1.384 -1.145,-1.633c-0.688,-0.249 -1.458,-0.041 -1.926,0.521c-0.549,0.659 -1.059,1.27 -1.416,1.699Z" style="fill:#fff;"/>
            </g>
        </g>
        <g id="Enemy13" serif:id="Enemy">
            <circle id="enemyPos13" serif:id="enemyPos" cx="384.333" cy="2316.09" r="22.5" style="fill:#232323;stroke:#8148c8;stroke-width:4.77px;"/>
            <g>
                <path d="M379.848,2312.55c0.331,0.398 0.513,0.899 0.513,1.416l-0,6.366c-0,0.69 -0.56,1.25 -1.25,1.25l-2.5,0c-0.69,0 -1.25,-0.56 -1.25,-1.25l-0,-8.369c-0,-0.731 0.458,-1.384 1.145,-1.633c0.688,-0.249 1.458,-0.041 1.926,0.521c0.549,0.659 1.059,1.27 1.416,1.699Z" style="fill:#fff;"/>
                <path d="M388.819,2312.55c-0.332,0.398 -0.513,0.899 -0.513,1.416c-0,1.87 -0,6.366 -0,6.366c-0,0.69 0.56,1.25 1.25,1.25l2.5,0c0.69,0 1.25,-0.56 1.25,-1.25l-0,-8.369c-0,-0.731 -0.458,-1.384 -1.146,-1.633c-0.687,-0.249 -1.457,-0.041 -1.925,0.521c-0.549,0.659 -1.059,1.27 -1.416,1.699Z" style="fill:#fff;"/>
            </g>
        </g>
        <g id="Enemy14" serif:id="Enemy">
            <circle id="enemyPos14" serif:id="enemyPos" cx="292.333" cy="2206.75" r="22.5" style="fill:#232323;stroke:#8148c8;stroke-width:4.77px;"/>
            <g>
                <path d="M287.848,2203.22c0.331,0.398 0.513,0.899 0.513,1.416l-0,6.366c-0,0.69 -0.56,1.25 -1.25,1.25l-2.5,-0c-0.69,-0 -1.25,-0.56 -1.25,-1.25l-0,-8.369c-0,-0.731 0.458,-1.384 1.145,-1.633c0.688,-0.249 1.458,-0.041 1.926,0.521c0.549,0.658 1.059,1.27 1.416,1.699Z" style="fill:#fff;"/>
                <path d="M296.819,2203.22c-0.332,0.398 -0.513,0.899 -0.513,1.416l-0,6.366c-0,0.69 0.56,1.25 1.25,1.25l2.5,-0c0.69,-0 1.25,-0.56 1.25,-1.25c-0,-0 -0,-4.606 -0,-8.369c-0,-0.731 -0.458,-1.384 -1.146,-1.633c-0.687,-0.249 -1.457,-0.041 -1.925,0.521c-0.549,0.658 -1.059,1.27 -1.416,1.699Z" style="fill:#fff;"/>
            </g>
        </g>
        <g id="Enemy15" serif:id="Enemy">
            <circle id="enemyPos15" serif:id="enemyPos" cx="519" cy="2650.75" r="22.5" style="fill:#232323;stroke:#8148c8;stroke-width:4.77px;"/>
            <g>
                <path d="M514.515,2647.22c0.331,0.398 0.512,0.899 0.512,1.416c0,1.87 0,6.366 0,6.366c0,0.69 -0.56,1.25 -1.25,1.25l-2.5,-0c-0.69,-0 -1.25,-0.56 -1.25,-1.25l0,-8.369c0,-0.731 0.458,-1.384 1.146,-1.633c0.688,-0.249 1.458,-0.041 1.926,0.521c0.548,0.658 1.058,1.27 1.416,1.699Z" style="fill:#fff;"/>
                <path d="M523.485,2647.22c-0.331,0.398 -0.512,0.899 -0.512,1.416c-0,1.87 -0,6.366 -0,6.366c-0,0.69 0.56,1.25 1.25,1.25l2.5,-0c0.69,-0 1.25,-0.56 1.25,-1.25l-0,-8.369c-0,-0.731 -0.458,-1.384 -1.146,-1.633c-0.688,-0.249 -1.458,-0.041 -1.926,0.521c-0.548,0.658 -1.058,1.27 -1.416,1.699Z" style="fill:#fff;"/>
            </g>
        </g>
        <path id="_-collision-3" serif:id="{collision}" d="M264.32,2965.27c-11.069,0.999 -16.591,0.006 -16.591,0.006c-16.974,-1.812 -33.461,-9.217 -46.46,-22.215c-14.516,-14.516 7.53,-12.319 17.424,-2.425c20.59,20.59 54.023,20.59 74.613,0c9.894,-9.894 31.94,-12.091 17.424,2.425c-12.986,12.986 -29.454,20.389 -46.41,22.209c-2.765,0.297 -9.013,0.806 -16.591,0.006" style="fill:#a10745;stroke:#a10745;stroke-width:25.03px;"/>
        <path id="_-collision-4" serif:id="{collision}" d="M506.476,2814.27c-11.069,0.999 -16.591,0.006 -16.591,0.006c-16.974,-1.812 -33.462,-9.217 -46.46,-22.215c-14.516,-14.516 7.53,-12.319 17.424,-2.425c20.59,20.59 54.023,20.59 74.612,0c9.895,-9.894 31.94,-12.091 17.425,2.425c-12.986,12.986 -29.454,20.389 -46.41,22.209c-2.765,0.297 -9.013,0.806 -16.591,0.006" style="fill:#a10745;stroke:#a10745;stroke-width:25.03px;"/>
        <circle id="_-collisionCircle-" serif:id="{collisionCircle}" cx="174.077" cy="2265.53" r="66" style="fill:#a10745;stroke:#a10745;stroke-width:25.03px;"/>
        <circle id="_-collisionCircle-1" serif:id="{collisionCircle}" cx="580.577" cy="1951.29" r="66" style="fill:#a10745;stroke:#a10745;stroke-width:25.03px;"/>
        <circle id="_-collisionCircle-2" serif:id="{collisionCircle}" cx="380.833" cy="1340.62" r="66" style="fill:#a10745;stroke:#a10745;stroke-width:25.03px;"/>
    </g>
</svg>
