<?xml version="1.0" encoding="UTF-8" standalone="no"?>
<!DOCTYPE svg PUBLIC "-//W3C//DTD SVG 1.1//EN" "http://www.w3.org/Graphics/SVG/1.1/DTD/svg11.dtd">
<svg width="750px" height="3100px" version="1.1" xmlns="http://www.w3.org/2000/svg" xmlns:xlink="http://www.w3.org/1999/xlink" xml:space="preserve" xmlns:serif="http://www.serif.com/" style="fill-rule:evenodd;clip-rule:evenodd;stroke-linecap:round;stroke-linejoin:round;stroke-miterlimit:1.5;">
    <rect id="Level-2" x="-0" y="0" width="750" height="3100" style="fill:#222;"/>
    <clipPath id="_clip1">
        <rect x="-0" y="0" width="750" height="3100"/>
    </clipPath>
    <g clip-path="url(#_clip1)">
        <path id="_-collision-" serif:id="{collision}" d="M580.6,3206.11c-0,-0 -0.018,-1467.88 -0.022,-1749.37c-0,-28.44 -15.988,-54.464 -41.356,-67.319c-9.268,-4.697 -19.176,-9.717 -28.686,-14.537c-29.418,-14.907 -47.957,-45.087 -47.956,-78.066c0.005,-79.361 0.013,-226.232 0.018,-298.356c0.001,-26.661 12.156,-51.867 33.017,-68.469c14.47,-11.516 31.546,-25.105 46.58,-37.069c24.252,-19.301 38.382,-48.606 38.382,-79.601c0,-39.788 0,-93.614 0,-121.045c0,-9.293 6.388,-17.367 15.431,-19.505c28.997,-6.932 50.569,-33.044 50.569,-64.155c0,-31.121 -21.585,-57.239 -50.588,-64.188c-9.015,-2.128 -15.385,-10.176 -15.385,-19.439c-0.027,-102.444 -0.027,-616.682 -0.027,-616.682" style="fill:none;stroke:#a10745;stroke-width:25px;"/>
        <path id="_-background-" serif:id="{background}" d="M580.577,3230.31c0,-0 0,-1489.84 0,-1773.57c0,-28.44 -15.987,-54.464 -41.356,-67.32c-9.268,-4.696 -19.175,-9.716 -28.685,-14.536c-29.418,-14.907 -47.957,-45.087 -47.956,-78.066c0.005,-79.361 0.013,-226.232 0.018,-298.356c0.001,-26.661 12.156,-51.867 33.017,-68.469c14.47,-11.516 31.546,-25.105 46.58,-37.069c24.252,-19.301 38.382,-48.606 38.382,-79.601c0,-39.788 0,-93.614 0,-121.045c0,-9.293 6.388,-17.367 15.431,-19.505c28.997,-6.932 50.569,-33.044 50.569,-64.155c0,-31.121 -21.585,-57.239 -50.588,-64.188c-9.015,-2.128 -15.385,-10.176 -15.385,-19.439c-0.027,-102.444 -0.027,-616.682 -0.027,-616.682l417.442,0l0,3322l-417.442,-0Z" style="fill:#5a2121;stroke:#a10745;stroke-width:25px;"/>
        <path id="_-collision-1" serif:id="{collision}" d="M174.077,-315.688c0,0 0.02,1890.99 0.022,2129.65c0,15.157 8.412,29.062 21.837,36.097c17.081,8.952 40.873,21.422 58.888,30.863c15.847,8.305 25.776,24.718 25.775,42.609c-0.005,130.233 -0.023,658.692 -0.028,785.513c-0,15.242 -12.214,27.672 -27.453,27.941c-11.009,0.194 -23.957,0.422 -36.152,0.637c-23.808,0.42 -42.889,19.84 -42.889,43.652c0,146.112 0,615.378 0,615.378" style="fill:none;stroke:#a10745;stroke-width:25px;"/>
        <path id="_-background-1" serif:id="{background}" d="M174.077,3386.31l-372.058,10.342l0,-3712.34l372.058,0c0,0 0.02,1890.99 0.022,2129.65c0,15.157 8.412,29.062 21.837,36.097c17.081,8.952 40.873,21.422 58.888,30.863c15.847,8.305 25.776,24.718 25.775,42.609c-0.005,130.233 -0.023,658.692 -0.028,785.513c-0,15.242 -12.214,27.672 -27.453,27.941c-11.009,0.194 -23.957,0.422 -36.152,0.637c-23.808,0.42 -42.889,19.84 -42.889,43.652c0,144.58 0,605.036 0,605.036Z" style="fill:#5a2121;stroke:#a10745;stroke-width:25px;"/>
        <g id="Hole">
            <circle id="holePos" cx="240.599" cy="2803.53" r="40"/>
        </g>
        <g id="Hole1" serif:id="Hole">
            <circle id="holePos1" serif:id="holePos" cx="523.266" cy="2642.2" r="40"/>
        </g>
        <g id="Hole2" serif:id="Hole">
            <circle id="holePos2" serif:id="holePos" cx="523.266" cy="2291.53" r="40"/>
        </g>
        <g id="Hole3" serif:id="Hole">
            <circle id="holePos3" serif:id="holePos" cx="483.266" cy="1794.2" r="40"/>
        </g>
        <g id="Hole4" serif:id="Hole">
            <circle id="holePos4" serif:id="holePos" cx="516.599" cy="1656.87" r="40"/>
        </g>
        <g id="Hole5" serif:id="Hole">
            <circle id="holePos5" serif:id="holePos" cx="317.932" cy="999.531" r="40"/>
        </g>
        <g id="Hole6" serif:id="Hole">
            <circle id="holePos6" serif:id="holePos" cx="512.599" cy="610.198" r="40"/>
        </g>
        <g id="Hole7" serif:id="Hole">
            <circle id="holePos7" serif:id="holePos" cx="265.932" cy="438.198" r="40"/>
        </g>
        <g id="Hole8" serif:id="Hole">
            <circle id="holePos8" serif:id="holePos" cx="236.599" cy="296.865" r="40"/>
        </g>
        <g id="Hole9" serif:id="Hole">
            <circle id="holePos9" serif:id="holePos" cx="250.599" cy="64.865" r="40"/>
        </g>
        <g id="Hole10" serif:id="Hole">
            <circle id="holePos10" serif:id="holePos" cx="233.932" cy="1804.87" r="40"/>
        </g>
        <g id="Hole11" serif:id="Hole">
            <circle id="holePos11" serif:id="holePos" cx="239.266" cy="1422.2" r="40"/>
        </g>
        <g id="Hole12" serif:id="Hole">
            <circle id="holePos12" serif:id="holePos" cx="523" cy="2199.53" r="40"/>
        </g>
        <g id="PowerPuck">
            <circle id="powerPos" cx="438.686" cy="2401.71" r="20.142" style="fill:#232323;stroke:#1cfe84;stroke-width:6.79px;"/>
            <g>
                <g id="eyes">
                    <g id="powerpuck-right-eye" serif:id="powerpuck/right-eye">
                        <g>
                            <path id="right-eye" d="M433.237,2400.3c-0.383,-0.102 -0.728,-0.292 -1.002,-0.555c-0.85,-0.816 -1.697,-1.635 -2.54,-2.457c-0.418,-0.407 -0.459,-1.174 0.123,-1.667c0.641,-0.543 1.281,-1.087 1.919,-1.632c0.573,-0.49 1.371,-0.398 1.798,-0c1.544,1.44 3.096,2.87 4.659,4.291c0.51,0.464 0.773,1.307 0.295,2.059c-0.484,0.76 -1.437,0.969 -2.137,0.784c-1.039,-0.274 -2.077,-0.548 -3.115,-0.823Z" style="fill:#fff;"/>
                            <path id="right-eye1" serif:id="right-eye" d="M437.786,2396.23c-0.111,-0.351 -0.316,-0.655 -0.579,-0.894c-0.851,-0.773 -1.699,-1.548 -2.545,-2.327c-0.424,-0.39 -1.215,-0.486 -1.781,0c-0.627,0.539 -1.255,1.076 -1.885,1.612c-0.576,0.49 -0.519,1.248 -0.105,1.645c1.542,1.483 3.093,2.955 4.655,4.417c0.542,0.508 1.47,0.705 2.278,0.268c0.757,-0.41 1.061,-1.257 0.842,-1.944c-0.296,-0.924 -0.589,-1.85 -0.88,-2.777Z" style="fill:#fff;"/>
                        </g>
                        <g>
                            <path id="right-eye2" serif:id="right-eye" d="M437.775,2406.45c-0.122,0.399 -0.351,0.745 -0.645,1.019c-0.994,0.924 -1.992,1.844 -2.993,2.761c-0.485,0.443 -1.432,0.629 -2.071,-0c-0.651,-0.641 -1.299,-1.285 -1.946,-1.93c-0.621,-0.618 -0.345,-1.48 0.121,-1.891c1.772,-1.56 3.533,-3.131 5.284,-4.714c0.555,-0.501 1.481,-0.713 2.299,-0.269c0.775,0.42 1.085,1.294 0.872,1.999c-0.304,1.01 -0.611,2.018 -0.921,3.025Z" style="fill:#fff;"/>
                            <path id="right-eye3" serif:id="right-eye" d="M433.163,2402.09c-0.406,0.106 -0.773,0.303 -1.075,0.569c-0.992,0.877 -1.988,1.75 -2.987,2.619c-0.462,0.402 -0.752,1.253 -0.139,1.868c0.634,0.637 1.271,1.272 1.909,1.906c0.63,0.625 1.57,0.434 2.05,-0c1.774,-1.605 3.537,-3.221 5.289,-4.85c0.526,-0.489 0.79,-1.372 0.288,-2.153c-0.492,-0.764 -1.439,-0.978 -2.148,-0.792c-1.062,0.278 -2.124,0.556 -3.187,0.833Z" style="fill:#fff;"/>
                        </g>
                    </g>
                    <g id="powerpuck-left-eye" serif:id="powerpuck/left-eye">
                        <g>
                            <path id="right-eye4" serif:id="right-eye" d="M439.647,2396.23c0.105,-0.351 0.306,-0.655 0.565,-0.894c0.839,-0.773 1.676,-1.548 2.51,-2.327c0.423,-0.395 1.214,-0.481 1.781,0c0.636,0.539 1.272,1.076 1.909,1.612c0.577,0.485 0.543,1.242 0.13,1.645c-1.519,1.483 -3.049,2.955 -4.588,4.417c-0.54,0.513 -1.467,0.701 -2.275,0.268c-0.756,-0.406 -1.082,-1.25 -0.871,-1.944c0.282,-0.924 0.561,-1.85 0.839,-2.777Z" style="fill:#fff;"/>
                            <path id="right-eye5" serif:id="right-eye" d="M444.257,2400.3c0.381,-0.102 0.723,-0.291 0.994,-0.555c0.837,-0.816 1.672,-1.635 2.503,-2.457c0.417,-0.412 0.434,-1.18 -0.149,-1.667c-0.649,-0.543 -1.297,-1.087 -1.943,-1.632c-0.574,-0.485 -1.372,-0.403 -1.798,-0c-1.522,1.44 -3.054,2.87 -4.594,4.291c-0.508,0.468 -0.75,1.313 -0.264,2.059c0.492,0.756 1.445,0.97 2.149,0.784c1.034,-0.274 2.068,-0.548 3.102,-0.823Z" style="fill:#fff;"/>
                        </g>
                        <g>
                            <path id="right-eye6" serif:id="right-eye" d="M444.358,2402.09c0.409,0.106 0.778,0.303 1.083,0.569c1.006,0.877 2.015,1.75 3.027,2.619c0.461,0.396 0.776,1.247 0.167,1.868c-0.625,0.637 -1.252,1.272 -1.88,1.906c-0.627,0.631 -1.57,0.428 -2.051,-0c-1.798,-1.605 -3.585,-3.221 -5.361,-4.85c-0.529,-0.485 -0.815,-1.365 -0.321,-2.153c0.483,-0.768 1.43,-0.976 2.136,-0.792c1.067,0.278 2.133,0.556 3.2,0.833Z" style="fill:#fff;"/>
                            <path id="right-eye7" serif:id="right-eye" d="M439.811,2406.45c0.129,0.399 0.362,0.745 0.66,1.019c1.008,0.924 2.02,1.844 3.035,2.761c0.485,0.437 1.436,0.635 2.071,-0c0.641,-0.641 1.28,-1.285 1.918,-1.93c0.617,-0.624 0.316,-1.485 -0.15,-1.891c-1.796,-1.56 -3.581,-3.131 -5.355,-4.714c-0.557,-0.497 -1.485,-0.716 -2.303,-0.269c-0.775,0.423 -1.064,1.301 -0.842,1.999c0.319,1.01 0.641,2.018 0.966,3.025Z" style="fill:#fff;"/>
                        </g>
                    </g>
                </g>
            </g>
        </g>
        <g id="PowerPuck1" serif:id="PowerPuck">
            <circle id="powerPos1" serif:id="powerPos" cx="360.019" cy="1584.38" r="20.142" style="fill:#232323;stroke:#1cfe84;stroke-width:6.79px;"/>
            <g>
                <g id="eyes1" serif:id="eyes">
                    <g id="powerpuck-right-eye1" serif:id="powerpuck/right-eye">
                        <g>
                            <path id="right-eye8" serif:id="right-eye" d="M354.57,1582.97c-0.383,-0.101 -0.728,-0.291 -1.002,-0.554c-0.85,-0.816 -1.697,-1.635 -2.54,-2.458c-0.417,-0.406 -0.459,-1.173 0.124,-1.666c0.64,-0.543 1.28,-1.087 1.919,-1.633c0.572,-0.489 1.37,-0.398 1.797,0c1.544,1.44 3.097,2.87 4.659,4.291c0.51,0.465 0.773,1.308 0.295,2.06c-0.483,0.76 -1.437,0.969 -2.137,0.784c-1.039,-0.274 -2.077,-0.549 -3.115,-0.824Z" style="fill:#fff;"/>
                            <path id="right-eye9" serif:id="right-eye" d="M359.119,1578.9c-0.111,-0.352 -0.316,-0.655 -0.578,-0.894c-0.852,-0.773 -1.7,-1.549 -2.546,-2.327c-0.424,-0.39 -1.215,-0.486 -1.781,-0c-0.627,0.538 -1.255,1.076 -1.884,1.611c-0.577,0.491 -0.519,1.248 -0.106,1.646c1.542,1.483 3.094,2.955 4.655,4.417c0.542,0.508 1.47,0.705 2.279,0.267c0.756,-0.409 1.06,-1.257 0.841,-1.943c-0.295,-0.925 -0.589,-1.85 -0.88,-2.777Z" style="fill:#fff;"/>
                        </g>
                        <g>
                            <path id="right-eye10" serif:id="right-eye" d="M359.109,1589.12c-0.123,0.399 -0.351,0.745 -0.645,1.018c-0.995,0.925 -1.992,1.845 -2.994,2.761c-0.485,0.444 -1.432,0.63 -2.07,0c-0.651,-0.641 -1.3,-1.284 -1.947,-1.929c-0.62,-0.619 -0.345,-1.481 0.121,-1.891c1.772,-1.56 3.533,-3.131 5.284,-4.714c0.555,-0.501 1.481,-0.713 2.299,-0.269c0.775,0.419 1.086,1.293 0.873,1.999c-0.305,1.009 -0.612,2.018 -0.921,3.025Z" style="fill:#fff;"/>
                            <path id="right-eye11" serif:id="right-eye" d="M354.496,1584.76c-0.406,0.106 -0.773,0.304 -1.074,0.57c-0.993,0.876 -1.989,1.749 -2.988,2.619c-0.461,0.401 -0.751,1.252 -0.139,1.867c0.635,0.638 1.271,1.273 1.909,1.906c0.63,0.626 1.57,0.435 2.051,0c1.774,-1.604 3.537,-3.22 5.288,-4.849c0.527,-0.49 0.79,-1.372 0.288,-2.153c-0.491,-0.764 -1.438,-0.978 -2.148,-0.792c-1.062,0.278 -2.124,0.555 -3.187,0.832Z" style="fill:#fff;"/>
                        </g>
                    </g>
                    <g id="powerpuck-left-eye1" serif:id="powerpuck/left-eye">
                        <g>
                            <path id="right-eye12" serif:id="right-eye" d="M360.98,1578.9c0.105,-0.351 0.306,-0.655 0.565,-0.894c0.84,-0.773 1.677,-1.549 2.511,-2.327c0.423,-0.395 1.213,-0.482 1.781,-0c0.635,0.538 1.271,1.076 1.908,1.611c0.577,0.485 0.544,1.243 0.131,1.646c-1.52,1.483 -3.049,2.955 -4.589,4.417c-0.539,0.512 -1.467,0.701 -2.275,0.267c-0.756,-0.405 -1.081,-1.249 -0.87,-1.943c0.281,-0.925 0.561,-1.85 0.838,-2.777Z" style="fill:#fff;"/>
                            <path id="right-eye13" serif:id="right-eye" d="M365.59,1582.97c0.381,-0.101 0.724,-0.29 0.994,-0.554c0.838,-0.816 1.672,-1.635 2.503,-2.458c0.417,-0.412 0.434,-1.179 -0.149,-1.666c-0.649,-0.543 -1.296,-1.087 -1.943,-1.633c-0.574,-0.484 -1.372,-0.403 -1.798,0c-1.522,1.44 -3.053,2.87 -4.594,4.291c-0.508,0.469 -0.749,1.314 -0.264,2.06c0.492,0.756 1.445,0.97 2.149,0.784c1.034,-0.274 2.069,-0.549 3.102,-0.824Z" style="fill:#fff;"/>
                        </g>
                        <g>
                            <path id="right-eye14" serif:id="right-eye" d="M365.691,1584.76c0.409,0.107 0.778,0.304 1.083,0.57c1.006,0.876 2.015,1.749 3.027,2.619c0.462,0.396 0.776,1.246 0.167,1.867c-0.625,0.638 -1.251,1.273 -1.88,1.906c-0.627,0.632 -1.57,0.429 -2.05,0c-1.799,-1.604 -3.586,-3.22 -5.362,-4.849c-0.529,-0.486 -0.815,-1.366 -0.32,-2.153c0.482,-0.768 1.43,-0.977 2.136,-0.792c1.066,0.278 2.132,0.555 3.199,0.832Z" style="fill:#fff;"/>
                            <path id="right-eye15" serif:id="right-eye" d="M361.144,1589.12c0.129,0.399 0.363,0.745 0.661,1.018c1.008,0.925 2.019,1.845 3.035,2.761c0.485,0.438 1.435,0.636 2.07,0c0.641,-0.641 1.281,-1.284 1.918,-1.929c0.617,-0.625 0.316,-1.486 -0.15,-1.891c-1.795,-1.56 -3.58,-3.131 -5.355,-4.714c-0.557,-0.497 -1.484,-0.717 -2.303,-0.269c-0.775,0.423 -1.063,1.301 -0.842,1.999c0.32,1.009 0.642,2.018 0.966,3.025Z" style="fill:#fff;"/>
                        </g>
                    </g>
                </g>
            </g>
        </g>
        <g id="PowerPuck2" serif:id="PowerPuck">
            <circle id="powerPos2" serif:id="powerPos" cx="520.019" cy="831.047" r="20.142" style="fill:#232323;stroke:#1cfe84;stroke-width:6.79px;"/>
            <g>
                <g id="eyes2" serif:id="eyes">
                    <g id="powerpuck-right-eye2" serif:id="powerpuck/right-eye">
                        <g>
                            <path id="right-eye16" serif:id="right-eye" d="M514.57,829.632c-0.383,-0.102 -0.728,-0.291 -1.002,-0.554c-0.85,-0.816 -1.697,-1.635 -2.54,-2.458c-0.417,-0.406 -0.459,-1.173 0.124,-1.667c0.64,-0.542 1.28,-1.086 1.919,-1.632c0.572,-0.489 1.37,-0.398 1.797,-0c1.544,1.44 3.097,2.87 4.659,4.291c0.51,0.464 0.773,1.307 0.295,2.06c-0.483,0.76 -1.437,0.968 -2.137,0.783c-1.039,-0.273 -2.077,-0.548 -3.115,-0.823Z" style="fill:#fff;"/>
                            <path id="right-eye17" serif:id="right-eye" d="M519.119,825.563c-0.111,-0.352 -0.316,-0.656 -0.579,-0.894c-0.851,-0.773 -1.699,-1.549 -2.545,-2.328c-0.424,-0.39 -1.215,-0.486 -1.781,0c-0.627,0.539 -1.255,1.076 -1.884,1.612c-0.577,0.491 -0.519,1.248 -0.106,1.646c1.542,1.482 3.094,2.954 4.655,4.417c0.542,0.507 1.47,0.704 2.279,0.267c0.756,-0.409 1.06,-1.257 0.841,-1.943c-0.295,-0.925 -0.589,-1.851 -0.88,-2.777Z" style="fill:#fff;"/>
                        </g>
                        <g>
                            <path id="right-eye18" serif:id="right-eye" d="M519.109,835.786c-0.123,0.399 -0.351,0.745 -0.645,1.019c-0.995,0.924 -1.992,1.845 -2.994,2.761c-0.485,0.444 -1.432,0.629 -2.07,0c-0.651,-0.641 -1.3,-1.284 -1.947,-1.929c-0.62,-0.619 -0.345,-1.481 0.121,-1.891c1.772,-1.56 3.533,-3.131 5.284,-4.714c0.555,-0.502 1.481,-0.713 2.299,-0.27c0.775,0.42 1.086,1.294 0.873,2c-0.305,1.009 -0.612,2.017 -0.921,3.024Z" style="fill:#fff;"/>
                            <path id="right-eye19" serif:id="right-eye" d="M514.496,831.422c-0.406,0.106 -0.773,0.303 -1.074,0.57c-0.993,0.876 -1.989,1.749 -2.988,2.618c-0.461,0.402 -0.751,1.253 -0.139,1.868c0.635,0.637 1.271,1.273 1.909,1.906c0.63,0.626 1.57,0.434 2.051,-0c1.774,-1.604 3.537,-3.221 5.288,-4.849c0.527,-0.49 0.79,-1.372 0.288,-2.153c-0.491,-0.764 -1.438,-0.979 -2.148,-0.793c-1.062,0.278 -2.124,0.556 -3.187,0.833Z" style="fill:#fff;"/>
                        </g>
                    </g>
                    <g id="powerpuck-left-eye2" serif:id="powerpuck/left-eye">
                        <g>
                            <path id="right-eye20" serif:id="right-eye" d="M520.98,825.563c0.105,-0.351 0.306,-0.656 0.565,-0.894c0.84,-0.773 1.677,-1.549 2.511,-2.328c0.423,-0.394 1.213,-0.481 1.781,0c0.635,0.539 1.271,1.076 1.908,1.612c0.577,0.485 0.544,1.243 0.131,1.646c-1.52,1.483 -3.049,2.954 -4.589,4.417c-0.539,0.512 -1.467,0.7 -2.275,0.267c-0.756,-0.406 -1.081,-1.249 -0.87,-1.943c0.281,-0.925 0.561,-1.851 0.838,-2.777Z" style="fill:#fff;"/>
                            <path id="right-eye21" serif:id="right-eye" d="M525.59,829.632c0.381,-0.101 0.724,-0.291 0.994,-0.554c0.838,-0.816 1.672,-1.635 2.503,-2.458c0.417,-0.412 0.434,-1.179 -0.149,-1.667c-0.649,-0.542 -1.296,-1.086 -1.943,-1.632c-0.574,-0.484 -1.372,-0.403 -1.798,-0c-1.522,1.44 -3.053,2.87 -4.594,4.291c-0.508,0.469 -0.749,1.314 -0.264,2.06c0.492,0.756 1.445,0.97 2.149,0.783c1.034,-0.273 2.069,-0.548 3.102,-0.823Z" style="fill:#fff;"/>
                        </g>
                        <g>
                            <path id="right-eye22" serif:id="right-eye" d="M525.691,831.422c0.409,0.106 0.778,0.304 1.083,0.57c1.006,0.876 2.015,1.749 3.027,2.618c0.462,0.397 0.776,1.247 0.167,1.868c-0.625,0.637 -1.251,1.273 -1.88,1.906c-0.627,0.632 -1.57,0.429 -2.05,-0c-1.799,-1.604 -3.586,-3.221 -5.362,-4.849c-0.529,-0.486 -0.815,-1.366 -0.32,-2.153c0.482,-0.768 1.43,-0.977 2.136,-0.793c1.066,0.278 2.132,0.556 3.199,0.833Z" style="fill:#fff;"/>
                            <path id="right-eye23" serif:id="right-eye" d="M521.144,835.786c0.129,0.4 0.363,0.745 0.661,1.019c1.008,0.924 2.019,1.845 3.035,2.761c0.485,0.438 1.435,0.635 2.07,0c0.641,-0.641 1.281,-1.284 1.918,-1.929c0.617,-0.625 0.316,-1.486 -0.15,-1.891c-1.795,-1.56 -3.58,-3.131 -5.355,-4.714c-0.557,-0.497 -1.484,-0.717 -2.303,-0.27c-0.775,0.424 -1.063,1.302 -0.842,2c0.32,1.009 0.642,2.017 0.966,3.024Z" style="fill:#fff;"/>
                        </g>
                    </g>
                </g>
            </g>
        </g>
        <g id="PowerPuck3" serif:id="PowerPuck">
            <circle id="powerPos3" serif:id="powerPos" cx="404.019" cy="267.047" r="20.142" style="fill:#232323;stroke:#1cfe84;stroke-width:6.79px;"/>
            <g>
                <g id="eyes3" serif:id="eyes">
                    <g id="powerpuck-right-eye3" serif:id="powerpuck/right-eye">
                        <g>
                            <path id="right-eye24" serif:id="right-eye" d="M398.57,265.632c-0.383,-0.102 -0.728,-0.291 -1.002,-0.554c-0.85,-0.816 -1.697,-1.635 -2.54,-2.458c-0.417,-0.406 -0.459,-1.173 0.124,-1.667c0.64,-0.542 1.28,-1.086 1.919,-1.632c0.572,-0.489 1.37,-0.398 1.797,0c1.544,1.44 3.097,2.87 4.659,4.291c0.51,0.464 0.773,1.308 0.295,2.06c-0.483,0.76 -1.437,0.968 -2.137,0.783c-1.039,-0.273 -2.077,-0.548 -3.115,-0.823Z" style="fill:#fff;"/>
                            <path id="right-eye25" serif:id="right-eye" d="M403.119,261.563c-0.111,-0.352 -0.316,-0.656 -0.578,-0.894c-0.852,-0.773 -1.7,-1.549 -2.546,-2.328c-0.424,-0.39 -1.215,-0.486 -1.781,0c-0.627,0.539 -1.255,1.076 -1.884,1.612c-0.577,0.491 -0.519,1.248 -0.106,1.646c1.542,1.482 3.094,2.954 4.655,4.417c0.542,0.507 1.47,0.704 2.279,0.267c0.756,-0.409 1.06,-1.257 0.841,-1.943c-0.295,-0.925 -0.589,-1.851 -0.88,-2.777Z" style="fill:#fff;"/>
                        </g>
                        <g>
                            <path id="right-eye26" serif:id="right-eye" d="M403.109,271.786c-0.123,0.399 -0.351,0.745 -0.645,1.019c-0.995,0.924 -1.992,1.845 -2.994,2.761c-0.485,0.444 -1.432,0.629 -2.07,0c-0.651,-0.641 -1.3,-1.284 -1.947,-1.929c-0.62,-0.619 -0.345,-1.481 0.121,-1.891c1.772,-1.56 3.533,-3.131 5.284,-4.714c0.555,-0.502 1.481,-0.713 2.299,-0.27c0.775,0.42 1.086,1.294 0.873,2c-0.305,1.009 -0.612,2.017 -0.921,3.024Z" style="fill:#fff;"/>
                            <path id="right-eye27" serif:id="right-eye" d="M398.496,267.422c-0.406,0.106 -0.773,0.303 -1.074,0.57c-0.993,0.876 -1.989,1.749 -2.988,2.619c-0.461,0.401 -0.751,1.252 -0.139,1.867c0.635,0.637 1.271,1.273 1.909,1.906c0.63,0.626 1.57,0.434 2.051,-0c1.774,-1.604 3.537,-3.221 5.288,-4.849c0.527,-0.49 0.79,-1.372 0.288,-2.153c-0.491,-0.764 -1.438,-0.979 -2.148,-0.793c-1.062,0.278 -2.124,0.556 -3.187,0.833Z" style="fill:#fff;"/>
                        </g>
                    </g>
                    <g id="powerpuck-left-eye3" serif:id="powerpuck/left-eye">
                        <g>
                            <path id="right-eye28" serif:id="right-eye" d="M404.98,261.563c0.105,-0.351 0.306,-0.656 0.565,-0.894c0.84,-0.773 1.677,-1.549 2.511,-2.328c0.423,-0.394 1.213,-0.481 1.781,0c0.635,0.539 1.271,1.076 1.908,1.612c0.577,0.485 0.544,1.243 0.131,1.646c-1.52,1.483 -3.049,2.954 -4.589,4.417c-0.539,0.512 -1.467,0.701 -2.275,0.267c-0.756,-0.406 -1.081,-1.249 -0.87,-1.943c0.281,-0.925 0.561,-1.851 0.838,-2.777Z" style="fill:#fff;"/>
                            <path id="right-eye29" serif:id="right-eye" d="M409.59,265.632c0.381,-0.101 0.724,-0.291 0.994,-0.554c0.838,-0.816 1.672,-1.635 2.503,-2.458c0.417,-0.412 0.434,-1.179 -0.149,-1.667c-0.649,-0.542 -1.296,-1.086 -1.943,-1.632c-0.574,-0.484 -1.372,-0.403 -1.798,0c-1.522,1.44 -3.053,2.87 -4.594,4.291c-0.508,0.469 -0.749,1.314 -0.264,2.06c0.492,0.756 1.445,0.97 2.149,0.783c1.034,-0.273 2.069,-0.548 3.102,-0.823Z" style="fill:#fff;"/>
                        </g>
                        <g>
                            <path id="right-eye30" serif:id="right-eye" d="M409.691,267.422c0.409,0.106 0.778,0.304 1.083,0.57c1.006,0.876 2.015,1.749 3.027,2.619c0.462,0.396 0.776,1.246 0.167,1.867c-0.625,0.637 -1.251,1.273 -1.88,1.906c-0.627,0.632 -1.57,0.429 -2.05,-0c-1.799,-1.604 -3.586,-3.221 -5.362,-4.849c-0.529,-0.486 -0.815,-1.366 -0.32,-2.153c0.482,-0.768 1.43,-0.977 2.136,-0.793c1.066,0.278 2.132,0.556 3.199,0.833Z" style="fill:#fff;"/>
                            <path id="right-eye31" serif:id="right-eye" d="M405.144,271.786c0.129,0.4 0.363,0.745 0.661,1.019c1.008,0.924 2.019,1.845 3.035,2.761c0.485,0.438 1.435,0.635 2.07,0c0.641,-0.641 1.281,-1.284 1.918,-1.929c0.617,-0.625 0.316,-1.486 -0.15,-1.891c-1.795,-1.56 -3.58,-3.131 -5.355,-4.714c-0.557,-0.497 -1.484,-0.717 -2.303,-0.27c-0.775,0.424 -1.063,1.302 -0.842,2c0.32,1.009 0.642,2.017 0.966,3.024Z" style="fill:#fff;"/>
                        </g>
                    </g>
                </g>
            </g>
        </g>
        <g id="PowerPuck4" serif:id="PowerPuck">
            <circle id="powerPos4" serif:id="powerPos" cx="226.686" cy="1151.05" r="20.142" style="fill:#232323;stroke:#1cfe84;stroke-width:6.79px;"/>
            <g>
                <g id="eyes4" serif:id="eyes">
                    <g id="powerpuck-right-eye4" serif:id="powerpuck/right-eye">
                        <g>
                            <path id="right-eye32" serif:id="right-eye" d="M221.237,1149.63c-0.383,-0.102 -0.728,-0.291 -1.002,-0.554c-0.85,-0.816 -1.697,-1.635 -2.54,-2.458c-0.418,-0.406 -0.459,-1.174 0.123,-1.667c0.641,-0.542 1.281,-1.086 1.919,-1.632c0.573,-0.489 1.371,-0.398 1.798,-0c1.544,1.44 3.097,2.87 4.659,4.291c0.51,0.464 0.773,1.307 0.295,2.06c-0.484,0.76 -1.437,0.968 -2.137,0.783c-1.039,-0.273 -2.077,-0.548 -3.115,-0.823Z" style="fill:#fff;"/>
                            <path id="right-eye33" serif:id="right-eye" d="M225.786,1145.56c-0.111,-0.352 -0.316,-0.656 -0.579,-0.894c-0.851,-0.773 -1.699,-1.549 -2.545,-2.328c-0.424,-0.39 -1.215,-0.486 -1.781,0c-0.627,0.539 -1.255,1.076 -1.885,1.612c-0.576,0.491 -0.519,1.248 -0.105,1.646c1.542,1.482 3.093,2.954 4.655,4.417c0.542,0.507 1.47,0.704 2.278,0.267c0.757,-0.409 1.061,-1.257 0.842,-1.943c-0.296,-0.925 -0.589,-1.851 -0.88,-2.777Z" style="fill:#fff;"/>
                        </g>
                        <g>
                            <path id="right-eye34" serif:id="right-eye" d="M225.775,1155.79c-0.122,0.399 -0.351,0.745 -0.645,1.019c-0.994,0.924 -1.992,1.845 -2.993,2.761c-0.485,0.444 -1.432,0.629 -2.071,0c-0.651,-0.641 -1.299,-1.284 -1.946,-1.929c-0.621,-0.619 -0.345,-1.481 0.121,-1.891c1.772,-1.56 3.533,-3.131 5.284,-4.714c0.555,-0.502 1.481,-0.713 2.299,-0.27c0.775,0.42 1.085,1.294 0.872,2c-0.304,1.009 -0.611,2.017 -0.921,3.024Z" style="fill:#fff;"/>
                            <path id="right-eye35" serif:id="right-eye" d="M221.163,1151.42c-0.406,0.106 -0.773,0.303 -1.075,0.57c-0.992,0.876 -1.988,1.749 -2.987,2.618c-0.462,0.402 -0.752,1.253 -0.139,1.868c0.634,0.637 1.271,1.273 1.909,1.906c0.63,0.626 1.57,0.434 2.05,-0c1.774,-1.604 3.537,-3.221 5.289,-4.849c0.526,-0.49 0.79,-1.372 0.288,-2.153c-0.492,-0.764 -1.439,-0.979 -2.148,-0.793c-1.062,0.278 -2.124,0.556 -3.187,0.833Z" style="fill:#fff;"/>
                        </g>
                    </g>
                    <g id="powerpuck-left-eye4" serif:id="powerpuck/left-eye">
                        <g>
                            <path id="right-eye36" serif:id="right-eye" d="M227.647,1145.56c0.105,-0.351 0.306,-0.656 0.565,-0.894c0.839,-0.773 1.676,-1.549 2.51,-2.328c0.423,-0.394 1.214,-0.481 1.781,0c0.636,0.539 1.272,1.076 1.909,1.612c0.577,0.485 0.543,1.243 0.13,1.646c-1.519,1.483 -3.049,2.954 -4.588,4.417c-0.54,0.512 -1.467,0.7 -2.275,0.267c-0.756,-0.406 -1.082,-1.249 -0.871,-1.943c0.282,-0.925 0.561,-1.851 0.839,-2.777Z" style="fill:#fff;"/>
                            <path id="right-eye37" serif:id="right-eye" d="M232.257,1149.63c0.381,-0.101 0.723,-0.291 0.994,-0.554c0.837,-0.816 1.672,-1.635 2.503,-2.458c0.417,-0.412 0.434,-1.179 -0.149,-1.667c-0.649,-0.542 -1.297,-1.086 -1.943,-1.632c-0.574,-0.484 -1.372,-0.403 -1.798,-0c-1.522,1.44 -3.054,2.87 -4.594,4.291c-0.508,0.468 -0.75,1.314 -0.264,2.06c0.492,0.756 1.445,0.97 2.149,0.783c1.034,-0.273 2.068,-0.548 3.102,-0.823Z" style="fill:#fff;"/>
                        </g>
                        <g>
                            <path id="right-eye38" serif:id="right-eye" d="M232.358,1151.42c0.409,0.106 0.778,0.304 1.083,0.57c1.006,0.876 2.015,1.749 3.027,2.618c0.461,0.397 0.776,1.247 0.167,1.868c-0.625,0.637 -1.252,1.273 -1.88,1.906c-0.627,0.632 -1.57,0.429 -2.051,-0c-1.798,-1.604 -3.585,-3.221 -5.361,-4.849c-0.529,-0.486 -0.815,-1.366 -0.321,-2.153c0.483,-0.768 1.43,-0.977 2.136,-0.793c1.067,0.278 2.133,0.556 3.2,0.833Z" style="fill:#fff;"/>
                            <path id="right-eye39" serif:id="right-eye" d="M227.811,1155.79c0.129,0.4 0.362,0.745 0.66,1.019c1.008,0.924 2.02,1.845 3.035,2.761c0.485,0.438 1.436,0.635 2.071,0c0.641,-0.641 1.28,-1.284 1.918,-1.929c0.617,-0.625 0.316,-1.486 -0.15,-1.891c-1.796,-1.56 -3.581,-3.131 -5.355,-4.714c-0.557,-0.497 -1.485,-0.717 -2.303,-0.27c-0.775,0.424 -1.064,1.302 -0.842,2c0.319,1.009 0.641,2.017 0.966,3.024Z" style="fill:#fff;"/>
                        </g>
                    </g>
                </g>
            </g>
        </g>
        <g id="PowerPuck5" serif:id="PowerPuck">
            <circle id="powerPos5" serif:id="powerPos" cx="333.353" cy="2650.89" r="20.142" style="fill:#232323;stroke:#1cfe84;stroke-width:6.79px;"/>
            <g>
                <g id="eyes5" serif:id="eyes">
                    <g id="powerpuck-right-eye5" serif:id="powerpuck/right-eye">
                        <g>
                            <path id="right-eye40" serif:id="right-eye" d="M327.903,2649.47c-0.383,-0.102 -0.728,-0.291 -1.002,-0.554c-0.849,-0.816 -1.696,-1.635 -2.54,-2.458c-0.417,-0.406 -0.458,-1.173 0.124,-1.667c0.641,-0.542 1.28,-1.086 1.919,-1.632c0.572,-0.489 1.371,-0.398 1.797,0c1.544,1.44 3.097,2.87 4.659,4.291c0.511,0.464 0.774,1.308 0.295,2.06c-0.483,0.76 -1.436,0.968 -2.137,0.783c-1.038,-0.273 -2.077,-0.548 -3.115,-0.823Z" style="fill:#fff;"/>
                            <path id="right-eye41" serif:id="right-eye" d="M332.452,2645.41c-0.11,-0.352 -0.315,-0.656 -0.578,-0.894c-0.851,-0.773 -1.7,-1.549 -2.546,-2.328c-0.423,-0.39 -1.215,-0.486 -1.781,0c-0.627,0.539 -1.255,1.076 -1.884,1.612c-0.576,0.491 -0.519,1.248 -0.105,1.646c1.541,1.483 3.093,2.954 4.655,4.417c0.542,0.507 1.47,0.704 2.278,0.267c0.757,-0.409 1.061,-1.257 0.842,-1.943c-0.296,-0.925 -0.589,-1.851 -0.881,-2.777Z" style="fill:#fff;"/>
                        </g>
                        <g>
                            <path id="right-eye42" serif:id="right-eye" d="M332.442,2655.63c-0.122,0.399 -0.351,0.745 -0.645,1.019c-0.994,0.924 -1.992,1.845 -2.994,2.761c-0.485,0.444 -1.431,0.629 -2.07,0c-0.651,-0.641 -1.3,-1.284 -1.947,-1.929c-0.62,-0.619 -0.345,-1.481 0.121,-1.891c1.772,-1.56 3.534,-3.131 5.285,-4.714c0.554,-0.502 1.48,-0.713 2.299,-0.27c0.774,0.42 1.085,1.294 0.872,2c-0.305,1.009 -0.612,2.017 -0.921,3.024Z" style="fill:#fff;"/>
                            <path id="right-eye43" serif:id="right-eye" d="M327.83,2651.26c-0.407,0.106 -0.773,0.303 -1.075,0.57c-0.993,0.876 -1.989,1.749 -2.988,2.619c-0.461,0.401 -0.751,1.252 -0.138,1.867c0.634,0.637 1.27,1.273 1.908,1.906c0.631,0.626 1.57,0.435 2.051,-0c1.774,-1.604 3.537,-3.22 5.288,-4.849c0.527,-0.49 0.791,-1.372 0.288,-2.153c-0.491,-0.764 -1.438,-0.979 -2.148,-0.793c-1.062,0.278 -2.124,0.556 -3.186,0.833Z" style="fill:#fff;"/>
                        </g>
                    </g>
                    <g id="powerpuck-left-eye5" serif:id="powerpuck/left-eye">
                        <g>
                            <path id="right-eye44" serif:id="right-eye" d="M334.314,2645.41c0.105,-0.351 0.305,-0.656 0.565,-0.894c0.839,-0.773 1.676,-1.549 2.51,-2.328c0.423,-0.394 1.213,-0.481 1.781,0c0.635,0.539 1.271,1.076 1.909,1.612c0.577,0.485 0.543,1.243 0.13,1.646c-1.52,1.483 -3.049,2.955 -4.589,4.417c-0.539,0.512 -1.466,0.701 -2.274,0.267c-0.756,-0.406 -1.082,-1.249 -0.871,-1.943c0.282,-0.925 0.561,-1.851 0.839,-2.777Z" style="fill:#fff;"/>
                            <path id="right-eye45" serif:id="right-eye" d="M338.924,2649.47c0.38,-0.101 0.723,-0.291 0.993,-0.554c0.838,-0.816 1.672,-1.635 2.504,-2.458c0.416,-0.412 0.434,-1.179 -0.149,-1.667c-0.649,-0.542 -1.297,-1.086 -1.944,-1.632c-0.574,-0.484 -1.371,-0.403 -1.797,0c-1.523,1.44 -3.054,2.87 -4.595,4.291c-0.507,0.469 -0.749,1.314 -0.264,2.06c0.492,0.756 1.445,0.97 2.149,0.783c1.035,-0.273 2.069,-0.548 3.103,-0.823Z" style="fill:#fff;"/>
                        </g>
                        <g>
                            <path id="right-eye46" serif:id="right-eye" d="M339.024,2651.26c0.409,0.106 0.778,0.304 1.083,0.57c1.006,0.876 2.015,1.749 3.028,2.619c0.461,0.396 0.775,1.246 0.167,1.867c-0.625,0.637 -1.252,1.273 -1.881,1.906c-0.627,0.632 -1.57,0.429 -2.05,-0c-1.799,-1.604 -3.586,-3.221 -5.361,-4.849c-0.53,-0.486 -0.816,-1.366 -0.321,-2.153c0.483,-0.768 1.43,-0.977 2.136,-0.793c1.066,0.278 2.133,0.556 3.199,0.833Z" style="fill:#fff;"/>
                            <path id="right-eye47" serif:id="right-eye" d="M334.478,2655.63c0.128,0.4 0.362,0.746 0.66,1.019c1.008,0.924 2.02,1.845 3.035,2.761c0.485,0.438 1.435,0.635 2.071,0c0.641,-0.641 1.28,-1.284 1.917,-1.929c0.617,-0.625 0.317,-1.486 -0.149,-1.891c-1.796,-1.56 -3.581,-3.131 -5.355,-4.714c-0.557,-0.497 -1.485,-0.717 -2.304,-0.27c-0.775,0.424 -1.063,1.302 -0.842,2c0.32,1.009 0.642,2.017 0.967,3.024Z" style="fill:#fff;"/>
                        </g>
                    </g>
                </g>
            </g>
        </g>
        <g id="Enemy">
            <circle id="enemyPos" cx="237.766" cy="2890.87" r="22.5" style="fill:#232323;stroke:#8148c8;stroke-width:4.77px;"/>
            <g>
                <path d="M233.28,2887.33c0.332,0.397 0.513,0.898 0.513,1.416c-0,1.869 -0,6.366 -0,6.366c-0,0.689 -0.56,1.25 -1.25,1.25l-2.5,-0c-0.69,-0 -1.25,-0.561 -1.25,-1.25c-0,-0 -0,-4.606 -0,-8.369c-0,-0.732 0.458,-1.385 1.146,-1.634c0.687,-0.249 1.457,-0.04 1.925,0.522c0.549,0.658 1.059,1.27 1.416,1.699Z" style="fill:#fff;"/>
                <path d="M242.251,2887.33c-0.331,0.397 -0.513,0.898 -0.513,1.416c0,1.869 0,6.366 0,6.366c0,0.689 0.56,1.25 1.25,1.25l2.5,-0c0.69,-0 1.25,-0.561 1.25,-1.25c0,-0 0,-4.606 0,-8.369c0,-0.732 -0.458,-1.385 -1.145,-1.634c-0.688,-0.249 -1.458,-0.04 -1.926,0.522c-0.549,0.658 -1.059,1.27 -1.416,1.699Z" style="fill:#fff;"/>
            </g>
        </g>
        <g id="Enemy1" serif:id="Enemy">
            <circle id="enemyPos1" serif:id="enemyPos" cx="523.099" cy="2732.2" r="22.5" style="fill:#232323;stroke:#8148c8;stroke-width:4.77px;"/>
            <g>
                <path d="M518.614,2728.67c0.331,0.398 0.512,0.899 0.512,1.416c0,1.87 0,6.366 0,6.366c0,0.69 -0.56,1.25 -1.25,1.25l-2.5,-0c-0.69,-0 -1.25,-0.56 -1.25,-1.25l0,-8.369c0,-0.731 0.458,-1.384 1.146,-1.633c0.688,-0.249 1.458,-0.041 1.926,0.521c0.548,0.658 1.058,1.27 1.416,1.699Z" style="fill:#fff;"/>
                <path d="M527.584,2728.67c-0.331,0.398 -0.512,0.899 -0.512,1.416c-0,1.87 -0,6.366 -0,6.366c-0,0.69 0.56,1.25 1.25,1.25l2.5,-0c0.69,-0 1.25,-0.56 1.25,-1.25c-0,-0 -0,-4.606 -0,-8.369c-0,-0.731 -0.458,-1.384 -1.146,-1.633c-0.688,-0.249 -1.458,-0.041 -1.926,0.521c-0.548,0.658 -1.058,1.27 -1.416,1.699Z" style="fill:#fff;"/>
            </g>
        </g>
        <g id="Enemy2" serif:id="Enemy">
            <circle id="enemyPos2" serif:id="enemyPos" cx="525.766" cy="2868.2" r="22.5" style="fill:#232323;stroke:#8148c8;stroke-width:4.77px;"/>
            <g>
                <path d="M521.28,2864.67c0.332,0.398 0.513,0.899 0.513,1.416c-0,1.87 -0,6.366 -0,6.366c-0,0.69 -0.56,1.25 -1.25,1.25l-2.5,-0c-0.69,-0 -1.25,-0.56 -1.25,-1.25c-0,-0 -0,-4.606 -0,-8.369c0,-0.731 0.458,-1.384 1.146,-1.633c0.687,-0.249 1.457,-0.041 1.925,0.521c0.549,0.658 1.059,1.27 1.416,1.699Z" style="fill:#fff;"/>
                <path d="M530.251,2864.67c-0.331,0.398 -0.513,0.899 -0.513,1.416c0,1.87 0,6.366 0,6.366c0,0.69 0.56,1.25 1.25,1.25l2.5,-0c0.69,-0 1.25,-0.56 1.25,-1.25c0,-0 0,-4.606 0,-8.369c0,-0.731 -0.458,-1.384 -1.145,-1.633c-0.688,-0.249 -1.458,-0.041 -1.926,0.521c-0.549,0.658 -1.059,1.27 -1.416,1.699Z" style="fill:#fff;"/>
            </g>
        </g>
        <g id="Enemy3" serif:id="Enemy">
            <circle id="enemyPos3" serif:id="enemyPos" cx="445.766" cy="2646.87" r="22.5" style="fill:#232323;stroke:#8148c8;stroke-width:4.77px;"/>
            <g>
                <path d="M441.28,2643.33c0.332,0.397 0.513,0.898 0.513,1.416c-0,1.869 -0,6.366 -0,6.366c-0,0.689 -0.56,1.25 -1.25,1.25l-2.5,-0c-0.69,-0 -1.25,-0.561 -1.25,-1.25c-0,-0 -0,-4.606 -0,-8.369c0,-0.732 0.458,-1.385 1.146,-1.634c0.687,-0.249 1.457,-0.04 1.925,0.522c0.549,0.658 1.059,1.27 1.416,1.699Z" style="fill:#fff;"/>
                <path d="M450.251,2643.33c-0.331,0.397 -0.513,0.898 -0.513,1.416c0,1.869 0,6.366 0,6.366c0,0.689 0.56,1.25 1.25,1.25l2.5,-0c0.69,-0 1.25,-0.561 1.25,-1.25c0,-0 0,-4.606 0,-8.369c0,-0.732 -0.458,-1.385 -1.145,-1.634c-0.688,-0.249 -1.458,-0.04 -1.926,0.522c-0.549,0.658 -1.059,1.27 -1.416,1.699Z" style="fill:#fff;"/>
            </g>
        </g>
        <g id="Enemy4" serif:id="Enemy">
            <circle id="enemyPos4" serif:id="enemyPos" cx="439.099" cy="2098.87" r="22.5" style="fill:#232323;stroke:#8148c8;stroke-width:4.77px;"/>
            <g>
                <path d="M434.614,2095.33c0.331,0.397 0.512,0.898 0.512,1.416c0,1.869 0,6.366 0,6.366c0,0.689 -0.56,1.25 -1.25,1.25l-2.5,-0c-0.69,-0 -1.25,-0.561 -1.25,-1.25l0,-8.369c0,-0.732 0.458,-1.385 1.146,-1.634c0.688,-0.249 1.458,-0.04 1.926,0.522c0.548,0.658 1.058,1.27 1.416,1.699Z" style="fill:#fff;"/>
                <path d="M443.584,2095.33c-0.331,0.397 -0.512,0.898 -0.512,1.416c-0,1.869 -0,6.366 -0,6.366c-0,0.689 0.56,1.25 1.25,1.25l2.5,-0c0.69,-0 1.25,-0.561 1.25,-1.25c-0,-0 -0,-4.606 -0,-8.369c-0,-0.732 -0.458,-1.385 -1.146,-1.634c-0.688,-0.249 -1.458,-0.04 -1.926,0.522c-0.548,0.658 -1.058,1.27 -1.416,1.699Z" style="fill:#fff;"/>
            </g>
        </g>
        <g id="Enemy5" serif:id="Enemy">
            <circle id="enemyPos5" serif:id="enemyPos" cx="407.099" cy="2048.2" r="22.5" style="fill:#232323;stroke:#8148c8;stroke-width:4.77px;"/>
            <g>
                <path d="M402.614,2044.67c0.331,0.398 0.512,0.899 0.512,1.416c0,1.87 0,6.366 0,6.366c0,0.69 -0.56,1.25 -1.25,1.25l-2.5,-0c-0.69,-0 -1.25,-0.56 -1.25,-1.25c0,-0 0,-4.606 0,-8.369c0,-0.731 0.458,-1.384 1.146,-1.633c0.688,-0.249 1.458,-0.041 1.926,0.521c0.548,0.658 1.058,1.27 1.416,1.699Z" style="fill:#fff;"/>
                <path d="M411.584,2044.67c-0.331,0.398 -0.512,0.899 -0.512,1.416c-0,1.87 -0,6.366 -0,6.366c-0,0.69 0.56,1.25 1.25,1.25l2.5,-0c0.69,-0 1.25,-0.56 1.25,-1.25c-0,-0 -0,-4.606 -0,-8.369c-0,-0.731 -0.458,-1.384 -1.146,-1.633c-0.688,-0.249 -1.458,-0.041 -1.926,0.521c-0.548,0.658 -1.058,1.27 -1.416,1.699Z" style="fill:#fff;"/>
            </g>
        </g>
        <g id="Enemy6" serif:id="Enemy">
            <circle id="enemyPos6" serif:id="enemyPos" cx="304.432" cy="1846.87" r="22.5" style="fill:#232323;stroke:#8148c8;stroke-width:4.77px;"/>
            <g>
                <path d="M299.947,1843.33c0.331,0.397 0.513,0.898 0.513,1.416c-0,1.869 -0,6.366 -0,6.366c-0,0.689 -0.56,1.25 -1.25,1.25l-2.5,-0c-0.69,-0 -1.25,-0.561 -1.25,-1.25l-0,-8.369c-0,-0.732 0.458,-1.385 1.145,-1.634c0.688,-0.249 1.458,-0.04 1.926,0.522c0.549,0.658 1.059,1.27 1.416,1.699Z" style="fill:#fff;"/>
                <path d="M308.918,1843.33c-0.332,0.397 -0.513,0.898 -0.513,1.416c-0,1.869 -0,6.366 -0,6.366c-0,0.689 0.56,1.25 1.25,1.25l2.5,-0c0.69,-0 1.25,-0.561 1.25,-1.25c-0,-0 -0,-4.606 -0,-8.369c-0,-0.732 -0.458,-1.385 -1.146,-1.634c-0.687,-0.249 -1.457,-0.04 -1.925,0.522c-0.549,0.658 -1.059,1.27 -1.416,1.699Z" style="fill:#fff;"/>
            </g>
        </g>
        <g id="Enemy7" serif:id="Enemy">
            <circle id="enemyPos7" serif:id="enemyPos" cx="438" cy="2294.87" r="22.5" style="fill:#232323;stroke:#8148c8;stroke-width:4.77px;"/>
            <g>
                <path d="M433.515,2291.33c0.331,0.397 0.512,0.898 0.512,1.416c0,1.869 0,6.366 0,6.366c0,0.689 -0.56,1.25 -1.25,1.25l-2.5,-0c-0.69,-0 -1.25,-0.561 -1.25,-1.25c0,-0 0,-4.606 0,-8.369c0,-0.732 0.458,-1.385 1.146,-1.634c0.688,-0.249 1.458,-0.04 1.926,0.522c0.548,0.658 1.058,1.27 1.416,1.699Z" style="fill:#fff;"/>
                <path d="M442.485,2291.33c-0.331,0.397 -0.512,0.898 -0.512,1.416c-0,1.869 -0,6.366 -0,6.366c-0,0.689 0.56,1.25 1.25,1.25l2.5,-0c0.69,-0 1.25,-0.561 1.25,-1.25c-0,-0 -0,-4.606 -0,-8.369c-0,-0.732 -0.458,-1.385 -1.146,-1.634c-0.688,-0.249 -1.458,-0.04 -1.926,0.522c-0.548,0.658 -1.058,1.27 -1.416,1.699Z" style="fill:#fff;"/>
            </g>
        </g>
        <g id="Enemy8" serif:id="Enemy">
            <circle id="enemyPos8" serif:id="enemyPos" cx="534" cy="2368.87" r="22.5" style="fill:#232323;stroke:#8148c8;stroke-width:4.77px;"/>
            <g>
                <path d="M529.515,2365.33c0.331,0.397 0.512,0.898 0.512,1.416c0,1.869 0,6.366 0,6.366c0,0.689 -0.56,1.25 -1.25,1.25l-2.5,-0c-0.69,-0 -1.25,-0.561 -1.25,-1.25c0,-0 0,-4.606 0,-8.369c0,-0.732 0.458,-1.385 1.146,-1.634c0.688,-0.249 1.458,-0.04 1.926,0.522c0.548,0.658 1.058,1.27 1.416,1.699Z" style="fill:#fff;"/>
                <path d="M538.485,2365.33c-0.331,0.397 -0.512,0.898 -0.512,1.416l-0,6.366c-0,0.689 0.56,1.25 1.25,1.25l2.5,-0c0.69,-0 1.25,-0.561 1.25,-1.25l-0,-8.369c-0,-0.732 -0.458,-1.385 -1.146,-1.634c-0.688,-0.249 -1.458,-0.04 -1.926,0.522c-0.548,0.658 -1.058,1.27 -1.416,1.699Z" style="fill:#fff;"/>
            </g>
        </g>
        <g id="Enemy9" serif:id="Enemy">
            <circle id="enemyPos9" serif:id="enemyPos" cx="384.766" cy="1417.53" r="22.5" style="fill:#232323;stroke:#8148c8;stroke-width:4.77px;"/>
            <g>
                <path d="M380.28,1414c0.332,0.398 0.513,0.899 0.513,1.416l-0,6.366c-0,0.69 -0.56,1.25 -1.25,1.25l-2.5,0c-0.69,0 -1.25,-0.56 -1.25,-1.25c-0,0 -0,-4.605 -0,-8.369c-0,-0.731 0.458,-1.384 1.146,-1.633c0.687,-0.249 1.457,-0.041 1.925,0.521c0.549,0.659 1.059,1.27 1.416,1.699Z" style="fill:#fff;"/>
                <path d="M389.251,1414c-0.331,0.398 -0.513,0.899 -0.513,1.416c0,1.87 0,6.366 0,6.366c0,0.69 0.56,1.25 1.25,1.25l2.5,0c0.69,0 1.25,-0.56 1.25,-1.25l0,-8.369c0,-0.731 -0.458,-1.384 -1.145,-1.633c-0.688,-0.249 -1.458,-0.041 -1.926,0.521c-0.549,0.659 -1.059,1.27 -1.416,1.699Z" style="fill:#fff;"/>
            </g>
        </g>
        <g id="Enemy10" serif:id="Enemy">
            <circle id="enemyPos10" serif:id="enemyPos" cx="400.766" cy="528.138" r="22.5" style="fill:#232323;stroke:#8148c8;stroke-width:4.77px;"/>
            <g>
                <path d="M396.28,524.606c0.332,0.398 0.513,0.899 0.513,1.416c-0,1.87 -0,6.366 -0,6.366c-0,0.69 -0.56,1.25 -1.25,1.25l-2.5,-0c-0.69,-0 -1.25,-0.56 -1.25,-1.25l-0,-8.369c-0,-0.731 0.458,-1.384 1.146,-1.633c0.687,-0.249 1.457,-0.041 1.925,0.521c0.549,0.658 1.059,1.27 1.416,1.699Z" style="fill:#fff;"/>
                <path d="M405.251,524.606c-0.331,0.398 -0.513,0.899 -0.513,1.416c0,1.87 0,6.366 0,6.366c0,0.69 0.56,1.25 1.25,1.25l2.5,-0c0.69,-0 1.25,-0.56 1.25,-1.25l0,-8.369c0,-0.731 -0.458,-1.384 -1.145,-1.633c-0.688,-0.249 -1.458,-0.041 -1.926,0.521c-0.549,0.658 -1.059,1.27 -1.416,1.699Z" style="fill:#fff;"/>
            </g>
        </g>
        <g id="Enemy11" serif:id="Enemy">
            <circle id="enemyPos11" serif:id="enemyPos" cx="535.432" cy="1474.87" r="22.5" style="fill:#232323;stroke:#8148c8;stroke-width:4.77px;"/>
            <g>
                <path d="M530.947,1471.33c0.331,0.397 0.513,0.898 0.513,1.416c-0,1.869 -0,6.366 -0,6.366c-0,0.689 -0.56,1.25 -1.25,1.25l-2.5,-0c-0.69,-0 -1.25,-0.561 -1.25,-1.25c-0,-0 -0,-4.606 -0,-8.369c-0,-0.732 0.458,-1.385 1.145,-1.634c0.688,-0.249 1.458,-0.04 1.926,0.522c0.549,0.658 1.059,1.27 1.416,1.699Z" style="fill:#fff;"/>
                <path d="M539.918,1471.33c-0.332,0.397 -0.513,0.898 -0.513,1.416c-0,1.869 -0,6.366 -0,6.366c-0,0.689 0.56,1.25 1.25,1.25l2.5,-0c0.69,-0 1.25,-0.561 1.25,-1.25c-0,-0 -0,-4.606 -0,-8.369c-0,-0.732 -0.458,-1.385 -1.146,-1.634c-0.687,-0.249 -1.457,-0.04 -1.925,0.522c-0.549,0.658 -1.059,1.27 -1.416,1.699Z" style="fill:#fff;"/>
            </g>
        </g>
        <g id="Enemy12" serif:id="Enemy">
            <circle id="enemyPos12" serif:id="enemyPos" cx="487.432" cy="1421.53" r="22.5" style="fill:#232323;stroke:#8148c8;stroke-width:4.77px;"/>
            <g>
                <path d="M482.947,1418c0.331,0.398 0.513,0.899 0.513,1.416c-0,1.87 -0,6.366 -0,6.366c-0,0.69 -0.56,1.25 -1.25,1.25l-2.5,0c-0.69,0 -1.25,-0.56 -1.25,-1.25c-0,0 -0,-4.605 -0,-8.369c-0,-0.731 0.458,-1.384 1.145,-1.633c0.688,-0.249 1.458,-0.041 1.926,0.521c0.549,0.659 1.059,1.27 1.416,1.699Z" style="fill:#fff;"/>
                <path d="M491.918,1418c-0.332,0.398 -0.513,0.899 -0.513,1.416c-0,1.87 -0,6.366 -0,6.366c-0,0.69 0.56,1.25 1.25,1.25l2.5,0c0.69,0 1.25,-0.56 1.25,-1.25l-0,-8.369c-0,-0.731 -0.458,-1.384 -1.146,-1.633c-0.687,-0.249 -1.457,-0.041 -1.925,0.521c-0.549,0.659 -1.059,1.27 -1.416,1.699Z" style="fill:#fff;"/>
            </g>
        </g>
        <g id="Enemy13" serif:id="Enemy">
            <circle id="enemyPos13" serif:id="enemyPos" cx="327.766" cy="662.198" r="22.5" style="fill:#232323;stroke:#8148c8;stroke-width:4.77px;"/>
            <g>
                <path d="M323.28,658.666c0.332,0.398 0.513,0.899 0.513,1.416c-0,1.87 -0,6.366 -0,6.366c-0,0.69 -0.56,1.25 -1.25,1.25l-2.5,-0c-0.69,-0 -1.25,-0.56 -1.25,-1.25c-0,-0 -0,-4.606 -0,-8.369c-0,-0.731 0.458,-1.384 1.146,-1.633c0.687,-0.249 1.457,-0.041 1.925,0.521c0.549,0.658 1.059,1.27 1.416,1.699Z" style="fill:#fff;"/>
                <path d="M332.251,658.666c-0.331,0.398 -0.513,0.899 -0.513,1.416c0,1.87 0,6.366 0,6.366c0,0.69 0.56,1.25 1.25,1.25l2.5,-0c0.69,-0 1.25,-0.56 1.25,-1.25c0,-0 0,-4.606 0,-8.369c0,-0.731 -0.458,-1.384 -1.145,-1.633c-0.688,-0.249 -1.458,-0.041 -1.926,0.521c-0.549,0.658 -1.059,1.27 -1.416,1.699Z" style="fill:#fff;"/>
            </g>
        </g>
        <g id="Enemy14" serif:id="Enemy">
            <circle id="enemyPos14" serif:id="enemyPos" cx="356.766" cy="436.198" r="22.5" style="fill:#232323;stroke:#8148c8;stroke-width:4.77px;"/>
            <g>
                <path d="M352.28,432.666c0.332,0.398 0.513,0.899 0.513,1.416l-0,6.366c-0,0.69 -0.56,1.25 -1.25,1.25l-2.5,-0c-0.69,-0 -1.25,-0.56 -1.25,-1.25l-0,-8.369c-0,-0.731 0.458,-1.384 1.146,-1.633c0.687,-0.249 1.457,-0.041 1.925,0.521c0.549,0.658 1.059,1.27 1.416,1.699Z" style="fill:#fff;"/>
                <path d="M361.251,432.666c-0.331,0.398 -0.513,0.899 -0.513,1.416c0,1.87 0,6.366 0,6.366c0,0.69 0.56,1.25 1.25,1.25l2.5,-0c0.69,-0 1.25,-0.56 1.25,-1.25l0,-8.369c0,-0.731 -0.458,-1.384 -1.145,-1.633c-0.688,-0.249 -1.458,-0.041 -1.926,0.521c-0.549,0.658 -1.059,1.27 -1.416,1.699Z" style="fill:#fff;"/>
            </g>
        </g>
        <g id="Enemy15" serif:id="Enemy">
            <circle id="enemyPos15" serif:id="enemyPos" cx="456.766" cy="293.531" r="22.5" style="fill:#232323;stroke:#8148c8;stroke-width:4.77px;"/>
            <g>
                <path d="M452.28,289.999c0.332,0.398 0.513,0.899 0.513,1.416l-0,6.366c-0,0.69 -0.56,1.25 -1.25,1.25l-2.5,0c-0.69,0 -1.25,-0.56 -1.25,-1.25c-0,0 -0,-4.605 -0,-8.369c-0,-0.731 0.458,-1.384 1.146,-1.633c0.687,-0.249 1.457,-0.041 1.925,0.521c0.549,0.659 1.059,1.27 1.416,1.699Z" style="fill:#fff;"/>
                <path d="M461.251,289.999c-0.331,0.398 -0.513,0.899 -0.513,1.416c0,1.87 0,6.366 0,6.366c0,0.69 0.56,1.25 1.25,1.25l2.5,0c0.69,0 1.25,-0.56 1.25,-1.25c0,0 0,-4.605 0,-8.369c0,-0.731 -0.458,-1.384 -1.145,-1.633c-0.688,-0.249 -1.458,-0.041 -1.926,0.521c-0.549,0.659 -1.059,1.27 -1.416,1.699Z" style="fill:#fff;"/>
            </g>
        </g>
        <g id="Enemy16" serif:id="Enemy">
            <circle id="enemyPos16" serif:id="enemyPos" cx="460.766" cy="240.198" r="22.5" style="fill:#232323;stroke:#8148c8;stroke-width:4.77px;"/>
            <g>
                <path d="M456.28,236.666c0.332,0.398 0.513,0.899 0.513,1.416c-0,1.87 -0,6.366 -0,6.366c-0,0.69 -0.56,1.25 -1.25,1.25l-2.5,-0c-0.69,-0 -1.25,-0.56 -1.25,-1.25c-0,-0 -0,-4.606 -0,-8.369c-0,-0.731 0.458,-1.384 1.146,-1.633c0.687,-0.249 1.457,-0.041 1.925,0.521c0.549,0.658 1.059,1.27 1.416,1.699Z" style="fill:#fff;"/>
                <path d="M465.251,236.666c-0.331,0.398 -0.513,0.899 -0.513,1.416c0,1.87 0,6.366 0,6.366c0,0.69 0.56,1.25 1.25,1.25l2.5,-0c0.69,-0 1.25,-0.56 1.25,-1.25c0,-0 0,-4.606 0,-8.369c0,-0.731 -0.458,-1.384 -1.145,-1.633c-0.688,-0.249 -1.458,-0.041 -1.926,0.521c-0.549,0.658 -1.059,1.27 -1.416,1.699Z" style="fill:#fff;"/>
            </g>
        </g>
        <g id="Enemy17" serif:id="Enemy">
            <circle id="enemyPos17" serif:id="enemyPos" cx="408.766" cy="205.531" r="22.5" style="fill:#232323;stroke:#8148c8;stroke-width:4.77px;"/>
            <g>
                <path d="M404.28,201.999c0.332,0.398 0.513,0.899 0.513,1.416c-0,1.87 -0,6.366 -0,6.366c-0,0.69 -0.56,1.25 -1.25,1.25l-2.5,0c-0.69,0 -1.25,-0.56 -1.25,-1.25l-0,-8.369c-0,-0.731 0.458,-1.384 1.146,-1.633c0.687,-0.249 1.457,-0.041 1.925,0.521c0.549,0.659 1.059,1.27 1.416,1.699Z" style="fill:#fff;"/>
                <path d="M413.251,201.999c-0.331,0.398 -0.513,0.899 -0.513,1.416c0,1.87 0,6.366 0,6.366c0,0.69 0.56,1.25 1.25,1.25l2.5,0c0.69,0 1.25,-0.56 1.25,-1.25c0,0 0,-4.605 0,-8.369c0,-0.731 -0.458,-1.384 -1.145,-1.633c-0.688,-0.249 -1.458,-0.041 -1.926,0.521c-0.549,0.659 -1.059,1.27 -1.416,1.699Z" style="fill:#fff;"/>
            </g>
        </g>
        <g id="Enemy18" serif:id="Enemy">
            <circle id="enemyPos18" serif:id="enemyPos" cx="351.432" cy="234.865" r="22.5" style="fill:#232323;stroke:#8148c8;stroke-width:4.77px;"/>
            <g>
                <path d="M346.947,231.333c0.331,0.397 0.513,0.898 0.513,1.416c-0,1.869 -0,6.366 -0,6.366c-0,0.689 -0.56,1.25 -1.25,1.25l-2.5,-0c-0.69,-0 -1.25,-0.561 -1.25,-1.25c-0,-0 -0,-4.606 -0,-8.369c-0,-0.732 0.458,-1.385 1.145,-1.634c0.688,-0.249 1.458,-0.04 1.926,0.522c0.549,0.658 1.059,1.27 1.416,1.699Z" style="fill:#fff;"/>
                <path d="M355.918,231.333c-0.332,0.397 -0.513,0.898 -0.513,1.416c-0,1.869 -0,6.366 -0,6.366c-0,0.689 0.56,1.25 1.25,1.25l2.5,-0c0.69,-0 1.25,-0.561 1.25,-1.25l-0,-8.369c-0,-0.732 -0.458,-1.385 -1.146,-1.634c-0.687,-0.249 -1.457,-0.04 -1.925,0.522c-0.549,0.658 -1.059,1.27 -1.416,1.699Z" style="fill:#fff;"/>
            </g>
        </g>
        <g id="Enemy19" serif:id="Enemy">
            <circle id="enemyPos19" serif:id="enemyPos" cx="352.766" cy="292.198" r="22.5" style="fill:#232323;stroke:#8148c8;stroke-width:4.77px;"/>
            <g>
                <path d="M348.28,288.666c0.332,0.398 0.513,0.899 0.513,1.416c-0,1.87 -0,6.366 -0,6.366c-0,0.69 -0.56,1.25 -1.25,1.25l-2.5,-0c-0.69,-0 -1.25,-0.56 -1.25,-1.25c-0,-0 -0,-4.606 -0,-8.369c-0,-0.731 0.458,-1.384 1.146,-1.633c0.687,-0.249 1.457,-0.041 1.925,0.521c0.549,0.658 1.059,1.27 1.416,1.699Z" style="fill:#fff;"/>
                <path d="M357.251,288.666c-0.331,0.398 -0.513,0.899 -0.513,1.416c0,1.87 0,6.366 0,6.366c0,0.69 0.56,1.25 1.25,1.25l2.5,-0c0.69,-0 1.25,-0.56 1.25,-1.25l0,-8.369c0,-0.731 -0.458,-1.384 -1.145,-1.633c-0.688,-0.249 -1.458,-0.041 -1.926,0.521c-0.549,0.658 -1.059,1.27 -1.416,1.699Z" style="fill:#fff;"/>
            </g>
        </g>
        <g id="Enemy20" serif:id="Enemy">
            <circle id="enemyPos20" serif:id="enemyPos" cx="407.432" cy="326.865" r="22.5" style="fill:#232323;stroke:#8148c8;stroke-width:4.77px;"/>
            <g>
                <path d="M402.947,323.333c0.331,0.397 0.513,0.898 0.513,1.416c-0,1.869 -0,6.366 -0,6.366c-0,0.689 -0.56,1.25 -1.25,1.25l-2.5,-0c-0.69,-0 -1.25,-0.561 -1.25,-1.25c-0,-0 -0,-4.606 -0,-8.369c-0,-0.732 0.458,-1.385 1.145,-1.634c0.688,-0.249 1.458,-0.04 1.926,0.522c0.549,0.658 1.059,1.27 1.416,1.699Z" style="fill:#fff;"/>
                <path d="M411.918,323.333c-0.332,0.397 -0.513,0.898 -0.513,1.416c-0,1.869 -0,6.366 -0,6.366c-0,0.689 0.56,1.25 1.25,1.25l2.5,-0c0.69,-0 1.25,-0.561 1.25,-1.25l-0,-8.369c-0,-0.732 -0.458,-1.385 -1.146,-1.634c-0.687,-0.249 -1.457,-0.04 -1.925,0.522c-0.549,0.658 -1.059,1.27 -1.416,1.699Z" style="fill:#fff;"/>
            </g>
        </g>
        <g id="Enemy21" serif:id="Enemy">
            <circle id="enemyPos21" serif:id="enemyPos" cx="372.766" cy="938.865" r="22.5" style="fill:#232323;stroke:#8148c8;stroke-width:4.77px;"/>
            <g>
                <path d="M368.28,935.333c0.332,0.397 0.513,0.898 0.513,1.416l-0,6.366c-0,0.689 -0.56,1.25 -1.25,1.25l-2.5,-0c-0.69,-0 -1.25,-0.561 -1.25,-1.25l-0,-8.369c-0,-0.732 0.458,-1.385 1.146,-1.634c0.687,-0.249 1.457,-0.04 1.925,0.522c0.549,0.658 1.059,1.27 1.416,1.699Z" style="fill:#fff;"/>
                <path d="M377.251,935.333c-0.331,0.397 -0.513,0.898 -0.513,1.416c0,1.869 0,6.366 0,6.366c0,0.689 0.56,1.25 1.25,1.25l2.5,-0c0.69,-0 1.25,-0.561 1.25,-1.25c0,-0 0,-4.606 0,-8.369c0,-0.732 -0.458,-1.385 -1.145,-1.634c-0.688,-0.249 -1.458,-0.04 -1.926,0.522c-0.549,0.658 -1.059,1.27 -1.416,1.699Z" style="fill:#fff;"/>
            </g>
        </g>
        <g id="Enemy22" serif:id="Enemy">
            <circle id="enemyPos22" serif:id="enemyPos" cx="503.432" cy="532.138" r="22.5" style="fill:#232323;stroke:#8148c8;stroke-width:4.77px;"/>
            <g>
                <path d="M498.947,528.606c0.331,0.398 0.513,0.899 0.513,1.416c-0,1.87 -0,6.366 -0,6.366c-0,0.69 -0.56,1.25 -1.25,1.25l-2.5,-0c-0.69,-0 -1.25,-0.56 -1.25,-1.25c-0,-0 -0,-4.606 -0,-8.369c-0,-0.731 0.458,-1.384 1.145,-1.633c0.688,-0.249 1.458,-0.041 1.926,0.521c0.549,0.658 1.059,1.27 1.416,1.699Z" style="fill:#fff;"/>
                <path d="M507.918,528.606c-0.332,0.398 -0.513,0.899 -0.513,1.416c-0,1.87 -0,6.366 -0,6.366c-0,0.69 0.56,1.25 1.25,1.25l2.5,-0c0.69,-0 1.25,-0.56 1.25,-1.25l-0,-8.369c-0,-0.731 -0.458,-1.384 -1.146,-1.633c-0.687,-0.249 -1.457,-0.041 -1.925,0.521c-0.549,0.658 -1.059,1.27 -1.416,1.699Z" style="fill:#fff;"/>
            </g>
        </g>
        <g id="Enemy23" serif:id="Enemy">
            <circle id="enemyPos23" serif:id="enemyPos" cx="595.432" cy="609.471" r="22.5" style="fill:#232323;stroke:#8148c8;stroke-width:4.77px;"/>
            <g>
                <path d="M590.947,605.939c0.331,0.398 0.513,0.899 0.513,1.416c-0,1.87 -0,6.366 -0,6.366c-0,0.69 -0.56,1.25 -1.25,1.25l-2.5,0c-0.69,0 -1.25,-0.56 -1.25,-1.25c-0,0 -0,-4.605 -0,-8.369c-0,-0.731 0.458,-1.384 1.145,-1.633c0.688,-0.249 1.458,-0.041 1.926,0.521c0.549,0.659 1.059,1.27 1.416,1.699Z" style="fill:#fff;"/>
                <path d="M599.918,605.939c-0.332,0.398 -0.513,0.899 -0.513,1.416c-0,1.87 -0,6.366 -0,6.366c-0,0.69 0.56,1.25 1.25,1.25l2.5,0c0.69,0 1.25,-0.56 1.25,-1.25c-0,0 -0,-4.605 -0,-8.369c-0,-0.731 -0.458,-1.384 -1.146,-1.633c-0.687,-0.249 -1.457,-0.041 -1.925,0.521c-0.549,0.659 -1.059,1.27 -1.416,1.699Z" style="fill:#fff;"/>
            </g>
        </g>
        <g id="Enemy24" serif:id="Enemy">
            <circle id="enemyPos24" serif:id="enemyPos" cx="522.099" cy="1576.2" r="22.5" style="fill:#232323;stroke:#8148c8;stroke-width:4.77px;"/>
            <g>
                <path d="M517.614,1572.67c0.331,0.398 0.512,0.899 0.512,1.416c0,1.87 0,6.366 0,6.366c0,0.69 -0.56,1.25 -1.25,1.25l-2.5,-0c-0.69,-0 -1.25,-0.56 -1.25,-1.25l0,-8.369c0,-0.731 0.458,-1.384 1.146,-1.633c0.688,-0.249 1.458,-0.041 1.926,0.521c0.548,0.658 1.058,1.27 1.416,1.699Z" style="fill:#fff;"/>
                <path d="M526.584,1572.67c-0.331,0.398 -0.512,0.899 -0.512,1.416c-0,1.87 -0,6.366 -0,6.366c-0,0.69 0.56,1.25 1.25,1.25l2.5,-0c0.689,-0 1.25,-0.56 1.25,-1.25l-0,-8.369c-0,-0.731 -0.458,-1.384 -1.146,-1.633c-0.688,-0.249 -1.458,-0.041 -1.926,0.521c-0.548,0.658 -1.058,1.27 -1.416,1.699Z" style="fill:#fff;"/>
            </g>
        </g>
        <g id="Enemy25" serif:id="Enemy">
            <circle id="enemyPos25" serif:id="enemyPos" cx="538.099" cy="686.805" r="22.5" style="fill:#232323;stroke:#8148c8;stroke-width:4.77px;"/>
            <g>
                <path d="M533.614,683.273c0.331,0.397 0.512,0.898 0.512,1.416c0,1.869 0,6.366 0,6.366c0,0.689 -0.56,1.25 -1.25,1.25l-2.5,-0c-0.69,-0 -1.25,-0.561 -1.25,-1.25c0,-0 0,-4.606 0,-8.369c0,-0.732 0.458,-1.385 1.146,-1.634c0.688,-0.249 1.458,-0.04 1.926,0.522c0.548,0.658 1.058,1.27 1.416,1.699Z" style="fill:#fff;"/>
                <path d="M542.584,683.273c-0.331,0.397 -0.512,0.898 -0.512,1.416c-0,1.869 -0,6.366 -0,6.366c-0,0.689 0.56,1.25 1.25,1.25l2.5,-0c0.689,-0 1.25,-0.561 1.25,-1.25l-0,-8.369c-0,-0.732 -0.458,-1.385 -1.146,-1.634c-0.688,-0.249 -1.458,-0.04 -1.926,0.522c-0.548,0.658 -1.058,1.27 -1.416,1.699Z" style="fill:#fff;"/>
            </g>
        </g>
        <g id="Enemy26" serif:id="Enemy">
            <circle id="enemyPos26" serif:id="enemyPos" cx="527.432" cy="1877.53" r="22.5" style="fill:#232323;stroke:#8148c8;stroke-width:4.77px;"/>
            <g>
                <path d="M522.947,1874c0.331,0.398 0.513,0.899 0.513,1.416l-0,6.366c-0,0.69 -0.56,1.25 -1.25,1.25l-2.5,0c-0.69,0 -1.25,-0.56 -1.25,-1.25c-0,0 -0,-4.605 -0,-8.369c-0,-0.731 0.458,-1.384 1.145,-1.633c0.688,-0.249 1.458,-0.041 1.926,0.521c0.549,0.659 1.059,1.27 1.416,1.699Z" style="fill:#fff;"/>
                <path d="M531.918,1874c-0.332,0.398 -0.513,0.899 -0.513,1.416c-0,1.87 -0,6.366 -0,6.366c-0,0.69 0.56,1.25 1.25,1.25l2.5,0c0.69,0 1.25,-0.56 1.25,-1.25c-0,0 -0,-4.605 -0,-8.369c-0,-0.731 -0.458,-1.384 -1.146,-1.633c-0.687,-0.249 -1.457,-0.041 -1.925,0.521c-0.549,0.659 -1.059,1.27 -1.416,1.699Z" style="fill:#fff;"/>
            </g>
        </g>
        <g id="Enemy27" serif:id="Enemy">
            <circle id="enemyPos27" serif:id="enemyPos" cx="438" cy="2222.03" r="22.5" style="fill:#232323;stroke:#8148c8;stroke-width:4.77px;"/>
            <g>
                <path d="M433.515,2218.5c0.331,0.398 0.512,0.899 0.512,1.416c0,1.87 0,6.366 0,6.366c0,0.69 -0.56,1.25 -1.25,1.25l-2.5,0c-0.69,0 -1.25,-0.56 -1.25,-1.25l0,-8.369c0,-0.731 0.458,-1.384 1.146,-1.633c0.688,-0.249 1.458,-0.041 1.926,0.521c0.548,0.659 1.058,1.27 1.416,1.699Z" style="fill:#fff;"/>
                <path d="M442.485,2218.5c-0.331,0.398 -0.512,0.899 -0.512,1.416c-0,1.87 -0,6.366 -0,6.366c-0,0.69 0.56,1.25 1.25,1.25l2.5,0c0.69,0 1.25,-0.56 1.25,-1.25l-0,-8.369c-0,-0.731 -0.458,-1.384 -1.146,-1.633c-0.688,-0.249 -1.458,-0.041 -1.926,0.521c-0.548,0.659 -1.058,1.27 -1.416,1.699Z" style="fill:#fff;"/>
            </g>
        </g>
        <g id="Enemy28" serif:id="Enemy">
            <circle id="enemyPos28" serif:id="enemyPos" cx="325.766" cy="1417.53" r="22.5" style="fill:#232323;stroke:#8148c8;stroke-width:4.77px;"/>
            <g>
                <path d="M321.28,1414c0.332,0.398 0.513,0.899 0.513,1.416c-0,1.87 -0,6.366 -0,6.366c-0,0.69 -0.56,1.25 -1.25,1.25l-2.5,0c-0.69,0 -1.25,-0.56 -1.25,-1.25l-0,-8.369c0,-0.731 0.458,-1.384 1.146,-1.633c0.687,-0.249 1.457,-0.041 1.925,0.521c0.549,0.659 1.059,1.27 1.416,1.699Z" style="fill:#fff;"/>
                <path d="M330.251,1414c-0.331,0.398 -0.513,0.899 -0.513,1.416c0,1.87 0,6.366 0,6.366c0,0.69 0.56,1.25 1.25,1.25l2.5,0c0.69,0 1.25,-0.56 1.25,-1.25c0,0 0,-4.605 0,-8.369c0,-0.731 -0.458,-1.384 -1.145,-1.633c-0.688,-0.249 -1.458,-0.041 -1.926,0.521c-0.549,0.659 -1.059,1.27 -1.416,1.699Z" style="fill:#fff;"/>
            </g>
        </g>
        <g id="Enemy29" serif:id="Enemy">
            <circle id="enemyPos29" serif:id="enemyPos" cx="247.099" cy="1012.2" r="22.5" style="fill:#232323;stroke:#8148c8;stroke-width:4.77px;"/>
            <g>
                <path d="M242.614,1008.67c0.331,0.398 0.512,0.899 0.512,1.416c0,1.87 0,6.366 0,6.366c0,0.69 -0.56,1.25 -1.25,1.25l-2.5,-0c-0.69,-0 -1.25,-0.56 -1.25,-1.25c0,-0 0,-4.606 0,-8.369c0,-0.731 0.458,-1.384 1.146,-1.633c0.688,-0.249 1.458,-0.041 1.926,0.521c0.548,0.658 1.058,1.27 1.416,1.699Z" style="fill:#fff;"/>
                <path d="M251.584,1008.67c-0.331,0.398 -0.512,0.899 -0.512,1.416c-0,1.87 -0,6.366 -0,6.366c-0,0.69 0.56,1.25 1.25,1.25l2.5,-0c0.69,-0 1.25,-0.56 1.25,-1.25c-0,-0 -0,-4.606 -0,-8.369c-0,-0.731 -0.458,-1.384 -1.146,-1.633c-0.688,-0.249 -1.458,-0.041 -1.926,0.521c-0.548,0.658 -1.058,1.27 -1.416,1.699Z" style="fill:#fff;"/>
            </g>
        </g>
        <g id="Enemy30" serif:id="Enemy">
            <circle id="enemyPos30" serif:id="enemyPos" cx="341.766" cy="528.138" r="22.5" style="fill:#232323;stroke:#8148c8;stroke-width:4.77px;"/>
            <g>
                <path d="M337.28,524.606c0.332,0.398 0.513,0.899 0.513,1.416l-0,6.366c-0,0.69 -0.56,1.25 -1.25,1.25l-2.5,-0c-0.69,-0 -1.25,-0.56 -1.25,-1.25l-0,-8.369c0,-0.731 0.458,-1.384 1.146,-1.633c0.687,-0.249 1.457,-0.041 1.925,0.521c0.549,0.658 1.059,1.27 1.416,1.699Z" style="fill:#fff;"/>
                <path d="M346.251,524.606c-0.331,0.398 -0.513,0.899 -0.513,1.416c0,1.87 0,6.366 0,6.366c0,0.69 0.56,1.25 1.25,1.25l2.5,-0c0.69,-0 1.25,-0.56 1.25,-1.25l0,-8.369c0,-0.731 -0.458,-1.384 -1.145,-1.633c-0.688,-0.249 -1.458,-0.041 -1.926,0.521c-0.549,0.658 -1.059,1.27 -1.416,1.699Z" style="fill:#fff;"/>
            </g>
        </g>
        <g id="Enemy31" serif:id="Enemy">
            <circle id="enemyPos31" serif:id="enemyPos" cx="223.099" cy="217.698" r="22.5" style="fill:#232323;stroke:#8148c8;stroke-width:4.77px;"/>
            <g>
                <path d="M218.614,214.166c0.331,0.398 0.512,0.899 0.512,1.416l0,6.366c0,0.69 -0.56,1.25 -1.25,1.25l-2.5,-0c-0.69,-0 -1.25,-0.56 -1.25,-1.25l0,-8.369c0,-0.731 0.458,-1.384 1.146,-1.633c0.688,-0.249 1.458,-0.041 1.926,0.521c0.548,0.658 1.058,1.27 1.416,1.699Z" style="fill:#fff;"/>
                <path d="M227.584,214.166c-0.331,0.398 -0.512,0.899 -0.512,1.416c-0,1.87 -0,6.366 -0,6.366c-0,0.69 0.56,1.25 1.25,1.25l2.5,-0c0.69,-0 1.25,-0.56 1.25,-1.25c-0,-0 -0,-4.606 -0,-8.369c-0,-0.731 -0.458,-1.384 -1.146,-1.633c-0.688,-0.249 -1.458,-0.041 -1.926,0.521c-0.548,0.658 -1.058,1.27 -1.416,1.699Z" style="fill:#fff;"/>
            </g>
        </g>
        <g id="Enemy32" serif:id="Enemy">
            <circle id="enemyPos32" serif:id="enemyPos" cx="463.099" cy="1576.2" r="22.5" style="fill:#232323;stroke:#8148c8;stroke-width:4.77px;"/>
            <g>
                <path d="M458.614,1572.67c0.331,0.398 0.512,0.899 0.512,1.416c0,1.87 0,6.366 0,6.366c0,0.69 -0.56,1.25 -1.25,1.25l-2.5,-0c-0.69,-0 -1.25,-0.56 -1.25,-1.25c0,-0 0,-4.606 0,-8.369c0,-0.731 0.458,-1.384 1.146,-1.633c0.688,-0.249 1.458,-0.041 1.926,0.521c0.548,0.658 1.058,1.27 1.416,1.699Z" style="fill:#fff;"/>
                <path d="M467.584,1572.67c-0.331,0.398 -0.512,0.899 -0.512,1.416c-0,1.87 -0,6.366 -0,6.366c-0,0.69 0.56,1.25 1.25,1.25l2.5,-0c0.69,-0 1.25,-0.56 1.25,-1.25l-0,-8.369c-0,-0.731 -0.458,-1.384 -1.146,-1.633c-0.688,-0.249 -1.458,-0.041 -1.926,0.521c-0.548,0.658 -1.058,1.27 -1.416,1.699Z" style="fill:#fff;"/>
            </g>
        </g>
        <g id="Enemy33" serif:id="Enemy">
            <circle id="enemyPos33" serif:id="enemyPos" cx="479.099" cy="686.805" r="22.5" style="fill:#232323;stroke:#8148c8;stroke-width:4.77px;"/>
            <g>
                <path d="M474.614,683.273c0.331,0.397 0.512,0.898 0.512,1.416l0,6.366c0,0.689 -0.56,1.25 -1.25,1.25l-2.5,-0c-0.69,-0 -1.25,-0.561 -1.25,-1.25l0,-8.369c0,-0.732 0.458,-1.385 1.146,-1.634c0.688,-0.249 1.458,-0.04 1.926,0.522c0.548,0.658 1.058,1.27 1.416,1.699Z" style="fill:#fff;"/>
                <path d="M483.584,683.273c-0.331,0.397 -0.512,0.898 -0.512,1.416c-0,1.869 -0,6.366 -0,6.366c-0,0.689 0.56,1.25 1.25,1.25l2.5,-0c0.69,-0 1.25,-0.561 1.25,-1.25c-0,-0 -0,-4.606 -0,-8.369c-0,-0.732 -0.458,-1.385 -1.146,-1.634c-0.688,-0.249 -1.458,-0.04 -1.926,0.522c-0.548,0.658 -1.058,1.27 -1.416,1.699Z" style="fill:#fff;"/>
            </g>
        </g>
        <g id="Enemy34" serif:id="Enemy">
            <circle id="enemyPos34" serif:id="enemyPos" cx="468.432" cy="1877.53" r="22.5" style="fill:#232323;stroke:#8148c8;stroke-width:4.77px;"/>
            <g>
                <path d="M463.947,1874c0.331,0.398 0.513,0.899 0.513,1.416l-0,6.366c-0,0.69 -0.56,1.25 -1.25,1.25l-2.5,0c-0.69,0 -1.25,-0.56 -1.25,-1.25l-0,-8.369c-0,-0.731 0.458,-1.384 1.145,-1.633c0.688,-0.249 1.458,-0.041 1.926,0.521c0.549,0.659 1.059,1.27 1.416,1.699Z" style="fill:#fff;"/>
                <path d="M472.918,1874c-0.332,0.398 -0.513,0.899 -0.513,1.416c-0,1.87 -0,6.366 -0,6.366c-0,0.69 0.56,1.25 1.25,1.25l2.5,0c0.69,0 1.25,-0.56 1.25,-1.25c-0,0 -0,-4.605 -0,-8.369c-0,-0.731 -0.458,-1.384 -1.146,-1.633c-0.687,-0.249 -1.457,-0.041 -1.925,0.521c-0.549,0.659 -1.059,1.27 -1.416,1.699Z" style="fill:#fff;"/>
            </g>
        </g>
        <g id="Enemy35" serif:id="Enemy">
            <circle id="enemyPos35" serif:id="enemyPos" cx="232.432" cy="1721.53" r="22.5" style="fill:#232323;stroke:#8148c8;stroke-width:4.77px;"/>
            <g>
                <path d="M227.947,1718c0.331,0.398 0.513,0.899 0.513,1.416l-0,6.366c-0,0.69 -0.56,1.25 -1.25,1.25l-2.5,0c-0.69,0 -1.25,-0.56 -1.25,-1.25l-0,-8.369c-0,-0.731 0.458,-1.384 1.145,-1.633c0.688,-0.249 1.458,-0.041 1.926,0.521c0.549,0.659 1.059,1.27 1.416,1.699Z" style="fill:#fff;"/>
                <path d="M236.918,1718c-0.332,0.398 -0.513,0.899 -0.513,1.416c-0,1.87 -0,6.366 -0,6.366c-0,0.69 0.56,1.25 1.25,1.25l2.5,0c0.69,0 1.25,-0.56 1.25,-1.25l-0,-8.369c-0,-0.731 -0.458,-1.384 -1.146,-1.633c-0.687,-0.249 -1.457,-0.041 -1.925,0.521c-0.549,0.659 -1.059,1.27 -1.416,1.699Z" style="fill:#fff;"/>
            </g>
        </g>
        <g id="Enemy36" serif:id="Enemy">
            <circle id="enemyPos36" serif:id="enemyPos" cx="229.766" cy="1500.2" r="22.5" style="fill:#232323;stroke:#8148c8;stroke-width:4.77px;"/>
            <g>
                <path d="M225.28,1496.67c0.332,0.398 0.513,0.899 0.513,1.416c-0,1.87 -0,6.366 -0,6.366c-0,0.69 -0.56,1.25 -1.25,1.25l-2.5,-0c-0.69,-0 -1.25,-0.56 -1.25,-1.25l-0,-8.369c0,-0.731 0.458,-1.384 1.146,-1.633c0.687,-0.249 1.457,-0.041 1.925,0.521c0.549,0.658 1.059,1.27 1.416,1.699Z" style="fill:#fff;"/>
                <path d="M234.251,1496.67c-0.331,0.398 -0.513,0.899 -0.513,1.416c0,1.87 0,6.366 0,6.366c0,0.69 0.56,1.25 1.25,1.25l2.5,-0c0.69,-0 1.25,-0.56 1.25,-1.25c0,-0 0,-4.606 0,-8.369c0,-0.731 -0.458,-1.384 -1.145,-1.633c-0.688,-0.249 -1.458,-0.041 -1.926,0.521c-0.549,0.658 -1.059,1.27 -1.416,1.699Z" style="fill:#fff;"/>
            </g>
        </g>
        <path id="_-collision-2" serif:id="{collision}" d="M539.591,1739.9c7.757,7.96 10.47,12.871 10.47,12.871c9.3,14.314 13.954,31.779 12.067,50.064c-2.108,20.42 -14.309,1.927 -12.873,-11.991c2.99,-28.965 -18.098,-54.908 -47.062,-57.898c-13.919,-1.436 -29.529,-17.158 -9.109,-15.05c18.267,1.886 34.399,9.995 46.507,22.004c1.975,1.958 6.311,6.486 10.47,12.871" style="fill:#a10745;stroke:#a10745;stroke-width:25.03px;"/>
        <path id="_-collision-3" serif:id="{collision}" d="M208.44,392.773c7.028,-8.611 11.6,-11.863 11.6,-11.863c13.165,-10.866 29.988,-17.473 48.37,-17.673c20.527,-0.225 3.539,13.997 -10.453,14.15c-29.116,0.318 -52.497,24.215 -52.179,53.332c0.153,13.991 -13.695,31.286 -13.919,10.759c-0.2,-18.364 6.025,-35.312 16.581,-48.705c1.722,-2.184 5.728,-7.006 11.6,-11.863" style="fill:#a10745;stroke:#a10745;stroke-width:25.03px;"/>
        <circle id="_-collisionCircle-" serif:id="{collisionCircle}" cx="525.072" cy="2942.99" r="26" style="fill:#a10745;stroke:#a10745;stroke-width:25.03px;"/>
    </g>
</svg>
